<?xml version="1.0" standalone="no"?>
<!DOCTYPE svg PUBLIC "-//W3C//DTD SVG 20010904//EN"
 "http://www.w3.org/TR/2001/REC-SVG-20010904/DTD/svg10.dtd">
<svg version="1.0" xmlns="http://www.w3.org/2000/svg"
 width="512.000000pt" height="512.000000pt" viewBox="0 0 512.000000 512.000000"
 preserveAspectRatio="xMidYMid meet">
<metadata>
Created by potrace 1.14, written by Peter Selinger 2001-2017
</metadata>
<g transform="translate(0.000000,512.000000) scale(0.100000,-0.100000)"
fill="#000000" stroke="none">
<path d="M2496 5108 c3 -4 -4 -8 -15 -8 -11 0 -23 -4 -26 -10 -3 -5 -15 -10
-26 -10 -11 0 -17 -4 -14 -10 3 -5 1 -10 -5 -10 -17 0 -80 -67 -80 -85 0 -9
-4 -13 -10 -10 -6 4 -10 -5 -10 -19 0 -14 -4 -26 -10 -26 -5 0 -9 -3 -9 -7 4
-26 -2 -135 -7 -130 -4 3 -13 -1 -21 -9 -8 -8 -19 -11 -25 -8 -7 4 -8 2 -4 -4
4 -7 1 -12 -8 -12 -8 0 -16 -5 -18 -10 -2 -6 -13 -12 -26 -13 -12 0 -22 -5
-22 -9 0 -4 -7 -8 -16 -8 -8 0 -12 -5 -9 -10 4 -6 3 -9 -2 -8 -12 4 -73 -25
-73 -34 0 -5 -7 -8 -16 -8 -8 0 -12 -5 -9 -10 4 -6 3 -10 -2 -9 -22 4 -41 -3
-61 -21 -12 -11 -26 -20 -32 -20 -6 0 -18 -7 -27 -15 -8 -8 -19 -12 -25 -9 -7
4 -8 2 -4 -4 4 -7 1 -12 -8 -12 -9 0 -16 -4 -16 -10 0 -5 -9 -10 -20 -10 -11
0 -20 -4 -20 -10 0 -5 -9 -10 -20 -10 -11 0 -20 -4 -20 -10 0 -5 -7 -10 -16
-10 -8 0 -12 -5 -9 -10 4 -6 3 -10 -2 -9 -22 4 -43 -2 -38 -11 3 -5 -3 -10
-14 -10 -12 0 -21 -4 -21 -10 0 -5 -9 -10 -21 -10 -11 0 -17 -4 -14 -10 3 -5
-3 -10 -15 -10 -12 0 -18 -4 -15 -10 3 -5 0 -7 -8 -4 -8 3 -21 -2 -30 -10 -9
-9 -23 -16 -31 -16 -9 0 -16 -4 -16 -10 0 -5 -9 -10 -21 -10 -11 0 -17 -4 -14
-10 3 -5 -3 -10 -15 -10 -12 0 -18 -4 -15 -10 3 -5 -3 -10 -14 -10 -12 0 -21
-4 -21 -10 0 -5 -9 -10 -20 -10 -11 0 -20 -4 -20 -10 0 -5 -10 -10 -22 -10
-19 0 -20 -2 -8 -10 12 -8 11 -10 -7 -10 -13 0 -23 -4 -23 -10 0 -5 -9 -10
-20 -10 -11 0 -20 -4 -20 -10 0 -5 -9 -10 -20 -10 -11 0 -20 -4 -20 -10 0 -5
-6 -10 -14 -10 -8 0 -24 -11 -37 -25 -13 -13 -30 -25 -36 -25 -7 0 -13 -4 -13
-10 0 -5 -7 -10 -16 -10 -8 0 -12 -5 -9 -10 4 -6 3 -10 -2 -9 -4 1 -19 1 -33
0 -20 -1 -22 -3 -10 -11 12 -8 9 -10 -13 -10 -16 0 -26 -4 -22 -10 3 -5 -3
-10 -15 -10 -12 0 -18 -4 -15 -10 4 -6 -7 -10 -24 -10 -17 0 -31 -4 -31 -10 0
-5 -7 -10 -16 -10 -8 0 -12 -4 -9 -10 4 -6 -5 -10 -20 -10 -15 0 -24 -4 -20
-10 3 -6 -3 -10 -14 -10 -12 0 -21 -4 -21 -10 0 -5 -9 -10 -19 -10 -11 0 -22
-6 -25 -12 -5 -10 -7 -10 -12 0 -3 6 -13 12 -23 12 -9 0 -21 4 -27 10 -5 5
-18 11 -29 13 -11 1 -26 7 -34 11 -10 7 -12 5 -6 -5 6 -11 5 -12 -6 -1 -16 15
-54 16 -81 1 -11 -6 -18 -7 -15 -2 4 5 0 10 -8 10 -8 0 -12 -4 -9 -9 3 -4 -9
-8 -26 -8 -18 0 -29 -4 -25 -10 3 -5 -1 -10 -10 -10 -9 0 -23 -7 -32 -15 -8
-8 -19 -12 -25 -9 -6 4 -9 3 -6 -2 2 -5 -7 -20 -20 -34 -14 -14 -22 -18 -18
-10 4 8 -2 4 -13 -10 -11 -14 -21 -31 -21 -38 0 -7 -4 -10 -10 -7 -6 4 -10 -6
-10 -23 0 -16 -3 -32 -7 -36 -9 -9 -12 -146 -3 -146 3 0 7 -14 8 -32 2 -18 6
-35 10 -38 15 -11 37 -44 25 -36 -7 4 -13 4 -13 1 0 -9 27 -35 35 -35 4 0 20
-13 35 -30 15 -17 33 -30 40 -30 36 0 57 -98 28 -129 -11 -11 -10 -12 0 -6 11
6 13 -2 11 -36 -1 -24 -7 -50 -13 -58 -8 -11 -8 -13 1 -7 17 10 17 -16 1 -33
-11 -11 -10 -12 0 -6 11 5 13 -1 11 -26 -2 -19 -8 -40 -13 -48 -8 -11 -8 -13
2 -7 16 10 16 -16 0 -33 -11 -11 -10 -12 0 -6 11 5 13 -1 11 -26 -2 -19 -8
-40 -13 -48 -8 -11 -8 -13 2 -7 16 10 16 -16 0 -33 -10 -11 -10 -13 0 -7 16
10 16 -35 0 -53 -10 -11 -10 -13 -1 -7 17 9 17 -16 1 -33 -10 -11 -10 -13 0
-7 16 9 16 -16 0 -33 -10 -11 -10 -13 -1 -7 17 9 17 -16 1 -33 -10 -11 -10
-13 -1 -7 17 10 17 -35 1 -53 -11 -11 -10 -12 0 -6 11 5 13 -1 11 -26 -2 -19
-8 -40 -13 -48 -8 -11 -8 -13 1 -7 17 10 17 -16 1 -33 -11 -11 -10 -12 0 -6
11 5 13 -1 11 -26 -2 -19 -8 -40 -13 -48 -8 -11 -8 -13 1 -7 17 10 17 -16 1
-33 -10 -11 -10 -13 -1 -7 17 10 17 -35 1 -53 -10 -11 -10 -13 -1 -7 17 9 17
-16 1 -33 -10 -11 -10 -13 0 -7 16 9 16 -16 0 -33 -10 -11 -10 -13 0 -7 16 9
16 -16 0 -33 -10 -11 -10 -13 -1 -7 17 10 17 -35 1 -53 -11 -11 -10 -12 0 -6
11 5 13 -1 11 -26 -2 -19 -8 -40 -13 -48 -8 -11 -8 -13 1 -7 17 10 17 -16 1
-33 -11 -11 -10 -12 0 -6 11 5 13 -1 11 -26 -2 -19 -8 -40 -13 -48 -8 -11 -8
-13 1 -7 17 10 17 -16 1 -33 -11 -11 -10 -12 0 -6 11 5 13 -1 11 -26 -2 -19
-8 -40 -13 -48 -8 -11 -8 -13 2 -7 16 10 16 -16 0 -33 -10 -11 -10 -12 -1 -7
9 5 12 -7 10 -47 -1 -40 -8 -59 -25 -75 -12 -13 -22 -18 -22 -12 0 5 -13 -4
-29 -20 -15 -17 -33 -30 -40 -30 -6 0 -11 -7 -11 -16 0 -8 -4 -12 -10 -9 -6 4
-10 -5 -10 -19 0 -14 -4 -26 -10 -26 -5 0 -10 -8 -10 -18 0 -10 -3 -22 -7 -26
-9 -9 -12 -166 -3 -166 5 0 9 -17 12 -57 1 -7 5 -10 10 -7 7 5 12 -18 9 -38 0
-5 5 -7 12 -5 6 1 11 -4 9 -12 -3 -12 -1 -12 14 0 10 8 15 9 11 2 -9 -14 21
-46 34 -37 5 3 8 0 7 -8 -2 -7 3 -12 10 -11 6 2 12 -2 12 -7 0 -6 9 -10 20
-10 11 0 20 -4 20 -10 0 -5 12 -10 26 -10 16 0 23 -4 18 -11 -5 -8 -1 -8 14 0
13 7 23 8 27 1 3 -5 21 -9 40 -8 22 1 32 5 28 12 -4 6 2 4 12 -4 11 -9 16 -10
11 -2 -5 8 1 12 21 12 16 0 35 6 42 12 11 11 13 10 7 -2 -4 -8 0 -6 8 4 9 11
16 16 16 10 0 -5 5 -2 10 6 6 9 13 11 18 5 4 -5 13 -11 21 -13 8 -2 27 -12 41
-22 15 -11 30 -17 34 -13 3 3 6 1 6 -6 0 -7 4 -9 10 -6 5 3 10 2 10 -3 0 -9
20 -20 78 -44 17 -7 32 -16 32 -20 0 -5 8 -8 18 -8 10 0 24 -9 32 -20 8 -11
22 -20 32 -20 10 0 18 -3 18 -8 0 -4 18 -15 40 -25 22 -9 40 -19 40 -23 0 -3
-5 -2 -12 2 -7 4 -8 3 -4 -4 4 -7 14 -12 22 -12 8 0 14 -4 14 -10 0 -5 9 -10
20 -10 11 0 20 -4 20 -10 0 -5 9 -10 20 -10 11 0 20 -4 20 -10 0 -5 7 -10 16
-10 9 0 12 -5 8 -12 -4 -6 -3 -8 4 -4 6 3 17 -1 25 -9 9 -8 23 -15 31 -15 9 0
16 -4 16 -10 0 -5 9 -10 21 -10 11 0 17 -4 14 -10 -3 -5 1 -10 9 -10 9 0 16
-4 16 -10 0 -5 9 -10 20 -10 11 0 20 -4 20 -10 0 -5 9 -10 21 -10 11 0 17 -4
14 -10 -5 -9 24 -15 48 -11 5 1 6 -3 2 -9 -3 -5 1 -10 9 -10 9 0 16 -4 16 -10
0 -5 9 -10 20 -10 11 0 20 -4 20 -10 0 -5 7 -10 15 -10 9 0 25 -9 37 -20 12
-11 28 -20 35 -20 7 0 13 -4 13 -10 0 -5 9 -10 20 -10 11 0 20 -4 20 -10 0 -5
9 -10 20 -10 11 0 20 -4 20 -10 0 -5 7 -10 16 -10 8 0 12 -4 9 -10 -3 -5 1
-10 10 -10 9 0 36 -14 61 -31 24 -16 53 -31 64 -32 10 -1 16 -5 14 -9 -3 -4 2
-8 10 -8 9 0 16 -4 16 -10 0 -5 9 -10 21 -10 11 0 17 -4 14 -10 -3 -5 3 -10
14 -10 12 0 21 -3 21 -7 0 -8 48 -33 62 -33 5 0 18 -9 30 -20 12 -11 30 -20
40 -20 11 0 16 -5 13 -10 -3 -5 -1 -10 4 -10 7 0 11 -25 11 -61 0 -45 3 -58
13 -53 7 5 6 0 -3 -11 -9 -11 -10 -16 -2 -11 8 5 12 0 12 -13 0 -12 5 -21 11
-21 5 0 7 -4 4 -10 -7 -12 90 -110 110 -110 8 0 15 -5 15 -12 0 -6 3 -8 7 -5
3 4 17 0 30 -8 17 -12 46 -15 103 -14 44 1 80 6 80 10 0 5 9 9 20 9 11 0 20 5
20 11 0 5 4 8 9 4 5 -3 16 2 24 10 9 8 20 15 25 15 5 0 17 10 26 22 9 13 14
16 10 8 -7 -13 -6 -13 9 -1 10 8 15 16 13 18 -3 3 4 14 15 26 10 11 19 27 19
34 0 8 4 12 8 9 9 -5 10 -3 13 51 1 18 5 30 9 28 4 -2 7 2 7 10 0 8 -3 12 -7
10 -4 -2 -7 2 -7 10 0 8 4 12 9 9 13 -8 10 10 -4 25 -10 11 -10 13 0 7 7 -4
12 -1 12 8 0 9 9 16 21 16 11 0 17 4 14 10 -5 9 16 15 38 11 5 -1 6 3 2 9 -3
5 1 10 9 10 9 0 16 5 16 11 0 5 4 8 9 4 5 -3 15 0 23 7 7 7 25 19 41 27 15 8
27 18 27 23 0 4 7 8 16 8 8 0 22 7 31 15 8 8 19 13 24 10 5 -4 9 -1 9 4 0 6 6
11 13 11 7 0 23 9 35 20 12 11 28 20 37 20 8 0 15 5 15 10 0 6 7 10 16 10 9 0
12 5 8 12 -4 6 -3 8 4 4 6 -3 18 1 26 10 11 10 16 11 16 3 0 -7 8 -2 19 9 10
12 28 22 40 22 11 0 21 5 21 10 0 6 9 10 21 10 11 0 17 4 14 10 -3 5 1 10 9
10 9 0 16 5 16 10 0 6 9 10 20 10 11 0 20 5 20 10 0 6 9 10 20 10 11 0 20 5
20 10 0 6 6 10 13 10 7 0 22 8 33 18 11 9 26 18 34 20 8 2 17 7 20 10 12 16
68 41 75 34 5 -4 5 -1 1 6 -5 8 0 12 14 12 12 0 18 4 15 10 -3 5 3 10 14 10
12 0 21 5 21 10 0 6 7 10 16 10 8 0 12 5 9 10 -4 6 -3 10 2 9 22 -4 43 2 38
11 -3 6 3 10 14 10 12 0 21 5 21 10 0 6 9 10 20 10 11 0 20 7 20 15 0 8 7 15
16 15 8 0 12 5 9 10 -4 6 -3 10 2 9 24 -4 53 2 48 11 -6 10 7 14 34 11 7 -2
10 2 6 8 -3 7 3 11 15 11 12 0 18 5 15 10 -3 6 2 10 12 10 10 0 29 9 43 20 14
11 31 20 38 20 7 0 10 5 7 10 -4 6 5 10 20 10 15 0 24 4 20 10 -3 5 1 10 9 10
9 0 16 5 16 10 0 6 12 10 26 10 14 0 23 4 20 9 -3 5 4 12 17 16 34 12 57 13
51 4 -5 -8 18 -14 39 -10 5 1 6 -3 2 -9 -4 -6 7 -10 27 -10 25 0 29 -3 18 -10
-20 -13 -4 -13 20 0 12 6 21 7 25 0 8 -13 76 -10 68 4 -3 6 0 5 8 -1 7 -7 18
-13 23 -13 6 0 4 5 -4 10 -12 8 -9 10 11 10 15 0 43 7 63 15 40 17 129 103
120 116 -3 5 0 9 5 9 6 0 11 9 11 21 0 11 5 17 10 14 6 -4 10 12 10 39 0 30 4
46 13 46 8 0 8 3 -2 9 -13 8 -13 12 0 27 9 11 9 15 2 10 -10 -5 -13 3 -13 31
0 39 -19 93 -32 93 -5 0 -8 9 -8 20 0 11 -4 20 -10 20 -5 0 -10 7 -10 15 0 9
-8 19 -17 22 -10 4 -25 15 -34 25 -9 10 -23 18 -30 18 -8 0 -20 9 -27 21 -8
12 -9 18 -3 15 5 -4 9 2 8 14 -1 11 -6 20 -12 20 -5 0 -4 4 3 9 8 4 14 12 14
16 0 4 -6 12 -14 16 -7 5 -8 9 -2 9 6 0 11 7 11 15 0 8 -5 15 -11 15 -6 0 -5
4 2 9 8 4 14 12 14 16 0 4 -6 12 -14 16 -7 5 -8 9 -2 9 6 0 11 7 11 15 0 8 -5
15 -11 15 -6 0 -5 4 2 9 8 4 14 12 14 16 0 4 -6 12 -14 16 -7 5 -8 9 -2 9 6 0
11 7 11 15 0 8 -5 15 -11 15 -6 0 -5 4 2 9 8 4 14 12 14 16 0 4 -6 12 -14 16
-10 7 -10 9 0 9 6 0 12 7 12 16 0 9 -5 12 -12 8 -9 -5 -9 -2 1 9 11 14 11 17
0 17 -11 0 -11 2 -1 9 14 9 13 32 -3 43 -6 5 -5 8 3 8 8 0 10 5 5 13 -11 18
-13 38 -2 31 5 -3 9 0 9 5 0 6 -6 11 -12 11 -10 0 -10 2 0 9 14 9 13 32 -3 43
-6 5 -5 8 3 8 6 0 12 9 12 21 0 13 -4 18 -12 13 -9 -5 -8 -2 1 10 10 12 11 20
3 28 -8 8 -8 17 -1 30 7 13 6 18 -3 18 -10 0 -10 2 0 9 17 11 17 21 0 32 -7 5
-8 9 -2 9 6 0 11 7 11 15 0 8 -5 15 -11 15 -6 0 -5 4 2 9 8 4 14 12 14 16 0 4
-6 12 -14 16 -7 5 -8 9 -2 9 6 0 11 7 11 15 0 8 -5 15 -11 15 -6 0 -5 4 2 9
17 11 17 21 0 32 -7 5 -8 9 -2 9 6 0 11 7 11 15 0 8 -5 15 -11 15 -6 0 -5 4 2
9 17 11 17 21 0 32 -10 7 -10 9 0 9 6 0 12 7 12 16 0 9 -5 12 -12 8 -9 -5 -9
-2 1 9 11 14 11 17 0 17 -11 0 -11 2 -1 9 14 9 13 32 -3 43 -6 5 -5 8 3 8 8 0
10 5 5 13 -11 18 -13 38 -2 31 5 -3 9 0 9 5 0 6 -6 11 -12 11 -10 0 -10 2 0 9
14 9 13 32 -3 43 -6 5 -5 8 3 8 6 0 12 9 12 21 0 13 -4 18 -12 13 -9 -5 -9 -2
1 9 11 14 11 17 0 17 -9 0 -10 3 -3 8 13 9 13 52 -1 52 -5 0 -4 4 3 9 17 11
17 21 0 32 -7 5 -8 9 -2 9 6 0 11 7 11 15 0 8 -5 15 -11 15 -6 0 -5 4 2 9 8 4
14 12 14 16 0 4 -6 12 -14 16 -7 5 -8 9 -2 9 6 0 11 7 11 15 0 8 -5 15 -11 15
-6 0 -5 4 2 9 8 4 14 12 14 16 0 4 -6 12 -14 16 -7 5 -8 9 -2 9 6 0 11 7 11
15 0 8 -5 15 -11 15 -6 0 -5 4 2 9 17 11 17 21 0 32 -10 7 -10 9 0 9 6 0 12 7
12 16 0 9 -5 12 -12 8 -10 -6 -10 -5 -1 8 7 8 10 18 6 21 -3 4 -1 7 6 7 7 0 9
5 6 10 -3 6 2 10 12 10 10 0 25 9 33 19 7 11 17 18 22 15 4 -3 8 2 8 11 0 9 5
13 10 10 6 -3 10 1 10 9 0 9 5 16 10 16 6 0 10 9 10 20 0 11 5 20 10 20 6 0
10 11 10 24 0 13 4 26 9 28 5 2 11 21 12 43 2 22 8 43 14 47 6 5 6 8 -2 8 -9
0 -13 17 -13 50 0 28 -4 50 -10 50 -5 0 -10 7 -10 16 0 37 -99 144 -133 144
-10 0 -16 4 -13 8 2 4 -7 9 -21 10 -13 1 -30 5 -36 9 -16 10 -109 14 -103 5 3
-4 -5 -9 -17 -9 -17 -2 -19 0 -7 7 19 12 6 13 -18 1 -103 -52 -141 -64 -127
-41 3 6 -3 10 -15 10 -12 0 -18 5 -15 10 3 6 -2 10 -13 10 -10 0 -27 8 -38 18
-11 9 -26 18 -34 20 -7 2 -26 12 -41 23 -15 10 -32 19 -39 19 -6 0 -8 5 -5 10
4 6 3 10 -2 9 -22 -4 -43 2 -38 11 4 6 -5 10 -20 10 -15 0 -24 4 -20 10 3 6
-1 10 -10 10 -9 0 -14 4 -11 8 4 7 -9 11 -51 14 -10 1 -10 4 0 17 8 10 8 13 0
8 -6 -4 -18 0 -26 8 -9 8 -21 15 -27 15 -6 0 -20 9 -32 20 -12 11 -28 20 -35
20 -7 0 -13 5 -13 11 0 5 -4 8 -9 5 -4 -3 -19 3 -31 14 -12 11 -27 17 -31 14
-5 -3 -9 0 -9 5 0 6 -9 11 -21 11 -11 0 -17 5 -14 10 3 6 -1 10 -9 10 -9 0
-16 5 -16 10 0 6 -9 10 -20 10 -11 0 -20 5 -20 10 0 6 -9 10 -21 10 -11 0 -17
5 -14 10 4 6 -6 10 -22 10 -22 0 -25 2 -13 10 12 8 11 10 -7 10 -13 0 -23 5
-23 10 0 6 -7 10 -15 10 -9 0 -25 9 -37 20 -12 11 -28 20 -35 20 -7 0 -13 5
-13 10 0 6 -9 10 -19 10 -11 0 -21 4 -23 9 -1 5 -12 11 -23 13 -11 1 -26 9
-33 16 -8 7 -18 10 -23 7 -5 -4 -9 -1 -9 4 0 6 -7 11 -16 11 -8 0 -12 5 -9 10
3 6 -3 10 -14 10 -12 0 -21 5 -21 10 0 6 -9 10 -21 10 -11 0 -17 5 -14 10 3 6
-2 10 -13 10 -10 0 -28 9 -40 20 -12 11 -28 20 -37 20 -8 0 -15 5 -15 10 0 6
-7 10 -16 10 -8 0 -12 5 -9 10 4 6 3 10 -2 9 -22 -4 -41 3 -61 21 -12 11 -26
20 -32 20 -6 0 -20 9 -32 20 -12 11 -30 20 -40 20 -11 0 -16 5 -13 10 3 6 -3
10 -14 10 -14 0 -21 6 -21 19 0 11 -5 23 -10 26 -6 4 -7 12 -3 18 10 17 13 38
4 32 -4 -2 -8 12 -9 32 -1 20 -5 39 -9 42 -5 3 -14 17 -21 31 -7 14 -22 36
-33 50 -12 14 -18 19 -14 12 6 -11 3 -11 -14 -1 -14 10 -17 15 -8 21 8 5 4 8
-10 8 -13 0 -23 5 -23 10 0 6 -9 10 -19 10 -11 0 -21 5 -23 11 -2 5 -10 11
-18 12 -8 2 -20 5 -25 9 -15 9 -175 6 -169 -4z m279 -548 c-3 -6 5 -10 19 -10
13 0 26 -4 28 -9 2 -5 10 -11 18 -13 8 -2 21 -9 28 -16 8 -7 18 -9 24 -6 7 4
8 2 4 -4 -4 -7 -2 -12 4 -12 6 0 18 -7 27 -15 8 -8 19 -13 24 -10 5 4 9 1 9
-4 0 -6 9 -11 21 -11 11 0 17 -4 14 -10 -3 -5 1 -10 9 -10 9 0 16 -5 16 -11 0
-5 4 -8 9 -5 4 3 19 -3 31 -14 12 -11 27 -17 31 -14 5 3 9 0 9 -5 0 -6 9 -11
20 -11 11 0 20 -4 20 -10 0 -5 7 -10 16 -10 8 0 12 -4 9 -10 -3 -5 3 -10 14
-10 12 0 21 -3 21 -8 0 -9 61 -38 73 -34 5 1 6 -2 2 -8 -3 -6 3 -10 15 -10 12
0 18 -4 15 -10 -3 -5 3 -10 14 -10 12 0 21 -4 21 -10 0 -5 9 -10 20 -10 11 0
20 -4 20 -10 0 -5 8 -10 18 -10 10 0 28 -9 40 -20 12 -11 28 -20 37 -20 8 0
15 -7 15 -15 0 -9 9 -15 23 -15 18 0 19 -2 7 -10 -12 -8 -11 -10 8 -10 12 0
22 -4 22 -10 0 -5 9 -10 20 -10 11 0 20 -3 20 -7 0 -9 48 -33 65 -33 6 0 17
-9 25 -20 8 -11 22 -20 32 -20 10 0 18 -4 18 -10 0 -5 7 -10 16 -10 8 0 12 -5
9 -10 -4 -6 -3 -10 2 -9 4 1 19 1 33 0 20 -1 22 -3 10 -11 -12 -8 -11 -10 8
-10 12 0 22 -4 22 -10 0 -5 9 -10 19 -10 11 0 21 -4 23 -9 2 -5 10 -11 18 -13
8 -2 23 -11 32 -21 9 -10 19 -18 22 -18 24 3 36 -1 31 -9 -4 -6 5 -10 19 -10
14 0 26 -4 26 -9 0 -5 16 -16 35 -25 19 -9 37 -21 40 -26 4 -6 11 -8 16 -5 5
4 9 3 9 -2 0 -9 61 -39 73 -35 5 1 6 -2 2 -8 -3 -5 1 -10 9 -10 9 0 16 -7 16
-16 0 -8 4 -13 8 -10 4 3 9 -27 10 -65 2 -59 -2 -76 -20 -102 -12 -17 -16 -27
-9 -23 10 6 10 3 -1 -13 -7 -12 -16 -21 -20 -21 -5 0 -8 -9 -8 -21 0 -11 -4
-17 -10 -14 -5 3 -10 -3 -10 -15 0 -12 -4 -18 -10 -15 -5 3 -10 -2 -10 -12 0
-10 -9 -25 -20 -33 -11 -8 -20 -20 -20 -28 0 -7 -4 -10 -10 -7 -5 3 -10 2 -10
-3 0 -4 -13 -24 -30 -42 -17 -18 -30 -37 -30 -42 0 -4 -5 -8 -10 -8 -14 0 -60
-46 -60 -60 0 -6 -4 -8 -10 -5 -5 3 -10 2 -10 -3 0 -14 -56 -72 -69 -72 -6 0
-11 -7 -11 -15 0 -8 -9 -19 -20 -25 -11 -6 -20 -18 -21 -28 0 -12 -2 -13 -6
-4 -4 10 -11 5 -24 -15 -10 -15 -19 -24 -19 -20 0 5 -21 -14 -48 -41 -26 -26
-60 -57 -75 -67 -21 -13 -25 -20 -15 -26 9 -6 5 -9 -12 -9 -20 0 -22 -2 -10
-10 13 -8 12 -10 -4 -10 -10 0 -26 -8 -35 -17 -9 -10 -25 -23 -36 -30 -11 -6
-19 -16 -17 -23 1 -6 -2 -9 -8 -5 -5 3 -10 1 -10 -6 0 -7 -3 -9 -6 -6 -4 3
-18 -6 -33 -21 -14 -15 -33 -28 -41 -30 -8 -2 -21 -10 -27 -19 -7 -9 -13 -13
-13 -8 0 4 -9 -2 -20 -15 -11 -13 -20 -19 -20 -14 0 5 -5 1 -11 -8 -5 -10 -16
-18 -22 -18 -7 0 -19 -9 -27 -19 -7 -11 -17 -18 -21 -16 -4 3 -9 -2 -13 -10
-3 -8 -12 -15 -21 -15 -8 0 -15 -5 -15 -10 0 -6 -6 -9 -12 -8 -7 2 -12 -3 -10
-10 1 -8 -2 -11 -7 -8 -5 4 -16 -1 -24 -9 -9 -8 -21 -15 -27 -15 -6 0 -8 -5
-4 -12 4 -6 3 -8 -4 -4 -6 3 -17 -1 -25 -9 -9 -8 -21 -15 -27 -15 -6 0 -8 -5
-4 -12 4 -6 3 -8 -4 -4 -6 3 -17 -1 -25 -9 -9 -8 -24 -15 -34 -15 -15 0 -16
-2 -3 -10 12 -8 11 -10 -7 -10 -13 0 -23 -5 -23 -11 0 -5 -4 -8 -9 -5 -5 3
-11 -1 -15 -9 -3 -8 -18 -15 -33 -15 -22 0 -25 -2 -13 -10 13 -9 13 -10 0 -11
-8 -1 -18 -1 -22 0 -5 0 -8 -3 -8 -9 0 -5 -9 -10 -20 -10 -11 0 -20 -4 -20 -8
0 -5 -16 -14 -35 -22 -19 -8 -35 -17 -35 -22 0 -4 -9 -8 -20 -8 -11 0 -20 -7
-20 -15 0 -8 -7 -15 -16 -15 -8 0 -13 -4 -10 -8 3 -5 -1 -9 -9 -10 -8 -1 -22
-3 -30 -4 -8 -1 -12 -5 -9 -10 3 -4 -2 -8 -10 -8 -9 0 -16 -4 -16 -10 0 -5 -9
-10 -20 -10 -11 0 -20 -4 -20 -10 0 -5 -9 -10 -21 -10 -11 0 -17 -4 -14 -10 3
-5 -1 -10 -9 -10 -9 0 -16 -4 -16 -10 0 -5 -6 -10 -14 -10 -21 0 -67 -26 -59
-33 3 -4 -1 -7 -10 -7 -11 0 -15 -9 -15 -30 1 -16 5 -27 11 -23 5 3 4 -4 -2
-15 -14 -26 -14 -42 -1 -22 8 12 10 8 9 -15 -2 -79 4 -155 13 -155 6 0 8 6 5
13 -4 10 3 12 25 9 21 -3 29 -1 24 7 -5 7 1 11 13 11 12 0 21 5 21 10 0 6 12
10 26 10 14 0 23 4 19 10 -3 6 3 10 14 10 12 0 21 5 21 10 0 6 9 10 20 10 11
0 20 5 20 10 0 6 9 10 21 10 11 0 17 5 14 10 -3 6 4 10 17 10 13 0 30 9 38 20
8 11 22 20 32 20 10 0 18 5 18 10 0 6 12 10 26 10 14 0 23 4 19 10 -5 9 16 15
38 11 5 -1 6 3 2 9 -3 5 1 10 9 10 9 0 16 5 16 11 0 5 4 8 9 5 4 -3 21 6 37
19 16 14 35 25 42 25 6 0 12 5 12 10 0 6 9 10 20 10 11 0 20 5 20 10 0 6 7 10
16 10 9 0 12 5 8 12 -4 6 -3 8 3 5 6 -4 23 5 39 18 16 14 35 25 42 25 6 0 12
5 12 10 0 6 6 10 14 10 8 0 18 5 22 12 5 7 3 8 -6 3 -9 -5 -11 -4 -6 3 4 7 12
12 17 12 5 0 19 9 31 20 12 11 30 20 40 20 11 0 17 4 13 9 -3 5 4 12 15 16 11
3 20 11 20 16 0 6 5 7 10 4 6 -3 10 -1 10 4 0 6 7 11 16 11 8 0 12 5 9 10 -3
6 4 10 15 10 12 0 35 14 50 30 15 17 34 30 42 30 7 0 20 9 28 20 8 11 24 20
35 20 16 0 17 2 5 10 -12 8 -10 10 8 10 13 0 20 4 17 10 -3 6 1 10 9 10 9 0
16 5 16 10 0 6 10 10 23 10 18 0 19 2 7 10 -14 9 -9 12 16 10 3 -1 18 13 34
30 15 16 36 30 47 30 13 0 14 3 5 8 -9 6 -5 12 15 23 16 8 40 26 55 41 14 16
34 28 45 29 10 0 13 3 6 6 -18 7 9 33 34 33 15 0 16 2 3 10 -13 8 -12 10 3 10
21 0 49 24 40 34 -4 3 -2 6 3 6 14 0 64 46 64 59 0 6 5 11 10 11 14 0 160 147
160 160 0 6 3 9 8 7 7 -5 33 17 32 28 -1 26 1 29 10 15 8 -13 10 -12 10 3 0
11 14 32 30 47 17 15 30 32 30 38 0 5 14 23 30 40 17 18 30 37 30 42 0 6 5 8
10 5 6 -3 10 1 10 10 0 9 7 23 15 32 8 8 13 18 11 22 -3 4 4 7 15 7 12 0 15
-4 9 -10 -6 -6 -10 -17 -10 -26 0 -13 1 -13 10 0 5 8 10 10 10 5 0 -6 -5 -16
-12 -23 -8 -8 -8 -15 3 -28 9 -12 10 -15 2 -10 -7 4 -13 3 -13 -1 0 -5 6 -15
13 -22 10 -11 10 -13 0 -7 -7 4 -13 3 -13 -1 0 -5 6 -15 13 -22 6 -8 7 -11 2
-8 -7 3 -11 -14 -13 -46 -1 -37 1 -48 8 -37 6 9 10 10 10 3 0 -6 -4 -15 -10
-18 -5 -3 -10 -14 -10 -23 0 -15 2 -15 10 -2 5 8 10 10 10 5 0 -6 -5 -16 -12
-23 -8 -8 -8 -15 3 -28 9 -12 10 -15 2 -10 -7 4 -13 3 -13 -1 0 -5 6 -15 13
-22 6 -8 8 -11 2 -8 -6 3 -11 -21 -12 -61 -2 -46 1 -62 7 -52 6 9 10 10 10 3
0 -6 -5 -15 -11 -18 -12 -8 -9 -54 6 -74 7 -11 7 -13 -2 -7 -7 4 -13 3 -13 -1
0 -5 6 -15 13 -22 10 -11 10 -13 0 -7 -7 4 -13 3 -13 -1 0 -5 6 -15 13 -22 6
-8 7 -11 2 -8 -7 3 -11 -14 -13 -46 -1 -37 1 -48 8 -37 6 9 10 10 10 3 0 -6
-4 -15 -10 -18 -5 -3 -10 -14 -10 -23 0 -15 2 -15 10 -2 6 9 10 10 10 3 0 -6
-4 -15 -10 -18 -5 -3 -10 -14 -10 -23 0 -15 2 -15 10 -2 6 9 10 10 10 3 0 -6
-4 -15 -10 -18 -5 -3 -10 -14 -10 -23 0 -15 2 -15 10 -2 5 8 10 10 10 4 0 -5
-5 -15 -12 -22 -8 -8 -8 -15 3 -28 9 -12 10 -15 2 -10 -7 4 -13 3 -13 -1 0 -5
6 -15 13 -22 10 -11 10 -13 0 -7 -7 4 -13 3 -13 -1 0 -5 6 -15 13 -22 6 -8 7
-11 2 -8 -7 3 -11 -14 -13 -46 -1 -37 1 -48 8 -37 6 9 10 10 10 3 0 -6 -5 -15
-11 -18 -12 -8 -9 -54 6 -74 7 -11 7 -13 -2 -7 -7 4 -13 3 -13 -1 0 -5 6 -15
13 -22 10 -11 10 -13 0 -7 -7 4 -13 3 -13 -1 0 -5 6 -15 13 -22 6 -8 7 -11 2
-8 -15 8 -18 -92 -4 -109 9 -11 8 -18 -1 -29 -10 -12 -10 -19 -2 -27 9 -9 9
-15 0 -26 -9 -10 -9 -18 1 -34 7 -11 9 -18 4 -15 -5 3 -10 -17 -11 -45 -2 -52
-21 -105 -22 -60 0 12 -4 22 -10 22 -5 0 -10 7 -10 16 0 9 -5 12 -12 8 -6 -4
-8 -3 -5 3 4 6 -7 25 -23 43 -16 18 -27 36 -24 41 3 5 0 8 -6 7 -7 -2 -17 6
-23 17 -7 10 -28 35 -47 55 -19 20 -41 48 -49 63 -11 20 -17 24 -23 15 -5 -9
-8 -8 -8 5 0 10 -27 45 -60 77 -33 32 -60 64 -60 69 0 6 -6 11 -13 11 -7 0
-19 9 -27 20 -8 11 -24 20 -35 21 -12 0 -15 3 -7 6 10 4 7 9 -10 17 -12 7 -22
18 -20 25 1 7 -2 10 -8 6 -5 -3 -10 -1 -10 6 0 7 -3 10 -6 6 -4 -3 -28 16 -54
43 -26 27 -50 46 -54 43 -3 -4 -6 1 -6 9 0 9 -9 18 -20 21 -11 3 -20 0 -20 -6
0 -6 -3 -7 -6 -4 -4 3 -19 -7 -34 -23 -16 -17 -36 -30 -47 -30 -15 0 -16 -2
-3 -10 12 -8 11 -10 -5 -10 -11 0 -27 -9 -35 -20 -8 -11 -20 -20 -28 -20 -7 0
-15 -7 -18 -15 -7 -18 53 -78 70 -68 6 3 8 3 4 -2 -4 -4 0 -14 10 -22 9 -8 11
-12 5 -8 -7 3 -13 1 -13 -4 0 -6 9 -11 21 -11 11 0 17 -4 14 -10 -3 -5 -1 -10
5 -10 6 0 37 -27 69 -59 33 -33 62 -57 65 -54 3 4 6 1 6 -6 0 -15 66 -81 74
-74 3 4 6 1 6 -6 0 -16 26 -42 34 -34 3 4 6 1 6 -6 0 -15 65 -81 80 -81 6 0 8
-4 5 -10 -3 -5 0 -10 7 -10 7 0 28 -23 46 -50 17 -28 37 -50 43 -50 5 0 8 -4
5 -9 -3 -4 6 -21 19 -37 14 -16 25 -33 25 -37 0 -5 5 -5 12 -1 6 4 8 3 5 -3
-4 -6 5 -23 18 -39 14 -16 25 -39 25 -52 0 -13 4 -21 9 -18 13 8 10 -98 -3
-106 -8 -6 -7 -8 2 -8 6 0 12 -5 12 -11 0 -5 -6 -7 -12 -3 -10 5 -10 4 -1 -6
10 -11 7 -18 -15 -37 -15 -12 -35 -23 -45 -23 -10 0 -15 -5 -12 -10 3 -6 -3
-10 -14 -10 -12 0 -21 -4 -21 -10 0 -5 -9 -10 -20 -10 -11 0 -20 -4 -20 -10 0
-5 -7 -10 -16 -10 -9 0 -12 -5 -8 -12 4 -6 3 -8 -4 -4 -6 3 -17 -1 -26 -10 -9
-8 -20 -13 -25 -10 -5 4 -16 -1 -24 -9 -9 -8 -22 -15 -29 -15 -8 0 -20 -9 -28
-20 -8 -11 -22 -20 -32 -20 -10 0 -18 -4 -18 -10 0 -5 -9 -10 -20 -10 -11 0
-20 -4 -20 -10 0 -5 -7 -10 -15 -10 -8 0 -15 -4 -15 -10 0 -5 -7 -10 -16 -10
-9 0 -30 -11 -46 -25 -16 -14 -34 -23 -39 -19 -5 3 -9 0 -9 -5 0 -6 -10 -11
-22 -11 -19 0 -20 -2 -8 -10 12 -8 11 -10 -7 -10 -13 0 -23 -5 -23 -11 0 -5
-4 -8 -9 -4 -5 3 -16 -2 -24 -10 -9 -8 -21 -15 -27 -15 -6 0 -8 -5 -5 -10 4
-6 3 -10 -2 -9 -4 1 -19 1 -33 0 -20 -1 -22 -3 -10 -11 12 -8 11 -10 -7 -10
-13 0 -23 -4 -23 -10 0 -5 -7 -10 -15 -10 -9 0 -18 -7 -21 -15 -4 -8 -15 -15
-26 -15 -10 0 -16 -4 -13 -10 3 -5 -3 -10 -14 -10 -12 0 -21 -4 -21 -10 0 -5
-9 -10 -20 -10 -11 0 -20 -4 -20 -10 0 -5 -9 -10 -20 -10 -11 0 -20 -4 -20
-10 0 -5 -7 -10 -16 -10 -9 0 -12 -5 -8 -12 4 -6 3 -8 -4 -4 -6 3 -17 -1 -25
-9 -9 -8 -21 -15 -27 -15 -6 0 -20 -9 -32 -20 -20 -18 -39 -25 -61 -21 -5 1
-6 -3 -2 -9 3 -5 -1 -10 -9 -10 -9 0 -16 -4 -16 -10 0 -5 -7 -10 -15 -10 -9 0
-25 -9 -37 -20 -12 -11 -30 -20 -40 -20 -11 0 -16 -4 -13 -10 3 -5 -3 -10 -14
-10 -12 0 -21 -4 -21 -10 0 -5 -10 -10 -22 -10 -12 0 -18 -3 -15 -7 8 -7 -39
-33 -60 -33 -8 0 -11 -5 -8 -10 3 -6 -3 -10 -14 -10 -12 0 -21 -4 -21 -10 0
-5 -9 -10 -19 -10 -11 0 -22 -4 -26 -9 -3 -6 -14 -9 -25 -8 -10 1 -16 5 -14 9
3 4 -4 8 -16 8 -12 0 -18 4 -15 10 4 6 3 10 -2 9 -4 -1 -24 -1 -43 0 -23 1
-31 4 -22 10 10 6 9 10 -7 14 -12 3 -21 12 -21 21 0 9 -4 16 -10 16 -5 0 -10
7 -10 15 0 8 -9 30 -20 50 -11 20 -20 44 -20 55 0 11 -4 20 -10 20 -5 0 -10 9
-10 20 0 11 -6 20 -12 20 -9 0 -8 4 2 10 10 6 11 10 3 10 -7 0 -13 9 -13 20 0
11 -4 20 -8 20 -4 0 -9 15 -10 32 -2 18 -7 37 -12 42 -6 6 -10 23 -10 39 0 17
-4 26 -10 22 -6 -4 -10 -3 -9 2 5 29 -3 83 -11 78 -6 -4 -10 10 -10 34 0 22
-4 43 -10 46 -5 3 -10 22 -10 41 0 26 -3 33 -12 28 -8 -5 -7 0 2 11 9 11 10
16 3 11 -10 -5 -13 5 -13 38 0 25 -4 46 -8 46 -4 0 -9 17 -10 37 -2 21 -8 41
-15 45 -9 6 -8 8 3 8 13 0 13 1 0 10 -13 9 -13 10 0 10 11 0 12 3 3 8 -6 4
-13 30 -14 57 -1 28 -7 53 -13 57 -7 5 -5 8 4 8 13 0 13 1 0 10 -13 9 -13 11
0 20 10 6 11 10 3 10 -9 0 -13 16 -13 46 0 25 -4 43 -8 40 -5 -3 -9 1 -9 9 0
8 3 12 7 10 4 -2 7 2 7 10 0 8 -4 12 -9 9 -4 -3 -8 0 -8 5 0 6 6 11 13 12 10
0 10 2 0 6 -8 3 -13 23 -13 49 0 28 -5 44 -12 45 -10 0 -10 2 0 6 14 6 16 43
2 43 -5 0 -10 5 -10 11 0 5 4 8 8 5 10 -6 9 24 -1 40 -3 6 -7 53 -8 105 -1 53
-6 100 -13 108 -8 12 -8 13 2 7 7 -4 12 -1 12 9 0 9 -4 14 -9 10 -6 -3 -8 4
-5 15 2 11 6 29 8 40 3 11 1 18 -5 15 -5 -4 -9 -1 -9 4 0 6 6 11 13 12 10 0
10 2 0 6 -7 2 -13 14 -13 24 0 11 4 18 8 15 4 -2 9 5 9 17 2 17 0 19 -7 7 -8
-12 -10 -10 -10 8 0 12 6 22 13 22 8 0 7 4 -3 10 -13 9 -13 11 0 20 10 6 11
10 3 10 -17 0 -16 200 1 200 7 0 7 3 1 8 -13 9 -20 66 -7 58 12 -7 11 12 -1
32 -5 7 -3 12 5 12 9 0 9 3 -2 10 -12 7 -12 12 -3 21 10 10 10 16 0 28 -9 12
-9 13 1 7 7 -4 12 -1 12 9 0 9 -4 14 -8 11 -5 -3 -9 1 -9 9 0 8 4 12 9 9 13
-8 6 29 -7 38 -6 5 -5 8 3 8 17 0 15 48 -2 66 -8 8 -22 14 -30 14 -9 0 -16 5
-16 10 0 6 -7 10 -15 10 -8 0 -15 6 -15 13 0 8 -4 7 -10 -3 -6 -10 -10 -11
-10 -2 0 6 -7 12 -16 12 -8 0 -13 4 -10 8 2 4 -7 9 -22 10 -15 1 -28 7 -30 12
-2 6 -12 10 -22 10 -10 0 -20 5 -22 12 -3 7 -12 -2 -21 -20 -8 -18 -11 -30 -6
-27 5 4 9 -1 9 -9 0 -9 -6 -16 -12 -17 -10 0 -10 -2 0 -6 6 -2 12 -9 12 -14 0
-6 -4 -8 -8 -5 -5 3 -9 -1 -9 -9 0 -8 4 -12 9 -9 4 3 8 0 8 -5 0 -6 -4 -11
-10 -11 -5 0 -10 -5 -10 -11 0 -5 4 -8 8 -5 4 2 8 -4 8 -14 0 -10 -3 -17 -7
-14 -4 2 -7 -157 -7 -353 -1 -265 2 -360 11 -365 9 -6 9 -8 -1 -8 -8 0 -10 -5
-5 -12 11 -18 13 -40 5 -52 -9 -15 -12 -37 -3 -32 3 2 8 -28 9 -67 4 -100 7
-120 15 -134 4 -6 3 -14 -3 -18 -5 -3 -10 -12 -10 -18 0 -7 4 -6 10 3 9 13 10
13 10 -1 0 -8 -6 -21 -13 -28 -9 -11 -9 -13 1 -7 9 5 12 -7 13 -46 1 -29 0
-63 -1 -75 -1 -13 3 -23 8 -23 5 0 10 -23 11 -52 0 -30 6 -55 13 -60 10 -6 10
-8 1 -8 -7 0 -13 -5 -13 -11 0 -5 5 -7 11 -3 7 4 7 -1 -1 -16 -8 -15 -8 -20
-1 -16 7 5 11 -9 11 -43 0 -31 4 -51 11 -51 8 0 7 -6 -2 -17 -10 -11 -10 -14
-1 -9 9 5 12 -4 12 -38 0 -24 4 -46 9 -48 5 -1 11 -28 13 -60 1 -31 6 -54 10
-52 5 3 9 -6 9 -20 2 -27 5 -44 9 -48 3 -3 7 -28 12 -64 1 -12 7 -20 13 -18
10 4 12 -2 16 -61 1 -13 5 -22 10 -19 5 3 9 -13 9 -36 0 -25 4 -39 10 -35 6 4
10 -7 10 -24 0 -17 4 -31 8 -31 4 0 9 -12 10 -27 1 -16 7 -29 12 -31 6 -2 10
-17 10 -33 0 -16 5 -29 10 -29 6 0 10 -9 10 -20 0 -11 5 -20 10 -20 6 0 10 -9
10 -20 0 -11 4 -20 9 -20 5 0 11 -11 13 -24 4 -17 1 -23 -9 -19 -7 3 -13 9
-13 15 0 5 -4 7 -9 3 -5 -3 -16 2 -24 10 -9 8 -23 15 -31 15 -9 0 -16 5 -16
10 0 6 -9 10 -19 10 -11 0 -21 5 -23 10 -2 6 -13 12 -25 13 -12 0 -19 5 -17 9
3 4 -2 8 -10 8 -9 0 -16 5 -16 10 0 6 -7 10 -16 10 -8 0 -22 7 -31 15 -8 8
-19 12 -25 9 -7 -4 -8 -2 -4 4 4 7 1 12 -8 12 -9 0 -16 5 -16 10 0 6 -7 10
-16 10 -8 0 -22 7 -31 15 -8 8 -19 13 -24 10 -5 -4 -9 -1 -9 4 0 6 -6 11 -13
11 -7 0 -23 9 -35 20 -12 11 -28 20 -37 20 -8 0 -15 5 -15 10 0 6 -7 10 -16
10 -8 0 -13 4 -10 8 2 4 -4 9 -15 9 -10 1 -32 11 -48 22 -16 12 -34 21 -40 21
-6 0 -11 7 -11 15 0 8 -6 15 -14 15 -8 0 -16 5 -18 10 -2 6 -13 12 -25 13 -12
0 -19 5 -17 9 3 4 -4 8 -16 8 -12 0 -18 5 -15 10 4 6 -5 10 -19 10 -14 0 -26
3 -26 8 0 4 -21 18 -47 32 -27 13 -51 28 -54 33 -3 5 -9 8 -13 8 -20 -3 -26 0
-21 9 3 6 -4 10 -16 10 -12 0 -29 8 -38 18 -9 9 -23 18 -31 20 -8 2 -16 8 -18
13 -2 5 -12 9 -23 9 -10 0 -19 5 -19 10 0 6 -7 10 -16 10 -9 0 -12 5 -8 12 4
7 4 10 -1 6 -8 -8 -58 17 -83 40 -8 7 -18 10 -23 7 -5 -4 -9 -2 -9 3 0 5 -13
15 -30 22 -16 7 -30 16 -30 21 0 5 -3 8 -7 8 -21 -3 -33 3 -33 17 0 8 -4 12
-10 9 -5 -3 -10 -2 -10 2 0 5 26 10 58 10 121 3 152 6 152 14 0 5 25 9 56 9
41 0 53 3 48 13 -5 7 0 6 11 -3 11 -9 16 -10 11 -2 -5 9 3 12 29 12 26 0 34 3
29 13 -5 7 0 6 11 -3 13 -10 16 -11 11 -2 -5 9 -3 13 5 11 39 -5 70 2 63 14
-5 7 0 6 11 -3 11 -9 16 -10 11 -2 -5 8 0 12 13 13 30 2 34 3 50 13 10 7 12 5
6 -5 -6 -11 -5 -12 6 -1 7 6 26 12 41 12 15 0 28 4 28 8 0 4 12 9 28 10 15 1
29 7 30 12 2 6 12 10 22 10 10 0 22 5 25 10 3 6 22 10 41 10 19 0 34 5 34 10
0 6 10 10 23 10 12 0 31 7 41 15 10 8 23 12 27 9 5 -2 8 16 7 41 0 25 -5 45
-11 45 -7 0 -7 4 1 12 7 7 12 17 12 22 0 6 -5 4 -10 -4 -7 -10 -10 11 -11 70
0 47 -3 79 -6 71 -5 -11 -7 -11 -15 0 -8 12 -10 12 -15 0 -5 -11 -7 -11 -14 0
-6 10 -9 11 -9 2 0 -7 -12 -13 -27 -13 -22 0 -25 -2 -13 -10 11 -7 7 -10 -18
-10 -18 0 -31 -4 -28 -8 5 -9 -1 -10 -49 -13 -13 -1 -22 -5 -19 -10 3 -5 -6
-9 -20 -9 -14 0 -28 -4 -31 -10 -3 -5 -16 -10 -29 -10 -12 0 -28 -6 -35 -12
-11 -11 -12 -10 -6 2 6 12 5 13 -6 3 -7 -7 -23 -13 -35 -13 -13 0 -26 -5 -29
-10 -3 -6 -22 -10 -41 -10 -19 0 -33 -4 -30 -8 2 -4 -12 -9 -32 -10 -20 -2
-39 -8 -41 -14 -2 -6 -7 -5 -12 3 -6 10 -9 11 -9 2 0 -8 -14 -13 -35 -13 -19
0 -35 -4 -35 -10 0 -5 -7 -10 -15 -10 -8 0 -15 6 -15 13 0 9 -2 9 -8 0 -4 -7
-25 -13 -47 -14 -22 -1 -44 -5 -50 -8 -18 -10 -35 -9 -29 1 4 6 -1 6 -13 -1
-14 -7 -24 -7 -33 2 -8 8 -11 8 -7 1 5 -8 -20 -12 -88 -13 -71 -1 -95 2 -95
11 0 9 -3 8 -10 -2 -6 -10 -10 -11 -10 -2 0 6 -7 12 -16 12 -8 0 -12 5 -9 10
3 6 -1 10 -10 10 -9 0 -19 9 -22 21 -4 16 -8 17 -14 7 -7 -10 -9 -10 -9 0 0 6
-7 12 -16 12 -8 0 -12 5 -9 10 3 6 1 10 -4 10 -8 0 -11 255 -11 840 l0 840 40
26 c22 15 40 31 40 36 0 5 5 6 10 3 6 -3 10 1 10 10 0 9 4 14 9 10 5 -3 12 -1
15 4 10 15 238 14 248 -1 6 -10 8 -10 8 0 0 6 8 12 18 12 14 0 15 -2 2 -10
-10 -7 7 -10 58 -10 41 0 72 -4 72 -10 0 -5 5 -10 11 -10 5 0 7 6 3 13 -6 10
-4 10 7 0 7 -7 23 -13 35 -13 12 0 24 -4 26 -10 2 -5 22 -11 45 -12 23 -1 40
-5 37 -10 -3 -4 13 -8 35 -8 23 0 41 -4 41 -10 0 -5 14 -10 30 -10 17 0 30 -5
30 -11 0 -8 6 -7 17 2 11 10 14 10 9 2 -5 -9 1 -13 23 -13 16 0 33 -4 36 -10
3 -5 17 -10 30 -10 13 0 27 -4 30 -10 3 -5 17 -10 31 -10 14 0 22 -4 19 -10
-4 -6 7 -10 25 -10 18 0 29 -4 25 -10 -5 -9 32 -16 58 -11 5 1 6 -3 2 -9 -6
-10 14 -15 44 -11 7 2 10 -2 6 -8 -3 -7 2 -11 14 -11 12 0 21 -4 21 -8 0 -5 7
-9 15 -10 8 -1 22 -3 30 -4 8 -1 12 -5 9 -10 -3 -4 6 -8 20 -8 14 0 26 -4 26
-10 0 -5 3 -9 8 -9 22 4 42 -2 37 -11 -5 -9 24 -15 48 -11 5 1 6 -3 2 -9 -4
-6 6 -10 25 -10 18 0 29 -4 25 -10 -5 -9 15 -15 38 -11 4 0 7 -4 7 -9 0 -6 9
-10 20 -10 11 0 20 -4 20 -10 0 -5 9 -10 20 -10 11 0 20 -4 20 -10 0 -5 9 -10
20 -10 11 0 20 -4 20 -10 0 -5 9 -10 21 -10 11 0 17 -4 14 -10 -3 -5 3 -10 15
-10 11 0 30 -9 42 -20 12 -11 30 -20 40 -20 11 0 16 -4 13 -10 -3 -5 3 -10 14
-10 12 0 21 -4 21 -10 0 -5 7 -10 16 -10 9 0 25 -10 35 -22 11 -12 19 -16 19
-8 0 8 8 4 19 -8 10 -12 26 -22 35 -22 9 0 16 -4 16 -10 0 -5 9 -10 20 -10 11
0 20 -7 20 -15 0 -8 7 -15 16 -15 8 0 13 -4 10 -8 -2 -4 5 -9 17 -9 12 -1 23
-7 25 -13 2 -5 7 -8 12 -5 4 2 18 -4 31 -15 12 -12 33 -23 46 -26 12 -4 20
-10 17 -15 -3 -5 4 -9 15 -9 12 0 21 -4 21 -8 0 -5 12 -15 28 -23 15 -8 33
-20 40 -27 8 -7 18 -9 24 -6 7 4 8 2 4 -4 -4 -7 -1 -12 8 -12 9 0 16 -3 16 -8
0 -4 9 -13 21 -20 12 -8 19 -10 16 -5 -3 5 8 15 26 23 17 7 44 26 60 42 17 15
36 28 43 28 8 0 14 5 14 10 0 6 7 10 16 10 8 0 12 5 9 10 -3 6 4 10 16 10 19
0 20 2 8 17 -12 15 -12 16 1 8 13 -8 13 -7 1 8 -8 10 -16 15 -19 13 -2 -3 -11
2 -19 10 -8 8 -19 11 -25 8 -7 -4 -8 -2 -4 4 4 7 1 12 -8 12 -9 0 -16 7 -16
15 0 8 -7 15 -16 15 -9 0 -12 5 -8 12 4 6 3 8 -3 5 -6 -4 -21 2 -33 13 -12 11
-27 17 -33 13 -6 -3 -7 -1 -3 5 4 7 1 12 -8 12 -9 0 -16 5 -16 10 0 6 -9 10
-20 10 -11 0 -20 5 -20 10 0 6 -7 10 -16 10 -8 0 -12 5 -9 10 6 9 -8 14 -27
11 -5 0 -8 4 -8 9 0 6 -6 10 -13 10 -7 0 -23 9 -35 20 -12 11 -28 20 -37 20
-8 0 -15 5 -15 10 0 6 -7 10 -15 10 -8 0 -15 5 -15 10 0 6 -6 10 -14 10 -8 0
-16 5 -18 10 -2 6 -13 12 -26 13 -12 0 -22 5 -22 9 0 4 -9 8 -21 8 -11 0 -17
5 -14 10 3 6 -2 10 -13 10 -10 0 -28 9 -40 20 -12 12 -22 16 -22 9 0 -7 -8 -2
-19 9 -10 12 -28 22 -40 22 -12 0 -19 4 -16 10 3 6 -3 10 -14 10 -12 0 -21 5
-21 11 0 5 -4 8 -9 4 -5 -3 -16 2 -24 10 -9 8 -23 15 -31 15 -9 0 -16 5 -16
10 0 6 -9 10 -20 10 -11 0 -20 5 -20 10 0 6 -9 10 -20 10 -11 0 -20 5 -20 10
0 6 -9 10 -20 10 -11 0 -20 5 -20 10 0 6 -9 10 -20 10 -11 0 -20 5 -20 10 0 6
-15 10 -32 10 -25 0 -29 3 -18 10 12 8 11 10 -6 10 -30 0 -75 25 -66 36 4 4
-2 2 -12 -6 -13 -10 -17 -10 -12 -2 5 8 -1 12 -19 12 -15 0 -24 4 -20 10 4 6
-5 10 -19 10 -14 0 -26 5 -26 10 0 6 -11 10 -24 10 -14 0 -28 5 -31 10 -3 6
-15 10 -26 10 -10 0 -19 7 -19 15 0 9 -9 15 -22 15 -13 0 -32 7 -42 15 -10 8
-23 12 -27 9 -5 -3 -9 -1 -9 3 0 5 -12 10 -27 11 -15 1 -29 5 -32 10 -7 9 -30
15 -54 14 -9 0 -15 3 -12 9 4 5 -4 9 -17 9 -13 0 -31 7 -41 15 -11 7 -26 11
-35 8 -8 -4 -13 -2 -9 3 3 5 -6 11 -20 12 -14 1 -33 8 -41 15 -13 9 -14 9 -8
0 4 -7 2 -13 -3 -13 -6 0 -11 5 -11 10 0 6 -17 10 -37 10 -25 0 -33 3 -25 9 9
5 -5 9 -38 10 -29 0 -58 5 -64 11 -7 5 -27 10 -44 12 -18 1 -32 5 -32 8 0 6
-14 8 -87 10 -21 1 -42 5 -48 8 -11 7 -30 9 -122 13 -35 1 -63 6 -63 11 0 4 7
8 16 8 9 0 12 5 8 13 -4 6 -4 9 1 5 8 -8 58 17 83 40 8 7 18 10 23 7 5 -4 9
-2 9 3 0 5 14 15 30 22 16 7 30 16 30 21 0 5 9 9 21 9 11 0 17 5 14 10 -3 6 3
10 15 10 14 0 19 4 14 13 -4 6 -4 9 1 5 8 -8 55 15 88 41 9 8 17 11 17 7 0 -4
10 2 22 14 12 11 28 20 35 20 7 0 13 5 13 11 0 5 4 8 9 4 5 -3 16 2 24 10 9 8
23 15 31 15 9 0 16 5 16 10 0 6 10 10 23 10 18 0 19 2 7 10 -12 8 -9 10 13 10
15 0 27 3 27 8 0 8 61 38 72 34 4 -1 5 4 3 11 -3 7 9 18 27 26 18 8 39 21 46
28 8 7 17 11 22 8 5 -3 16 5 24 17 11 15 16 18 17 8 0 -11 2 -11 6 -2 2 6 11
12 19 12 9 0 12 5 9 10 -3 6 3 10 14 10 12 0 21 5 21 10 0 6 9 10 21 10 11 0
17 5 14 10 -3 6 1 10 9 10 9 0 16 5 16 10 0 6 9 10 20 10 11 0 20 5 20 10 0 6
9 10 20 10 11 0 20 5 20 10 0 6 9 10 21 10 11 0 17 5 14 10 -5 9 16 15 38 11
5 -1 6 3 2 9 -3 5 1 10 9 10 9 0 16 5 16 10 0 6 9 10 19 10 11 0 21 5 23 10 2
6 13 12 25 13 12 0 19 5 17 9 -3 4 2 8 10 8 9 0 16 5 16 10 0 6 9 10 20 10 11
0 20 5 20 10 0 6 7 10 16 10 8 0 13 4 10 8 -2 4 7 9 21 10 25 2 25 1 9 -23 -9
-13 -17 -36 -18 -49 -1 -14 -6 -22 -10 -20 -4 3 -8 -4 -8 -16 0 -12 -4 -19 -8
-16 -5 3 -9 0 -9 -7 -3 -44 -8 -65 -15 -61 -4 3 -8 -6 -8 -20 0 -14 -4 -26
-10 -26 -5 0 -10 -13 -10 -28 0 -15 -4 -32 -10 -38 -5 -5 -11 -26 -12 -46 -2
-20 -6 -34 -10 -31 -7 3 -13 -45 -9 -69 0 -4 -6 -5 -15 -1 -8 3 -14 2 -13 -3
4 -23 -2 -65 -8 -61 -5 3 -9 -13 -10 -35 -2 -23 -8 -48 -15 -56 -7 -9 -8 -13
-2 -9 6 3 11 0 11 -8 0 -8 -4 -12 -9 -9 -4 3 -8 -16 -8 -43 0 -36 -3 -44 -11
-33 -8 12 -10 10 -8 -10 3 -55 -1 -81 -12 -74 -7 4 -7 -1 1 -16 8 -15 8 -20 1
-16 -7 5 -11 -8 -11 -38 0 -35 4 -46 16 -46 8 0 13 -4 10 -8 -2 -4 7 -9 22
-10 14 -1 29 -7 33 -13 4 -7 11 -9 17 -5 5 3 15 -1 22 -9 7 -8 21 -15 32 -15
10 0 29 -6 41 -14 14 -9 29 -11 42 -6 13 6 15 9 5 9 -10 1 -11 4 -4 9 11 7 16
33 30 142 4 25 11 51 16 58 7 8 6 12 -3 13 -10 0 -11 2 -1 6 6 2 12 17 12 32
0 15 6 33 13 40 6 8 7 11 1 8 -6 -3 -11 0 -11 8 0 8 4 12 9 9 7 -5 13 33 9 63
-1 6 3 14 9 18 5 3 10 16 10 29 0 12 6 28 13 35 10 11 9 12 -3 6 -12 -7 -13
-6 -3 7 7 8 14 27 15 42 1 14 6 26 10 26 4 0 8 8 8 18 0 10 6 24 13 31 10 11
10 13 0 7 -7 -4 -13 -2 -13 3 0 6 5 11 10 11 6 0 10 14 10 31 0 17 4 28 10 24
9 -5 16 32 11 58 -1 5 3 6 9 2 6 -4 10 4 10 19 0 14 5 26 10 26 6 0 10 9 10
20 0 11 5 20 10 20 6 0 10 9 10 19 0 23 40 101 52 101 4 0 8 6 8 14 0 8 5 18
12 22 7 5 8 2 3 -7 -6 -11 -5 -12 6 -1 7 6 23 12 36 12 13 0 23 5 23 10 0 6 9
10 20 10 11 0 20 5 20 10 0 6 7 10 16 10 8 0 12 -4 9 -10z"/>
<path d="M1228 3753 c7 -3 16 -2 19 1 4 3 -2 6 -13 5 -11 0 -14 -3 -6 -6z"/>
<path d="M2330 3519 c0 -5 5 -7 10 -4 6 3 10 8 10 11 0 2 -4 4 -10 4 -5 0 -10
-5 -10 -11z"/>
</g>
</svg>
