<svg xmlns="http://www.w3.org/2000/svg" width="32" height="14" viewBox="0 0 32 14">
  <g id="arrows_down-arrow-triangle_copy" data-name="arrows_down-arrow-triangle copy" transform="translate(32 14) rotate(90)">
    <path id="Shape" d="M-6.482,31.721l6.364-9.333a.7.7,0,0,0,.047-.694.63.63,0,0,0-.564-.361H-6.364V.667A.652.652,0,0,0-7,0a.653.653,0,0,0-.636.667V21.334h-5.728a.631.631,0,0,0-.565.361.7.7,0,0,0,.047.694l6.365,9.333A.631.631,0,0,0-7,32,.631.631,0,0,0-6.482,31.721Z" fill="#00bece"/>
  </g>
</svg>
