<svg id="Group_7" data-name="Group 7" xmlns="http://www.w3.org/2000/svg" width="26.127" height="26.487" viewBox="0 0 26.127 26.487">
  <g id="Icon_Hamburger_02" data-name="Icon/Hamburger 02" transform="translate(0.042)">
    <path id="Icon_Color" data-name="Icon Color" d="M1.408,0H32.592A1.408,1.408,0,0,1,34,1.408v.073a1.408,1.408,0,0,1-1.408,1.408H1.408A1.408,1.408,0,0,1,0,1.481V1.408A1.408,1.408,0,0,1,1.408,0Z" transform="translate(2.043 0) rotate(45)" fill="#fff"/>
  </g>
  <path id="Icon_Color_Copy" data-name="Icon Color Copy" d="M-1.408,0H-32.592A1.408,1.408,0,0,0-34,1.408v.073a1.408,1.408,0,0,0,1.408,1.408H-1.408A1.408,1.408,0,0,0,0,1.481V1.408A1.408,1.408,0,0,0-1.408,0Z" transform="translate(24.042 0.402) rotate(-45)" fill="#fff"/>
</svg>
