<?xml version="1.0" encoding="UTF-8"?>
<svg width="48px" height="52px" viewBox="0 0 48 52" version="1.1" xmlns="http://www.w3.org/2000/svg" xmlns:xlink="http://www.w3.org/1999/xlink">
    <title>Group 33 Copy</title>
    <defs>
        <linearGradient x1="92.3200042%" y1="0%" x2="20.2528296%" y2="100%" id="linearGradient-1">
            <stop stop-color="#DDD12A" offset="0%"></stop>
            <stop stop-color="#5BB3AF" offset="100%"></stop>
        </linearGradient>
        <linearGradient x1="20.5725032%" y1="0%" x2="92.3200042%" y2="100%" id="linearGradient-2">
            <stop stop-color="#D6E593" offset="0%"></stop>
            <stop stop-color="#ADC65A" offset="100%"></stop>
        </linearGradient>
    </defs>
    <g id="Handed-Over" stroke="none" stroke-width="1" fill="none" fill-rule="evenodd">
        <g id="warum-iconpro-v2" transform="translate(-383.000000, -1665.000000)" fill="url(#linearGradient-1)" stroke="url(#linearGradient-2)" stroke-width="0.726">
            <g id="Group-16" transform="translate(340.000000, 1318.000000)">
                <g id="Group-33-Copy" transform="translate(44.000000, 348.000000)">
                    <path d="M35.2404315,26 C36.0410618,26 36.6920508,26.6543333 36.6920508,27.4586667 L36.6920508,28.567 C36.6920508,29.0446667 36.9740797,29.471 37.410395,29.653 C37.8828763,29.852 38.389533,29.7503333 38.7279676,29.4063333 L39.4748465,28.6456667 C39.715525,28.4009583 40.0265707,28.2524635 40.3626387,28.2191634 L40.5087313,28.212 C40.9005855,28.212 41.2672231,28.3663333 41.5422842,28.6466667 L43.3028081,30.4413333 C43.8569119,31.006 43.8569119,31.9246667 43.3021445,32.4893333 L42.5273945,33.2783333 C42.1946005,33.617 42.096388,34.1176667 42.2775501,34.5543333 L42.3047576,34.621 C42.4839289,35.0623333 42.9092949,35.3483333 43.3877486,35.3486667 L44.549044,35.3493333 C45.3496743,35.3496667 46.0003315,36.0046667 46.0000022,36.809 L45.9983408,39.2983333 C45.9973454,40.1023333 45.3463563,40.756 44.5463896,40.756 L43.4438226,40.7553333 C42.9686868,40.7553333 42.5446481,41.0383333 42.3631542,41.4766667 C42.1647386,41.9516667 42.2649418,42.46 42.607358,42.8 L43.3641909,43.552 C43.64257,43.8286667 43.7955292,44.1976667 43.7948656,44.5906667 C43.7945338,44.984 43.6405792,45.3523333 43.3618683,45.628 L41.5761277,47.3953333 C41.0130653,47.9526667 40.0982963,47.9513333 39.5365611,47.3933333 L38.7538479,46.6156667 C38.4164086,46.2806667 37.9173834,46.1816667 37.4833907,46.364 L37.4176946,46.391 C36.9790567,46.5706667 36.6943734,46.9973333 36.6937098,47.478 L36.6920508,48.5666667 C36.691719,48.95 36.5427414,49.3103333 36.2723254,49.5813333 C36.0025731,49.8513333 35.6442305,50 35.2633256,50 L35.261003,50 L32.8435177,49.997 C32.0558276,49.9956667 31.4157879,49.351 31.4164515,48.5596667 L31.4181105,47.3956667 C31.4187741,46.9376667 31.1506807,46.5273333 30.7352687,46.35 C30.2813681,46.1546667 29.7737161,46.257 29.4495488,46.594 L28.7341908,47.337 C28.4627794,47.619 28.0981327,47.7743333 27.7072738,47.7743333 L27.7049512,47.7743333 C27.3134287,47.7736667 26.9481184,47.6173333 26.676707,47.3333333 L24.9463768,45.5236667 C24.4111855,44.964 24.4128445,44.089 24.9496948,43.5313333 L25.753643,42.696 C26.0661974,42.3713333 26.1574421,41.8903333 25.9862339,41.4706667 L25.9444273,41.3666667 C25.7732192,40.932 25.3617888,40.651 24.8962752,40.65 L23.4522873,40.6476667 C23.0640828,40.647 22.699436,40.4953333 22.4253703,40.2213333 C22.1503092,39.946 21.9993407,39.58 22.0000022,39.1906667 L22.0049813,36.6953333 C22.0059767,36.3056667 22.1576087,35.9396667 22.432338,35.6646667 C22.7064038,35.3906667 23.0700552,35.2396667 23.4566006,35.2396667 L23.4599186,35.2396667 L24.5664673,35.242 L24.5687899,35.242 C25.043262,35.242 25.4673008,34.9596667 25.6491265,34.5223333 C25.8488693,34.0466667 25.7486661,33.538 25.4065816,33.1973333 L24.6497488,32.4443333 C24.3713697,32.1673333 24.2187423,31.7983333 24.2197376,31.4046667 C24.2204012,31.0113333 24.3750194,30.6426667 24.6547257,30.367 L26.4471023,28.6 C27.0104965,28.045 27.9249337,28.047 28.4856735,28.6046667 L29.2720365,29.387 C29.6081485,29.722 30.1071738,29.8213333 30.5431573,29.6396667 L30.5849639,29.6223333 C31.0259244,29.4413333 31.3112713,29.014 31.3112713,28.533 L31.3112713,27.4586667 C31.3112713,26.6543333 31.9625921,26 32.7628906,26 L35.2404315,26 Z M35.2404315,27 L32.7628906,27 C32.5113872,27 32.3066674,27.206 32.3066674,27.4586667 L32.3066674,28.533 C32.3066674,29.422 31.7784438,30.213 30.9608918,30.5483333 L30.9283756,30.5616667 C30.1164642,30.8993333 29.1934002,30.7163333 28.5716094,30.0976667 L27.7852465,29.3153333 C27.6093932,29.14 27.3217237,29.1393333 27.1445432,29.3136667 L25.3518348,31.081 C25.2639082,31.1676667 25.2151338,31.2833333 25.2151338,31.407 C25.214802,31.5306667 25.262581,31.6466667 25.3501758,31.734 L26.1070087,32.4866667 C26.7397488,33.1166667 26.9248925,34.0566667 26.5781628,34.882 C26.2304378,35.7186667 25.4460656,36.242 24.5687899,36.242 L24.5648083,36.242 L23.4579278,36.2396667 L23.4569324,36.2396667 C23.3351623,36.2396667 23.2210236,36.287 23.1347559,36.3733333 C23.0484882,36.4596667 23.0007092,36.575 23.0003774,36.6973333 L22.9953987,39.193 C22.9950686,39.3133333 23.0421841,39.427 23.1281199,39.5126667 C23.2147194,39.5996667 23.3305171,39.6473333 23.4539462,39.6476667 L24.898266,39.65 C25.7742146,39.652 26.5479691,40.181 26.8698139,40.998 L26.9069753,41.091 C27.2281565,41.8783333 27.0562847,42.781 26.469001,43.391 L25.6650528,44.2266667 C25.5021396,44.3956667 25.5018078,44.661 25.6643892,44.831 L27.3943876,46.6406667 C27.4766737,46.7266667 27.5874945,46.7743333 27.7066102,46.7743333 L27.7072738,46.7743333 C27.8257259,46.7743333 27.9362149,46.7273333 28.018501,46.6416667 L28.7341908,45.8986667 C29.140976,45.476 29.7010522,45.25 30.2690916,45.25 C30.551784,45.25 30.8364673,45.306 31.1055561,45.4213333 C31.9085089,45.764 32.4148338,46.5363333 32.4135066,47.397 L32.4118476,48.561 C32.4118476,48.801 32.6059498,48.9966667 32.8451767,48.997 L35.262662,49 L35.2633256,49 C35.3787915,49 35.4876215,48.955 35.5695758,48.873 C35.6515301,48.791 35.6966547,48.6816667 35.6966547,48.5653333 L35.6983137,47.4766667 C35.6996409,46.5883333 36.2275326,45.7983333 37.0434256,45.4646667 L37.1008268,45.4406667 C37.9070976,45.103 38.8308252,45.2856667 39.4536114,45.9046667 L40.2363245,46.6823333 C40.4131732,46.858 40.7008427,46.858 40.8776914,46.683 L42.663432,44.9156667 C42.7510269,44.829 42.7994695,44.713 42.7994695,44.5896667 C42.7998013,44.466 42.7516905,44.35 42.6640956,44.263 L41.9072628,43.511 C41.2745227,42.8823333 41.0887154,41.943 41.4334542,41.118 C41.7801839,40.28 42.5652196,39.7553333 43.4438226,39.7553333 L44.5463896,39.756 C44.7978931,39.756 45.0026129,39.5503333 45.0029447,39.2976667 L45.0046036,36.8083333 C45.0046036,36.5553333 44.7998838,36.3493333 44.5483804,36.3493333 L43.387085,36.3486667 C42.5025096,36.348 41.7158149,35.8176667 41.3830208,34.998 L41.3594631,34.9406667 C41.0230192,34.1293333 41.2038495,33.2016667 41.8190043,32.576 L42.5937543,31.787 C42.7679486,31.6096667 42.7679486,31.3206667 42.5940861,31.1433333 L40.8332304,29.3483333 C40.7685296,29.2823333 40.6874049,29.2386458 40.5989546,29.2209271 L40.5080677,29.212 C40.3853021,29.212 40.2698362,29.2603333 40.1835685,29.3483333 L39.4363579,30.109 C38.8109173,30.7456667 37.875245,30.9336667 37.0533796,30.587 C36.2195695,30.2386667 35.6966547,29.45 35.6966547,28.567 L35.6966547,27.4586667 C35.6966547,27.206 35.4919349,27 35.2404315,27 Z M34,34 C36.2056667,34 38,35.7943333 38,38 C38,40.2056667 36.2056667,42 34,42 C31.7943333,42 30,40.2056667 30,38 C30,37.632 30.2986667,37.3333333 30.6666667,37.3333333 C31.0346667,37.3333333 31.3333333,37.632 31.3333333,38 C31.3333333,39.4703333 32.5296667,40.6666667 34,40.6666667 C35.4703333,40.6666667 36.6666667,39.4703333 36.6666667,38 C36.6666667,36.5296667 35.4703333,35.3333333 34,35.3333333 C33.632,35.3333333 33.3333333,35.0346667 33.3333333,34.6666667 C33.3333333,34.2986667 33.632,34 34,34 Z M16.1729626,1.39400857 L16.5089784,2.84833968 C16.6686959,3.53958112 17.2185707,4.06090655 17.9102286,4.17702149 L17.9488044,4.18383176 C18.6556896,4.3053949 19.3524233,3.98735574 19.7259998,3.3744323 L20.4741679,2.14756388 C20.7269411,1.73315954 21.1252196,1.44474501 21.5959125,1.3347593 C22.0662669,1.22511411 22.5504951,1.30751826 22.9585868,1.56767021 L25.808461,3.38294513 C26.6317504,3.90733518 26.8865539,5.01332148 26.3769469,5.84859992 L25.6010313,7.12109708 C25.2335457,7.72346462 25.2592629,8.4814466 25.6670162,9.05214643 L25.7221729,9.1297834 C26.1289111,9.70899605 26.8385033,9.97902287 27.5301612,9.81830073 L29.0518763,9.46348616 C30.013565,9.23874757 30.9776224,9.84417972 31.2009562,10.8122582 L31.9531849,14.0798212 C32.0611296,14.5487076 31.9809324,15.0318956 31.7278208,15.4401707 C31.4747092,15.8487863 31.078461,16.1334552 30.6125056,16.2420789 L29.1703109,16.5785058 C28.483052,16.7385469 27.9646469,17.2918805 27.8489194,17.9882297 L27.8411366,18.0331774 C27.7216869,18.7376988 28.0367228,19.4391556 28.6444614,19.8157631 L29.8639991,20.5706804 C30.2751362,20.8250436 30.5614095,21.226168 30.6703693,21.6991406 C30.7789907,22.1724537 30.6967633,22.6590468 30.4385759,23.0697055 L28.6343098,25.9361441 C28.1131977,26.7649528 27.0131097,27.0206781 26.1827142,26.5068439 L24.9218936,25.7260476 C24.3232914,25.3555694 23.5693708,25.3811079 23.0019,25.7914261 L22.9264403,25.8455676 C22.3508483,26.2548643 22.082171,26.9685796 22.2415501,27.6639072 L22.569783,29.0933808 C22.6756974,29.554095 22.5968538,30.0291106 22.3474644,30.430235 C22.0987518,30.8313593 21.7089329,31.1109205 21.2510987,31.2175011 L18.0821279,31.9536902 C17.9494812,31.9846769 17.8158193,32 17.6828342,32 C17.35697,32 17.0368582,31.908402 16.7536304,31.7303137 C16.3550135,31.4796961 16.0771998,31.0877656 15.9716239,30.626711 L15.6207191,29.0991696 C15.4681077,28.4338071 14.9415815,27.9288263 14.279363,27.8123709 L14.2434943,27.8059011 C13.5619879,27.6839974 12.8591633,28.0037392 12.5021677,28.6027016 L11.7902067,29.7968807 C11.5421709,30.2133282 11.1465994,30.5027642 10.6765834,30.6117284 C10.2069057,30.7213736 9.7247078,30.6348833 9.32033834,30.3699642 L6.50531777,28.5254051 C5.70808392,28.0030581 5.46681578,26.9508729 5.95611975,26.129896 L6.75639907,24.7875937 C7.10053609,24.2104241 7.07177341,23.4813857 6.68296963,22.9304357 L6.59769674,22.807851 C6.20381719,22.2351081 5.51385122,21.9657623 4.8380974,22.1227388 L2.94551295,22.5623411 C2.47820397,22.6706242 1.99837476,22.5906037 1.59265176,22.3376025 C1.18557522,22.0835798 0.902685787,21.6858606 0.795417904,21.2176552 L0.0458962603,17.9412389 C-0.17574558,16.9728198 0.426917195,16.0037198 1.3889443,15.7803432 L2.84027537,15.4442569 C3.52719589,15.2852373 4.04661608,14.7325847 4.16335872,14.0372571 L4.1704648,13.996055 C4.29194483,13.2860853 3.97758564,12.5839475 3.36917033,12.2069996 L2.14963263,11.4507202 C1.73815709,11.1953354 1.45188381,10.7938705 1.34393916,10.3198764 C1.23565612,9.84588228 1.31856032,9.35894866 1.57810123,8.94897098 L3.39116532,6.0808298 C3.91396936,5.25474521 5.01371895,5.00106301 5.84174579,5.51387562 L7.10933409,6.29977967 C7.70624433,6.66957681 8.46016497,6.64471936 9.02966606,6.2350822 L9.07839343,6.20069038 C9.65567737,5.78935065 9.92503142,5.07393279 9.76429879,4.3786052 L9.43877291,2.96888129 C9.21510076,2.00114328 9.81573323,1.03034066 10.7777603,0.805602065 L14.023206,0.0465985393 C14.9855715,-0.177118516 15.9496289,0.426270559 16.1729626,1.39400857 Z M14.252969,1.04157759 L11.0075234,1.80058112 C10.8058462,1.84757191 10.6342853,1.97117814 10.5246487,2.14824491 C10.4150122,2.32531168 10.3804969,2.53438668 10.4275324,2.73767295 L10.7530583,4.14739686 C11.0075234,5.24895649 10.5804822,6.38218382 9.66481375,7.03426626 L9.32507572,6.65050809 L9.62048538,7.06627449 C8.71835233,7.71563282 7.5235167,7.75649438 6.5767169,7.16944993 L5.30912861,6.38354588 C4.95077943,6.16153139 4.47399569,6.27117658 4.24795485,6.62939628 L2.43455237,9.49719695 C2.32220872,9.67494475 2.28633996,9.88572231 2.33303702,10.0910517 C2.38007247,10.296381 2.50392119,10.4703832 2.68224982,10.5810499 L3.90178751,11.3369888 C4.86516816,11.9342486 5.36327012,13.0460237 5.17072935,14.1693761 L4.66382938,14.1220448 L5.16430004,14.2071731 C4.97886534,15.3111163 4.15625265,16.1875968 3.06766975,16.439917 L1.61701544,16.7760033 C1.20012575,16.872709 0.939231312,17.2925616 1.03533251,17.7117331 L1.78485415,20.9884899 C1.83087444,21.1890521 1.95235447,21.3599896 2.12763764,21.4692943 C2.30393596,21.57928 2.51305757,21.6140123 2.71710342,21.566681 L4.61002625,21.1274192 C5.693195,20.8764611 6.80106582,21.3078911 7.43249128,22.2262547 L7.51065809,22.3389645 C8.13294717,23.2205528 8.17829069,24.3881719 7.62706236,25.3130053 L6.82678304,26.6553076 C6.61969173,27.0029714 6.72188385,27.4480219 7.05925318,27.6690149 L9.87461213,29.5139144 C10.0458347,29.6262837 10.2502189,29.6627186 10.4481738,29.6164088 C10.6471439,29.5700991 10.8146442,29.4478549 10.9195434,29.2714692 L11.6318428,28.07729 C12.1225003,27.2539295 13.0188808,26.7595046 13.9575594,26.7595046 C14.1132162,26.7595046 14.2702266,26.7731251 14.4265603,26.8010472 C15.5188654,26.993437 16.365165,27.803177 16.609817,28.8693233 L16.9607217,30.3968647 C17.0531007,30.7996916 17.4537479,31.0506497 17.8540568,30.9587112 L21.0223507,30.2221815 C21.2162451,30.1772338 21.3810383,30.0587353 21.4866143,29.8888193 C21.5921902,29.7192438 21.6253519,29.5183411 21.5806852,29.3232271 L21.2527906,27.8937535 C21.0000174,26.7921938 21.4270586,25.6606691 22.3406967,25.0109702 L22.4100655,24.9615958 C23.310845,24.3101944 24.5063574,24.2693329 25.4541724,24.8563773 L26.714993,25.6368332 C27.074019,25.8591882 27.5504643,25.7485214 27.7768435,25.3896207 L29.5807712,22.5231821 C29.6927765,22.3454343 29.7283069,22.1346567 29.6812714,21.9293274 C29.634236,21.7246791 29.5100489,21.5510174 29.3320586,21.4406912 L28.1125209,20.6857738 C27.1498171,20.0895355 26.6507,18.9791226 26.8412104,17.8567916 L27.3481104,17.9041229 L26.8476397,17.8200162 C27.0310441,16.714711 27.85298,15.8368684 28.9412246,15.5831862 L30.3834193,15.2467593 C30.5850964,15.1997685 30.7569957,15.0765028 30.8666323,14.899436 C30.9762689,14.7227098 31.0107841,14.5136348 30.964087,14.3103485 L30.2118583,11.0427856 C30.1648229,10.8398398 30.0426661,10.6671997 29.8667061,10.5568735 C29.6910846,10.4465473 29.4826397,10.4114744 29.2809626,10.4584652 L27.7592475,10.8132798 C26.6642353,11.068324 25.5394453,10.6389371 24.8931309,9.71955195 L24.8423732,9.64804422 C24.1957205,8.74227958 24.1537608,7.54094964 24.7357821,6.58683215 L25.5120361,5.31433499 C25.7326628,4.95236965 25.6220111,4.47326782 25.2656922,4.24614564 L22.4154797,2.43087072 C22.238843,2.31816091 22.0290446,2.28206653 21.8253371,2.32973835 C21.6212913,2.37741017 21.4490536,2.50237845 21.339417,2.68216933 L20.5912489,3.90903775 C19.9994144,4.87915935 18.8945891,5.38243759 17.7792738,5.19072876 L17.7410364,5.18425901 C16.6453474,5.00038198 15.7729922,4.17395688 15.520219,3.07954803 L15.1842032,1.62521691 C15.0870868,1.20604538 14.669182,0.944531378 14.252969,1.04157759 Z M16,10 C16.368,10 16.6666667,10.2986667 16.6666667,10.6666667 C16.6666667,11.0346667 16.368,11.3333333 16,11.3333333 C13.4266667,11.3333333 11.3333333,13.4266667 11.3333333,16 C11.3333333,18.5733333 13.4266667,20.6666667 16,20.6666667 C18.5733333,20.6666667 20.6666667,18.5733333 20.6666667,16 C20.6666667,15.632 20.9653333,15.3333333 21.3333333,15.3333333 C21.7013333,15.3333333 22,15.632 22,16 C22,19.3083333 19.3083333,22 16,22 C12.6916667,22 10,19.3083333 10,16 C10,12.6916667 12.6916667,10 16,10 Z" id="Combined-Shape"></path>
                </g>
            </g>
        </g>
    </g>
</svg>