<?xml version="1.0" encoding="UTF-8"?>
<svg width="120px" height="126px" viewBox="0 0 120 126" version="1.1" xmlns="http://www.w3.org/2000/svg" xmlns:xlink="http://www.w3.org/1999/xlink">
    <title>0B663F40-9017-4F71-8B1C-5E5A1B22487F</title>
    <defs>
        <polygon id="path-1" points="0 0 120 0 120 40.9781084 0 40.9781084"></polygon>
        <linearGradient x1="100%" y1="44.1695101%" x2="14.8544808%" y2="55.8304899%" id="linearGradient-3">
            <stop stop-color="#DDD12A" offset="0%"></stop>
            <stop stop-color="#5BB3AF" offset="100%"></stop>
        </linearGradient>
        <linearGradient x1="100%" y1="44.1695101%" x2="14.8544808%" y2="55.8304899%" id="linearGradient-4">
            <stop stop-color="#45AFC3" offset="0%"></stop>
            <stop stop-color="#45AFC3" offset="100%"></stop>
        </linearGradient>
        <linearGradient x1="100%" y1="0%" x2="14.8544808%" y2="100%" id="linearGradient-5">
            <stop stop-color="#DDD12A" offset="0%"></stop>
            <stop stop-color="#5BB3AF" offset="100%"></stop>
        </linearGradient>
        <linearGradient x1="100%" y1="0%" x2="14.8544808%" y2="100%" id="linearGradient-6">
            <stop stop-color="#45AFC3" offset="0%"></stop>
            <stop stop-color="#45AFC3" offset="100%"></stop>
        </linearGradient>
        <linearGradient x1="62.5%" y1="0%" x2="41.2136202%" y2="100%" id="linearGradient-7">
            <stop stop-color="#DDD12A" offset="0%"></stop>
            <stop stop-color="#5BB3AF" offset="100%"></stop>
        </linearGradient>
        <linearGradient x1="62.5%" y1="0%" x2="41.2136202%" y2="100%" id="linearGradient-8">
            <stop stop-color="#45AFC3" offset="0%"></stop>
            <stop stop-color="#45AFC3" offset="100%"></stop>
        </linearGradient>
        <linearGradient x1="51.183432%" y1="0%" x2="49.1681534%" y2="100%" id="linearGradient-9">
            <stop stop-color="#DDD12A" offset="0%"></stop>
            <stop stop-color="#5BB3AF" offset="100%"></stop>
        </linearGradient>
        <linearGradient x1="51.183432%" y1="0%" x2="49.1681534%" y2="100%" id="linearGradient-10">
            <stop stop-color="#45AFC3" offset="0%"></stop>
            <stop stop-color="#45AFC3" offset="100%"></stop>
        </linearGradient>
        <linearGradient x1="51.6528926%" y1="0%" x2="48.8381647%" y2="100%" id="linearGradient-11">
            <stop stop-color="#DDD12A" offset="0%"></stop>
            <stop stop-color="#5BB3AF" offset="100%"></stop>
        </linearGradient>
        <linearGradient x1="51.6528926%" y1="0%" x2="48.8381647%" y2="100%" id="linearGradient-12">
            <stop stop-color="#45AFC3" offset="0%"></stop>
            <stop stop-color="#45AFC3" offset="100%"></stop>
        </linearGradient>
    </defs>
    <g id="Handed-Over" stroke="none" stroke-width="1" fill="none" fill-rule="evenodd">
        <g id="Karriere" transform="translate(-1318.000000, -6145.000000)">
            <g id="Group-20" transform="translate(0.000000, 5140.000000)">
                <g id="Group-18" transform="translate(1318.000000, 1005.000000)">
                    <g id="Group-3" transform="translate(0.000000, 84.882639)">
                        <mask id="mask-2" fill="white">
                            <use xlink:href="#path-1"></use>
                        </mask>
                        <g id="Clip-2"></g>
                        <path d="M116.810879,20.392463 C116.368901,21.6408318 115.405915,22.6301604 114.170718,23.1072626 L78.3690225,36.9651808 C76.5089091,37.6852247 74.5536679,38.0511007 72.5589121,38.0511007 L20.4889079,38.0511007 L20.4889079,8.02585524 L21.8792365,6.91359229 C25.093091,4.34221599 29.1279712,2.92700774 33.2418806,2.92700774 C38.6568449,2.92700774 43.7498384,5.31251906 47.2154156,9.47179706 L48.6394048,11.1811696 C48.9174706,11.516312 49.3301787,11.708031 49.7633758,11.708031 L76.839661,11.708031 C79.6627599,11.708031 81.9619245,14.0071956 81.9619245,16.8302945 C81.9619245,19.654857 79.6627599,21.9525581 76.839661,21.9525581 L49.7589853,21.9525581 C48.9511312,21.9525581 48.2954814,22.6082078 48.2954814,23.416062 C48.2954814,24.2253796 48.9511312,24.8795658 49.7589853,24.8795658 L76.839661,24.8795658 C77.9738765,24.8795658 79.0539423,24.6410147 80.0344899,24.2151351 L111.18517,14.536984 C113.232612,13.8988963 115.408842,14.755046 116.474273,16.61955 C117.131386,17.769864 117.25432,19.1440942 116.810879,20.392463 L116.810879,20.392463 Z M2.92686139,38.0511007 L17.5619001,38.0511007 L17.5619001,8.78102323 L2.92686139,8.78102323 L2.92686139,38.0511007 Z M119.014916,15.1677541 C117.263101,12.1017135 113.687761,10.6967498 110.315849,11.7416916 L84.3049942,19.8231599 C84.6781877,18.896762 84.8889323,17.8884078 84.8889323,16.8302945 C84.8889323,12.3929508 81.2770047,8.78102323 76.839661,8.78102323 L50.4497591,8.78102323 L49.4633575,7.5985121 C45.4401854,2.77041283 39.5276297,0 33.2418806,0 C28.4664675,0 23.7817916,1.64351485 20.0498567,4.62759924 L18.5161046,5.85401549 L1.46335752,5.85401549 C0.655503384,5.85401549 -0.000146350387,6.50966522 -0.000146350387,7.31751936 L-0.000146350387,39.5146045 C-0.000146350387,40.3239222 0.655503384,40.9781084 1.46335752,40.9781084 L72.5589121,40.9781084 C74.9166169,40.9781084 77.2274895,40.5463748 79.4271358,39.6946155 L115.227368,25.8381609 C117.258711,25.0522593 118.840759,23.4233795 119.569584,21.371547 C120.298408,19.3197146 120.096445,17.0586011 119.014916,15.1677541 L119.014916,15.1677541 Z" id="Fill-1" fill="url(#linearGradient-4)" mask="url(#mask-2)"></path>
                    </g>
                    <path d="M10.2445271,99.5182633 C11.0509177,99.5182633 11.708031,100.173913 11.708031,100.981767 C11.708031,101.789621 11.0509177,102.445271 10.2445271,102.445271 C9.43813647,102.445271 8.78102323,101.789621 8.78102323,100.981767 C8.78102323,100.173913 9.43813647,99.5182633 10.2445271,99.5182633 M10.2445271,105.372279 C12.6651625,105.372279 14.6350387,103.402403 14.6350387,100.981767 C14.6350387,98.5611318 12.6651625,96.5912556 10.2445271,96.5912556 C7.8238917,96.5912556 5.85401549,98.5611318 5.85401549,100.981767 C5.85401549,103.402403 7.8238917,105.372279 10.2445271,105.372279" id="Fill-4" fill="url(#linearGradient-6)"></path>
                    <path d="M74.6386975,8.78102323 C88.3575828,8.78102323 99.5182633,19.9417038 99.5182633,33.6605891 C99.5182633,47.3794744 88.3575828,58.5401549 74.6386975,58.5401549 C60.9198122,58.5401549 49.7591317,47.3794744 49.7591317,33.6605891 C49.7591317,19.9417038 60.9198122,8.78102323 74.6386975,8.78102323 M74.6386975,61.4671626 C89.9718276,61.4671626 102.445271,48.9937191 102.445271,33.6605891 C102.445271,18.327459 89.9718276,5.85401549 74.6386975,5.85401549 C59.3055674,5.85401549 46.8321239,18.327459 46.8321239,33.6605891 C46.8321239,48.9937191 59.3055674,61.4671626 74.6386975,61.4671626" id="Fill-6" fill="url(#linearGradient-6)"></path>
                    <path d="M74.6386975,2.92700774 C91.5860723,2.92700774 105.372279,16.7146777 105.372279,33.6605891 C105.372279,50.6065004 91.5860723,64.3941704 74.6386975,64.3941704 C57.6913226,64.3941704 43.9051162,50.6065004 43.9051162,33.6605891 C43.9051162,16.7146777 57.6913226,2.92700774 74.6386975,2.92700774 M74.6386975,67.3211781 C93.1988536,67.3211781 108.299287,52.2222087 108.299287,33.6605891 C108.299287,15.0989694 93.1988536,0 74.6386975,0 C56.0785414,0 40.9781084,15.0989694 40.9781084,33.6605891 C40.9781084,52.2222087 56.0785414,67.3211781 74.6386975,67.3211781" id="Fill-8" fill="url(#linearGradient-6)"></path>
                    <path d="M72.056784,31.7469114 C69.3127142,31.2902982 67.3208854,28.9384475 67.3208854,26.1563266 C67.3208854,23.0317458 69.8629916,20.4896396 72.9890359,20.4896396 L73.1749009,20.4896396 L73.1749009,31.9327764 L72.056784,31.7469114 Z M76.1019087,35.388109 L77.2200256,35.573974 C79.9640954,36.0320507 81.9559241,38.382438 81.9559241,41.1660223 C81.9559241,44.2891396 79.4138179,46.8327093 76.2892371,46.8327093 L76.1019087,46.8327093 L76.1019087,35.388109 Z M72.9890359,49.7597171 L73.1749009,49.7597171 L73.1749009,52.3208488 C73.1749009,53.128703 73.8305506,53.7843527 74.6384048,53.7843527 C75.4462589,53.7843527 76.1019087,53.128703 76.1019087,52.3208488 L76.1019087,49.7597171 L76.2892371,49.7597171 C81.0280627,49.7597171 84.8829319,45.9048479 84.8829319,41.1660223 C84.8829319,36.9467407 81.8637234,33.3801817 77.7015184,32.6879444 L76.1019087,32.4201232 L76.1019087,20.4896396 L76.2892371,20.4896396 C79.4138179,20.4896396 81.9559241,23.0317458 81.9559241,26.1563266 L81.9559241,26.3436551 C81.9559241,27.1515092 82.6115739,27.807159 83.419428,27.807159 C84.2272822,27.807159 84.8829319,27.1515092 84.8829319,26.3436551 L84.8829319,26.1563266 C84.8829319,21.4160376 81.0280627,17.5626319 76.2892371,17.5626319 L76.1019087,17.5626319 L76.1019087,14.2697482 C76.1019087,13.4604305 75.4462589,12.8062443 74.6384048,12.8062443 C73.8305506,12.8062443 73.1749009,13.4604305 73.1749009,14.2697482 L73.1749009,17.5626319 L72.9890359,17.5626319 C68.2487469,17.5626319 64.3938777,21.4160376 64.3938777,26.1563266 C64.3938777,30.3756083 67.4145497,33.9407037 71.5752912,34.6344045 L73.1749009,34.9007622 L73.1749009,46.8327093 L72.9890359,46.8327093 C69.8629916,46.8327093 67.3208854,44.2891396 67.3208854,41.1660223 L67.3208854,40.9786938 C67.3208854,40.1693762 66.6652357,39.51519 65.8573815,39.51519 C65.0495274,39.51519 64.3938777,40.1693762 64.3938777,40.9786938 L64.3938777,41.1660223 C64.3938777,45.9048479 68.2487469,49.7597171 72.9890359,49.7597171 L72.9890359,49.7597171 Z" id="Fill-10" fill="url(#linearGradient-8)"></path>
                    <path d="M73.1751936,73.1751936 L73.1751936,89.2737362 C73.1751936,90.0830538 73.8308433,90.7372401 74.6386975,90.7372401 C75.4465516,90.7372401 76.1022014,90.0830538 76.1022014,89.2737362 L76.1022014,73.1751936 C76.1022014,72.365876 75.4465516,71.7116897 74.6386975,71.7116897 C73.8308433,71.7116897 73.1751936,72.365876 73.1751936,73.1751936" id="Fill-12" fill="url(#linearGradient-10)"></path>
                    <path d="M83.4197207,70.2481859 L83.4197207,83.4197207 C83.4197207,84.2290384 84.0753704,84.8832246 84.8832246,84.8832246 C85.6910787,84.8832246 86.3467285,84.2290384 86.3467285,83.4197207 L86.3467285,70.2481859 C86.3467285,69.4388682 85.6910787,68.784682 84.8832246,68.784682 C84.0753704,68.784682 83.4197207,69.4388682 83.4197207,70.2481859" id="Fill-14" fill="url(#linearGradient-12)"></path>
                    <path d="M62.9306665,70.2481859 L62.9306665,83.4197207 C62.9306665,84.2290384 63.5863162,84.8832246 64.3941704,84.8832246 C65.2020245,84.8832246 65.8576742,84.2290384 65.8576742,83.4197207 L65.8576742,70.2481859 C65.8576742,69.4388682 65.2020245,68.784682 64.3941704,68.784682 C63.5863162,68.784682 62.9306665,69.4388682 62.9306665,70.2481859" id="Fill-16" fill="url(#linearGradient-12)"></path>
                </g>
            </g>
        </g>
    </g>
</svg>