<?xml version="1.0" encoding="UTF-8"?>
<svg width="134px" height="106px" viewBox="0 0 134 106" version="1.1" xmlns="http://www.w3.org/2000/svg" xmlns:xlink="http://www.w3.org/1999/xlink">
    <title>1C12B455-CDC9-44AB-A7A8-C53F1F9B7CC9</title>
    <defs>
        <polygon id="path-1" points="0 0 133.999724 0 133.999724 105.628472 0 105.628472"></polygon>
        <linearGradient x1="100%" y1="18.9312242%" x2="14.8544808%" y2="81.0687758%" id="linearGradient-3">
            <stop stop-color="#DDD12A" offset="0%"></stop>
            <stop stop-color="#5BB3AF" offset="100%"></stop>
        </linearGradient>
        <linearGradient x1="100%" y1="18.9312242%" x2="14.8544808%" y2="81.0687758%" id="linearGradient-4">
            <stop stop-color="#46B0BA" offset="0%"></stop>
            <stop stop-color="#46B0BA" offset="100%"></stop>
        </linearGradient>
        <linearGradient x1="99.9977731%" y1="0%" x2="14.8560461%" y2="100%" id="linearGradient-5">
            <stop stop-color="#DDD12A" offset="0%"></stop>
            <stop stop-color="#5BB3AF" offset="100%"></stop>
        </linearGradient>
        <linearGradient x1="99.9977731%" y1="0%" x2="14.8560461%" y2="100%" id="linearGradient-6">
            <stop stop-color="#46B0BA" offset="0%"></stop>
            <stop stop-color="#46B0BA" offset="100%"></stop>
        </linearGradient>
        <polygon id="path-7" points="0 105.628472 134 105.628472 134 0 0 0"></polygon>
        <linearGradient x1="100%" y1="28.6323151%" x2="14.8544808%" y2="71.3676849%" id="linearGradient-9">
            <stop stop-color="#DDD12A" offset="0%"></stop>
            <stop stop-color="#5BB3AF" offset="100%"></stop>
        </linearGradient>
        <linearGradient x1="100%" y1="28.6323151%" x2="14.8544808%" y2="71.3676849%" id="linearGradient-10">
            <stop stop-color="#46B0BA" offset="0%"></stop>
            <stop stop-color="#46B0BA" offset="100%"></stop>
        </linearGradient>
        <linearGradient x1="71.3676849%" y1="0%" x2="34.9804324%" y2="100%" id="linearGradient-11">
            <stop stop-color="#DDD12A" offset="0%"></stop>
            <stop stop-color="#5BB3AF" offset="100%"></stop>
        </linearGradient>
        <linearGradient x1="71.3676849%" y1="0%" x2="34.9804324%" y2="100%" id="linearGradient-12">
            <stop stop-color="#46B0BA" offset="0%"></stop>
            <stop stop-color="#46B0BA" offset="100%"></stop>
        </linearGradient>
        <linearGradient x1="71.3648915%" y1="0%" x2="34.9823959%" y2="100%" id="linearGradient-13">
            <stop stop-color="#DDD12A" offset="0%"></stop>
            <stop stop-color="#5BB3AF" offset="100%"></stop>
        </linearGradient>
        <linearGradient x1="71.3648915%" y1="0%" x2="34.9823959%" y2="100%" id="linearGradient-14">
            <stop stop-color="#46B0BA" offset="0%"></stop>
            <stop stop-color="#46B0BA" offset="100%"></stop>
        </linearGradient>
        <linearGradient x1="100%" y1="32.9685165%" x2="14.8544808%" y2="67.0314835%" id="linearGradient-15">
            <stop stop-color="#DDD12A" offset="0%"></stop>
            <stop stop-color="#5BB3AF" offset="100%"></stop>
        </linearGradient>
        <linearGradient x1="100%" y1="32.9685165%" x2="14.8544808%" y2="67.0314835%" id="linearGradient-16">
            <stop stop-color="#46B0BA" offset="0%"></stop>
            <stop stop-color="#46B0BA" offset="100%"></stop>
        </linearGradient>
    </defs>
    <g id="Handed-Over" stroke="none" stroke-width="1" fill="none" fill-rule="evenodd">
        <g id="Karriere" transform="translate(-1311.000000, -5485.000000)">
            <g id="Group-20" transform="translate(0.000000, 5140.000000)">
                <g id="Group-13" transform="translate(1311.000000, 345.000000)">
                    <g id="Group-3">
                        <mask id="mask-2" fill="white">
                            <use xlink:href="#path-1"></use>
                        </mask>
                        <g id="Clip-2"></g>
                        <path d="M81.169102,61.4885303 C81.169102,56.7317973 85.0391543,52.861745 89.7958873,52.861745 C94.5526203,52.861745 98.4222223,56.7317973 98.4222223,61.4885303 C98.4222223,66.2452632 94.5526203,70.1153156 89.7958873,70.1153156 C85.0391543,70.1153156 81.169102,66.2452632 81.169102,61.4885303 M98.638376,15.5216389 C101.460533,14.2076044 104.479931,13.5415807 107.613259,13.5415807 C119.358962,13.5415807 128.914758,23.0973767 128.914758,34.8430802 C128.914758,41.0345335 126.227247,46.9071601 121.536711,50.9604928 C116.54356,55.3002292 109.698242,57.1073644 103.088441,55.6712931 C102.507978,55.548806 101.923913,55.3943461 101.323185,55.2083639 C99.3016978,51.5130358 95.5554835,48.8908209 91.1743176,48.4314942 C88.0220758,44.6145796 86.2946472,39.8254236 86.2946472,34.8430802 C86.2946472,26.5801536 91.1387423,18.9967604 98.638376,15.5216389 M52.8317987,61.4885303 C52.8317987,66.2452632 48.9617463,70.1153156 44.2050133,70.1153156 C39.4482804,70.1153156 35.578228,66.2452632 35.578228,61.4885303 C35.578228,56.7317973 39.4482804,52.861745 44.2050133,52.861745 C48.9617463,52.861745 52.8317987,56.7317973 52.8317987,61.4885303 M26.3862908,56.1616919 C21.2665997,56.1616919 16.3216328,54.3144781 12.457885,50.9559896 C7.77230262,46.9076104 5.08524159,41.0345335 5.08524159,34.8430802 C5.08524159,26.5774517 9.92123092,19.0008133 17.4213149,15.5346982 C20.2268102,14.2121076 23.2430553,13.5415807 26.3862908,13.5415807 C38.141451,13.5415807 47.7049024,23.0973767 47.7049024,34.8430802 C47.7049024,39.8254236 45.9779242,44.6150299 42.8256824,48.4314942 C38.4413643,48.8912712 34.6924481,51.5170886 32.6723114,55.2169199 C30.6719887,55.8437658 28.561788,56.1616919 26.3862908,56.1616919 M133.544051,86.1228501 L127.099517,59.8615232 L122.726007,60.9346363 L129.170991,87.1977645 C129.944191,90.3373974 129.32545,93.6598603 127.474184,96.3131473 C125.621566,98.9686859 122.713848,100.697465 119.497661,101.056371 C115.070112,101.545418 110.766401,99.3775767 108.533714,95.5214843 L95.582953,73.2707097 C99.9280933,71.1276355 102.925425,66.6523528 102.925425,61.4885303 C102.925425,61.0571235 102.903359,60.6311205 102.86238,60.2105214 C104.433998,60.5063818 106.027681,60.6648945 107.613259,60.6648945 C113.819122,60.6648945 119.812885,58.4254518 124.485859,54.363563 C130.162146,49.4586747 133.417961,42.3436145 133.417961,34.8430802 C133.417961,20.6143108 121.842028,9.03837804 107.613259,9.03837804 C104.977534,9.03837804 102.409358,9.4373618 99.9398016,10.2087604 L99.9398016,6.05815853 C99.9398016,5.20029842 100.637348,4.50320265 101.494757,4.50320265 L113.732211,4.50320265 C114.58917,4.50320265 115.287167,5.20029842 115.287167,6.05815853 L115.287167,8.30975985 L119.790369,8.30975985 L119.790369,6.05815853 C119.790369,2.7176828 117.072686,0 113.732211,0 L101.494757,0 C98.1542817,0 95.4365989,2.7176828 95.4365989,6.05815853 L95.4365989,12.0924501 C92.9976644,13.3965776 90.8181143,15.0699677 88.9542387,17.0248079 L45.0372052,17.0248079 C40.3331597,12.1095622 33.7139021,9.03837804 26.3862908,9.03837804 C23.7424605,9.03837804 21.1733834,9.4396134 18.7128335,10.2137139 L18.7128335,6.05815853 C18.7128335,5.20074874 19.4103795,4.50320265 20.2677893,4.50320265 L32.5052425,4.50320265 C33.362202,4.50320265 34.0601984,5.20074874 34.0601984,6.05815853 L34.0601984,8.30975985 L38.5634011,8.30975985 L38.5634011,6.05815853 C38.5634011,2.7176828 35.8457183,0 32.5052425,0 L20.2677893,0 C16.9273136,0 14.2096308,2.7176828 14.2096308,6.05815853 L14.2096308,12.1086616 C5.88681167,16.5515213 0.582038943,25.3183563 0.582038943,34.8430802 C0.582038943,41.8779834 3.44607583,48.5733451 8.48065639,53.4210427 L0.455949268,86.1210488 C-0.626620649,90.5193268 0.239345221,95.1733867 2.83228931,98.8898799 C5.42658435,102.608174 9.49838019,105.029096 14.0051854,105.531653 C14.5883501,105.5965 15.1692633,105.628472 15.7474745,105.628472 C21.3156846,105.628472 26.5294926,102.67212 29.3579542,97.7865952 L40.4898712,78.6610433 L36.5977531,76.3959323 L25.4631342,95.5259875 C23.2335986,99.3775767 18.9325897,101.54767 14.5032396,101.056371 C11.2857013,100.697465 8.37798337,98.9682356 6.5253658,96.3131473 C4.67409919,93.65941 4.05580947,90.3373974 4.82900936,87.1959632 L12.3601655,56.5061869 C16.511668,59.2049562 21.3796301,60.6648945 26.3862908,60.6648945 C28.0015896,60.6648945 29.5880679,60.5144875 31.1367192,60.2262826 C31.0970911,60.6419282 31.0750254,61.0625273 31.0750254,61.4885303 C31.0750254,68.7283292 36.9647641,74.6185182 44.2050133,74.6185182 C50.6765659,74.6185182 56.0664491,69.9104199 57.137761,63.7401316 L72.9669687,63.7401316 L72.9669687,59.236929 L57.137761,59.236929 C56.2866557,54.3356432 52.7120135,50.3584146 48.0327356,48.9295484 C50.7418623,44.7631853 52.2081051,39.8857665 52.2081051,34.8430802 C52.2081051,29.9746678 50.8512901,25.417877 48.4965655,21.5280106 L85.5146925,21.5280106 C83.1306971,25.4786703 81.7914446,30.0660828 81.7914446,34.8430802 C81.7914446,39.8857665 83.2576874,44.7631853 85.9677147,48.9295484 C80.5895398,50.5723167 76.6658993,55.5798781 76.6658993,61.4885303 C76.6658993,68.7283292 82.5560884,74.6185182 89.7958873,74.6185182 C90.2421547,74.6185182 90.6830182,74.5955519 91.1184779,74.5518708 L104.639344,97.7825424 C107.470057,102.67212 112.683415,105.628472 118.252976,105.628472 C118.830737,105.628472 119.41255,105.5965 119.995715,105.531653 C124.50162,105.029096 128.573416,102.608174 131.16726,98.8898799 C133.760204,95.1733867 134.62617,90.5193268 133.544051,86.1228501" id="Fill-1" fill="url(#linearGradient-4)" mask="url(#mask-2)"></path>
                    </g>
                    <polygon id="Fill-4" fill="url(#linearGradient-6)" points="36.499223 37.1028323 36.499223 32.5996297 28.6402338 32.5996297 28.6402338 24.7406404 24.1370311 24.7406404 24.1370311 32.5996297 16.2784922 32.5996297 16.2784922 37.1028323 24.1370311 37.1028323 24.1370311 44.9618216 28.6402338 44.9618216 28.6402338 37.1028323"></polygon>
                    <mask id="mask-8" fill="white">
                        <use xlink:href="#path-7"></use>
                    </mask>
                    <g id="Clip-7"></g>
                    <polygon id="Fill-6" fill="url(#linearGradient-10)" mask="url(#mask-8)" points="97.5010922 37.1027873 104.389641 37.1027873 104.389641 32.5995846 97.5010922 32.5995846"></polygon>
                    <polygon id="Fill-8" fill="url(#linearGradient-10)" mask="url(#mask-8)" points="110.833724 37.1027873 117.722273 37.1027873 117.722273 32.5995846 110.833724 32.5995846"></polygon>
                    <polygon id="Fill-9" fill="url(#linearGradient-12)" mask="url(#mask-8)" points="105.360081 31.6291445 109.863284 31.6291445 109.863284 24.7405954 105.360081 24.7405954"></polygon>
                    <polygon id="Fill-10" fill="url(#linearGradient-14)" mask="url(#mask-8)" points="105.360081 44.9617765 109.863284 44.9617765 109.863284 38.0727771 105.360081 38.0727771"></polygon>
                    <polygon id="Fill-11" fill="url(#linearGradient-16)" mask="url(#mask-8)" points="56.4071164 46.6036442 64.1229038 46.6036442 64.1229038 42.1004416 56.4071164 42.1004416"></polygon>
                    <polygon id="Fill-12" fill="url(#linearGradient-16)" mask="url(#mask-8)" points="69.8779968 46.6036442 77.5937842 46.6036442 77.5937842 42.1004416 69.8779968 42.1004416"></polygon>
                </g>
            </g>
        </g>
    </g>
</svg>