<?xml version="1.0" encoding="UTF-8"?>
<svg width="143px" height="117px" viewBox="0 0 143 117" version="1.1" xmlns="http://www.w3.org/2000/svg" xmlns:xlink="http://www.w3.org/1999/xlink">
    <title>C71834FD-E72D-40ED-8FEB-6468BE744337</title>
    <defs>
        <linearGradient x1="100%" y1="9.5%" x2="14.8544808%" y2="90.5%" id="linearGradient-1">
            <stop stop-color="#DDD12A" offset="0%"></stop>
            <stop stop-color="#5BB3AF" offset="100%"></stop>
        </linearGradient>
        <linearGradient x1="100%" y1="9.5%" x2="14.8544808%" y2="90.5%" id="linearGradient-2">
            <stop stop-color="#45AFC3" offset="0%"></stop>
            <stop stop-color="#45AFC3" offset="100%"></stop>
        </linearGradient>
        <linearGradient x1="100%" y1="0%" x2="14.8544808%" y2="100%" id="linearGradient-3">
            <stop stop-color="#DDD12A" offset="0%"></stop>
            <stop stop-color="#5BB3AF" offset="100%"></stop>
        </linearGradient>
        <linearGradient x1="100%" y1="0%" x2="14.8544808%" y2="100%" id="linearGradient-4">
            <stop stop-color="#45AFC3" offset="0%"></stop>
            <stop stop-color="#45AFC3" offset="100%"></stop>
        </linearGradient>
    </defs>
    <g id="Handed-Over" stroke="none" stroke-width="1" fill="none" fill-rule="evenodd">
        <g id="Karriere" transform="translate(-900.000000, -6158.000000)">
            <g id="Group-20" transform="translate(0.000000, 5140.000000)">
                <g id="Group-7" transform="translate(900.000000, 1018.000000)">
                    <path d="M70.0409593,99.2246923 L49.0753655,99.2246923 C49.4022233,98.3083231 49.6123461,97.3335864 49.6123461,96.306319 L49.6123461,87.5511991 L52.5307195,87.5511991 C54.1416615,87.5511991 55.4490928,86.2466862 55.4490928,84.6328258 C55.4490928,83.0189653 54.1416615,81.7144525 52.5307195,81.7144525 L8.75511991,81.7144525 C7.14709622,81.7144525 5.83674661,80.4070212 5.83674661,78.7960792 L5.83674661,8.75511991 C5.83674661,7.14417785 7.14709622,5.83674661 8.75511991,5.83674661 L107.979812,5.83674661 C109.587836,5.83674661 110.898186,7.14417785 110.898186,8.75511991 L110.898186,26.2653597 C110.898186,27.8792202 112.205617,29.183733 113.816559,29.183733 C115.427501,29.183733 116.734932,27.8792202 116.734932,26.2653597 L116.734932,8.75511991 C116.734932,3.92813047 112.806802,0 107.979812,0 L8.75511991,0 C3.92813047,0 0,3.92813047 0,8.75511991 L0,78.7960792 C0,83.6230686 3.92813047,87.5511991 8.75511991,87.5511991 L43.7755995,87.5511991 L43.7755995,96.306319 C43.7755995,97.9172611 42.4652499,99.2246923 40.8572262,99.2246923 L37.9388529,99.2246923 C36.3279109,99.2246923 35.0204796,100.529205 35.0204796,102.143066 C35.0204796,103.756926 36.3279109,105.061439 37.9388529,105.061439 L70.0409593,105.061439 C71.6519013,105.061439 72.9593326,103.756926 72.9593326,102.143066 C72.9593326,100.529205 71.6519013,99.2246923 70.0409593,99.2246923" id="Fill-1" fill="url(#linearGradient-2)"></path>
                    <path d="M133.191347,112.357372 C131.685467,112.357372 130.235035,111.724085 129.216523,110.626777 L106.642905,86.1474615 L112.418366,80.3807559 L136.886008,102.9427 C137.989153,103.969967 138.62244,105.420399 138.62244,106.926279 C138.62244,109.92053 136.185598,112.357372 133.191347,112.357372 M139.85983,99.7324892 L115.38927,77.1647085 C113.652838,75.5596032 110.988363,75.6092155 109.319054,77.2814434 L107.97952,78.6180584 L104.238166,74.8767038 C109.485401,68.8882018 112.35708,61.282921 112.35708,53.2603128 C112.35708,35.1547248 97.6309686,20.4286131 79.5253807,20.4286131 C61.4197927,20.4286131 46.693681,35.1547248 46.693681,53.2603128 C46.693681,71.3659007 61.4197927,86.0920124 79.5253807,86.0920124 C85.2979231,86.0920124 90.9770775,84.5715399 95.9470672,81.6969422 C96.9918449,81.092839 97.3508048,79.7533056 96.7437832,78.7056096 C96.1396799,77.660832 94.8030649,77.2989537 93.7524505,77.9088937 C89.4507683,80.3982661 84.5303909,81.7144525 79.5253807,81.7144525 C63.8362058,81.7144525 51.071241,68.9494877 51.071241,53.2603128 C51.071241,37.5711379 63.8362058,24.8061731 79.5253807,24.8061731 C95.2145555,24.8061731 107.97952,37.5711379 107.97952,53.2603128 C107.97952,60.751777 105.093249,67.8229956 99.8518507,73.1723738 C99.4491152,73.5838645 99.2244005,74.1325186 99.2244005,74.7045198 L99.2244005,75.1481125 C99.2244005,75.7288688 99.4549519,76.2862781 99.8664426,76.6948504 L104.886045,81.7144525 L103.546511,83.0510675 C101.874283,84.7232954 101.824671,87.3906886 103.426858,89.1212839 L126.003394,113.600599 C127.853643,115.593848 130.474342,116.734932 133.191347,116.734932 C138.599093,116.734932 143,112.334025 143,106.926279 C143,104.209274 141.858916,101.588575 139.85983,99.7324892" id="Fill-3" fill="url(#linearGradient-4)"></path>
                    <path d="M79.5256725,72.9593326 C68.6634871,72.9593326 59.8266527,64.1224982 59.8266527,53.2603128 C59.8266527,42.3981273 68.6634871,33.561293 79.5256725,33.561293 C90.3878579,33.561293 99.2246923,42.3981273 99.2246923,53.2603128 C99.2246923,64.1224982 90.3878579,72.9593326 79.5256725,72.9593326 M79.5256725,29.183733 C66.2499923,29.183733 55.4490928,39.9846326 55.4490928,53.2603128 C55.4490928,66.5359929 66.2499923,77.3368925 79.5256725,77.3368925 C92.8013527,77.3368925 103.602252,66.5359929 103.602252,53.2603128 C103.602252,39.9846326 92.8013527,29.183733 79.5256725,29.183733" id="Fill-5" fill="url(#linearGradient-4)"></path>
                </g>
            </g>
        </g>
    </g>
</svg>