<?xml version="1.0" encoding="UTF-8"?>
<svg width="111px" height="112px" viewBox="0 0 111 112" version="1.1" xmlns="http://www.w3.org/2000/svg" xmlns:xlink="http://www.w3.org/1999/xlink">
    <title>E4A60C1D-AE62-42F3-AA46-141923E37C5F</title>
    <defs>
        <polygon id="path-1" points="0 0 110.9999 0 110.9999 111.994611 0 111.994611"></polygon>
        <linearGradient x1="99.1156935%" y1="0%" x2="15.476069%" y2="100%" id="linearGradient-3">
            <stop stop-color="#DDD12A" offset="0%"></stop>
            <stop stop-color="#5BB3AF" offset="100%"></stop>
        </linearGradient>
        <linearGradient x1="99.1156935%" y1="0%" x2="15.476069%" y2="100%" id="linearGradient-4">
            <stop stop-color="#45AFC3" offset="0%"></stop>
            <stop stop-color="#45AFC3" offset="100%"></stop>
        </linearGradient>
        <linearGradient x1="100%" y1="0.959778243%" x2="14.8544808%" y2="99.0402218%" id="linearGradient-5">
            <stop stop-color="#DDD12A" offset="0%"></stop>
            <stop stop-color="#5BB3AF" offset="100%"></stop>
        </linearGradient>
        <linearGradient x1="100%" y1="0.959778243%" x2="14.8544808%" y2="99.0402218%" id="linearGradient-6">
            <stop stop-color="#45AFC3" offset="0%"></stop>
            <stop stop-color="#45AFC3" offset="100%"></stop>
        </linearGradient>
        <linearGradient x1="100%" y1="0.622077925%" x2="14.8544808%" y2="99.3779221%" id="linearGradient-7">
            <stop stop-color="#DDD12A" offset="0%"></stop>
            <stop stop-color="#5BB3AF" offset="100%"></stop>
        </linearGradient>
        <linearGradient x1="100%" y1="0.622077925%" x2="14.8544808%" y2="99.3779221%" id="linearGradient-8">
            <stop stop-color="#45AFC3" offset="0%"></stop>
            <stop stop-color="#45AFC3" offset="100%"></stop>
        </linearGradient>
        <linearGradient x1="100%" y1="0.292585246%" x2="14.8544808%" y2="99.7074148%" id="linearGradient-9">
            <stop stop-color="#DDD12A" offset="0%"></stop>
            <stop stop-color="#5BB3AF" offset="100%"></stop>
        </linearGradient>
        <linearGradient x1="100%" y1="0.292585246%" x2="14.8544808%" y2="99.7074148%" id="linearGradient-10">
            <stop stop-color="#45AFC3" offset="0%"></stop>
            <stop stop-color="#45AFC3" offset="100%"></stop>
        </linearGradient>
        <linearGradient x1="100%" y1="1.84422062%" x2="14.8544808%" y2="98.1557794%" id="linearGradient-11">
            <stop stop-color="#DDD12A" offset="0%"></stop>
            <stop stop-color="#5BB3AF" offset="100%"></stop>
        </linearGradient>
        <linearGradient x1="100%" y1="1.84422062%" x2="14.8544808%" y2="98.1557794%" id="linearGradient-12">
            <stop stop-color="#45AFC3" offset="0%"></stop>
            <stop stop-color="#45AFC3" offset="100%"></stop>
        </linearGradient>
        <linearGradient x1="100%" y1="1.37741719%" x2="14.8544808%" y2="98.6225828%" id="linearGradient-13">
            <stop stop-color="#DDD12A" offset="0%"></stop>
            <stop stop-color="#5BB3AF" offset="100%"></stop>
        </linearGradient>
        <linearGradient x1="100%" y1="1.37741719%" x2="14.8544808%" y2="98.6225828%" id="linearGradient-14">
            <stop stop-color="#45AFC3" offset="0%"></stop>
            <stop stop-color="#45AFC3" offset="100%"></stop>
        </linearGradient>
        <linearGradient x1="99.9883552%" y1="0%" x2="14.8626661%" y2="100%" id="linearGradient-15">
            <stop stop-color="#DDD12A" offset="0%"></stop>
            <stop stop-color="#5BB3AF" offset="100%"></stop>
        </linearGradient>
        <linearGradient x1="99.9883552%" y1="0%" x2="14.8626661%" y2="100%" id="linearGradient-16">
            <stop stop-color="#45AFC3" offset="0%"></stop>
            <stop stop-color="#45AFC3" offset="100%"></stop>
        </linearGradient>
        <linearGradient x1="98.5906839%" y1="0%" x2="15.8451037%" y2="100%" id="linearGradient-17">
            <stop stop-color="#DDD12A" offset="0%"></stop>
            <stop stop-color="#5BB3AF" offset="100%"></stop>
        </linearGradient>
        <linearGradient x1="98.5906839%" y1="0%" x2="15.8451037%" y2="100%" id="linearGradient-18">
            <stop stop-color="#45AFC3" offset="0%"></stop>
            <stop stop-color="#45AFC3" offset="100%"></stop>
        </linearGradient>
        <linearGradient x1="98.1361378%" y1="0%" x2="16.1646089%" y2="100%" id="linearGradient-19">
            <stop stop-color="#DDD12A" offset="0%"></stop>
            <stop stop-color="#5BB3AF" offset="100%"></stop>
        </linearGradient>
        <linearGradient x1="98.1361378%" y1="0%" x2="16.1646089%" y2="100%" id="linearGradient-20">
            <stop stop-color="#45AFC3" offset="0%"></stop>
            <stop stop-color="#45AFC3" offset="100%"></stop>
        </linearGradient>
        <linearGradient x1="99.6836378%" y1="0%" x2="15.0768551%" y2="100%" id="linearGradient-21">
            <stop stop-color="#DDD12A" offset="0%"></stop>
            <stop stop-color="#5BB3AF" offset="100%"></stop>
        </linearGradient>
        <linearGradient x1="99.6836378%" y1="0%" x2="15.0768551%" y2="100%" id="linearGradient-22">
            <stop stop-color="#45AFC3" offset="0%"></stop>
            <stop stop-color="#45AFC3" offset="100%"></stop>
        </linearGradient>
        <linearGradient x1="99.3402579%" y1="0%" x2="15.3182203%" y2="100%" id="linearGradient-23">
            <stop stop-color="#DDD12A" offset="0%"></stop>
            <stop stop-color="#5BB3AF" offset="100%"></stop>
        </linearGradient>
        <linearGradient x1="99.3402579%" y1="0%" x2="15.3182203%" y2="100%" id="linearGradient-24">
            <stop stop-color="#45AFC3" offset="0%"></stop>
            <stop stop-color="#45AFC3" offset="100%"></stop>
        </linearGradient>
        <linearGradient x1="98.962593%" y1="0%" x2="15.5836849%" y2="100%" id="linearGradient-25">
            <stop stop-color="#DDD12A" offset="0%"></stop>
            <stop stop-color="#5BB3AF" offset="100%"></stop>
        </linearGradient>
        <linearGradient x1="98.962593%" y1="0%" x2="15.5836849%" y2="100%" id="linearGradient-26">
            <stop stop-color="#45AFC3" offset="0%"></stop>
            <stop stop-color="#45AFC3" offset="100%"></stop>
        </linearGradient>
        <linearGradient x1="100%" y1="11.0607124%" x2="14.8544808%" y2="88.9392876%" id="linearGradient-27">
            <stop stop-color="#DDD12A" offset="0%"></stop>
            <stop stop-color="#5BB3AF" offset="100%"></stop>
        </linearGradient>
        <linearGradient x1="100%" y1="11.0607124%" x2="14.8544808%" y2="88.9392876%" id="linearGradient-28">
            <stop stop-color="#45AFC3" offset="0%"></stop>
            <stop stop-color="#45AFC3" offset="100%"></stop>
        </linearGradient>
    </defs>
    <g id="Handed-Over" stroke="none" stroke-width="1" fill="none" fill-rule="evenodd">
        <g id="Karriere" transform="translate(-1325.000000, -5807.000000)">
            <g id="Group-20" transform="translate(0.000000, 5140.000000)">
                <g id="Group-28" transform="translate(1325.000000, 667.000000)">
                    <g id="Group-3">
                        <mask id="mask-2" fill="white">
                            <use xlink:href="#path-1"></use>
                        </mask>
                        <g id="Clip-2"></g>
                        <path d="M110.978877,55.1560603 C110.529832,24.6672237 85.8230854,0 55.4999159,0 C24.8975487,0 -8.4090897e-05,25.1204737 -8.4090897e-05,55.9969692 C-8.4090897e-05,86.5892376 24.4442988,111.516302 54.658999,111.972916 L54.658999,111.994779 L55.4999159,111.994779 L56.3408169,111.994779 L56.3408169,111.981325 C56.6469078,111.97712 56.9546805,111.976279 57.2590895,111.967029 L58.0999985,111.940961 L57.9444303,106.89803 L57.1035214,106.924098 C56.5720669,106.940916 56.0364079,106.949326 55.4999159,106.949326 C27.6792756,106.949326 5.04536973,84.0925789 5.04536973,55.9969692 C5.04536973,27.9022005 27.6792756,5.04545382 55.4999159,5.04545382 C83.3205403,5.04545382 105.954446,27.9022005 105.954446,55.9969692 C105.954446,56.5334692 105.946037,57.0691282 105.93006,57.6014236 L105.904833,58.4414916 L110.946923,58.5970598 L110.972991,57.7569917 C110.983082,57.4517418 110.983082,57.1439691 110.987286,56.8378782 L110.9999,56.8378782 L110.9999,55.9969692 L110.9999,55.1560603 L110.978877,55.1560603 Z" id="Fill-1" fill="url(#linearGradient-4)" mask="url(#mask-2)"></path>
                    </g>
                    <path d="M76.3855641,102.392692 C75.3798369,102.855192 74.3514053,103.287419 73.3297009,103.677601 L72.5442919,103.976965 L74.3421553,108.6911 L75.1284051,108.390896 C76.2527004,107.962873 77.3845639,107.486078 78.4945637,106.976487 L79.2581091,106.624987 L77.1491094,102.042033 L76.3855641,102.392692 Z" id="Fill-4" fill="url(#linearGradient-6)"></path>
                    <path d="M82.2169314,99.2282676 C81.2860452,99.816063 80.3215226,100.381154 79.3519545,100.909245 L78.6127956,101.310358 L81.0219998,105.742789 L81.7611587,105.340835 C82.8341586,104.757244 83.8937039,104.135812 84.9095219,103.494199 L85.62009,103.045153 L82.9274995,98.7792222 L82.2169314,99.2282676 Z" id="Fill-6" fill="url(#linearGradient-8)"></path>
                    <path d="M87.5834443,95.3230022 C86.7383308,96.0260021 85.8570581,96.7130248 84.9631719,97.3638883 L84.2837175,97.8591837 L87.2512852,101.938433 L87.9315806,101.443979 C88.9061941,100.735092 89.876603,99.9799561 90.8125347,99.1995926 L91.4583528,98.6614109 L88.2292624,94.7848205 L87.5834443,95.3230022 Z" id="Fill-8" fill="url(#linearGradient-10)"></path>
                    <path d="M63.7382931,106.273739 C62.6535206,106.452853 61.5468844,106.599171 60.4478163,106.707648 L59.6111119,106.789217 L60.1038846,111.810284 L60.940589,111.727875 C62.1447706,111.610148 63.3640886,111.449534 64.5623839,111.25108 L65.393202,111.114011 L64.5674294,106.13583 L63.7382931,106.273739 Z" id="Fill-10" fill="url(#linearGradient-12)"></path>
                    <path d="M70.1945399,104.75489 C69.1450855,105.077799 68.0678812,105.369594 66.9915177,105.622708 L66.1741542,105.815276 L67.3295631,110.726184 L68.1469266,110.534457 C69.3309264,110.256116 70.517449,109.934048 71.6762215,109.578343 L72.4792896,109.331116 L70.9984489,104.508503 L70.1945399,104.75489 Z" id="Fill-12" fill="url(#linearGradient-14)"></path>
                    <path d="M92.3989936,90.7481211 C91.64638,91.562121 90.8609711,92.3584618 90.0654712,93.1144389 L89.4549713,93.6938252 L92.931289,97.3517792 L93.540948,96.771552 C94.4239024,95.9323249 95.286675,95.0569386 96.1040385,94.1714615 L96.6750157,93.5533934 L92.9699708,90.1308939 L92.3989936,90.7481211 Z" id="Fill-14" fill="url(#linearGradient-16)"></path>
                    <path d="M104.668528,67.4826926 C104.421301,68.5666243 104.137074,69.6471923 103.824256,70.694124 L103.583756,71.5005557 L108.419823,72.9427145 L108.659482,72.1362828 C109.006778,70.9716239 109.318755,69.7834195 109.587846,68.6036243 L109.774527,67.783738 L104.85521,66.6628064 L104.668528,67.4826926 Z" id="Fill-16" fill="url(#linearGradient-18)"></path>
                    <path d="M105.722103,60.9225095 C105.618671,62.0123275 105.476558,63.1223273 105.300808,64.2205544 L105.167944,65.0505316 L110.149489,65.850236 L110.282352,65.019418 C110.47408,63.8202818 110.630489,62.6026456 110.744852,61.4009867 L110.824739,60.5634413 L105.801148,60.0849641 L105.722103,60.9225095 Z" id="Fill-18" fill="url(#linearGradient-20)"></path>
                    <path d="M96.5813384,85.5844355 C95.9472931,86.4808444 95.2720432,87.3722079 94.5732478,88.2349805 L94.0443161,88.8883668 L97.9654746,92.0627982 L98.4952472,91.4094119 C99.254588,90.4726393 99.9962698,89.4929804 100.700111,88.498185 L101.186997,87.8120033 L97.0665429,84.8974128 L96.5813384,85.5844355 Z" id="Fill-20" fill="url(#linearGradient-22)"></path>
                    <path d="M100.058329,79.9209976 C99.5445335,80.896452 98.9895335,81.8685428 98.41267,82.8095199 L97.9737155,83.5259744 L102.271601,86.1647467 L102.711397,85.4491332 C103.344601,84.4198606 103.95426,83.3510653 104.522715,82.2738609 L104.914578,81.5304974 L100.451033,79.1776341 L100.058329,79.9209976 Z" id="Fill-22" fill="url(#linearGradient-24)"></path>
                    <path d="M102.771522,73.8503076 C102.385544,74.8896711 101.962567,75.9265118 101.514363,76.9305572 L101.171272,77.698307 L105.777771,79.7551704 L106.120862,78.9874205 C106.615317,77.8799434 107.080339,76.7413526 107.501635,75.6027619 L107.794271,74.8148302 L103.064158,73.0623759 L102.771522,73.8503076 Z" id="Fill-24" fill="url(#linearGradient-26)"></path>
                    <path d="M38.5947786,54.4420445 L46.5918229,62.5139297 L73.2377054,35.6166153 L80.0457044,42.4918871 L46.4816638,76.3662231 L31.7758477,61.3274071 L38.5947786,54.4420445 Z M73.2377054,28.4470255 L46.5918229,55.3451807 L38.5947786,47.2724546 L24.697076,61.3055435 L46.4572774,83.5585176 L87.1471807,42.492728 L73.2377054,28.4470255 Z" id="Fill-26" fill="url(#linearGradient-28)"></path>
                </g>
            </g>
        </g>
    </g>
</svg>