<?xml version="1.0" encoding="UTF-8"?>
<svg width="121px" height="112px" viewBox="0 0 121 112" version="1.1" xmlns="http://www.w3.org/2000/svg" xmlns:xlink="http://www.w3.org/1999/xlink">
    <title>36686778-66DF-47BA-8AA0-BF6610114C20</title>
    <defs>
        <linearGradient x1="62.0427567%" y1="0%" x2="41.5350212%" y2="100%" id="linearGradient-1">
            <stop stop-color="#DDD12A" offset="0%"></stop>
            <stop stop-color="#5BB3AF" offset="100%"></stop>
        </linearGradient>
        <linearGradient x1="62.0427567%" y1="0%" x2="41.5350212%" y2="100%" id="linearGradient-2">
            <stop stop-color="#45AFC3" offset="0%"></stop>
            <stop stop-color="#45AFC3" offset="100%"></stop>
        </linearGradient>
        <linearGradient x1="73.4479248%" y1="0%" x2="33.5182102%" y2="100%" id="linearGradient-3">
            <stop stop-color="#DDD12A" offset="0%"></stop>
            <stop stop-color="#5BB3AF" offset="100%"></stop>
        </linearGradient>
        <linearGradient x1="73.4479248%" y1="0%" x2="33.5182102%" y2="100%" id="linearGradient-4">
            <stop stop-color="#45AFC3" offset="0%"></stop>
            <stop stop-color="#45AFC3" offset="100%"></stop>
        </linearGradient>
        <linearGradient x1="73.4497481%" y1="0%" x2="33.5169286%" y2="100%" id="linearGradient-5">
            <stop stop-color="#DDD12A" offset="0%"></stop>
            <stop stop-color="#5BB3AF" offset="100%"></stop>
        </linearGradient>
        <linearGradient x1="73.4497481%" y1="0%" x2="33.5169286%" y2="100%" id="linearGradient-6">
            <stop stop-color="#45AFC3" offset="0%"></stop>
            <stop stop-color="#45AFC3" offset="100%"></stop>
        </linearGradient>
        <linearGradient x1="68.5277081%" y1="0%" x2="36.9766816%" y2="100%" id="linearGradient-7">
            <stop stop-color="#DDD12A" offset="0%"></stop>
            <stop stop-color="#5BB3AF" offset="100%"></stop>
        </linearGradient>
        <linearGradient x1="68.5277081%" y1="0%" x2="36.9766816%" y2="100%" id="linearGradient-8">
            <stop stop-color="#45AFC3" offset="0%"></stop>
            <stop stop-color="#45AFC3" offset="100%"></stop>
        </linearGradient>
        <linearGradient x1="69.7741607%" y1="0%" x2="36.1005371%" y2="100%" id="linearGradient-9">
            <stop stop-color="#DDD12A" offset="0%"></stop>
            <stop stop-color="#5BB3AF" offset="100%"></stop>
        </linearGradient>
        <linearGradient x1="69.7741607%" y1="0%" x2="36.1005371%" y2="100%" id="linearGradient-10">
            <stop stop-color="#45AFC3" offset="0%"></stop>
            <stop stop-color="#45AFC3" offset="100%"></stop>
        </linearGradient>
        <linearGradient x1="100%" y1="0%" x2="14.8544808%" y2="100%" id="linearGradient-11">
            <stop stop-color="#DDD12A" offset="0%"></stop>
            <stop stop-color="#5BB3AF" offset="100%"></stop>
        </linearGradient>
        <linearGradient x1="100%" y1="0%" x2="14.8544808%" y2="100%" id="linearGradient-12">
            <stop stop-color="#45AFC3" offset="0%"></stop>
            <stop stop-color="#45AFC3" offset="100%"></stop>
        </linearGradient>
        <linearGradient x1="60.7648988%" y1="0%" x2="42.4332409%" y2="100%" id="linearGradient-13">
            <stop stop-color="#DDD12A" offset="0%"></stop>
            <stop stop-color="#5BB3AF" offset="100%"></stop>
        </linearGradient>
        <linearGradient x1="60.7648988%" y1="0%" x2="42.4332409%" y2="100%" id="linearGradient-14">
            <stop stop-color="#45AFC3" offset="0%"></stop>
            <stop stop-color="#45AFC3" offset="100%"></stop>
        </linearGradient>
    </defs>
    <g id="Handed-Over" stroke="none" stroke-width="1" fill="none" fill-rule="evenodd">
        <g id="Karriere" transform="translate(-489.000000, -6150.000000)">
            <g id="Group-20" transform="translate(0.000000, 5140.000000)">
                <g id="Group-15" transform="translate(489.000000, 1010.000000)">
                    <path d="M55.8818255,81.7044562 C54.796288,81.8900352 54.0639493,82.9196995 54.2495283,84.005237 L55.3250884,90.3388693 C55.4907127,91.3126603 56.3347979,92.0010986 57.2906296,92.0010986 C57.4023761,92.0010986 57.5141226,91.9911213 57.6278646,91.9711665 C58.7134021,91.787583 59.4457408,90.7579187 59.2601618,89.6703858 L58.1826062,83.3367534 C57.9990227,82.2512159 56.9693584,81.5128908 55.8818255,81.7044562" id="Fill-1" fill="url(#linearGradient-2)"></path>
                    <path d="M108.176796,54.2004481 C107.644005,54.4139638 107.063322,54.4399049 106.59239,54.2762761 C106.374884,54.2004481 105.985766,54.0148691 105.826128,53.613779 C105.666491,53.2126888 105.822138,52.8096032 105.927898,52.6060649 C106.161368,52.1610744 106.598377,51.7839299 107.131168,51.5724097 L107.133164,51.5724097 C107.43448,51.4526813 107.75176,51.3908217 108.055072,51.3908217 C108.286547,51.3908217 108.51004,51.4267402 108.717569,51.4965817 C108.93308,51.5724097 109.322198,51.7579888 109.481836,52.1590789 C109.765193,52.8714629 109.168546,53.8073399 108.176796,54.2004481 L108.176796,54.2004481 Z M112.778358,36.1493963 C112.205657,35.5766955 111.347603,35.4050848 110.603292,35.7163786 C109.856985,36.025677 109.372085,36.7520293 109.372085,37.560196 L109.372085,47.5674947 C108.160832,47.2981058 106.867766,47.3839112 105.654518,47.8648203 C104.227754,48.4315347 103.068384,49.4611989 102.391919,50.7582566 C101.669558,52.1371287 101.571779,53.7155481 102.118539,55.0884338 C102.665299,56.4633149 103.820678,57.542866 105.291342,58.0497162 C105.921911,58.2672228 106.584408,58.3749783 107.254887,58.3749783 C108.059063,58.3749783 108.875212,58.2193314 109.653446,57.9080376 C112.504978,56.7746087 114.045483,53.875186 113.343077,51.2391657 C113.345072,51.2052426 113.363031,51.1753105 113.363031,51.1413875 L113.363031,42.3772686 L113.985619,42.9998563 C114.763854,43.7780909 116.026988,43.7780909 116.807218,42.9998563 C117.585453,42.2196262 117.585453,40.9564916 116.807218,40.178257 L112.778358,36.1493963 Z" id="Fill-3" fill="url(#linearGradient-4)"></path>
                    <path d="M6.40765594,62.1823415 C5.87686003,62.3958571 5.29617729,62.4217983 4.82325011,62.2581695 C4.60574352,62.1823415 4.21662622,61.9967624 4.05698835,61.5956723 C3.89735048,61.1945822 4.0529974,60.7914965 4.15875749,60.5879583 C4.39222787,60.1429677 4.82923653,59.7658233 5.36202791,59.5543031 L5.36402338,59.5543031 C5.66533986,59.4345747 5.98262012,59.372715 6.28593207,59.372715 C6.51740697,59.372715 6.74089999,59.4086335 6.94842921,59.4784751 C7.16394033,59.5543031 7.55305763,59.7398821 7.7126955,60.1409722 C7.99605271,60.8533562 7.39940619,61.7892332 6.40765594,62.1823415 M11.5739364,59.221059 C11.5759319,59.187136 11.5938911,59.1572039 11.5938911,59.1232808 L11.5938911,50.3591619 L12.2164788,50.9817496 C12.9947134,51.7599842 14.257848,51.7599842 15.0380781,50.9817496 C15.8163127,50.2015196 15.8163127,48.9383849 15.0380781,48.1601503 L11.0092175,44.1312897 C10.4365166,43.5585888 9.57846307,43.3889736 8.83415152,43.6982719 C8.08784449,44.0075703 7.60294447,44.7339226 7.60294447,45.5420893 L7.60294447,55.5493881 C6.39169215,55.2780037 5.09862543,55.3658045 3.88537764,55.8467136 C2.45861421,56.413428 1.2992442,57.4430923 0.622778737,58.74015 C-0.0995826109,60.119022 -0.197360804,61.6974414 0.34939889,63.0703271 C0.896158584,64.4452082 2.05153765,65.5247593 3.52220149,66.0316095 C4.15277107,66.2491161 4.81526822,66.3568717 5.48574726,66.3568717 C6.28992301,66.3568717 7.10607161,66.2012248 7.88430621,65.8899309 C10.7358376,64.7565021 12.276343,61.8570793 11.5739364,59.221059" id="Fill-5" fill="url(#linearGradient-6)"></path>
                    <path d="M82.7865929,30.31124 C78.8375512,30.31124 75.6268346,27.094537 75.6268346,23.1395088 C75.6268346,19.1864761 78.8375512,15.9697731 82.7865929,15.9697731 C86.7356346,15.9697731 89.9463512,19.1864761 89.9463512,23.1395088 C89.9463512,27.094537 86.7356346,30.31124 82.7865929,30.31124 M117.773227,1.9835005 C116.376396,0.854062588 114.62437,0.33523952 112.838421,0.528800434 C111.050477,0.718370401 109.446117,1.5943832 108.296724,3.0231421 L93.8235559,21.630931 C93.0832353,16.1892752 88.4218096,11.976831 82.7865929,11.976831 C77.1852993,11.976831 72.5478192,16.1393883 71.7655937,21.5331528 L71.3126212,20.9345108 C70.7858163,20.244077 70.4006899,19.4678379 70.1632286,18.6137753 L66.2960013,5.19820804 C65.4219839,2.133161 62.5924027,0 59.4116182,0 L59.389668,0 C55.4426218,0.00997736668 52.2378916,3.23665775 52.249205,7.15576738 C52.2398871,7.88611063 52.3436517,8.61046745 52.5252398,9.18915471 L55.4765448,21.4313836 C56.6139646,26.1506781 58.9586458,30.5247556 62.2611542,34.0866755 L65.4579025,37.5129032 C65.8510107,37.9339481 66.3818066,38.1474638 66.9165935,38.1474638 C67.4054844,38.1474638 67.8943754,37.9698666 68.2775063,37.6106814 C69.0836775,36.858388 69.1275779,35.5952534 68.3752845,34.7910776 L65.1825271,31.3688408 C62.348955,28.3117757 60.3355224,24.5523039 59.355745,20.4955066 L56.3725124,8.13554479 C56.2807206,7.83422832 56.2368202,7.52492995 56.2408111,7.17771759 C56.2348247,5.425692 57.6536062,3.99493762 59.4016409,3.99094667 L59.4116182,3.99094667 C60.8184269,3.99094667 62.0715842,4.93680103 62.458706,6.29771385 L66.3239379,19.7013082 C66.6931004,21.0263025 67.3017198,22.2515232 68.1338322,23.347038 L69.2652656,24.8396521 C70.3069027,26.2205196 71.5640509,27.3998444 72.9628777,28.4095539 C74.844609,31.9136051 78.5422211,34.3021867 82.7865929,34.3021867 C87.0329602,34.3021867 90.7305723,31.9116096 92.6123036,28.4055629 C93.9592481,27.4636995 95.1824733,26.3661892 96.210142,25.0631451 L111.425626,5.49952451 C111.884585,4.93081461 112.537105,4.57362489 113.261462,4.49580143 C113.985819,4.41598249 114.698203,4.62750267 115.264917,5.08646153 C116.392359,5.99839285 116.615852,7.63667646 115.793717,8.78407363 L92.736023,39.6799873 C92.5304892,39.9553626 92.398788,40.2786293 92.3548876,40.6178598 L90.0620887,58.3117218 C90.0062154,58.7487305 90.0960117,59.1917256 90.3155138,59.572861 L99.3570035,75.1016345 C100.512383,77.0591938 100.96735,79.3759384 100.642088,81.5988957 L96.8826166,105.017771 C96.7269696,105.819951 96.2680108,106.510385 95.5915453,106.967348 C94.9150798,107.420321 94.1029222,107.583949 93.3047329,107.428303 C91.7502591,107.122995 90.6966492,105.702218 90.8463097,104.191645 L94.039067,80.6450594 C94.1049177,80.1561684 93.9871847,79.6573001 93.7078185,79.2502236 L85.324835,67.0099901 C84.6643333,66.0162444 83.6566193,65.3377835 82.4852764,65.1043131 C81.3139336,64.8648563 80.122636,65.1023176 79.1268948,65.7668102 C77.7081133,66.7126646 76.943847,68.4187943 77.1753219,70.0750372 L81.3099426,103.846428 L81.3099426,104.393188 C81.3059517,105.297137 80.9507574,106.143218 80.3102105,106.777778 C79.671659,107.412339 78.81161,107.745583 77.9236244,107.75556 C76.2913272,107.747578 74.9004823,106.572244 74.621116,104.967884 L68.339366,67.9777947 C68.0121083,66.0681267 67.9502487,64.1225402 68.1577779,62.1949129 C68.2775063,61.0974026 67.4853034,60.1136343 66.3897885,59.9959013 C65.2882872,59.868191 64.3085098,60.6683758 64.1907769,61.7658862 C63.9433382,64.0606805 64.0151752,66.3774251 64.4042925,68.6482737 L70.6880381,105.642354 C71.3006484,109.164364 74.3377588,111.730543 77.9076606,111.746507 L77.9415836,111.746507 C79.895152,111.746507 81.7349785,110.988227 83.1218324,109.61135 C84.5186638,108.224496 85.2909119,106.378684 85.3008893,104.403165 L85.3008893,103.722709 C85.3008893,103.64289 85.2949029,103.561075 85.2849255,103.481256 L81.1323455,69.5562141 C81.1064044,69.3726305 81.1902142,69.1870515 81.3418702,69.0872778 C81.4755669,68.9974815 81.6092636,68.9974815 81.6990599,69.0154408 C81.7888562,69.0334001 81.9125756,69.0832869 82.0183357,69.2429248 L89.9802743,80.8705479 L86.8832997,103.724704 C86.5201235,107.364447 88.9486146,110.641015 92.5344802,111.345417 C94.380293,111.704602 96.2560379,111.329453 97.8184935,110.277838 C99.3789537,109.228219 100.43855,107.631841 100.811704,105.718182 L104.585144,82.2035241 C105.048093,79.0546672 104.411537,75.812023 102.80119,73.0842109 L94.1069131,58.152084 L96.2460606,41.6495195 L119.014411,11.1407276 C121.089704,8.24330035 120.544939,4.22242158 117.773227,1.9835005" id="Fill-7" fill="url(#linearGradient-8)"></path>
                    <path d="M78.1652762,44.6060128 C77.4768379,42.8200641 76.1298934,41.4192419 74.3738769,40.660962 C72.6158649,39.9006866 70.6762648,39.8787364 68.902289,40.6010978 L61.2376759,43.7200226 C59.1124968,41.9879518 53.7346962,37.6318335 49.6459713,34.556809 C48.7639721,33.8963074 47.5148058,34.071909 46.8523086,34.9519128 C46.1898115,35.833912 46.3654131,37.0830783 47.2474123,37.7455754 C52.3618105,41.5948435 59.5534964,47.4974536 59.6253334,47.5573178 C60.1920479,48.0242586 60.968287,48.1360051 61.6447525,47.8626253 L70.4068759,44.2987099 C71.1791241,43.9834251 72.0252048,43.9934025 72.789471,44.324651 C73.5537373,44.6539041 74.1404065,45.2665144 74.441723,46.0427536 C75.0483469,47.617182 74.2641258,49.3991397 72.6956838,50.0177365 L59.206284,55.3256955 L48.7839268,47.7229421 C48.2870539,47.3637569 47.6504979,47.2520104 47.0618333,47.4176347 C46.4711732,47.5852545 45.9902641,48.0162767 45.7587892,48.5869821 L39.2675145,64.5767099 C39.1757227,64.8021984 39.1278313,65.0416552 39.1218449,65.285103 L38.776628,81.7717037 C38.7686461,82.1807757 38.8843836,82.5798704 39.1098721,82.9191008 L53.110113,104.003272 C53.6389134,104.739602 53.7067595,105.66151 53.2917011,106.467682 C52.8766426,107.273853 52.0884306,107.754762 51.1824858,107.754762 C50.4381742,107.754762 49.7297812,107.401563 49.2827951,106.804917 L31.6966886,83.3221864 L31.6966886,65.7001614 C31.6966886,64.5986601 30.804712,63.7046881 29.7012153,63.7046881 C28.599714,63.7046881 27.705742,64.5986601 27.705742,65.7001614 L27.705742,69.7070719 L19.8595408,82.9709831 C19.5841655,83.4359284 19.5083375,83.994661 19.6520116,84.5154795 L24.9659571,103.821684 C25.2273641,104.765543 25.0357986,105.753302 24.443143,106.531537 C23.848492,107.309771 22.9485335,107.754762 21.9687561,107.754762 C20.5419927,107.754762 19.3008083,106.788953 18.9436185,105.362189 L12.5900314,82.2825448 C12.4722985,81.8116131 12.5002351,81.3207267 12.6339318,80.959546 L22.9166059,57.3969969 C22.9605064,57.2972232 22.9964249,57.1934586 23.022366,57.0876985 L27.6159457,38.9448549 C27.773588,38.3282537 27.625923,37.6737384 27.2228374,37.1848474 L15.2480019,22.6717699 C14.455799,21.7119472 14.4298578,20.3510344 15.1841468,19.3612796 L26.1213361,5.03178556 C26.4725394,4.5728267 26.9833806,4.29745138 27.5620679,4.25953738 C28.1347687,4.23160076 28.6815284,4.4231662 29.0906004,4.83223823 C29.7930071,5.53464485 29.8628486,6.65610086 29.2562247,7.44032188 L20.7734676,18.397466 C20.1867984,19.1577413 20.2227169,20.2293105 20.8612684,20.9476809 L25.3151649,25.9483371 C26.0475036,26.7704721 27.3086428,26.8443046 28.1327732,26.1119659 C28.9549083,25.3776317 29.0287408,24.1164926 28.2964021,23.2943575 L24.9460023,19.5308948 L32.4130636,9.88278125 C34.2449081,7.5141544 34.0313924,4.12983162 31.9121997,2.01063893 C30.694961,0.793400199 29.0327317,0.164826098 27.292679,0.276572604 C25.5765719,0.392310058 23.9941615,1.24437717 22.950529,2.61127641 L12.0133396,16.9407704 C10.1256219,19.4131619 10.1914725,22.8134485 12.1689866,25.2120074 L23.4992842,38.9448549 L19.1950482,55.9502787 L8.93831522,79.4549591 C8.47736088,80.6761888 8.4015329,81.9892103 8.730786,83.2982408 L15.0843731,106.377885 C15.8785715,109.538715 18.7101482,111.745709 21.9687561,111.745709 C24.2036862,111.745709 26.2630147,110.728017 27.6159457,108.95005 C28.970872,107.172084 29.4078807,104.917199 28.8152251,102.762088 L23.7247726,84.2740272 L27.705742,77.5452911 L27.705742,83.9866791 C27.705742,84.4177013 27.8454251,84.8367507 28.1048366,85.1819676 L46.0880423,109.197489 C47.2813354,110.793868 49.1870124,111.745709 51.1824858,111.745709 C53.5770538,111.745709 55.7461333,110.42271 56.8396527,108.29354 C57.9351675,106.16437 57.751584,103.630119 56.3966576,101.73841 L42.7795475,81.2309304 L43.1048097,65.7360799 L48.4945832,52.4542094 L57.7396111,59.1969138 C58.2943527,59.5980039 59.0107277,59.6897957 59.6472836,59.4403616 L74.1563703,53.7313123 C77.7601951,52.3125308 79.5581166,48.219815 78.1652762,44.6060128" id="Fill-9" fill="url(#linearGradient-10)"></path>
                    <path d="M41.9506279,14.5851142 C45.6661993,14.5851142 48.6893414,17.6082563 48.6893414,21.3238276 C48.6893414,25.039399 45.6661993,28.0625411 41.9506279,28.0625411 C38.2350566,28.0625411 35.2119145,25.039399 35.2119145,21.3238276 C35.2119145,17.6082563 38.2350566,14.5851142 41.9506279,14.5851142 M41.9506279,32.0534877 C47.8672064,32.0534877 52.680288,27.2404061 52.680288,21.3238276 C52.680288,15.4072492 47.8672064,10.5941675 41.9506279,10.5941675 C36.0340495,10.5941675 31.2209678,15.4072492 31.2209678,21.3238276 C31.2209678,27.2404061 36.0340495,32.0534877 41.9506279,32.0534877" id="Fill-11" fill="url(#linearGradient-12)"></path>
                    <path d="M112.702729,67.0199675 C111.623178,66.7864971 110.563582,67.4769309 110.334102,68.5544865 L108.498267,77.119058 C108.268787,78.1966136 108.95523,79.2582054 110.032786,79.4896804 C110.172469,79.5196125 110.314148,79.5335808 110.451835,79.5335808 C111.371748,79.5335808 112.201865,78.8910384 112.401413,77.9551614 L114.237248,69.3885943 C114.466728,68.3110387 113.780285,67.2514424 112.702729,67.0199675" id="Fill-13" fill="url(#linearGradient-14)"></path>
                </g>
            </g>
        </g>
    </g>
</svg>