<?xml version="1.0" encoding="UTF-8"?>
<svg width="138px" height="141px" viewBox="0 0 138 141" version="1.1" xmlns="http://www.w3.org/2000/svg" xmlns:xlink="http://www.w3.org/1999/xlink">
    <title>40C2D035-53E6-4199-8AF1-8069E6642B46</title>
    <defs>
        <polygon id="path-1" points="0 140.6358 138 140.6358 138 0 0 0"></polygon>
    </defs>
    <g id="Handed-Over" stroke="none" stroke-width="1" fill="none" fill-rule="evenodd">
        <g id="Karriere" transform="translate(-474.000000, -5466.000000)">
            <g id="Group-20" transform="translate(0.000000, 5140.000000)">
                <g id="Group-30" transform="translate(474.000000, 326.000000)">
                    <path d="M98.62377,10.84979 L98.62377,14.29979 C105.41452,14.29979 110.90922,19.79449 110.90922,26.58294 L114.35922,26.58294 C114.35922,17.88434 107.31892,10.84979 98.62377,10.84979" id="Fill-1" fill="#45AFC3"></path>
                    <mask id="mask-2" fill="white">
                        <use xlink:href="#path-1"></use>
                    </mask>
                    <g id="Clip-4"></g>
                    <polygon id="Fill-3" fill="#45AFC3" mask="url(#mask-2)" points="40.825 132.5858 45.425 132.5858 45.425 129.1358 40.825 129.1358"></polygon>
                    <polygon id="Fill-5" fill="#45AFC3" mask="url(#mask-2)" points="5.75 113.6108 9.2 113.6108 9.2 109.0108 5.75 109.0108"></polygon>
                    <polygon id="Fill-6" fill="#45AFC3" mask="url(#mask-2)" points="31.625 132.5858 36.225 132.5858 36.225 129.1358 31.625 129.1358"></polygon>
                    <path d="M120.83533,27.27432 L124.28533,27.27432 C124.28303,12.20242 112.08498,-0.00023 97.00618,-0.00023 L97.00618,3.44977 C110.17253,3.44977 120.83303,14.10222 120.83533,27.27432" id="Fill-7" fill="#45AFC3" mask="url(#mask-2)"></path>
                    <polygon id="Fill-8" fill="#45AFC3" mask="url(#mask-2)" points="22.425 132.5858 27.025 132.5858 27.025 129.1358 22.425 129.1358"></polygon>
                    <polygon id="Fill-9" fill="#45AFC3" mask="url(#mask-2)" points="5.75 95.2108 9.2 95.2108 9.2 90.6108 5.75 90.6108"></polygon>
                    <polygon id="Fill-10" fill="#45AFC3" mask="url(#mask-2)" points="5.75 104.4108 9.2 104.4108 9.2 99.8108 5.75 99.8108"></polygon>
                    <polygon id="Fill-11" fill="#45AFC3" mask="url(#mask-2)" points="13.225 132.5858 17.825 132.5858 17.825 129.1358 13.225 129.1358"></polygon>
                    <path d="M3.45,84.2858 L16.1,84.2858 L16.1,71.6358 L3.45,71.6358 L3.45,84.2858 Z M42.55,76.2358 L19.55,76.2358 L19.55,68.1858 L0,68.1858 L0,87.7358 L19.55,87.7358 L19.55,79.6858 L42.55,79.6858 L42.55,76.2358 Z" id="Fill-12" fill="#45AFC3" mask="url(#mask-2)"></path>
                    <polygon id="Fill-13" fill="#45AFC3" mask="url(#mask-2)" points="5.75 122.8108 9.2 122.8108 9.2 118.2108 5.75 118.2108"></polygon>
                    <polygon id="Fill-14" fill="#45AFC3" mask="url(#mask-2)" points="5.75 132.5858 8.625 132.5858 8.625 130.8608 9.2 130.8608 9.2 127.4108 5.75 127.4108"></polygon>
                    <polygon id="Fill-15" fill="#45AFC3" mask="url(#mask-2)" points="125.35 112.4608 128.8 112.4608 128.8 107.8608 125.35 107.8608"></polygon>
                    <polygon id="Fill-16" fill="#45AFC3" mask="url(#mask-2)" points="125.35 121.6608 128.8 121.6608 128.8 117.0608 125.35 117.0608"></polygon>
                    <polygon id="Fill-17" fill="#45AFC3" mask="url(#mask-2)" points="125.35 130.8608 128.8 130.8608 128.8 126.2608 125.35 126.2608"></polygon>
                    <polygon id="Fill-18" fill="#45AFC3" mask="url(#mask-2)" points="125.35 103.2608 128.8 103.2608 128.8 98.6608 125.35 98.6608"></polygon>
                    <polygon id="Fill-19" fill="#45AFC3" mask="url(#mask-2)" points="117.875 132.5858 122.475 132.5858 122.475 129.1358 117.875 129.1358"></polygon>
                    <path d="M121.9,84.2858 L134.55,84.2858 L134.55,71.6358 L121.9,71.6358 L121.9,84.2858 Z M118.45,68.1858 L118.45,76.567 L95.45,76.567 L95.45,80.017 L118.45,80.017 L118.45,87.7358 L138,87.7358 L138,68.1858 L118.45,68.1858 Z" id="Fill-20" fill="#45AFC3" mask="url(#mask-2)"></path>
                    <polygon id="Fill-21" fill="#45AFC3" mask="url(#mask-2)" points="125.35 94.0608 128.8 94.0608 128.8 89.4608 125.35 89.4608"></polygon>
                    <path d="M62.1,137.1858 L74.75,137.1858 L74.75,124.5358 L62.1,124.5358 L62.1,137.1858 Z M70.15,86.5858 L66.7,86.5858 L66.7,121.0858 L58.65,121.0858 L58.65,140.6358 L78.2,140.6358 L78.2,121.0858 L70.15,121.0858 L70.15,86.5858 Z" id="Fill-22" fill="#45AFC3" mask="url(#mask-2)"></path>
                    <polygon id="Fill-23" fill="#45AFC3" mask="url(#mask-2)" points="50.025 132.5858 54.625 132.5858 54.625 129.1358 50.025 129.1358"></polygon>
                    <path d="M88.14911,58.19966 C84.32421,58.19966 84.32421,52.41171 88.14911,52.41171 C91.97401,52.41171 91.97401,58.19966 88.14911,58.19966 L88.14911,58.19966 Z M81.84596,54.60246 L47.72546,54.60246 L47.72546,33.50916 L90.27546,33.50916 L90.27546,49.33546 C86.36776,47.93936 82.28986,50.60276 81.84596,54.60246 L81.84596,54.60246 Z M93.72546,30.05916 L44.27546,30.05916 L44.27546,58.05246 L82.43936,58.05246 C83.46516,60.17651 85.63521,61.64966 88.14911,61.64966 C92.96301,61.64966 96.00821,56.47581 93.72546,52.28176 L93.72546,30.05916 Z" id="Fill-24" fill="#45AFC3" mask="url(#mask-2)"></path>
                    <path d="M63.618345,72.818345 L66.119595,67.375395 L72.186995,67.375395 L74.689395,72.818345 L72.533145,72.818345 L72.533145,76.268345 L88.920645,76.268345 L88.920645,80.088645 L49.896545,80.088645 L49.896545,76.268345 L66.514045,76.268345 L66.514045,72.818345 L63.618345,72.818345 Z M38.525345,63.925395 L99.475345,63.925395 L99.475345,24.850695 L38.525345,24.850695 L38.525345,63.925395 Z M46.446545,72.818345 L46.446545,83.538645 L92.370645,83.538645 L92.370645,72.818345 L78.486695,72.818345 L75.984295,67.375395 L102.925345,67.375395 L102.925345,21.400695 L35.075345,21.400695 L35.075345,67.375395 L62.322295,67.375395 L59.821045,72.818345 L46.446545,72.818345 Z" id="Fill-25" fill="#45AFC3" mask="url(#mask-2)"></path>
                    <polygon id="Fill-26" fill="#45AFC3" mask="url(#mask-2)" points="81.075 132.5858 85.675 132.5858 85.675 129.1358 81.075 129.1358"></polygon>
                    <polygon id="Fill-27" fill="#45AFC3" mask="url(#mask-2)" points="108.675 132.5858 113.275 132.5858 113.275 129.1358 108.675 129.1358"></polygon>
                    <polygon id="Fill-28" fill="#45AFC3" mask="url(#mask-2)" points="99.475 132.5858 104.075 132.5858 104.075 129.1358 99.475 129.1358"></polygon>
                    <polygon id="Fill-29" fill="#45AFC3" mask="url(#mask-2)" points="90.275 132.5858 94.875 132.5858 94.875 129.1358 90.275 129.1358"></polygon>
                </g>
            </g>
        </g>
    </g>
</svg>