<?xml version="1.0" encoding="UTF-8"?>
<svg width="22px" height="31px" viewBox="0 0 22 31" version="1.1" xmlns="http://www.w3.org/2000/svg" xmlns:xlink="http://www.w3.org/1999/xlink">
    <title>C08EFD53-9073-42FF-9954-EE35ED16A18A</title>
    <g id="Work-Table" stroke="none" stroke-width="1" fill="none" fill-rule="evenodd">
        <g id="Kontakt" transform="translate(-348.000000, -1167.000000)" fill="#5B5B5B">
            <g id="Group-4" transform="translate(348.000000, 1167.000000)">
                <path d="M2.04183967,28.8362282 L19.2681603,28.8362282 L19.2681603,1.72720291 L2.04183967,1.72720291 L2.04183967,28.8362282 Z M19.6084669,0 L1.70153306,0 C0.763648036,0 0,0.645973886 0,1.43933575 L0,29.1240954 C0,29.9174573 0.763648036,30.5634311 1.70153306,30.5634311 L19.6084669,30.5634311 C20.546352,30.5634311 21.31,29.9174573 21.31,29.1240954 L21.31,1.43933575 C21.31,0.645973886 20.546352,0 19.6084669,0 L19.6084669,0 Z" id="Fill-1"></path>
                <path d="M9.91374414,26.9187469 L11.3961197,26.9187469 C11.9596675,26.9187469 12.4170396,26.4620554 12.4170396,25.897827 C12.4170396,25.3335987 11.9596675,24.8769072 11.3961197,24.8769072 L9.91374414,24.8769072 C9.34951578,24.8769072 8.89282431,25.3335987 8.89282431,25.897827 C8.89282431,26.4620554 9.34951578,26.9187469 9.91374414,26.9187469" id="Fill-3"></path>
            </g>
        </g>
    </g>
</svg>