<?xml version="1.0" encoding="UTF-8"?>
<svg width="86px" height="85px" viewBox="0 0 86 85" version="1.1" xmlns="http://www.w3.org/2000/svg" xmlns:xlink="http://www.w3.org/1999/xlink">
    <title>Group 3 2</title>
    <defs>
        <polygon id="path-1" points="0 0 85.4645 0 85.4645 84.7329213 0 84.7329213"></polygon>
        <linearGradient x1="100%" y1="0.851917351%" x2="14.8544808%" y2="99.1480826%" id="linearGradient-3">
            <stop stop-color="#DDD12A" offset="0%"></stop>
            <stop stop-color="#5BB3AF" offset="100%"></stop>
        </linearGradient>
        <linearGradient x1="100%" y1="0.754270753%" x2="14.8544808%" y2="99.2457292%" id="linearGradient-4">
            <stop stop-color="#DDD12A" offset="0%"></stop>
            <stop stop-color="#5BB3AF" offset="100%"></stop>
        </linearGradient>
    </defs>
    <g id="Handed-Over" stroke="none" stroke-width="1" fill="none" fill-rule="evenodd">
        <g id="iconpro-homepage-5i" transform="translate(-1008.000000, -3594.000000)">
            <g id="Group-3" transform="translate(1008.000000, 3594.000000)">
                <mask id="mask-2" fill="white">
                    <use xlink:href="#path-1"></use>
                </mask>
                <g id="Clip-2"></g>
                <path d="M54.9846513,42.3663151 C54.9846513,35.5991189 49.4987187,30.1139139 42.7322501,30.1139139 C35.9650539,30.1139139 30.4798489,35.5991189 30.4798489,42.3663151 C30.4798489,49.1335113 35.9650539,54.6187163 42.7322501,54.6187163 C49.4987187,54.6187163 54.9846513,49.1335113 54.9846513,42.3663151 M81.4932016,45.6062167 C79.8888937,45.6062167 78.3507953,44.6421768 77.7600026,42.9461942 L62.9348881,42.9461942 C62.5434516,53.3592801 54.3021838,61.7933558 43.9691315,62.49183 L43.9691315,76.9051357 C48.5666922,77.9397506 47.7990982,84.7331395 43.0931284,84.7331395 C38.6359901,84.7331395 37.5940994,78.4927093 41.7863996,77.0331893 L41.7863996,62.5238434 C31.276546,62.1171277 22.7828089,53.7157929 22.2385811,43.240863 L7.82818574,43.240863 C7.13116671,46.338887 3.33103064,47.3436712 1.16066764,45.1733082 C-0.386889213,43.6257514 -0.386889213,41.1068789 1.16066764,39.559322 C3.17751183,37.5417502 6.71426494,38.227128 7.70013214,41.0581312 L22.242219,41.0581312 C22.8031811,30.7025239 31.1324857,22.3790399 41.4910033,21.8297191 L41.4910033,7.82822212 C38.4206272,7.13702371 37.3714608,3.34852887 39.5592856,1.15997644 C41.1075701,-0.386852834 43.6264426,-0.386852834 45.1732718,1.15997644 C46.7208287,2.70753329 46.7208287,5.2264058 45.1732718,6.77396265 C44.7374531,7.20978144 44.2208732,7.50954327 43.6737351,7.70016852 L43.6737351,21.8297191 C53.9340297,22.3739469 62.1985799,30.5453672 62.900692,40.7634624 L77.631949,40.7634624 C78.3209647,37.6989069 82.1058216,36.6373717 84.2994671,38.8317447 C86.7957847,41.3280623 85.0117652,45.6062167 81.4932016,45.6062167 M66.9583904,15.3862948 C66.9583904,17.2918197 68.50813,18.8422868 70.4136549,18.8422868 C72.3191798,18.8422868 73.8696469,17.2918197 73.8696469,15.3862948 C73.8696469,13.4807699 72.3191798,11.9310303 70.4136549,11.9310303 C68.50813,11.9310303 66.9583904,13.4807699 66.9583904,15.3862948 M63.9142072,11.2558386 C59.1827722,8.01593705 53.7259426,5.87394957 48.0581157,5.07215942 L48.3636982,2.91125493 C54.4316926,3.76834095 60.2741381,6.07621605 65.320614,9.57295241 C70.2470397,5.15001019 78.0532162,8.68458056 78.0532162,15.251693 C78.0532162,17.2801784 77.2528812,19.1224041 75.9577937,20.4917045 C79.0994723,25.2878939 81.1315957,30.5846564 81.9799508,36.2539385 L79.821229,36.5762552 C79.0296249,31.2867684 77.1444722,26.3414257 74.2392562,21.8544567 C67.3694716,25.8495835 59.7968474,17.9284498 63.9142072,11.2558386 M17.8696469,15.3862948 C17.8696469,17.2918197 16.3199073,18.8422868 14.4143825,18.8422868 C12.5088576,18.8422868 10.9583904,17.2918197 10.9583904,15.3862948 C10.9583904,13.4807699 12.5088576,11.9310303 14.4143825,11.9310303 C16.3199073,11.9310303 17.8696469,13.4807699 17.8696469,15.3862948 M21.1238593,11.2558386 C25.8552943,8.01593705 31.3121238,5.87394957 36.9799508,5.07215942 L36.6743683,2.91125493 C30.6063739,3.76834095 24.7639284,6.07621605 19.7174525,9.57295241 C14.7910268,5.15001019 6.98485024,8.68458056 6.98485024,15.251693 C6.98485024,17.2801784 7.78518523,19.1224041 9.08027277,20.4917045 C5.93859412,25.2878939 3.90647081,30.5846564 3.05811571,36.2539385 L5.21683747,36.5762552 C6.00844154,31.2867684 7.89359425,26.3414257 10.7988103,21.8544567 C17.6685949,25.8495835 25.2412191,17.9284498 21.1238593,11.2558386 M17.6912232,68.3648337 C17.6912232,66.4593088 16.1414836,64.9088417 14.2359588,64.9088417 C12.3304339,64.9088417 10.7799667,66.4593088 10.7799667,68.3648337 C10.7799667,70.2703586 12.3304339,71.8200981 14.2359588,71.8200981 C16.1414836,71.8200981 17.6912232,70.2703586 17.6912232,68.3648337 M20.7994333,72.5083862 C25.8073477,76.1397244 31.6505207,78.4970747 37.7730834,79.3119613 L37.4842353,81.4757761 C30.9367674,80.6041385 24.6839683,78.0787178 19.3471891,74.1665348 C14.4171255,78.3850278 6.7506438,74.8810157 6.7506438,68.3648337 C6.7506438,66.2512217 7.61355044,64.3362383 9.00540576,62.9516588 C6.09946215,58.2464166 4.23322645,53.0908041 3.48091155,47.5968681 L5.64399878,47.3007442 C6.34538326,52.426526 8.07337928,57.24236 10.7610497,61.6434749 C17.7086851,57.8775349 25.0593982,65.9420014 20.7994333,72.5083862" id="Fill-1" fill="url(#linearGradient-3)" mask="url(#mask-2)"></path>
                <path d="M64.9142072,56.2558386 C60.1827722,53.0159371 54.7259426,50.8739496 49.0581157,50.0721594 L49.3636982,47.9112549 C55.4316926,48.768341 61.2741381,51.0762161 66.320614,54.5729524 C71.2470397,50.1500102 79.0532162,53.6845806 79.0532162,60.251693 C79.0532162,62.2801784 78.2528812,64.1224041 76.9577937,65.4917045 C80.0994723,70.2878939 82.1315957,75.5846564 82.9799508,81.2539385 L80.821229,81.5762552 C80.0296249,76.2867684 78.1444722,71.3414257 75.2392562,66.8544567 C68.3694716,70.8495835 60.7968474,62.9284498 64.9142072,56.2558386" id="Path" fill="url(#linearGradient-4)" mask="url(#mask-2)" transform="translate(66.019033, 64.743755) scale(1, -1) translate(-66.019033, -64.743755) "></path>
                <path d="M67.9583904,69.3862948 C67.9583904,71.2918197 69.50813,72.8422868 71.4136549,72.8422868 C73.3191798,72.8422868 74.8696469,71.2918197 74.8696469,69.3862948 C74.8696469,67.4807699 73.3191798,65.9310303 71.4136549,65.9310303 C69.50813,65.9310303 67.9583904,67.4807699 67.9583904,69.3862948" id="Path" fill="#FFFFFF" mask="url(#mask-2)" transform="translate(71.414019, 69.386659) scale(1, -1) translate(-71.414019, -69.386659) "></path>
            </g>
        </g>
    </g>
</svg>