<svg id="Group_3" data-name="Group 3" xmlns="http://www.w3.org/2000/svg" xmlns:xlink="http://www.w3.org/1999/xlink" width="72.819" height="72.819" viewBox="0 0 72.819 72.819">
  <defs>
    <clipPath id="clip-path">
      <path id="Clip_2" data-name="Clip 2" d="M0,0H72.819V72.819H0Z" fill="none"/>
    </clipPath>
  </defs>
  <path id="Clip_2-2" data-name="Clip 2" d="M0,0H72.819V72.819H0Z" fill="none"/>
  <g id="Group_3-2" data-name="Group 3" clip-path="url(#clip-path)">
    <path id="Fill_1" data-name="Fill 1" d="M36.409,72.82A36.451,36.451,0,0,1,0,36.409,36.058,36.058,0,0,1,2.955,22.055a1.713,1.713,0,0,1,.121-.269A36.405,36.405,0,1,1,36.409,72.82Zm1.826-22.208V68.837c3.039-1.019,6.562-4.361,9.425-8.942a42.918,42.918,0,0,0,4.292-9.284Zm-17.194,0h0A42.57,42.57,0,0,0,27.42,62.638c2.408,3.114,4.952,5.3,7.163,6.149V50.612H21.041Zm-14.147,0h0A32.917,32.917,0,0,0,27.038,67.8a36.547,36.547,0,0,1-5.6-7.365,46.818,46.818,0,0,1-4.314-9.818H6.894Zm48.866,0h0a46.07,46.07,0,0,1-5,11.219,34.347,34.347,0,0,1-4.522,5.828A32.966,32.966,0,0,0,65.924,50.612H55.76Zm.516-26.124h0a46.4,46.4,0,0,1,1.587,11.92A49.7,49.7,0,0,1,56.71,46.961h10.7a32.624,32.624,0,0,0-.5-22.473H56.275Zm-18.04,0V46.961H52.976A45.815,45.815,0,0,0,54.21,36.409a42.232,42.232,0,0,0-1.743-11.92Zm-17.978,0a44.292,44.292,0,0,0-1.648,11.921,42.971,42.971,0,0,0,1.346,10.553H34.583V24.488H20.256Zm-14.349,0a32.639,32.639,0,0,0-.5,22.473H16.152a47.681,47.681,0,0,1-1.2-10.553,48.678,48.678,0,0,1,1.508-11.92Zm39.64-19.53h0a42.776,42.776,0,0,1,9.608,15.877H65.222A33.048,33.048,0,0,0,45.547,4.958Zm-7.313-.853v16.73H51.219C47.785,12.073,42.088,5.787,38.235,4.106Zm-3.652-.083c-2.12.8-4.556,2.795-6.859,5.628a40.326,40.326,0,0,0-6.278,11.185H34.583Zm-7.895,1.1A33.122,33.122,0,0,0,7.6,20.836h9.938A41.641,41.641,0,0,1,26.688,5.125Z" transform="translate(0 -0.001)" fill="#00bece"/>
  </g>
</svg>
