<?xml version="1.0" encoding="UTF-8"?>
<svg width="29px" height="22px" viewBox="0 0 29 22" version="1.1" xmlns="http://www.w3.org/2000/svg" xmlns:xlink="http://www.w3.org/1999/xlink">
    <title>AE11C48D-C86A-4062-A1C8-D528322EC074</title>
    <g id="Work-Table" stroke="none" stroke-width="1" fill="none" fill-rule="evenodd">
        <g id="Kontakt" transform="translate(-345.000000, -1226.000000)" fill="#5B5B5B">
            <path d="M346.612042,1246.10259 L346.612042,1228.67862 L358.63304,1239.84154 C358.786587,1239.98459 358.981644,1240.05591 359.176298,1240.05591 C359.371356,1240.05591 359.56601,1239.98459 359.71996,1239.84154 L371.740958,1228.67862 L371.740958,1246.10259 L346.612042,1246.10259 Z M370.468654,1227.63956 L359.176298,1238.12615 L347.884346,1227.63956 L370.468654,1227.63956 Z M373.347761,1226.76567 C373.345746,1226.73616 373.344134,1226.70665 373.338895,1226.67714 C373.334462,1226.65131 373.327207,1226.62672 373.320356,1226.60172 C373.313505,1226.57548 373.306654,1226.54966 373.296982,1226.52425 C373.286906,1226.49842 373.274816,1226.47465 373.262726,1226.45006 C373.251038,1226.4271 373.240157,1226.40415 373.226455,1226.38202 C373.210737,1226.35701 373.192602,1226.33406 373.174466,1226.31111 C373.163182,1226.29676 373.154719,1226.28077 373.142225,1226.26684 C373.138195,1226.26233 373.132956,1226.25905 373.128523,1226.25454 C373.108776,1226.23364 373.08661,1226.21519 373.064444,1226.19634 C373.045503,1226.17994 373.027771,1226.16273 373.00762,1226.14838 C372.986663,1226.13362 372.963692,1226.12174 372.941526,1226.10903 C372.918152,1226.0955 372.895583,1226.08116 372.871805,1226.0705 C372.848834,1226.06025 372.824653,1226.0537 372.801279,1226.0455 C372.775083,1226.03689 372.749693,1226.02705 372.723498,1226.0209 C372.700123,1226.01599 372.675942,1226.01394 372.652165,1226.01066 C372.623148,1226.00697 372.594534,1226.00246 372.565517,1226.00205 C372.559069,1226.00164 372.553427,1226 372.546979,1226 L345.806021,1226 C345.799976,1226 345.794334,1226.00164 345.788289,1226.00205 C345.758869,1226.00246 345.729852,1226.00697 345.700432,1226.01066 C345.676655,1226.01394 345.652877,1226.01599 345.629905,1226.0209 C345.60371,1226.02705 345.578723,1226.03648 345.553736,1226.04509 C345.529153,1226.05329 345.504166,1226.06025 345.481195,1226.0705 C345.45782,1226.08116 345.436057,1226.09509 345.413892,1226.1078 C345.390517,1226.12092 345.36674,1226.13321 345.344977,1226.14879 C345.325633,1226.16273 345.3079,1226.17953 345.289362,1226.19552 C345.267196,1226.21437 345.244627,1226.23323 345.224477,1226.25454 C345.220044,1226.25905 345.214805,1226.26233 345.210775,1226.26684 C345.198281,1226.28077 345.189818,1226.29676 345.178534,1226.31111 C345.160398,1226.33406 345.142263,1226.35701 345.126948,1226.38202 C345.112843,1226.40415 345.101962,1226.4271 345.090274,1226.45047 C345.078184,1226.47465 345.066094,1226.49842 345.056421,1226.52384 C345.046346,1226.54966 345.039495,1226.57589 345.032241,1226.60213 C345.025793,1226.62672 345.018538,1226.65131 345.014105,1226.67714 C345.008866,1226.70665 345.007254,1226.73616 345.005239,1226.76567 C345.00403,1226.78371 345,1226.80133 345,1226.81978 L345,1246.92237 C345,1247.37488 345.361097,1247.74214 345.806021,1247.74214 L372.546979,1247.74214 C372.992306,1247.74214 373.353,1247.37488 373.353,1246.92237 L373.353,1226.81978 C373.353,1226.80133 373.34897,1226.78371 373.347761,1226.76567 L373.347761,1226.76567 Z" id="Fill-1"></path>
        </g>
    </g>
</svg>