<svg id="Group_3" data-name="Group 3" xmlns="http://www.w3.org/2000/svg" width="235" height="235" viewBox="0 0 235 235">
  <path id="Path" d="M99,0a99,99,0,1,0,99,99A99,99,0,0,0,99,0Z" transform="translate(18 18)" fill="#edf3fc"/>
  <path id="Shape" d="M0,117.5A117.5,117.5,0,1,1,117.5,235,117.633,117.633,0,0,1,0,117.5Z" fill="#edf3fc"/>
  <path id="Path-2" data-name="Path" d="M73.049,39.2H38.995c-3.773,0-4.478-2.98-3.13-6.947a44.688,44.688,0,0,0,2.728-14.862c0-7.63-4.469-17.392-12-17.392-4.668,0-3.018,13.32-9.547,27.6C13.41,35.561,3.94,49.04,0,52.591V92.564c1.918,3.064,7.175,9.908,15.868,9.908,8.01,0,44.294-.027,44.294-.027,11.531,0,11.661-14.469,4.037-15.714l2.068.073c7.3-.785,10.361-13.715,1.027-16.069l1.74-.031c6.973-.731,10.175-13.109.461-15.868L71.8,54.6C82.16,54.457,82.844,39.228,73.049,39.2Z" transform="translate(89 58)" fill="#45afc3"/>
  <g id="Group" transform="translate(66 107)">
    <path id="Path-3" data-name="Path" d="M23,4.036V43.4a4.027,4.027,0,0,1-4.015,4.036H4.014A4.024,4.024,0,0,1,0,43.4V4.036A4.027,4.027,0,0,1,4.014,0H18.985A4.03,4.03,0,0,1,23,4.036Z" fill="#9cdce8"/>
    <ellipse id="Oval" cx="3.073" cy="3.089" rx="3.073" ry="3.089" transform="translate(12.447 4.68)" fill="#fff"/>
  </g>
  <path id="Path-4" data-name="Path" d="M18.277,9.319a11.827,11.827,0,0,1-8.6-8.6L9.5,0,9.318.722a11.824,11.824,0,0,1-8.6,8.6L0,9.5l.723.182a11.823,11.823,0,0,1,8.6,8.6L9.5,19l.18-.722a11.826,11.826,0,0,1,8.6-8.6L19,9.5Z" transform="translate(44 81)" fill="#ffbe1b"/>
  <path id="Path-5" data-name="Path" d="M26.935,13.733A17.429,17.429,0,0,1,14.265,1.065L14,0l-.268,1.065A17.424,17.424,0,0,1,1.065,13.733L0,14l1.065.268A17.424,17.424,0,0,1,13.733,26.936L14,28l.265-1.064a17.429,17.429,0,0,1,12.67-12.667L28,14Z" transform="translate(67 58)" fill="#ffbe1b"/>
  <path id="Path-6" data-name="Path" d="M25.011,12.752A16.184,16.184,0,0,1,13.247.988L13,0l-.249.988A16.179,16.179,0,0,1,.989,12.752L0,13l.989.249A16.18,16.18,0,0,1,12.752,25.012L13,26l.246-.988A16.185,16.185,0,0,1,25.011,13.25L26,13Z" transform="translate(107 171)" fill="#5d8ef9"/>
  <path id="Path-7" data-name="Path" d="M24.049,12.262A15.562,15.562,0,0,1,12.737.951L12.5,0l-.239.951A15.557,15.557,0,0,1,.951,12.262L0,12.5l.951.239A15.556,15.556,0,0,1,12.261,24.05L12.5,25l.236-.95A15.561,15.561,0,0,1,24.049,12.74L25,12.5Z" transform="translate(153 60)" fill="#330d84"/>
  <path id="Path-8" data-name="Path" d="M11.543,5.886A7.47,7.47,0,0,1,6.114.456L6,0,5.886.456A7.468,7.468,0,0,1,.457,5.886L0,6l.457.115a7.467,7.467,0,0,1,5.429,5.429L6,12l.113-.456a7.47,7.47,0,0,1,5.43-5.429L12,6Z" transform="translate(141 171)" fill="#5d8ef9"/>
</svg>
