<svg width="170" height="170" viewBox="0 0 170 170" fill="none" xmlns="http://www.w3.org/2000/svg">
<circle cx="84.81" cy="84.81" r="84.81" fill="#ECEDF7"/>
<g style="mix-blend-mode:multiply">
<path d="M169.547 81.5299L132.707 44.7217L126.189 49.7093C128.716 52.6838 130.406 56.2779 131.083 60.1218C137.331 85.1119 140.454 119.473 114.423 130.927C89.433 141.496 62.6832 129.886 43.1494 113.309L25.8125 126.575L66.994 167.766C92.0392 173.138 118.17 166.902 138.091 150.8C158.012 134.699 169.589 110.456 169.589 84.8411C169.62 83.7062 169.589 82.6233 169.547 81.5299Z" fill="url(#paint0_radial_0_2838)"/>
</g>
<path fill-rule="evenodd" clip-rule="evenodd" d="M22.335 84.8309C22.335 119.335 50.306 147.306 84.8101 147.306C119.293 147.254 147.234 119.314 147.285 84.8309C147.285 50.3268 119.314 22.3557 84.8101 22.3557C50.306 22.3557 22.335 50.3268 22.335 84.8309ZM43.16 84.8308C43.16 61.8281 61.8074 43.1808 84.8101 43.1808V43.1495C107.808 43.1897 126.437 61.8326 126.46 84.8308C126.46 107.834 107.813 126.481 84.8101 126.481C61.8074 126.481 43.16 107.834 43.16 84.8308Z" fill="#CFD5EC"/>
<path d="M84.8102 142.1C58.5274 142.119 35.6055 124.245 29.2171 98.7509C22.8287 73.2563 34.6139 46.686 57.8001 34.3092L62.7148 43.4827C41.8418 54.6224 32.5482 79.5751 41.0486 101.655C49.549 123.735 73.1761 136.013 96.1306 130.28C119.085 124.547 134.164 102.601 131.284 79.1173C128.405 55.6336 108.47 37.9811 84.8102 37.964V27.5515C116.439 27.5515 142.079 53.1917 142.079 84.8204C142.079 116.449 116.439 142.089 84.8102 142.089V142.1Z" fill="url(#paint1_linear_0_2838)"/>
<g style="mix-blend-mode:multiply">
<path d="M25.542 126.044L67.3066 167.798C84.3848 171.394 102.156 169.641 118.203 162.779L55.3114 99.9082L25.542 126.044Z" fill="url(#paint2_radial_0_2838)"/>
</g>
<circle cx="40.4838" cy="113.07" r="19.7734" fill="#F4D917"/>
<path fill-rule="evenodd" clip-rule="evenodd" d="M31.478 109.449C31.4396 109.517 31.401 109.585 31.3623 109.654C30.8104 109.602 30.2377 109.529 29.613 109.311C28.6759 109.238 28.301 109.623 28.2281 110.498C28.1552 111.372 28.0719 112.237 27.9782 113.111C27.9075 113.424 27.9851 113.752 28.1886 114.001C28.3921 114.249 28.6986 114.389 29.0195 114.382C29.1175 114.391 29.2151 114.4 29.3125 114.41C29.7427 114.45 30.1672 114.491 30.5918 114.559C30.7468 114.601 30.8736 114.712 30.9354 114.861C31.1332 115.444 31.3206 116.037 31.4664 116.631C31.5037 116.79 31.4609 116.957 31.3519 117.078C31.0723 117.35 30.7762 117.595 30.4796 117.84C30.3676 117.933 30.2554 118.025 30.144 118.12C29.8823 118.294 29.7138 118.578 29.6854 118.892C29.6571 119.205 29.7721 119.515 29.9983 119.734L31.6955 121.816C32.289 122.535 32.768 122.587 33.5073 121.983L34.8088 120.941C35.4961 121.337 36.1104 121.681 36.756 121.983C36.9411 122.051 37.0412 122.252 36.9851 122.441C36.9694 122.584 36.9519 122.727 36.9343 122.87C36.8816 123.3 36.8289 123.729 36.8289 124.159C36.7868 124.413 36.8564 124.674 37.0199 124.873C37.1834 125.072 37.425 125.192 37.6827 125.2C38.724 125.325 39.7652 125.419 40.8065 125.492C41.0998 125.533 41.3963 125.44 41.6128 125.238C41.8293 125.035 41.9425 124.746 41.9206 124.45C41.9492 124.17 41.9755 123.889 42.0017 123.61C42.0328 123.279 42.0637 122.95 42.0976 122.628L44.4508 121.889C44.5375 121.994 44.6242 122.1 44.7111 122.207C45.0105 122.573 45.3127 122.942 45.6275 123.305C45.7971 123.571 46.0783 123.746 46.392 123.78C46.7057 123.815 47.0181 123.705 47.2414 123.482C47.9807 122.878 48.7096 122.274 49.428 121.649C49.6759 121.471 49.8327 121.192 49.8568 120.887C49.8808 120.582 49.7697 120.282 49.553 120.067C49.251 119.681 48.9386 119.286 48.6054 118.911C48.4414 118.735 48.4414 118.462 48.6054 118.286C48.8964 117.81 49.1572 117.316 49.3864 116.808C49.4569 116.572 49.7003 116.435 49.9382 116.495C49.9668 116.499 49.9953 116.502 50.0237 116.505C50.5336 116.564 51.0179 116.62 51.5209 116.62C51.7939 116.675 52.0773 116.608 52.2959 116.435C52.5145 116.263 52.6461 116.003 52.6559 115.725C52.7704 114.756 52.885 113.621 52.937 112.799C52.9891 111.976 52.6559 111.601 51.8229 111.528C51.6807 111.516 51.5385 111.501 51.3961 111.486C51.0587 111.45 50.7197 111.414 50.3756 111.414C50.2716 111.426 50.1674 111.394 50.0869 111.328C50.0064 111.261 49.9565 111.164 49.9487 111.06C49.8029 110.498 49.6363 109.935 49.4489 109.384C49.3935 109.286 49.38 109.17 49.4114 109.062C49.4428 108.954 49.5164 108.864 49.6155 108.811C49.9334 108.57 50.2372 108.308 50.5385 108.049C50.6022 107.994 50.6659 107.939 50.7296 107.884C51.0213 107.717 51.2141 107.418 51.2471 107.084C51.2802 106.749 51.1495 106.419 50.8962 106.197C50.5039 105.748 50.1067 105.269 49.7047 104.785C49.5198 104.562 49.3339 104.338 49.1469 104.115C48.9737 103.838 48.6807 103.658 48.3554 103.63C48.0301 103.601 47.7102 103.727 47.4913 103.969C47.0852 104.344 46.6895 104.698 46.2626 105.01C46.1307 105.072 45.978 105.072 45.8461 105.01C45.6064 104.893 45.3707 104.767 45.1346 104.642C44.8271 104.478 44.519 104.314 44.2009 104.167C44.0111 104.102 43.9025 103.903 43.951 103.709C43.9942 103.342 44.0274 102.985 44.0609 102.625C44.076 102.463 44.0911 102.301 44.1072 102.136C44.1682 101.84 44.0976 101.533 43.9137 101.293C43.7299 101.053 43.4509 100.905 43.1493 100.887C42.1809 100.772 41.2021 100.689 40.2234 100.616C39.9337 100.553 39.6311 100.625 39.4004 100.811C39.1697 100.997 39.0358 101.278 39.0363 101.574C39.0047 101.822 38.9829 102.059 38.9616 102.29C38.9337 102.593 38.9065 102.887 38.8593 103.188C38.8142 103.357 38.7012 103.501 38.5469 103.584C37.9638 103.792 37.3703 103.979 36.7768 104.136C36.618 104.163 36.455 104.122 36.3291 104.021C36.0386 103.704 35.7631 103.365 35.4898 103.029C35.4398 102.967 35.3898 102.906 35.3399 102.844C35.172 102.546 34.8681 102.349 34.5271 102.318C34.186 102.287 33.8514 102.425 33.6322 102.688L31.5497 104.386C31.2551 104.549 31.058 104.846 31.0208 105.181C30.9836 105.516 31.1108 105.848 31.3623 106.072C31.3941 106.108 31.4257 106.143 31.4572 106.178C31.7969 106.554 32.1177 106.91 32.4036 107.301C32.4656 107.433 32.4656 107.586 32.4036 107.718C32.1328 108.287 31.8117 108.857 31.478 109.449ZM40.567 107.957C43.3963 107.997 45.6573 110.324 45.617 113.153C45.5768 115.982 43.2505 118.243 40.4212 118.203C37.5919 118.163 35.3309 115.836 35.3711 113.007C35.4114 110.178 37.7376 107.917 40.567 107.957Z" fill="#F7F9FD"/>
<path fill-rule="evenodd" clip-rule="evenodd" d="M61.3716 97.3468C61.4818 97.4789 61.6474 97.5521 61.8193 97.5446H63.4853C63.7266 97.5647 63.965 97.4814 64.1413 97.3155C64.2871 97.1593 64.4016 97.024 64.4849 96.9198L70.5138 88.5169C70.6772 88.2445 70.8464 87.9835 71.0198 87.716C71.1777 87.4723 71.3392 87.2231 71.503 86.9551C71.8637 86.3525 72.1603 85.7139 72.3881 85.0496C72.6455 84.2957 72.7722 83.5033 72.7629 82.7067C72.7665 81.7795 72.6043 80.8592 72.2839 79.9891C71.9519 79.1096 71.4414 78.3084 70.7845 77.6358C70.0752 76.9168 69.2242 76.353 68.2855 75.9803C67.184 75.553 66.0098 75.3444 64.8286 75.3659C63.6476 75.3427 62.4745 75.5625 61.382 76.0115C59.5572 76.7566 58.1291 78.2338 57.4461 80.0828C57.1243 80.942 56.9586 81.8517 56.9567 82.7692C56.9525 83.6882 57.122 84.5997 57.4565 85.4557C58.1426 87.2287 59.5285 88.641 61.2883 89.3603C62.2787 89.7707 63.34 89.9829 64.4121 89.9851C64.9798 89.9892 65.5459 89.9263 66.0989 89.7977L61.3195 96.4513L61.2467 96.6075C61.2104 96.6857 61.1926 96.7712 61.1946 96.8574C61.1923 97.0366 61.2552 97.2105 61.3716 97.3468ZM67.2755 86.8822C66.5251 87.2667 65.6925 87.4632 64.8494 87.4549V87.4132C64.0264 87.4344 63.2109 87.252 62.4753 86.8822C61.7575 86.5069 61.1534 85.9459 60.726 85.2578C59.8506 83.6957 59.8506 81.7907 60.726 80.2286C61.1534 79.5404 61.7575 78.9795 62.4753 78.6042C63.2064 78.2167 64.022 78.0164 64.8494 78.0211C65.6934 78.0159 66.526 78.2161 67.2755 78.6042C67.9966 78.9788 68.6042 79.5397 69.0352 80.2286C69.9106 81.7907 69.9106 83.6957 69.0352 85.2578C68.6042 85.9467 67.9966 86.5076 67.2755 86.8822Z" fill="#0D5A58"/>
<path d="M83.1545 97.8255C81.991 97.8487 80.8312 97.687 79.7184 97.3466C78.8234 97.0667 77.987 96.6256 77.2506 96.045C76.6272 95.5606 76.1128 94.9504 75.7408 94.254C75.408 93.6417 75.2193 92.9615 75.189 92.2653C75.182 92.0956 75.2506 91.9316 75.3764 91.8175C75.5036 91.6998 75.6717 91.6363 75.845 91.6405H77.3756C77.5589 91.6424 77.7385 91.6927 77.8962 91.7863C78.0776 91.9163 78.2038 92.1094 78.2502 92.3277C78.4057 93.0054 78.7699 93.6173 79.2915 94.077C79.8123 94.4955 80.421 94.791 81.072 94.9413C81.7552 95.0969 82.4539 95.1738 83.1545 95.1703C84.4044 95.2244 85.6363 94.8578 86.6532 94.1291C87.5694 93.3994 88.071 92.2679 87.9964 91.0991C88.1026 89.9877 87.6452 88.8971 86.7781 88.194C85.7726 87.5571 84.5928 87.2512 83.4044 87.3193H80.4369C80.2488 87.3261 80.0656 87.2588 79.9267 87.1319C79.7836 86.9934 79.7076 86.7997 79.7184 86.6008V85.7574C79.7177 85.5909 79.757 85.4267 79.8329 85.2785C79.8946 85.1483 79.9715 85.026 80.062 84.914L86.1221 78.2916H76.907C76.719 78.2984 76.5358 78.2311 76.3968 78.1042C76.25 77.9682 76.1734 77.7727 76.1886 77.5732V76.3862C76.1769 76.1894 76.2478 75.9968 76.3842 75.8545C76.5205 75.7122 76.71 75.6332 76.907 75.6365H89.4021C89.6035 75.6275 89.7994 75.7036 89.942 75.8462C90.0846 75.9888 90.1607 76.1847 90.1518 76.3862V77.5107C90.1555 77.6498 90.1194 77.7871 90.0476 77.9064C89.9737 78.0182 89.8938 78.126 89.8081 78.2292L83.7689 84.9869H84.2687C85.5103 85 86.7375 85.2546 87.8818 85.7366C88.8756 86.1675 89.712 86.8948 90.2767 87.8191C90.8864 88.8511 91.1865 90.0366 91.1409 91.2344C91.1761 92.5013 90.8118 93.7471 90.0997 94.7955C89.3867 95.7981 88.41 96.5838 87.2779 97.0654C85.9717 97.6044 84.567 97.8634 83.1545 97.8255Z" fill="#0D5A58"/>
<path fill-rule="evenodd" clip-rule="evenodd" d="M98.6481 86.6426C97.4739 86.7129 96.3189 86.3204 95.4306 85.5493C94.635 84.7637 94.1758 83.6996 94.1499 82.5817V81.1969V79.7391C94.1645 78.6096 94.5987 77.5258 95.3682 76.6987C97.2836 75.1366 100.033 75.1366 101.949 76.6987C102.708 77.5305 103.134 78.6129 103.146 79.7391C103.146 80.0551 103.165 80.3344 103.181 80.5903V80.5903V80.5903V80.5903V80.5904V80.5904V80.5904C103.196 80.8066 103.209 81.0061 103.209 81.1969C103.209 81.6134 103.209 82.0403 103.146 82.5817C103.142 83.7 102.688 84.7694 101.886 85.5493C100.989 86.3188 99.8283 86.7106 98.6481 86.6426ZM96.0242 97.5445C95.5868 97.5445 95.3682 97.3363 95.3682 96.9198C95.3687 96.7942 95.4129 96.6728 95.4931 96.5762L110.924 76.2718C111.048 76.1087 111.191 75.9618 111.351 75.8344C111.53 75.7179 111.742 75.663 111.955 75.6782H112.997C113.434 75.6782 113.653 75.8865 113.653 76.303C113.652 76.4286 113.608 76.55 113.528 76.6466L98.1275 96.951C98.0074 97.1136 97.8675 97.2605 97.711 97.3884C97.5186 97.5095 97.2919 97.5644 97.0654 97.5445H96.0242ZM99.9497 84.3623C99.5619 84.6089 99.1071 84.729 98.6481 84.7059C98.1952 84.734 97.7454 84.6133 97.3674 84.3623C97.0673 84.1481 96.8358 83.8515 96.701 83.5085C96.5668 83.1743 96.4758 82.8244 96.4302 82.4672V81.1448V79.8745C96.4728 79.3142 96.6632 78.7753 96.9821 78.3126C97.3743 77.7991 98.0055 77.5269 98.6481 77.5942C99.3018 77.5321 99.9431 77.8019 100.356 78.3126C100.689 78.7669 100.878 79.3113 100.897 79.8745C100.96 80.3951 100.96 80.8637 100.96 81.1448C100.96 81.2613 100.949 81.4117 100.936 81.5879V81.5879C100.919 81.8371 100.897 82.1378 100.897 82.4672C100.874 82.8261 100.79 83.1784 100.647 83.5085C100.501 83.8537 100.259 84.15 99.9497 84.3623ZM110.331 97.732C109.153 97.7959 107.999 97.3788 107.134 96.5762C106.334 95.7662 105.869 94.684 105.833 93.5461V92.1613V90.7035C105.868 89.5743 106.308 88.4955 107.072 87.6631C107.944 86.8289 109.127 86.4016 110.331 86.4864C111.548 86.3975 112.746 86.8246 113.632 87.6631C114.392 88.497 114.828 89.5757 114.86 90.7035C114.86 91.0195 114.879 91.2988 114.896 91.5547L114.896 91.5547C114.91 91.771 114.923 91.9705 114.923 92.1613C114.923 92.5778 114.923 93.0047 114.86 93.5461C114.828 94.6828 114.366 95.7651 113.569 96.5762C112.69 97.3832 111.522 97.8001 110.331 97.732ZM111.643 95.3059C111.253 95.5565 110.794 95.6769 110.331 95.6495V95.6703C109.883 95.6877 109.441 95.5599 109.071 95.3059C108.759 95.099 108.519 94.8008 108.384 94.452C108.25 94.1179 108.159 93.768 108.113 93.4108V92.0676V90.8181C108.156 90.2578 108.346 89.7188 108.665 89.2562C109.057 88.7427 109.688 88.4704 110.331 88.5377C110.988 88.4701 111.635 88.7406 112.049 89.2562C112.375 89.7137 112.559 90.2567 112.58 90.8181C112.622 91.3179 112.643 91.7344 112.643 92.0676C112.643 92.4008 112.622 92.8485 112.58 93.4108C112.557 93.7697 112.473 94.1219 112.33 94.452C112.184 94.7945 111.946 95.09 111.643 95.3059Z" fill="#0D5A58"/>
<defs>
<radialGradient id="paint0_radial_0_2838" cx="0" cy="0" r="1" gradientUnits="userSpaceOnUse" gradientTransform="translate(93.9729 101.376) scale(61.7775 53.6755)">
<stop stop-color="#ECEDF7"/>
<stop offset="0.2" stop-color="#ECEDF7" stop-opacity="0.99"/>
<stop offset="0.34" stop-color="#ECEDF7" stop-opacity="0.95"/>
<stop offset="0.46" stop-color="#ECEDF7" stop-opacity="0.89"/>
<stop offset="0.56" stop-color="#ECEDF7" stop-opacity="0.81"/>
<stop offset="0.66" stop-color="#ECEDF7" stop-opacity="0.69"/>
<stop offset="0.75" stop-color="#ECEDF7" stop-opacity="0.56"/>
<stop offset="0.84" stop-color="#ECEDF7" stop-opacity="0.39"/>
<stop offset="0.92" stop-color="#ECEDF7" stop-opacity="0.21"/>
<stop offset="1" stop-color="#ECEDF7" stop-opacity="0.01"/>
</radialGradient>
<linearGradient id="paint1_linear_0_2838" x1="95.0797" y1="21.7974" x2="4.96148" y2="69.344" gradientUnits="userSpaceOnUse">
<stop stop-color="#7ABD6C"/>
<stop offset="1" stop-color="#00ADBC"/>
</linearGradient>
<radialGradient id="paint2_radial_0_2838" cx="0" cy="0" r="1" gradientUnits="userSpaceOnUse" gradientTransform="translate(39.4011 113.528) scale(36.7666 27.6608)">
<stop stop-color="#ECEDF7"/>
<stop offset="0.2" stop-color="#ECEDF7" stop-opacity="0.99"/>
<stop offset="0.34" stop-color="#ECEDF7" stop-opacity="0.95"/>
<stop offset="0.46" stop-color="#ECEDF7" stop-opacity="0.89"/>
<stop offset="0.56" stop-color="#ECEDF7" stop-opacity="0.81"/>
<stop offset="0.66" stop-color="#ECEDF7" stop-opacity="0.69"/>
<stop offset="0.75" stop-color="#ECEDF7" stop-opacity="0.56"/>
<stop offset="0.84" stop-color="#ECEDF7" stop-opacity="0.39"/>
<stop offset="0.92" stop-color="#ECEDF7" stop-opacity="0.21"/>
<stop offset="1" stop-color="#ECEDF7" stop-opacity="0.01"/>
</radialGradient>
</defs>
</svg>
