<svg id="Group_61" data-name="Group 61" xmlns="http://www.w3.org/2000/svg" xmlns:xlink="http://www.w3.org/1999/xlink" width="44" height="35" viewBox="0 0 44 35">
  <defs>
    <linearGradient id="linear-gradient" x1="0.959" y1="0.077" x2="0.039" y2="0.959" gradientUnits="objectBoundingBox">
      <stop offset="0" stop-color="#fff"/>
      <stop offset="1" stop-color="#fff"/>
    </linearGradient>
  </defs>
  <path id="Combined_Shape" data-name="Combined Shape" d="M12.514,35H2.61A2.59,2.59,0,0,1,0,32.437V2.563A2.59,2.59,0,0,1,2.61,0H18.363a1.951,1.951,0,0,1,1.36.546L24.459,5.12a1.9,1.9,0,0,1,.58,1.358V7.851a.551.551,0,0,1-1.1,0V6.478a.822.822,0,0,0-.251-.587L18.95,1.319a.844.844,0,0,0-.588-.236H2.61A1.5,1.5,0,0,0,1.1,2.563V32.437a1.5,1.5,0,0,0,1.508,1.48h6.6a5.41,5.41,0,0,1-1.739-2.164,1.193,1.193,0,0,1,.1-1.15,1.239,1.239,0,0,1,1.033-.548H42.763A1.236,1.236,0,0,1,43.8,30.6a1.188,1.188,0,0,1,.1,1.149A5.5,5.5,0,0,1,38.856,35Zm26.342-1.083a4.395,4.395,0,0,0,4.03-2.6.122.122,0,0,0-.011-.124.13.13,0,0,0-.112-.059H8.606a.131.131,0,0,0-.113.059.125.125,0,0,0-.01.124,4.4,4.4,0,0,0,4.03,2.6H38.856Zm-28.6-4.664V11.789a3.26,3.26,0,0,1,3.285-3.226H34.75a.541.541,0,1,1,0,1.083H13.543a2.165,2.165,0,0,0-2.182,2.143V29.254a.551.551,0,0,1-1.1,0Zm29.75,0V15.124c0-.3.329-.541.733-.541s.734.243.734.541V29.253c0,.3-.329.542-.734.542S40.009,29.552,40.009,29.253Zm.919-14.128V29.254a.353.353,0,0,1-.027.137.167.167,0,0,0,.086-.138V15.124a.166.166,0,0,0-.086-.137A.354.354,0,0,1,40.928,15.125ZM14.611,29.54a.535.535,0,0,1,0-.765h0l-.9-.884a.559.559,0,0,1-.779,0,.536.536,0,0,1,0-.766L23.3,16.943,26.918,20.5l10.039-9.914L35.769,9.416a.663.663,0,0,1-.163-.7.684.684,0,0,1,.572-.449l5.324-.59c.03,0,.06,0,.09,0a.82.82,0,0,1,.581.239.787.787,0,0,1,.229.657l-.624,5.2a.677.677,0,0,1-.458.56.7.7,0,0,1-.228.038.691.691,0,0,1-.486-.2L39.416,13l-12.4,12.234L23.4,21.676,15.39,29.54a.559.559,0,0,1-.779,0ZM3.546,28.321a.746.746,0,0,1,0-1.44H8.874a.746.746,0,0,1,0,1.44Zm0-.48H8.874a.17.17,0,0,0,.14-.085.372.372,0,0,1-.14.027H3.547a.373.373,0,0,1-.141-.027A.17.17,0,0,0,3.546,27.842Zm0-2.588a.746.746,0,0,1,0-1.44H8.874a.746.746,0,0,1,0,1.44Zm0-.48H8.874a.17.17,0,0,0,.14-.085.372.372,0,0,1-.14.027H3.547a.373.373,0,0,1-.141-.027A.17.17,0,0,0,3.546,24.774Zm0-2.587a.746.746,0,0,1,0-1.44H8.874a.746.746,0,0,1,0,1.44Zm0-.48H8.874a.17.17,0,0,0,.141-.086.372.372,0,0,1-.141.027H3.547a.373.373,0,0,1-.141-.028A.171.171,0,0,0,3.546,21.708Zm0-2.587a.746.746,0,0,1,0-1.44H8.874a.746.746,0,0,1,0,1.44Zm0-.48H8.874a.17.17,0,0,0,.141-.086.373.373,0,0,1-.141.027H3.547a.374.374,0,0,1-.141-.027A.17.17,0,0,0,3.546,18.641Zm0-2.587a.746.746,0,0,1,0-1.44H8.874a.746.746,0,0,1,0,1.44Zm0-.48H8.874a.17.17,0,0,0,.141-.086.373.373,0,0,1-.141.027H3.547a.374.374,0,0,1-.141-.027A.17.17,0,0,0,3.546,15.574Zm0-2.588A.654.654,0,0,1,3,12.266a.654.654,0,0,1,.551-.72H8.874a.653.653,0,0,1,.551.72.653.653,0,0,1-.551.72Zm0-.48H8.874a.17.17,0,0,0,.14-.085.372.372,0,0,1-.14.027H3.547a.373.373,0,0,1-.141-.027A.17.17,0,0,0,3.546,12.506Zm0-2.587A.654.654,0,0,1,3,9.2a.653.653,0,0,1,.551-.72h6.981a.653.653,0,0,1,.551.72.653.653,0,0,1-.551.72Zm0-.48h6.981a.17.17,0,0,0,.141-.086.373.373,0,0,1-.141.027H3.547a.373.373,0,0,1-.141-.028A.171.171,0,0,0,3.546,9.44Zm0-2.588A.654.654,0,0,1,3,6.133a.654.654,0,0,1,.551-.72H15.12a.653.653,0,0,1,.551.72.653.653,0,0,1-.551.72Zm0-.48H15.12a.17.17,0,0,0,.141-.086.373.373,0,0,1-.141.027H3.547a.373.373,0,0,1-.141-.028A.171.171,0,0,0,3.546,6.373Z" fill="url(#linear-gradient)"/>
</svg>
