<svg id="Group_12" data-name="Group 12" xmlns="http://www.w3.org/2000/svg" xmlns:xlink="http://www.w3.org/1999/xlink" width="37" height="44" viewBox="0 0 37 44">
  <defs>
    <clipPath id="clip-path">
      <path id="Clip_2" data-name="Clip 2" d="M0,0H37V44H0Z" fill="none"/>
    </clipPath>
    <linearGradient id="linear-gradient" x1="0.822" y1="0.101" x2="0.189" y2="1" gradientUnits="objectBoundingBox">
      <stop offset="0" stop-color="#c0cc55"/>
      <stop offset="1" stop-color="#ccc01b"/>
    </linearGradient>
    <linearGradient id="linear-gradient-2" x1="0.5" x2="0.5" y2="1" gradientUnits="objectBoundingBox">
      <stop offset="0" stop-color="#c3c946"/>
      <stop offset="1" stop-color="#ccc01b"/>
    </linearGradient>
    <linearGradient id="linear-gradient-3" x1="0.5" x2="0.5" y2="1" gradientUnits="objectBoundingBox">
      <stop offset="0" stop-color="#c4d77a"/>
      <stop offset="1" stop-color="#ccc01b"/>
    </linearGradient>
  </defs>
  <g id="Group_3" data-name="Group 3">
    <path id="Clip_2-2" data-name="Clip 2" d="M0,0H37V44H0Z" fill="none"/>
    <g id="Group_3-2" data-name="Group 3" clip-path="url(#clip-path)">
      <path id="Fill_1" data-name="Fill 1" d="M21.284,0A15.785,15.785,0,0,0,6.567,10.384c-.137.372-.919,2.268-.918,2.268L0,25.03l3.594,1.689v6.261a4.63,4.63,0,0,0,4.853,4.6h3.31V44h1.807V37.583h5.745a4.787,4.787,0,0,0,5.043-4.6V31.167H22.546v1.812a3.013,3.013,0,0,1-3.236,2.771H8.447A2.834,2.834,0,0,1,5.4,32.979V25.547l-3-1.41L7.3,13.39s.815-1.977.958-2.365A13.97,13.97,0,0,1,21.284,1.833a14.028,14.028,0,0,1,13.91,14.113,14.333,14.333,0,0,1-5.951,11.435l-.373.274V44h1.807V28.583A16.154,16.154,0,0,0,37,15.946,15.851,15.851,0,0,0,21.284,0" transform="translate(0)" fill="url(#linear-gradient)"/>
    </g>
  </g>
  <path id="Fill_4" data-name="Fill 4" d="M7.228,16.5H5.421V13.213l-2.71-2.75V7.212A3.653,3.653,0,0,1,0,3.667,3.644,3.644,0,0,1,3.614,0a3.665,3.665,0,0,1,.9,7.2V9.7l2.711,2.75V16.5ZM3.614,1.833A1.836,1.836,0,0,0,3.194,5.45a1.731,1.731,0,0,0,.419.05,1.833,1.833,0,0,0,0-3.667Z" transform="translate(9.897 11.917)" fill="url(#linear-gradient-2)"/>
  <path id="Fill_6" data-name="Fill 6" d="M3.614,7.333a3.593,3.593,0,0,1-.838-.1A3.643,3.643,0,0,1,0,3.667,3.644,3.644,0,0,1,3.614,0,3.645,3.645,0,0,1,7.228,3.667,3.645,3.645,0,0,1,3.614,7.333Zm0-5.5A1.836,1.836,0,0,0,3.194,5.45a1.731,1.731,0,0,0,.419.05,1.833,1.833,0,0,0,0-3.667Z" transform="translate(16.221 5.5)" fill="#ccc01b"/>
  <path id="Fill_8" data-name="Fill 8" d="M1.807,16.5H0V12.454L2.711,9.7V7.2a3.665,3.665,0,0,1,.9-7.2A3.645,3.645,0,0,1,7.228,3.667,3.654,3.654,0,0,1,4.517,7.213v3.25l-2.71,2.75V16.5ZM3.614,1.833a1.834,1.834,0,0,0,0,3.667,1.768,1.768,0,0,0,.42-.049,1.837,1.837,0,0,0-.42-3.617Z" transform="translate(22.545 11.917)" fill="url(#linear-gradient-3)"/>
  <path id="Fill_10" data-name="Fill 10" d="M0,15.583H1.807V0H0Z" transform="translate(18.931 12.833)" fill="#ccc01b"/>
</svg>
