<svg width="36" height="36" viewBox="0 0 36 36" fill="none" xmlns="http://www.w3.org/2000/svg">
<mask id="mask0_0_121" style="mask-type:alpha" maskUnits="userSpaceOnUse" x="0" y="0" width="36" height="36">
<path fill-rule="evenodd" clip-rule="evenodd" d="M0 0H35.1988V35.1991H0V0Z" fill="white"/>
</mask>
<g mask="url(#mask0_0_121)">
<path fill-rule="evenodd" clip-rule="evenodd" d="M18.5092 30.2989V29.7375C18.5092 29.2353 18.101 28.8271 17.5988 28.8271C17.0966 28.8271 16.6899 29.2353 16.6899 29.7375V30.2989C10.3887 29.8513 5.34837 24.8109 4.89926 18.5097H5.46065C5.96286 18.5097 6.37101 18.1015 6.37101 17.5993C6.37101 17.0971 5.96286 16.689 5.46065 16.689H4.89926C5.34837 10.3878 10.3887 5.34739 16.6899 4.8998V5.46119C16.6899 5.9634 17.0966 6.37155 17.5988 6.37155C18.101 6.37155 18.5092 5.9634 18.5092 5.46119V4.8998C24.8104 5.34739 29.8507 10.3878 30.2983 16.689H29.7369C29.2347 16.689 28.8281 17.0971 28.8281 17.5993C28.8281 18.1015 29.2347 18.5097 29.7369 18.5097H30.2983C29.8507 24.8109 24.8104 29.8513 18.5092 30.2989ZM34.2887 16.689H32.119C31.6639 9.38484 25.8148 3.53426 18.5092 3.0806V0.909384C18.5092 0.407169 18.101 -0.000976562 17.5988 -0.000976562C17.0966 -0.000976562 16.6899 0.407169 16.6899 0.909384V3.0806C9.3843 3.53426 3.53523 9.38484 3.08005 16.689H0.908844C0.406628 16.689 0 17.0971 0 17.5993C0 18.1016 0.406628 18.5097 0.908844 18.5097H3.08005C3.53523 25.8138 9.3843 31.6644 16.6899 32.1181V34.2893C16.6899 34.7915 17.0966 35.1996 17.5988 35.1996C18.101 35.1996 18.5092 34.7915 18.5092 34.2893V32.1181C25.8148 31.6644 31.6639 25.8138 32.119 18.5097H34.2887C34.791 18.5097 35.1991 18.1016 35.1991 17.5993C35.1991 17.0971 34.791 16.689 34.2887 16.689Z" fill="#5B5B5B"/>
</g>
<path fill-rule="evenodd" clip-rule="evenodd" d="M14.5549 14.629C14.7628 14.3195 15.0041 14.0282 15.2696 13.7627C15.5351 13.4971 15.8264 13.2559 16.1359 13.0465C16.4485 12.8356 16.7823 12.6535 17.1267 12.5079C17.4818 12.3577 17.8505 12.2424 18.2237 12.1665C18.993 12.0072 19.8062 12.0072 20.58 12.1665C21.0155 12.2575 21.4342 11.9753 21.5222 11.5444C21.6102 11.112 21.3326 10.6917 20.9002 10.6022C19.917 10.4034 18.8852 10.4034 17.9036 10.6022C17.4271 10.7008 16.9568 10.8465 16.5046 11.0377C16.0646 11.2243 15.6398 11.4549 15.2408 11.725C14.8478 11.9905 14.4776 12.297 14.1392 12.6338C13.8024 12.9722 13.4974 13.3439 13.2319 13.7354C12.9649 14.1329 12.7327 14.5592 12.5461 15.0023C12.4414 15.2496 12.3837 15.5136 12.3064 15.7715H11.4734C11.0334 15.7715 10.6753 16.1296 10.6753 16.5696C10.6753 17.0111 11.0334 17.3677 11.4734 17.3677H11.9877C11.9756 17.5452 11.9619 17.7227 11.9619 17.9003C11.9619 18.0778 11.9756 18.2553 11.9877 18.4328H11.4734C11.0334 18.4328 10.6753 18.7894 10.6753 19.2309C10.6753 19.6709 11.0334 20.0275 11.4734 20.0275H12.3064C12.3837 20.2869 12.4414 20.5509 12.5461 20.7998C12.7312 21.2382 12.9618 21.6646 13.2334 22.0667C13.5004 22.4612 13.8054 22.8314 14.1407 23.1667C14.4776 23.5035 14.8478 23.81 15.2408 24.0771C15.6368 24.3441 16.0616 24.5762 16.5062 24.7644C16.9598 24.9556 17.4302 25.0997 17.9036 25.1983C18.3952 25.2985 18.8989 25.3485 19.4026 25.3485C19.9048 25.3485 20.4086 25.2985 20.9002 25.1983C21.3326 25.1088 21.6102 24.6885 21.5222 24.2561C21.4342 23.8252 21.014 23.549 20.58 23.634C19.8062 23.7918 18.993 23.7918 18.2237 23.634C17.852 23.5581 17.4818 23.4428 17.1282 23.2941C16.7793 23.147 16.4455 22.9649 16.1359 22.754C15.8264 22.5446 15.5351 22.3049 15.2696 22.0394C15.0056 21.7754 14.7658 21.4825 14.5565 21.173C14.344 20.8574 14.162 20.5236 14.0163 20.1792C13.9966 20.1306 13.989 20.0775 13.9693 20.0275H18.1251C18.5651 20.0275 18.9232 19.6709 18.9232 19.2309C18.9232 18.7894 18.5651 18.4328 18.1251 18.4328H13.6112C13.596 18.2538 13.5581 18.0793 13.5581 17.9003C13.5581 17.7212 13.596 17.5467 13.6112 17.3677H19.4542C19.8957 17.3677 20.2523 17.0111 20.2523 16.5696C20.2523 16.1296 19.8957 15.7715 19.4542 15.7715H13.9708C13.989 15.723 13.9966 15.6714 14.0163 15.6228C14.1635 15.2754 14.344 14.9401 14.5549 14.629Z" fill="#5B5B5B"/>
</svg>
