<svg width="33" height="30" viewBox="0 0 33 30" fill="none" xmlns="http://www.w3.org/2000/svg">
<path fill-rule="evenodd" clip-rule="evenodd" d="M9.43792 7.2553C8.99283 7.2553 8.62046 7.58984 8.57101 8.03203L7.36373 18.8917H6.01682L4.811 8.03203C4.76154 7.58984 4.38772 7.2553 3.94408 7.2553H2.68881L6.69027 2.2531L10.6932 7.2553H9.43792ZM13.2954 8.50621C13.4408 8.20366 13.4001 7.84439 13.1907 7.58257L7.37246 0.309819C7.04082 -0.103273 6.34118 -0.103273 6.00954 0.309819L0.191344 7.58257C-0.0181116 7.84439 -0.058839 8.20366 0.0851615 8.50621C0.230616 8.80876 0.537527 9.00076 0.872073 9.00076H3.16299L4.36881 19.8619C4.41827 20.3026 4.79209 20.6372 5.23572 20.6372H8.14482C8.58992 20.6372 8.96374 20.3026 9.01319 19.8619L10.219 9.00076H12.5085C12.8445 9.00076 13.1499 8.80876 13.2954 8.50621Z" fill="#5B5B5B"/>
<path d="M25 8C25 6.89543 25.8954 6 27 6H31C32.1046 6 33 6.89543 33 8V30H25V8Z" fill="#00BECE"/>
<path d="M14 15C14 13.8954 14.8954 13 16 13H20C21.1046 13 22 13.8954 22 15V30H14V15Z" fill="#00BECE"/>
</svg>
