<?xml version="1.0" encoding="UTF-8"?>
<svg width="83px" height="73px" viewBox="0 0 83 73" version="1.1" xmlns="http://www.w3.org/2000/svg" xmlns:xlink="http://www.w3.org/1999/xlink">
    <title>Group 3</title>
    <defs>
        <polygon id="path-1" points="0 0 83 0 83 72.4788732 0 72.4788732"></polygon>
        <linearGradient x1="100%" y1="11.8726443%" x2="14.8544808%" y2="88.1273557%" id="linearGradient-3">
            <stop stop-color="#DDD12A" offset="0%"></stop>
            <stop stop-color="#5BB3AF" offset="100%"></stop>
        </linearGradient>
    </defs>
    <g id="Handed-Over" stroke="none" stroke-width="1" fill="none" fill-rule="evenodd">
        <g id="iconpro-homepage-5i" transform="translate(-1009.000000, -3405.000000)">
            <g id="Group-3" transform="translate(1009.000000, 3405.000000)">
                <mask id="mask-2" fill="white">
                    <use xlink:href="#path-1"></use>
                </mask>
                <g id="Clip-2"></g>
                <path d="M68.6131224,45.5452343 C67.8496922,45.8517882 67.0539365,46.1412354 66.2382353,46.4183656 C65.1735596,43.118805 63.7780641,39.695391 62.0902643,36.2398163 C63.7780641,32.7842416 65.1735596,29.3608277 66.2382353,26.061267 C67.0539365,26.3383972 67.8496922,26.6271601 68.6131224,26.9343984 C75.1332295,29.555161 78.87335,32.9470984 78.87335,36.2398163 C78.87335,39.5325342 75.1332295,42.9244717 68.6131224,45.5452343 M63.9431301,54.0062603 C65.2196405,60.8866175 64.3502929,65.8462226 61.5579264,67.6136977 C58.7648721,69.3804886 53.8809818,68.061896 48.1593815,63.9945819 C46.9495853,63.135136 45.7335991,62.1744178 44.5183006,61.1247442 C46.770076,58.8871741 48.9888382,56.3895805 51.1243796,53.6784939 C55.4834975,53.2501395 59.6239031,52.5296009 63.4094167,51.5442488 C63.6116226,52.3776924 63.7938829,53.2008719 63.9431301,54.0062603 M34.8406185,63.9945819 C29.1183304,68.061896 24.2344401,69.3798043 21.4420736,67.6136977 C18.6497071,65.8462226 17.7803595,60.8866175 19.0568699,54.0062603 C19.2061171,53.2008719 19.3883774,52.3776924 19.5912711,51.5442488 C23.3760969,52.5296009 27.5171902,53.2501395 31.8756204,53.6784939 C34.0118496,56.3895805 36.229924,58.8871741 38.4816994,61.1247442 C37.2670887,62.1744178 36.0504147,63.135136 34.8406185,63.9945819 M14.3868776,45.5452343 C7.86677052,42.9244717 4.12665004,39.5325342 4.12665004,36.2398163 C4.12665004,32.9470984 7.86677052,29.555161 14.3868776,26.9343984 C15.1503078,26.6271601 15.9467513,26.3383972 16.7624525,26.061267 C17.8264404,29.3608277 19.2226237,32.7842416 20.9104235,36.2398163 C19.2226237,39.695391 17.8264404,43.118805 16.7624525,46.4183656 C15.9467513,46.1412354 15.1503078,45.8517882 14.3868776,45.5452343 M19.0568699,18.4733723 C17.7803595,11.5923308 18.6497071,6.63272577 21.4420736,4.86525062 C22.2550237,4.35136218 23.2440441,4.09886573 24.3795607,4.09886573 C27.1471673,4.09886573 30.7834337,5.60084326 34.8406185,8.4843664 C36.0504147,9.34449659 37.2670887,10.3052148 38.4816994,11.3548884 C36.229924,13.5924585 34.0118496,16.0900522 31.8756204,18.8011387 C27.5171902,19.2294931 23.3760969,19.9500318 19.5912711,20.9353838 C19.3883774,20.1019402 19.2061171,19.2787607 19.0568699,18.4733723 M56.6850405,26.6305815 C55.9683789,25.5090593 55.2338352,24.4101181 54.485536,23.3351265 C57.2235683,23.7272144 59.8357378,24.2486299 62.2869679,24.8843188 C61.574433,27.084254 60.7030221,29.3478265 59.6864906,31.6442441 C58.7483655,29.9664086 57.7469651,28.2919944 56.6850405,26.6305815 M41.5003439,14.1556146 C42.838754,15.4796813 44.1682231,16.8988619 45.4749956,18.4131564 C44.1620332,18.3618359 42.8360029,18.3351493 41.5003439,18.3351493 C40.1646848,18.3351493 38.8379668,18.3618359 37.5250044,18.4131564 C38.8317769,16.8988619 40.1612459,15.4796813 41.5003439,14.1556146 M23.3135094,31.6442441 C22.2969779,29.3478265 21.425567,27.084254 20.7137199,24.8843188 C23.1642622,24.2486299 25.7764317,23.7272144 28.514464,23.3351265 C27.7661648,24.4101181 27.0323089,25.5090593 26.3149595,26.6305815 C25.2530349,28.2919944 24.2523223,29.9664086 23.3135094,31.6442441 M28.514464,49.1445062 C25.7764317,48.7517339 23.1642622,48.2310027 20.7137199,47.5953139 C21.425567,45.3953787 22.2969779,43.1318061 23.3135094,40.8353886 C24.2523223,42.5125398 25.2530349,44.1876382 26.3149595,45.8490511 C27.0323089,46.9705733 27.7661648,48.0695145 28.514464,49.1445062 M41.5003439,58.324018 C40.1612459,56.9999513 38.8317769,55.5807707 37.5250044,54.0664763 C38.8379668,54.1177967 40.1646848,54.1444833 41.5003439,54.1444833 C42.8360029,54.1444833 44.1620332,54.1177967 45.4749956,54.0664763 C44.1682231,55.5807707 42.838754,56.9999513 41.5003439,58.324018 M59.6864906,40.8353886 C60.7030221,43.1318061 61.574433,45.3953787 62.2869679,47.5953139 C59.8357378,48.2310027 57.2235683,48.7517339 54.485536,49.1445062 C55.2338352,48.0695145 55.9683789,46.9705733 56.6850405,45.8490511 C57.7469651,44.1876382 58.7483655,42.5125398 59.6864906,40.8353886 M53.2028356,43.6456946 C51.8431044,45.7730969 50.4214735,47.814281 48.9572005,49.7507714 C46.5279792,49.940999 44.034107,50.03885 41.5003439,50.03885 C38.965893,50.03885 36.4720208,49.940999 34.0434873,49.7507714 C32.5785265,47.814281 31.1568956,45.7730969 29.7971644,43.6456946 C28.226974,41.1898416 26.8005287,38.7086705 25.5219549,36.2398163 C26.8005287,33.7709621 28.226974,31.289791 29.7971644,28.833938 C31.1568956,26.7065357 32.5785265,24.6653517 34.0434873,22.728177 C36.4720208,22.5386336 38.965893,22.4407827 41.5003439,22.4407827 C44.034107,22.4407827 46.5279792,22.5386336 48.9572005,22.728177 C50.4214735,24.6653517 51.8431044,26.7065357 53.2028356,28.833938 C54.773026,31.289791 56.2001591,33.7709621 57.4780451,36.2398163 C56.2001591,38.7086705 54.773026,41.1898416 53.2028356,43.6456946 M48.1593815,8.4843664 C53.8809818,4.41773658 58.7648721,3.09845974 61.5579264,4.86525062 C64.3502929,6.63272577 65.2196405,11.5923308 63.9431301,18.4733723 C63.7938829,19.2787607 63.6116226,20.1019402 63.4094167,20.9353838 C59.6239031,19.9500318 55.4834975,19.2294931 51.1243796,18.8011387 C48.9888382,16.0900522 46.770076,13.5924585 44.5183006,11.3548884 C45.7335991,10.3052148 46.9495853,9.34449659 48.1593815,8.4843664 M70.1592406,23.127792 C69.2637576,22.7678648 68.3311347,22.4284658 67.3710008,22.1068578 C67.6130976,21.1283485 67.82562,20.1635247 68.0010027,19.2185448 C69.6227761,10.4803885 68.1206755,4.15292323 63.7725619,1.40146462 C59.4258239,-1.34999399 53.0281408,-0.0211373289 45.7604223,5.14443368 C44.3436058,6.15168239 42.9192237,7.29031137 41.5003439,8.53500255 C40.0807763,7.29031137 38.657082,6.15168239 37.2395777,5.14443368 C29.972547,-0.0204530567 23.5755517,-1.35136253 19.2274381,1.40146462 C14.8793245,4.15292323 13.3772239,10.4803885 14.9989973,19.2185448 C15.17438,20.1635247 15.3869024,21.1283485 15.629687,22.1068578 C14.6695531,22.4284658 13.7369302,22.7678648 12.8414471,23.127792 C4.56063607,26.4560921 0,31.1125645 0,36.2398163 C0,41.3670681 4.56063607,46.0235406 12.8414471,49.3518406 C13.7369302,49.7117678 14.6695531,50.0511669 15.629687,50.3727748 C15.3869024,51.3512841 15.17438,52.3161079 14.9989973,53.2610879 C13.3772239,61.9985599 14.8793245,68.3260251 19.2274381,71.078168 C20.7089054,72.0156209 22.4269674,72.4788732 24.3376064,72.4788732 C28.034397,72.4788732 32.4478493,70.7408218 37.2395777,67.3351989 C38.657082,66.3279502 40.0807763,65.1893212 41.5003439,63.9446301 C42.9192237,65.1893212 44.3436058,66.3279502 45.7604223,67.3351989 C50.5528385,70.7415061 54.965603,72.4788732 58.6630814,72.4788732 C60.5723448,72.4788732 62.2917823,72.0156209 63.7725619,71.078168 C68.1206755,68.3260251 69.6227761,61.9985599 68.0010027,53.2610879 C67.82562,52.3161079 67.6130976,51.3512841 67.3710008,50.3727748 C68.3311347,50.0511669 69.2637576,49.7117678 70.1592406,49.3518406 C78.4393639,46.0235406 83,41.3670681 83,36.2398163 C83,31.1125645 78.4393639,26.4560921 70.1592406,23.127792" id="Fill-1" fill="url(#linearGradient-3)" mask="url(#mask-2)"></path>
            </g>
        </g>
    </g>
</svg>