<?xml version="1.0" encoding="UTF-8"?>
<svg width="80px" height="81px" viewBox="0 0 80 81" version="1.1" xmlns="http://www.w3.org/2000/svg" xmlns:xlink="http://www.w3.org/1999/xlink">
    <title>Group 36</title>
    <defs>
        <polygon id="path-1" points="0 0 6.45621114 0 6.45621114 16.4981634 0 16.4981634"></polygon>
        <polygon id="path-3" points="0 0 16.4982949 0 16.4982949 6.45621114 0 6.45621114"></polygon>
        <polygon id="path-5" points="0 0 6.45621114 0 6.45621114 16.4982072 0 16.4982072"></polygon>
    </defs>
    <g id="Handed-Over" stroke="none" stroke-width="1" fill="none" fill-rule="evenodd">
        <g id="iconpro-homepage-5i" transform="translate(-1019.000000, -3781.000000)">
            <g id="Group-36" transform="translate(1019.000000, 3781.000000)">
                <g id="Group-3" transform="translate(36.941458, 0.000000)">
                    <mask id="mask-2" fill="white">
                        <use xlink:href="#path-1"></use>
                    </mask>
                    <g id="Clip-2"></g>
                    <path d="M3.22810557,16.4981634 L3.22810557,16.4981634 C1.45264751,16.4981634 0,15.0455158 0,13.2700578 L0,3.22784241 C0,1.45238435 1.45264751,-0.00026316078 3.22810557,-0.00026316078 L3.22810557,-0.00026316078 C5.00356364,-0.00026316078 6.45621114,1.45238435 6.45621114,3.22784241 L6.45621114,13.2700578 C6.45621114,15.0455158 5.00356364,16.4981634 3.22810557,16.4981634" id="Fill-1" fill="#84B650" mask="url(#mask-2)"></path>
                </g>
                <path d="M49.4447527,18.508931 L49.4447527,18.508931 C47.8157875,17.8036601 47.0596388,15.8935515 47.7653483,14.2641476 L51.7557429,5.04869571 C52.4610138,3.41929188 54.3711225,2.66358184 56.0005263,3.36885273 L56.0005263,3.36929133 C57.6294916,4.07456222 58.3852016,5.98467088 57.6799307,7.61363611 L53.6895361,16.8295266 C52.9842652,18.4584919 51.0737179,19.2142019 49.4447527,18.508931" id="Fill-4" fill="#84B650"></path>
                <path d="M57.1112841,23.4870996 L57.1112841,23.4870996 C55.8560072,22.2318227 55.8560072,20.1774142 57.1112841,18.9221373 L64.2122392,11.8211822 C65.4675161,10.5659053 67.5219246,10.5659053 68.7772015,11.8211822 L68.7772015,11.8211822 C70.0324784,13.0764592 70.0324784,15.1308677 68.7772015,16.3861446 L61.6762465,23.4870996 C60.4209695,24.7423766 58.366561,24.7423766 57.1112841,23.4870996" id="Fill-6" fill="#84B650"></path>
                <path d="M61.8897137,31.338677 L61.8897137,31.338677 C61.2046185,29.7009397 61.9835744,27.8000417 63.6213116,27.1149464 L72.8854483,23.2385881 C74.5231856,22.5534929 76.4240836,23.3324488 77.1091788,24.9701861 L77.1091788,24.9701861 C77.7947127,26.6079233 77.0153182,28.5088214 75.3775809,29.1939166 L66.1134442,33.0702749 C64.475707,33.7558087 62.5748089,32.9764142 61.8897137,31.338677" id="Fill-8" fill="#84B650"></path>
                <g id="Group-12" transform="translate(63.501705, 37.120758)">
                    <mask id="mask-4" fill="white">
                        <use xlink:href="#path-3"></use>
                    </mask>
                    <g id="Clip-11"></g>
                    <path d="M0,3.22810557 L0,3.22810557 C0,1.45264751 1.45264751,0 3.22810557,0 L13.2703209,0 C15.045779,0 16.4984265,1.45264751 16.4984265,3.22810557 L16.4984265,3.22810557 C16.4984265,5.00356364 15.045779,6.45621114 13.2703209,6.45621114 L3.22810557,6.45621114 C1.45264751,6.45621114 0,5.00356364 0,3.22810557" id="Fill-10" fill="#84B650" mask="url(#mask-4)"></path>
                </g>
                <path d="M0,40.3488635 L0,40.3488635 C0,38.5734054 1.45264751,37.1207579 3.22810557,37.1207579 L13.2703209,37.1207579 C15.045779,37.1207579 16.4984265,38.5734054 16.4984265,40.3488635 L16.4984265,40.3488635 C16.4984265,42.1243215 15.045779,43.576969 13.2703209,43.576969 L3.22810557,43.576969 C1.45264751,43.576969 0,42.1243215 0,40.3488635" id="Fill-13" fill="#84B650" opacity="0.9"></path>
                <path d="M18.1102424,31.338677 L18.1102424,31.338677 C18.7953377,29.7009397 18.0163818,27.8000417 16.3786445,27.1149464 L7.11450783,23.2385881 C5.47677058,22.5534929 3.57587254,23.3324488 2.89077731,24.9701861 L2.89077731,24.9701861 C2.20524348,26.6079233 2.98463799,28.5088214 4.62237525,29.1939166 L13.8865119,33.0702749 C15.5242492,33.7558087 17.4251472,32.9764142 18.1102424,31.338677" id="Fill-15" fill="#84B650"></path>
                <path d="M22.8886282,22.9685413 L22.8886282,22.9685413 C24.1439051,21.7132644 24.1439051,19.6588559 22.8886282,18.403579 L15.7876731,11.3026239 C14.5323962,10.047347 12.4779877,10.047347 11.2227108,11.3026239 L11.2227108,11.3026239 C9.96743385,12.5579009 9.96743385,14.6123093 11.2227108,15.8675863 L18.3236658,22.9685413 C19.5789428,24.2238182 21.6333512,24.2238182 22.8886282,22.9685413" id="Fill-17" fill="#84B650"></path>
                <path d="M31.173105,18.0703297 L31.173105,18.0703297 C32.8025088,17.3650588 33.5582188,15.4549502 32.8525093,13.8255463 L28.8621147,4.61009441 C28.1568438,2.98069058 26.2467352,2.22498054 24.6173313,2.93025143 L24.6173313,2.93069003 C22.9883661,3.63596092 22.2326561,5.54606958 22.937927,7.17503481 L26.9283216,16.3909253 C27.6335925,18.0198906 29.5441397,18.7756006 31.173105,18.0703297" id="Fill-19" fill="#84B650"></path>
                <g id="Group-23" opacity="0.5" transform="translate(36.941458, 64.020220)">
                    <mask id="mask-6" fill="white">
                        <use xlink:href="#path-5"></use>
                    </mask>
                    <g id="Clip-22"></g>
                    <path d="M3.22810557,0 L3.22810557,0 C1.45264751,0 0,1.45264751 0,3.22810557 L0,13.2703209 C0,15.045779 1.45264751,16.4984265 3.22810557,16.4984265 L3.22810557,16.4984265 C5.00356364,16.4984265 6.45621114,15.045779 6.45621114,13.2703209 L6.45621114,3.22810557 C6.45621114,1.45264751 5.00356364,0 3.22810557,0" id="Fill-21" fill="#84B650" mask="url(#mask-6)"></path>
                </g>
                <path d="M49.4447527,62.4480532 L49.4447527,62.4480532 C47.8157875,63.153324 47.0596388,65.0634327 47.7653483,66.6928365 L51.7557429,75.9082885 C52.4610138,77.5376923 54.3711225,78.2934023 56.0005263,77.5881314 L56.0005263,77.5881314 C57.6294916,76.882422 58.3852016,74.9723133 57.6799307,73.3433481 L53.6895361,64.1274575 C52.9842652,62.4984923 51.0737179,61.7427823 49.4447527,62.4480532" id="Fill-24" fill="#84B650" opacity="0.4"></path>
                <path d="M57.1112841,57.0312832 L57.1112841,57.0312832 C55.8560072,58.2865602 55.8560072,60.3409687 57.1112841,61.5962456 L64.2122392,68.6972006 C65.4675161,69.9524775 67.5219246,69.9524775 68.7772015,68.6972006 L68.7772015,68.6972006 C70.0324784,67.4419237 70.0324784,65.3875152 68.7772015,64.1322383 L61.6762465,57.0312832 C60.4209695,55.7760063 58.366561,55.7760063 57.1112841,57.0312832" id="Fill-26" fill="#84B650" opacity="0.3"></path>
                <path d="M61.8897137,49.1797059 L61.8897137,49.1797059 C61.2046185,50.8174432 61.9835744,52.7183412 63.6213116,53.4034364 L72.8854483,57.2797947 C74.5231856,57.96489 76.4240836,57.1859341 77.1091788,55.5481968 L77.1091788,55.5481968 C77.7947127,53.9104595 77.0153182,52.0095615 75.3775809,51.3244663 L66.1134442,47.448108 C64.475707,46.7625742 62.5748089,47.5419687 61.8897137,49.1797059" id="Fill-28" fill="#84B650"></path>
                <path d="M18.1102424,49.1797059 L18.1102424,49.1797059 C18.7953377,50.8174432 18.0163818,52.7183412 16.3786445,53.4034364 L7.11450783,57.2797947 C5.47677058,57.96489 3.57587254,57.1859341 2.89077731,55.5481968 L2.89077731,55.5481968 C2.20524348,53.9104595 2.98463799,52.0095615 4.62237525,51.3244663 L13.8865119,47.448108 C15.5242492,46.7625742 17.4251472,47.5419687 18.1102424,49.1797059" id="Fill-30" fill="#84B650" opacity="0.8"></path>
                <path d="M23.3272295,57.1112403 L23.3272295,57.1112403 C24.5825064,58.3665172 24.5825064,60.4209257 23.3272295,61.6762026 L16.2262744,68.7771576 C14.9709975,70.0324346 12.916589,70.0324346 11.6613121,68.7771576 L11.6613121,68.7771576 C10.4060352,67.5218807 10.4060352,65.4674722 11.6613121,64.2121953 L18.7622671,57.1112403 C20.0175441,55.8559633 22.0719525,55.8559633 23.3272295,57.1112403" id="Fill-32" fill="#84B650" opacity="0.7"></path>
                <path d="M31.173105,62.4480532 L31.173105,62.4480532 C32.8025088,63.153324 33.5582188,65.0634327 32.8525093,66.6928365 L28.8621147,75.9082885 C28.1568438,77.5376923 26.2467352,78.2934023 24.6173313,77.5881314 L24.6173313,77.5881314 C22.9883661,76.882422 22.2326561,74.9723133 22.937927,73.3433481 L26.9283216,64.1274575 C27.6335925,62.4984923 29.5441397,61.7427823 31.173105,62.4480532" id="Fill-34" fill="#84B650" opacity="0.595578875"></path>
            </g>
        </g>
    </g>
</svg>