<svg xmlns="http://www.w3.org/2000/svg" width="32.431" height="30.575" viewBox="0 0 32.431 30.575">
  <g id="Group_13" data-name="Group 13" transform="translate(0.716 0.875)">
    <path id="Stroke_1" data-name="Stroke 1" d="M28.827,7.555A7.41,7.41,0,0,1,23.69,9.626a7.509,7.509,0,0,1-7.477-7.541A7.559,7.559,0,0,1,16.51,0a2.88,2.88,0,0,1-2.163.982,2.873,2.873,0,0,1-1.979-.79A7.531,7.531,0,0,1,5.136,9.626,7.408,7.408,0,0,1,0,7.555" transform="translate(1.081 19.374)" fill="none" stroke="#00b5c5" stroke-linecap="round" stroke-linejoin="round" stroke-miterlimit="10" stroke-width="1.4"/>
    <path id="Stroke_3" data-name="Stroke 3" d="M.55,0A7.457,7.457,0,0,1,4.873,3.481,7.576,7.576,0,0,1,2.065,13.764a7.435,7.435,0,0,1-2.065.8,2.918,2.918,0,0,1,2.339,2.868,2.92,2.92,0,0,1-.095.727,7.425,7.425,0,0,1,11.794,1.592,7.561,7.561,0,0,1,.753,5.527" transform="translate(15.989)" fill="none" stroke="#00b5c5" stroke-linecap="round" stroke-linejoin="round" stroke-miterlimit="10" stroke-width="1.4"/>
    <path id="Stroke_5" data-name="Stroke 5" d="M.22,25.279a7.564,7.564,0,0,1,.753-5.527A7.439,7.439,0,0,1,12.58,17.97a2.957,2.957,0,0,1-.051-.538,2.915,2.915,0,0,1,2.428-2.882,7.4,7.4,0,0,1-2.012-.786A7.577,7.577,0,0,1,10.138,3.481,7.458,7.458,0,0,1,14.461,0" fill="none" stroke="#00b5c5" stroke-linecap="round" stroke-linejoin="round" stroke-miterlimit="10" stroke-width="1.4"/>
    <path id="Stroke_7" data-name="Stroke 7" d="M0,2.174A8.572,8.572,0,0,1,11.268,2.05" transform="translate(9.896 8.289)" fill="none" stroke="#00b5c5" stroke-linecap="round" stroke-linejoin="round" stroke-miterlimit="10" stroke-width="1.4"/>
    <path id="Stroke_9" data-name="Stroke 9" d="M5.741,9.241A8.7,8.7,0,0,1,0,1.039,8.748,8.748,0,0,1,.061,0" transform="translate(6.974 15.95)" fill="none" stroke="#00b5c5" stroke-linecap="round" stroke-linejoin="round" stroke-miterlimit="10" stroke-width="1.4"/>
    <path id="Stroke_11" data-name="Stroke 11" d="M5.86,0a8.819,8.819,0,0,1,.06,1.025A8.7,8.7,0,0,1,0,9.288" transform="translate(18.308 15.964)" fill="none" stroke="#00b5c5" stroke-linecap="round" stroke-linejoin="round" stroke-miterlimit="10" stroke-width="1.4"/>
  </g>
</svg>
