<svg id="Group_26" data-name="Group 26" xmlns="http://www.w3.org/2000/svg" width="235" height="235" viewBox="0 0 235 235">
  <g id="Group_3" data-name="Group 3">
    <path id="Path" d="M99,0a99,99,0,1,0,99,99A99,99,0,0,0,99,0Z" transform="translate(18 18)" fill="#edf3fc"/>
    <path id="Shape" d="M0,117.5A117.5,117.5,0,1,1,117.5,235,117.633,117.633,0,0,1,0,117.5Z" fill="#edf3fc"/>
    <g id="Group" transform="translate(79.318 106.512)">
      <ellipse id="Oval" cx="4.275" cy="4.298" rx="4.275" ry="4.298" transform="translate(0 0)" fill="#fff"/>
    </g>
  </g>
  <g id="Group_7" data-name="Group 7" transform="translate(73.662 58.08)">
    <path id="Path-2" data-name="Path" d="M55.17,0H10.055A10.054,10.054,0,0,0,0,10.053v98.271a10.055,10.055,0,0,0,10.055,10.054H87V31.829Z" transform="translate(0 0)" fill="#45afc3"/>
    <path id="Path-3" data-name="Path" d="M0,0V21.777A10.053,10.053,0,0,0,10.052,31.829H31.83Z" transform="translate(55.17 0)" fill="#9cdce8"/>
    <path id="Path-4" data-name="Path" d="M27.445,0H2.408a2.408,2.408,0,0,0,0,4.815H27.445a2.408,2.408,0,1,0,0-4.815Z" transform="translate(11.24 24.824)" fill="#fff"/>
    <path id="Path-5" data-name="Path" d="M37.075,0H2.408a2.408,2.408,0,0,0,0,4.815H37.075a2.408,2.408,0,1,0,0-4.815Z" transform="translate(11.24 40.81)" fill="#fff"/>
    <path id="Path-6" data-name="Path" d="M58.744,0H2.408a2.408,2.408,0,0,0,0,4.815H58.744a2.408,2.408,0,1,0,0-4.815Z" transform="translate(11.24 58.434)" fill="#fff"/>
    <path id="Path-7" data-name="Path" d="M58.744,0H2.408a2.408,2.408,0,0,0,0,4.815H58.744a2.408,2.408,0,1,0,0-4.815Z" transform="translate(11.24 76.732)" fill="#fff"/>
    <path id="Path-8" data-name="Path" d="M58.744,0H2.408a2.408,2.408,0,0,0,0,4.815H58.744a2.408,2.408,0,1,0,0-4.815Z" transform="translate(11.24 93.104)" fill="#fff"/>
  </g>
  <g id="hand-cursor" transform="translate(134 116)">
    <path id="Path-9" data-name="Path" d="M11.54,46.25a8.237,8.237,0,0,1-7.366-4.3l-3.13-5.919A10.539,10.539,0,0,1,0,31.991c0-3.5,2.414-6.571,3.4-7.055l.35-.171V3.125a3.125,3.125,0,0,1,6.25,0V15.5l1.042-.939a3.1,3.1,0,0,1,5,1.238l.353.956.692-.747A3.089,3.089,0,0,1,19.375,15,3.131,3.131,0,0,1,22.3,17.05l.353.956.692-.747a3.089,3.089,0,0,1,2.284-1.009,3.129,3.129,0,0,1,3.125,3.125V38.431a8.081,8.081,0,0,1-8.3,7.819Z" transform="translate(0.625 0.625)" fill="#fff"/>
    <path id="Shape-2" data-name="Shape" d="M12.356,47.5h-.191a8.869,8.869,0,0,1-7.925-4.645L1.116,36.944A11.159,11.159,0,0,1,0,32.616c0-3.6,2.435-6.971,3.75-7.616V3.75a3.75,3.75,0,1,1,7.5,0V14.724a3.719,3.719,0,0,1,6.007,1.485,3.725,3.725,0,0,1,6.25,1.25A3.74,3.74,0,0,1,30,20V39.055A8.722,8.722,0,0,1,21.072,47.5Z" fill="#788b9c"/>
    <path id="Shape-3" data-name="Shape" d="M10.625,0V0Zm-5,0V0Zm-5,0V0Z" transform="translate(11.25 25)" fill="#fff" stroke="#788b9c" stroke-miterlimit="10" stroke-width="1"/>
  </g>
</svg>
