<?xml version="1.0" encoding="UTF-8"?>
<svg width="74px" height="70px" viewBox="0 0 74 70" version="1.1" xmlns="http://www.w3.org/2000/svg" xmlns:xlink="http://www.w3.org/1999/xlink">
    <title>9122CE80-3582-4113-8911-73D4BF92102C</title>
    <defs>
        <polygon id="path-1" points="0 0 74 0 74 51.7391304 0 51.7391304"></polygon>
        <linearGradient x1="76.2232656%" y1="14.9128172%" x2="6.02428032%" y2="97.8519111%" id="linearGradient-3">
            <stop stop-color="#DED022" offset="0%"></stop>
            <stop stop-color="#65B5A4" offset="100%"></stop>
        </linearGradient>
    </defs>
    <g id="Work-Table" stroke="none" stroke-width="1" fill="none" fill-rule="evenodd">
        <g id="iconpro-homepage-5h" transform="translate(-1005.000000, -3557.000000)">
            <g id="Group-18" transform="translate(1004.999967, 3557.000000)">
                <g id="Group-3" transform="translate(0.000033, 0.000000)">
                    <mask id="mask-2" fill="white">
                        <use xlink:href="#path-1"></use>
                    </mask>
                    <g id="Clip-2"></g>
                </g>
                <path d="M37.0221389,0 C42.7931852,0 48.2551091,2.16459335 52.4014658,6.09544138 C56.4305128,9.91484373 58.7868355,14.9888059 59.0662219,20.4244889 C63.0763165,20.6970532 66.7959144,22.4056746 69.5819367,25.2647336 C72.6476723,28.4106857 74.2086421,32.5376781 73.9776173,36.8850146 C73.5351737,45.2049115 66.3776516,51.7222544 57.6826871,51.7222544 L57.6826871,51.7222544 L42.9078807,51.7222544 C42.4948848,51.7222544 42.1323364,51.5077334 41.9312737,51.18716 L41.9535125,63.545747 C41.9550873,64.7015894 42.8451273,65.6515637 43.9671635,65.7319852 L44.1215448,65.7374996 L52.0119445,65.7374996 C52.4581298,64.5001178 53.6139307,63.6664184 54.9462301,63.6664184 C56.214773,63.6664184 57.3235254,64.4226083 57.8119604,65.5635233 L57.8805157,65.7374996 L64.8541775,65.7374996 C65.3003628,64.5001178 66.4561637,63.6664184 67.7884631,63.6664184 C69.5132738,63.6664184 70.9166993,65.0871408 70.9166993,66.8332092 C70.9166993,68.5792776 69.5132738,70 67.7884631,70 C66.5964751,70 65.515314,69.302909 64.9926735,68.2496984 L64.910815,68.0709244 L57.8238781,68.0709244 C57.3388369,69.2233029 56.2044396,70 54.9462301,70 C53.7542421,70 52.673081,69.302909 52.1504405,68.2496984 L52.068582,68.0709244 L44.1215448,68.0709244 C41.7288439,68.0709244 39.7668292,66.156765 39.6536487,63.7616279 L39.6484963,63.5490805 L39.5941637,32.7682074 L35.4500739,32.7682074 L35.3983757,53.5516887 C35.3938974,55.9719359 33.5001176,57.9543015 31.1351844,58.0656038 L30.9253272,58.0705324 L21.9314833,58.0705324 C21.4464421,59.2229109 20.3120448,59.999608 19.0538353,59.999608 C17.8618473,59.999608 16.7806861,59.302517 16.2580457,58.2493065 L16.1761872,58.0705324 L9.08925031,58.0705324 C8.60420905,59.2229109 7.4698118,59.999608 6.21160226,59.999608 C4.48679158,59.999608 3.08336601,58.5788857 3.08336601,56.8328173 C3.08336601,55.0867488 4.48679158,53.6660265 6.21160226,53.6660265 C7.48014517,53.6660265 8.58889753,54.4222164 9.07733255,55.5631314 L9.14588785,55.7371076 L16.1195497,55.7371076 C16.5657349,54.4997258 17.7215359,53.6660265 19.0538353,53.6660265 C20.3223782,53.6660265 21.4311305,54.4222164 21.9195656,55.5631314 L21.9881209,55.7371076 L30.9253272,55.7371076 C32.0664677,55.7371076 33.006054,54.8379974 33.0876173,53.7025863 L33.0933595,53.5463551 L33.1450578,32.7682074 L24.0771241,32.7682074 C23.4415982,32.7682074 22.924616,32.2445202 22.924616,31.601495 C22.924616,31.001027 23.3749649,30.5050965 23.9517176,30.4416411 L24.0771241,30.4347826 L51.1208911,30.4347826 C51.7560877,30.4347826 52.2733992,30.9581365 52.2733992,31.601495 C52.2733992,32.2016519 51.8227634,32.697852 51.2462403,32.7613447 L51.1208911,32.7682074 L41.8991799,32.7682074 L41.9294535,50.0312061 C42.1301434,49.7090244 42.4936354,49.493341 42.9078807,49.493341 L42.9078807,49.493341 L57.6826871,49.493341 C65.159788,49.493341 71.3141329,43.9044998 71.6931835,36.7694295 C71.8915316,33.0388652 70.5527639,29.4980771 67.9232633,26.7994997 C65.3457189,24.1540979 61.8682559,22.6696416 58.1270913,22.6164661 C57.9045624,22.6489445 57.6787658,22.6167845 57.4696344,22.5203044 C57.0592141,22.3630068 56.7755796,21.9567077 56.7755796,21.4975515 C56.7755796,21.4154002 56.7860362,21.3326119 56.8076029,21.2466396 C56.6599038,10.753552 47.7982877,2.22891342 37.0221389,2.22891342 C26.1090745,2.22891342 17.2307932,10.8802817 17.2307932,21.5144276 C17.2307932,22.1187816 16.7347597,22.6120083 16.1191291,22.6285659 L16.1191291,22.6285659 L16.0805705,22.6288843 C8.47504983,22.6288843 2.28737465,28.6584135 2.28737465,36.0695507 C2.28737465,43.4806878 8.47504983,49.510217 16.0805705,49.510217 L16.0805705,49.510217 L31.2700452,49.5009829 C31.9010339,49.5009829 32.4143861,50.0008964 32.4147129,50.6148028 C32.4150396,51.2293461 31.9020142,51.7295779 31.2716791,51.7298964 L31.2716791,51.7298964 L16.0812241,51.7391304 C7.21405287,51.7391304 -1.13686838e-13,44.7097743 -1.13686838e-13,36.0695507 C-1.13686838e-13,27.7773559 6.54287179,20.9947724 14.9774024,20.4397729 C15.2531944,15.0009057 17.6078833,9.92375939 21.6375838,6.10085445 C25.7845941,2.16650385 31.2481518,0 37.0221389,0 Z M53.958366,30.4347826 C54.8084173,30.4347826 55.5000327,31.1174582 55.5000327,31.9565217 C55.5000327,32.7955853 54.8084173,33.4782609 53.958366,33.4782609 C53.1083147,33.4782609 52.4166993,32.7955853 52.4166993,31.9565217 C52.4166993,31.1174582 53.1083147,30.4347826 53.958366,30.4347826 Z M60.1250327,30.4347826 C60.9278589,30.4347826 61.5893642,31.0437124 61.6603869,31.8182161 L61.6666993,31.9565217 L61.6666993,31.9565217 C61.6666993,32.7955853 60.975084,33.4782609 60.1250327,33.4782609 C59.2749814,33.4782609 58.583366,32.7955853 58.583366,31.9565217 C58.583366,31.1174582 59.2749814,30.4347826 60.1250327,30.4347826 Z M63.208366,30.4347826 C64.0584173,30.4347826 64.7500327,31.1174582 64.7500327,31.9565217 C64.7500327,32.7955853 64.0584173,33.4782609 63.208366,33.4782609 C62.3583147,33.4782609 61.6666993,32.7955853 61.6666993,31.9565217 C61.6666993,31.1174582 62.3583147,30.4347826 63.208366,30.4347826 Z M10.7916993,30.4347826 C11.5945256,30.4347826 12.2560309,31.0437124 12.3270536,31.8182161 L12.333366,31.9565217 L12.333366,31.9565217 C12.333366,32.7955853 11.6417506,33.4782609 10.7916993,33.4782609 C9.94164806,33.4782609 9.25003268,32.7955853 9.25003268,31.9565217 C9.25003268,31.1174582 9.94164806,30.4347826 10.7916993,30.4347826 Z M13.8750327,30.4347826 C14.725084,30.4347826 15.4166993,31.1174582 15.4166993,31.9565217 C15.4166993,32.7955853 14.725084,33.4782609 13.8750327,33.4782609 C13.0249814,33.4782609 12.333366,32.7955853 12.333366,31.9565217 C12.333366,31.1174582 13.0249814,30.4347826 13.8750327,30.4347826 Z M20.0416993,30.4347826 C20.8917506,30.4347826 21.583366,31.1174582 21.583366,31.9565217 C21.583366,32.7955853 20.8917506,33.4782609 20.0416993,33.4782609 C19.1916481,33.4782609 18.5000327,32.7955853 18.5000327,31.9565217 C18.5000327,31.1174582 19.1916481,30.4347826 20.0416993,30.4347826 Z" id="Combined-Shape" fill="url(#linearGradient-3)"></path>
            </g>
        </g>
    </g>
</svg>