<svg xmlns="http://www.w3.org/2000/svg" width="29.404" height="29.298" viewBox="0 0 29.404 29.298">
  <g id="Group_15" data-name="Group 15" transform="translate(0.702 0.6)">
    <path id="Stroke_1" data-name="Stroke 1" d="M10.8,6.949c0,3.838-2.417,6.949-5.4,6.949S0,10.787,0,6.949,2.418,0,5.4,0,10.8,3.111,10.8,6.949Z" transform="translate(8.6)" fill="none" stroke="#45afc3" stroke-linecap="round" stroke-miterlimit="10" stroke-width="1.2"/>
    <path id="Stroke_3" data-name="Stroke 3" d="M14,0C6.974,0,1.144,5.536,0,12.806H28C26.856,5.536,21.025,0,14,0Z" transform="translate(0 15.194)" fill="none" stroke="#45afc3" stroke-linecap="round" stroke-miterlimit="10" stroke-width="1.2"/>
    <path id="Stroke_5" data-name="Stroke 5" d="M0,0,1.309,3.781H3.39" transform="translate(11.338 15.45)" fill="none" stroke="#45afc3" stroke-linecap="round" stroke-miterlimit="10" stroke-width="1.2"/>
    <path id="Stroke_7" data-name="Stroke 7" d="M1.612,0,0,8.769" transform="translate(11.001 19.231)" fill="none" stroke="#45afc3" stroke-linecap="round" stroke-miterlimit="10" stroke-width="1.2"/>
    <path id="Stroke_9" data-name="Stroke 9" d="M3.39,0,2.081,3.781H0" transform="translate(13.271 15.45)" fill="none" stroke="#45afc3" stroke-linecap="round" stroke-miterlimit="10" stroke-width="1.2"/>
    <path id="Stroke_11" data-name="Stroke 11" d="M0,0,1.612,8.769" transform="translate(15.386 19.231)" fill="none" stroke="#45afc3" stroke-linecap="round" stroke-miterlimit="10" stroke-width="1.2"/>
    <path id="Stroke_13" data-name="Stroke 13" d="M1.524,0a6.708,6.708,0,0,0-.84,7.218" transform="translate(10.771 2.951)" fill="none" stroke="#45afc3" stroke-linecap="round" stroke-miterlimit="10" stroke-width="1.2"/>
  </g>
</svg>
