<svg xmlns="http://www.w3.org/2000/svg" xmlns:xlink="http://www.w3.org/1999/xlink" width="71.917" height="73.868" viewBox="0 0 71.917 73.868">
  <defs>
    <clipPath id="clip-path">
      <path id="Clip_2" data-name="Clip 2" d="M0,0H71.917V73.868H0Z" fill="none"/>
    </clipPath>
  </defs>
  <g id="Group_3" data-name="Group 3" transform="translate(-1439 -3172)">
    <g id="Group_3-2" data-name="Group 3" transform="translate(1439 3172)">
      <path id="Clip_2-2" data-name="Clip 2" d="M0,0H71.917V73.868H0Z" fill="none"/>
      <g id="Group_3-3" data-name="Group 3" clip-path="url(#clip-path)">
        <path id="Fill_1" data-name="Fill 1" d="M37.088,73.868a9.725,9.725,0,0,1-2.119-.232L18.113,69.908v2.912H0V25.994H18.113V29.31l9.99-5.3a8.968,8.968,0,0,0,3.9-4.469l2.57-6.448,1.151-8.927A4.79,4.79,0,0,1,40.468,0h3.053a4.758,4.758,0,0,1,4.72,4.025L49.7,13.13a13.937,13.937,0,0,1-.162,5.258l-1.927,8.64H66.624a5.3,5.3,0,0,1,5.293,5.294v3.735a5.3,5.3,0,0,1-2.326,4.38v6.457a5.246,5.246,0,0,1-2.6,4.53v6.308a5.278,5.278,0,0,1-1.89,4.02v6.817a5.3,5.3,0,0,1-5.294,5.295Zm3.38-70.384a1.3,1.3,0,0,0-1.284,1.129L37.9,14.18l-2.653,6.654a12.45,12.45,0,0,1-5.422,6.209l-11.706,6.21V66.341l17.609,3.893a6.273,6.273,0,0,0,1.365.149l22.725,0a1.812,1.812,0,0,0,1.809-1.81V63.026H52.649V59.541H61.7a1.812,1.812,0,0,0,1.81-1.81V52.187H53.946V48.7H64.3a1.811,1.811,0,0,0,1.808-1.81V41.351H55.244V37.867h11.38a1.811,1.811,0,0,0,1.808-1.81V32.322a1.811,1.811,0,0,0-1.808-1.809H43.259l2.875-12.884a10.471,10.471,0,0,0,.121-3.95L44.8,4.576a1.289,1.289,0,0,0-1.279-1.091ZM3.485,29.478V69.336H14.629V29.478Z" transform="translate(0)" fill="#00bece"/>
      </g>
    </g>
  </g>
</svg>
