<svg xmlns="http://www.w3.org/2000/svg" width="47" height="47" viewBox="0 0 47 47">
  <g id="Group_4" data-name="Group 4" transform="translate(-1027 -10662)">
    <g id="_1-Calendar" data-name="1-Calendar" transform="translate(1028 10663)">
      <path id="Shape" d="M4.218,45A4.219,4.219,0,0,1,0,40.781V9.843A4.219,4.219,0,0,1,4.218,5.625H5.625V4.218a4.219,4.219,0,0,1,8.438,0V5.625h4.218V4.218a4.219,4.219,0,0,1,8.438,0V5.625h4.219V4.218a4.219,4.219,0,0,1,8.438,0V5.625h1.406A4.219,4.219,0,0,1,45,9.843V40.781A4.219,4.219,0,0,1,40.781,45Z" fill="none" stroke="#fff" stroke-width="2"/>
      <path id="Path" d="M32.344,2.813H1.406A1.406,1.406,0,0,1,1.406,0H32.344a1.406,1.406,0,0,1,0,2.813Z" transform="translate(5.625 14.063)" fill="#fff"/>
      <path id="Shape-2" data-name="Shape" d="M2.813,8.438A2.812,2.812,0,0,1,0,5.625V2.813A2.812,2.812,0,0,1,2.813,0H5.625A2.812,2.812,0,0,1,8.438,2.813V5.625A2.812,2.812,0,0,1,5.625,8.438Z" transform="translate(7.031 19.688)" fill="#fff"/>
      <path id="Shape-3" data-name="Shape" d="M2.813,8.438A2.812,2.812,0,0,1,0,5.625V2.813A2.812,2.812,0,0,1,2.813,0H5.625A2.812,2.812,0,0,1,8.438,2.813V5.625A2.812,2.812,0,0,1,5.625,8.438Z" transform="translate(18.281 19.688)" fill="#fff"/>
      <path id="Shape-4" data-name="Shape" d="M2.813,8.438A2.812,2.812,0,0,1,0,5.625V2.813A2.812,2.812,0,0,1,2.813,0H5.625A2.812,2.812,0,0,1,8.438,2.813V5.625A2.812,2.812,0,0,1,5.625,8.438Z" transform="translate(29.531 19.688)" fill="#fff"/>
      <path id="Shape-5" data-name="Shape" d="M2.813,8.438A2.812,2.812,0,0,1,0,5.625V2.813A2.812,2.812,0,0,1,2.813,0H5.625A2.812,2.812,0,0,1,8.438,2.813V5.625A2.812,2.812,0,0,1,5.625,8.438Z" transform="translate(7.031 30.938)" fill="#fff"/>
      <path id="Shape-6" data-name="Shape" d="M2.813,8.438A2.812,2.812,0,0,1,0,5.625V2.813A2.812,2.812,0,0,1,2.813,0H5.625A2.812,2.812,0,0,1,8.438,2.813V5.625A2.812,2.812,0,0,1,5.625,8.438Z" transform="translate(18.281 30.938)" fill="#fff"/>
      <path id="Shape-7" data-name="Shape" d="M2.813,8.438A2.812,2.812,0,0,1,0,5.625V2.813A2.812,2.812,0,0,1,2.813,0H5.625A2.812,2.812,0,0,1,8.438,2.813V5.625A2.812,2.812,0,0,1,5.625,8.438Z" transform="translate(29.531 30.938)" fill="#fff"/>
    </g>
  </g>
</svg>
