<svg xmlns="http://www.w3.org/2000/svg" xmlns:xlink="http://www.w3.org/1999/xlink" width="94.993" height="52.657" viewBox="0 0 94.993 52.657">
  <defs>
    <clipPath id="clip-path">
      <path id="Clip_16" data-name="Clip 16" d="M0,0H27.128V38.688H0Z" fill="none"/>
    </clipPath>
  </defs>
  <g id="Group_4" data-name="Group 4" transform="translate(-912 -3193)">
    <g id="Group_22" data-name="Group 22" transform="translate(912 3193)">
      <path id="Fill_1" data-name="Fill 1" d="M36.874,48.541a4.663,4.663,0,0,1-2.121-.513L30.54,45.9c-.16-.053-.318-.109-.474-.167l-2.635-.981,2.316-1.592a1.8,1.8,0,0,0,.605-.695L31.5,40.145a1.853,1.853,0,0,0-.813-2.469,1.761,1.761,0,0,0-1.361-.1,1.794,1.794,0,0,0-1.046.916l-1.147,2.317a1.814,1.814,0,0,0-.186.942l.186,2.572-6.842-3.456,2.114-1.386a1.8,1.8,0,0,0,.631-.714L26.392,32a1.857,1.857,0,0,0-.809-2.474,1.755,1.755,0,0,0-1.359-.1,1.8,1.8,0,0,0-1.048.916l-3.348,6.767a1.82,1.82,0,0,0-.187.938l.186,2.573-6.847-3.459L15.1,35.777a1.776,1.776,0,0,0,.626-.708l2.717-5.481a1.848,1.848,0,0,0-.807-2.466,1.751,1.751,0,0,0-1.359-.1,1.8,1.8,0,0,0-1.049.918l-2.715,5.478a1.818,1.818,0,0,0-.184.938l.182,2.569L5.389,33.326l2.1-1.39a1.813,1.813,0,0,0,.636-.712L9.275,28.9a1.848,1.848,0,0,0-.8-2.468,1.768,1.768,0,0,0-1.361-.1,1.794,1.794,0,0,0-1.047.918L4.914,29.566a1.843,1.843,0,0,0-.191.918l.131,2.852-2.39-1.562A9.172,9.172,0,0,1,0,29.406l2.381-1.7c.037.051.075.1.113.153l.947-1.912a4.706,4.706,0,0,1,6.351-2.126,4.752,4.752,0,0,1,2.523,3.407l.294-.595a4.712,4.712,0,0,1,8.847,1.154A4.714,4.714,0,0,1,26.9,26.92a4.792,4.792,0,0,1,2.11,6.378l-.775,1.564.17-.06a4.662,4.662,0,0,1,3.6.265,4.784,4.784,0,0,1,2.113,6.374l-1.152,2.321c-.012.025-.024.05-.037.074l3.14,1.585a1.756,1.756,0,0,0,1.356.106,1.8,1.8,0,0,0,1.051-.918,1.879,1.879,0,0,0-.193-1.963l-.672-.878.661-.886a6.4,6.4,0,0,0,.421-.652l.689-1.2,4.006,2.025a1.765,1.765,0,0,0,1.362.1,1.794,1.794,0,0,0,1.044-.913,1.855,1.855,0,0,0-.807-2.473l-4.041-2.049,1.592-3.184L50.3,36.461a1.755,1.755,0,0,0,1.361.1,1.788,1.788,0,0,0,1.044-.913,1.849,1.849,0,0,0-.8-2.474L44.209,29.28l.524-1.255c.067-.161.12-.324.172-.486l.521-1.635,11.012,5.572a1.748,1.748,0,0,0,1.352.1,1.8,1.8,0,0,0,1.053-.921,1.849,1.849,0,0,0-.806-2.469L41.845,19.995a15.986,15.986,0,0,1-2.485-.348,14.583,14.583,0,0,1-8-4.715l-4.542.508-.031.169A7.151,7.151,0,0,1,23.713,20.2a7.021,7.021,0,0,1-5.329,1.033l-1.85-.382c-.1-.023-.167-.041-.232-.06l-1.347-.344.213-1.38L17.641,6.9l9.065-1.89,4.457-.867,1.778.4-.159-.506-7.3-.737-3.868-.334L8.467,7.389l-.932-2.77L21.262,0l4.5.388L35,1.346,37.242,8.5,31.121,7.13l-3.837.746L20.123,9.369l-1.8,8.865.652.136a4.121,4.121,0,0,0,3.127-.607,4.237,4.237,0,0,0,1.821-2.714l.428-2.273,8.357-.935.5.7a11.394,11.394,0,0,0,6.786,4.255,13.076,13.076,0,0,0,2.291.3l.319.012L59.356,25.58a4.781,4.781,0,0,1,2.107,6.375,4.7,4.7,0,0,1-2.753,2.4,4.639,4.639,0,0,1-2.906.015,4.769,4.769,0,0,1-.476,2.573,4.71,4.71,0,0,1-6.343,2.129l-.088-.045a4.773,4.773,0,0,1-.476,2.506,4.709,4.709,0,0,1-6.344,2.13l-.5-.252a4.8,4.8,0,0,1-.476,2.5,4.724,4.724,0,0,1-4.227,2.634" transform="translate(16.05 4.116)" fill="#00bece"/>
      <path id="Fill_3" data-name="Fill 3" d="M43.492,24.271l-16.6-8.4-.186-.012-.2-.012c-.213-.02-.43-.044-.645-.071L25.8,15.77h-.009c-.2-.027-.4-.058-.595-.091-.042-.007-.1-.015-.15-.027-.184-.031-.419-.075-.657-.13-.216-.049-.43-.1-.644-.156l-.4-.117c-.1-.028-.192-.056-.29-.087s-.2-.064-.307-.1l-.094-.032c-.078-.026-.157-.052-.234-.08l-.6-.232c-.165-.07-.3-.131-.446-.2l-.726-.352c-.176-.085-.348-.178-.515-.276l-.065-.034c-.149-.084-.3-.178-.453-.273l-.262-.17a21.775,21.775,0,0,1-2.93-2.57l-4.566.482-.031.161a7.148,7.148,0,0,1-3.077,4.591A7.015,7.015,0,0,1,3.429,17.11l-1.85-.381c-.1-.024-.168-.042-.232-.06L0,16.324l.214-1.38L2.683,2.791,3.7,2.566,16.1,0,30.771,3.275,40.506,0l.932,2.77L30.93,6.3,16.08,2.99,5.166,5.247l-1.8,8.865.653.135a4.116,4.116,0,0,0,3.126-.607,4.233,4.233,0,0,0,1.821-2.714l.43-2.28,8.171-.862.5.537a20.873,20.873,0,0,0,3.042,2.741l.172.108c.083.051.164.1.246.147a1.046,1.046,0,0,1,.1.054c.1.061.22.124.339.183l.137.071.52.245c.094.043.207.092.32.14l.739.273c.126.045.188.067.251.087l.357.105c.031.008.1.028.17.05.2.053.394.1.589.146s.372.076.56.109c.24.041.41.069.582.091l.036,0c.173.022.349.042.522.058l.146.01c.144.009.286.018.425.023l.324.01L43.72,21.111l3.822-1.285.932,2.77Z" transform="translate(31.006 8.238)" fill="#00bece"/>
      <path id="Fill_5" data-name="Fill 5" d="M4.715,11.835a4.7,4.7,0,0,1-2.111-.5A4.791,4.791,0,0,1,.493,4.953L1.642,2.633A4.7,4.7,0,0,1,7.987.507,4.782,4.782,0,0,1,10.1,6.88L8.95,9.2A4.706,4.706,0,0,1,4.715,11.835ZM5.872,2.923A1.791,1.791,0,0,0,4.261,3.93L3.114,6.248a1.856,1.856,0,0,0,.809,2.475,1.7,1.7,0,0,0,.77.181,1.837,1.837,0,0,0,1.639-1l1.15-2.318a1.855,1.855,0,0,0-.813-2.47A1.749,1.749,0,0,0,5.872,2.923Z" transform="translate(40.073 38.676)" fill="#00bece"/>
      <path id="Fill_7" data-name="Fill 7" d="M4.72,11.835h0a4.707,4.707,0,0,1-2.113-.5A4.776,4.776,0,0,1,.5,4.95L1.644,2.634A4.7,4.7,0,0,1,8,.509a4.781,4.781,0,0,1,2.1,6.376L8.95,9.2A4.689,4.689,0,0,1,4.72,11.835ZM5.872,2.923A1.788,1.788,0,0,0,4.265,3.931L3.118,6.249a1.85,1.85,0,0,0,.8,2.472,1.769,1.769,0,0,0,.8.191A1.788,1.788,0,0,0,6.33,7.9L7.478,5.585a1.849,1.849,0,0,0-.8-2.469A1.758,1.758,0,0,0,5.872,2.923Z" transform="translate(17.847 27.433)" fill="#00bece"/>
      <path id="Fill_9" data-name="Fill 9" d="M4.719,16.284A4.694,4.694,0,0,1,2.6,15.776,4.776,4.776,0,0,1,.5,9.4L3.846,2.634A4.7,4.7,0,0,1,10.193.506,4.794,4.794,0,0,1,12.3,6.884L8.949,13.649A4.694,4.694,0,0,1,4.719,16.284ZM8.077,2.923A1.791,1.791,0,0,0,6.466,3.93L3.118,10.7a1.848,1.848,0,0,0,.806,2.47,1.7,1.7,0,0,0,.778.185,1.823,1.823,0,0,0,1.627-1L9.681,5.587a1.854,1.854,0,0,0-.808-2.472A1.746,1.746,0,0,0,8.077,2.923Z" transform="translate(32.76 30.53)" fill="#00bece"/>
      <path id="Fill_11" data-name="Fill 11" d="M4.72,14.995h0a4.7,4.7,0,0,1-2.12-.51A4.784,4.784,0,0,1,.492,8.114l2.715-5.48A4.7,4.7,0,0,1,9.554.509a4.778,4.778,0,0,1,2.108,6.372L8.946,12.359A4.692,4.692,0,0,1,4.72,14.995ZM7.435,2.923A1.788,1.788,0,0,0,5.828,3.931L3.113,9.41a1.851,1.851,0,0,0,.808,2.469,1.749,1.749,0,0,0,.8.193,1.79,1.79,0,0,0,1.608-1.01L9.042,5.585a1.848,1.848,0,0,0-.806-2.467A1.757,1.757,0,0,0,7.435,2.923Z" transform="translate(25.451 28.119)" fill="#00bece"/>
      <path id="Fill_13" data-name="Fill 13" d="M9.562,35.4h0L0,6.368,15.29,0l9.562,29.034L9.563,35.395ZM13.5,3.911,3.623,8.025l7.727,23.459,9.877-4.108L13.5,3.911Z" transform="translate(70.141 0.73)" fill="#00bece"/>
      <g id="Group_17" data-name="Group 17">
        <path id="Clip_16-2" data-name="Clip 16" d="M0,0H27.128V38.688H0Z" fill="none"/>
        <g id="Group_17-2" data-name="Group 17" clip-path="url(#clip-path)">
          <path id="Fill_15" data-name="Fill 15" d="M16.377,38.688h0L0,32.659,10.755,0,27.129,6.029,16.377,38.687Zm-3.792-34.9-8.925,27.1L14.547,34.9,23.469,7.8Z" transform="translate(0)" fill="#00bece"/>
        </g>
      </g>
      <path id="Fill_18" data-name="Fill 18" d="M3.391,3.912,0,2.771.933,0l3.39,1.142Z" transform="translate(9.304 26.969)" fill="#00bece"/>
      <path id="Fill_20" data-name="Fill 20" d="M.912,3.735,0,.957,2.916,0l.912,2.777Z" transform="translate(82.348 25.046)" fill="#00bece"/>
    </g>
  </g>
</svg>
