<?xml version="1.0" encoding="UTF-8"?>
<svg width="25px" height="34px" viewBox="0 0 25 34" version="1.1" xmlns="http://www.w3.org/2000/svg" xmlns:xlink="http://www.w3.org/1999/xlink">
    <title>1094E460-63DF-47B6-87EA-D0B34A1AB653</title>
    <defs>
        <polygon id="path-1" points="0 0 25 0 25 33.3322917 0 33.3322917"></polygon>
    </defs>
    <g id="Work-Table" stroke="none" stroke-width="1" fill="none" fill-rule="evenodd">
        <g id="Kontakt" transform="translate(-346.000000, -1279.000000)">
            <g id="Group-6" transform="translate(346.000000, 1279.000000)">
                <g id="Group-3">
                    <mask id="mask-2" fill="white">
                        <use xlink:href="#path-1"></use>
                    </mask>
                    <g id="Clip-2"></g>
                    <path d="M12.5,2.0828125 C6.75625,2.0828125 2.08333333,6.75572917 2.08333333,12.4994792 C2.08333333,20.8796875 10.1145833,28.7536458 12.5,30.9078125 C14.8854167,28.7536458 22.9166667,20.8796875 22.9166667,12.4994792 C22.9166667,6.75572917 18.24375,2.0828125 12.5,2.0828125 M12.5,33.3328125 C12.265625,33.3328125 12.0322917,33.2536458 11.840625,33.0973958 C11.35625,32.7015625 0,23.2848958 0,12.4994792 C0,5.60677083 5.60729167,-0.000520833333 12.5,-0.000520833333 C19.3927083,-0.000520833333 25,5.60677083 25,12.4994792 C25,23.2848958 13.64375,32.7015625 13.159375,33.0973958 C12.9677083,33.2536458 12.734375,33.3328125 12.5,33.3328125" id="Fill-1" fill="#5B5B5B" mask="url(#mask-2)"></path>
                </g>
                <path d="M12.5,8.3328125 C10.2020833,8.3328125 8.33333333,10.2015625 8.33333333,12.4994792 C8.33333333,14.7973958 10.2020833,16.6661458 12.5,16.6661458 C14.7979167,16.6661458 16.6666667,14.7973958 16.6666667,12.4994792 C16.6666667,10.2015625 14.7979167,8.3328125 12.5,8.3328125 M12.5,18.7494792 C9.053125,18.7494792 6.25,15.9463542 6.25,12.4994792 C6.25,9.05260417 9.053125,6.24947917 12.5,6.24947917 C15.946875,6.24947917 18.75,9.05260417 18.75,12.4994792 C18.75,15.9463542 15.946875,18.7494792 12.5,18.7494792" id="Fill-4" fill="#5B5B5B"></path>
            </g>
        </g>
    </g>
</svg>