<svg width="35" height="39" viewBox="0 0 35 39" fill="none" xmlns="http://www.w3.org/2000/svg">
<g id="Group 15">
<g id="Group 3">
<mask id="mask0_0_106" style="mask-type:alpha" maskUnits="userSpaceOnUse" x="0" y="29" width="10" height="10">
<path id="Clip 2" fill-rule="evenodd" clip-rule="evenodd" d="M0 29.5703H9.2882V38.4258H0V29.5703Z" fill="white"/>
</mask>
<g mask="url(#mask0_0_106)">
<path id="Fill 1" fill-rule="evenodd" clip-rule="evenodd" d="M4.84247 29.6936L6.10617 32.2542C6.13872 32.3198 6.20101 32.3647 6.27284 32.3754L9.09879 32.7861C9.28004 32.8125 9.35242 33.0353 9.22112 33.1632L7.17629 35.1564C7.1241 35.2075 7.10053 35.2804 7.11288 35.3523L7.59547 38.167C7.62633 38.3477 7.43666 38.4852 7.27449 38.3999L4.74707 37.0711C4.68254 37.0374 4.60566 37.0374 4.54113 37.0711L2.01371 38.3999C1.85154 38.4852 1.66187 38.3477 1.69273 38.167L2.17532 35.3523C2.18767 35.2804 2.1641 35.2075 2.11191 35.1564L0.0670822 33.1632C-0.0642268 33.0353 0.00816151 32.8125 0.189413 32.7861L3.01536 32.3754C3.08775 32.3647 3.15004 32.3198 3.18202 32.2542L4.44573 29.6936C4.5271 29.5292 4.7611 29.5292 4.84247 29.6936Z" fill="#2AAAB9"/>
</g>
</g>
<g id="Group 6">
<mask id="mask1_0_106" style="mask-type:alpha" maskUnits="userSpaceOnUse" x="12" y="29" width="10" height="10">
<path id="Clip 5" fill-rule="evenodd" clip-rule="evenodd" d="M12.6182 29.5703H21.9064V38.4258H12.6182V29.5703Z" fill="white"/>
</mask>
<g mask="url(#mask1_0_106)">
<path id="Fill 4" fill-rule="evenodd" clip-rule="evenodd" d="M17.4606 29.6936L18.7243 32.2542C18.7569 32.3198 18.8192 32.3647 18.891 32.3754L21.7169 32.7861C21.8982 32.8125 21.9706 33.0353 21.8393 33.1632L19.7945 35.1564C19.7423 35.2075 19.7187 35.2804 19.731 35.3523L20.2136 38.167C20.2445 38.3477 20.0548 38.4852 19.8927 38.3999L17.3652 37.0711C17.3007 37.0374 17.2238 37.0374 17.1593 37.0711L14.6319 38.3999C14.4697 38.4852 14.28 38.3477 14.3109 38.167L14.7935 35.3523C14.8058 35.2804 14.7823 35.2075 14.7301 35.1564L12.6852 33.1632C12.5539 33.0353 12.6263 32.8125 12.8076 32.7861L15.6335 32.3754C15.7059 32.3647 15.7682 32.3198 15.8002 32.2542L17.0639 29.6936C17.1453 29.5292 17.3793 29.5292 17.4606 29.6936Z" fill="#2AAAB9"/>
</g>
</g>
<g id="Group 9">
<mask id="mask2_0_106" style="mask-type:alpha" maskUnits="userSpaceOnUse" x="25" y="29" width="10" height="10">
<path id="Clip 8" fill-rule="evenodd" clip-rule="evenodd" d="M25.2363 29.5703H34.5245V38.4258H25.2363V29.5703Z" fill="white"/>
</mask>
<g mask="url(#mask2_0_106)">
<path id="Fill 7" fill-rule="evenodd" clip-rule="evenodd" d="M30.0788 29.6936L31.3425 32.2542C31.375 32.3198 31.4373 32.3647 31.5092 32.3754L34.3351 32.7861C34.5164 32.8125 34.5888 33.0353 34.4574 33.1632L32.4126 35.1564C32.3604 35.2075 32.3369 35.2804 32.3492 35.3523L32.8318 38.167C32.8627 38.3477 32.673 38.4852 32.5108 38.3999L29.9834 37.0711C29.9189 37.0374 29.842 37.0374 29.7775 37.0711L27.25 38.3999C27.0879 38.4852 26.8982 38.3477 26.9291 38.167L27.4116 35.3523C27.424 35.2804 27.4004 35.2075 27.3482 35.1564L25.3034 33.1632C25.1721 33.0353 25.2445 32.8125 25.4257 32.7861L28.2517 32.3754C28.3241 32.3647 28.3864 32.3198 28.4184 32.2542L29.6821 29.6936C29.7634 29.5292 29.9974 29.5292 30.0788 29.6936Z" fill="#2AAAB9"/>
</g>
</g>
<g id="Group 12">
<mask id="mask3_0_106" style="mask-type:alpha" maskUnits="userSpaceOnUse" x="11" y="0" width="13" height="12">
<path id="Clip 11" fill-rule="evenodd" clip-rule="evenodd" d="M11.6504 0H23.1433V11.4934H11.6504V0Z" fill="white"/>
</mask>
<g mask="url(#mask3_0_106)">
<path id="Fill 10" fill-rule="evenodd" clip-rule="evenodd" d="M23.1433 5.74673C23.1433 2.57287 20.5704 0 17.3966 0C14.2233 0 11.6504 2.57287 11.6504 5.74673C11.6504 8.9206 14.2233 11.4935 17.3966 11.4935C20.5704 11.4935 23.1433 8.9206 23.1433 5.74673Z" fill="#2AAAB9"/>
</g>
</g>
<path id="Fill 13" fill-rule="evenodd" clip-rule="evenodd" d="M27.9488 24.0745V20.1055C27.9488 16.7038 25.1913 13.9463 21.7896 13.9463H12.7344C9.33325 13.9463 6.5752 16.7038 6.5752 20.1055V24.0745C6.5752 24.5436 6.95565 24.9241 7.42478 24.9241H27.0992C27.5684 24.9241 27.9488 24.5436 27.9488 24.0745Z" fill="#2AAAB9"/>
</g>
</svg>
