<?xml version="1.0" encoding="UTF-8"?>
<svg width="41px" height="41px" viewBox="0 0 41 41" version="1.1" xmlns="http://www.w3.org/2000/svg" xmlns:xlink="http://www.w3.org/1999/xlink">
    <title>Group 11</title>
    <defs>
        <polygon id="path-1" points="0 0 25.5106456 0 25.5106456 31.918724 0 31.918724"></polygon>
        <polygon id="path-3" points="0 0 32.2243127 0 32.2243127 31.9186575 0 31.9186575"></polygon>
    </defs>
    <g id="Handed-Over" stroke="none" stroke-width="1" fill="none" fill-rule="evenodd">
        <g id="warum-iconpro-v2" transform="translate(-388.000000, -1773.000000)">
            <g id="Group-16" transform="translate(340.000000, 1318.000000)">
                <g id="Group-11" transform="translate(48.000000, 455.000000)">
                    <path d="M17.454836,4.48444773 L8.80260807,4.48444773 C8.06077754,4.48444773 7.45992838,3.88929652 7.45992838,3.1545009 L7.45992838,0.664840423 L18.7975157,0.664840423 L18.7975157,3.1545009 C18.7975157,3.88929652 18.1966666,4.48444773 17.454836,4.48444773 Z" id="Stroke-1" stroke="#ACC969" stroke-width="1.056" stroke-linejoin="round"></path>
                    <g id="Group-5">
                        <mask id="mask-2" fill="white">
                            <use xlink:href="#path-1"></use>
                        </mask>
                        <g id="Clip-4"></g>
                        <path d="M8.25721158,30.5887772 L2.013751,30.5887772 C1.64384275,30.5887772 1.34241116,30.2908691 1.34241116,29.9238038 L1.34241116,1.99492025 C1.34241116,1.62785493 1.64384275,1.32994683 2.013751,1.32994683 L23.4966261,1.32994683 C23.8672057,1.32994683 24.167966,1.62785493 24.167966,1.99492025 L24.167966,7.97968101 L25.5106456,7.97968101 L25.5106456,1.99492025 C25.5106456,0.89505422 24.6076936,0 23.4966261,0 L2.013751,0 C0.903354898,0 -0.00026853594,0.89505422 -0.00026853594,1.99492025 L-0.00026853594,29.9238038 C-0.00026853594,31.0236698 0.903354898,31.918724 2.013751,31.918724 L8.25721158,31.918724 L8.25721158,30.5887772 Z" id="Fill-3" fill="#ACC969" mask="url(#mask-2)"></path>
                    </g>
                    <g id="Group-8" transform="translate(8.775687, 9.081342)">
                        <mask id="mask-4" fill="white">
                            <use xlink:href="#path-3"></use>
                        </mask>
                        <g id="Clip-7"></g>
                        <path d="M24.0668622,28.2759996 L23.0719365,26.5683479 L21.9085046,27.2333213 L22.9054442,28.942968 C21.0572456,29.8958749 18.9828055,30.4737368 16.7834962,30.5721529 L16.7834962,28.5938569 L15.4408165,28.5938569 L15.4408165,30.5721529 C13.2415071,30.4737368 11.1677384,29.8958749 9.31953976,28.942968 L10.3164794,27.2333213 L9.15304747,26.5683479 L8.15812182,28.2759996 C6.36161639,27.1335753 4.83096154,25.6174359 3.67759968,23.8379671 L5.40160041,22.8524765 L4.73026056,21.7007425 L3.00424582,22.6875631 C2.04288715,20.8568912 1.45882149,18.8027883 1.36013453,16.6243354 L3.35669923,16.6243354 L3.35669923,15.2943886 L1.36013453,15.2943886 C1.45882149,13.1159357 2.04288715,11.0618328 3.00424582,9.23116098 L4.73026056,10.2179815 L5.40160041,9.06624757 L3.67759968,8.08009199 C4.83096154,6.30062313 6.36161639,4.78514871 8.15812182,3.64272438 L9.15304747,5.35037612 L10.3164794,4.6854027 L9.31953976,2.97575604 C11.1677384,2.02284914 13.2415071,1.44498724 15.4408165,1.34657117 L15.4408165,3.32486709 L16.7834962,3.32486709 L16.7834962,1.34657117 C18.9828055,1.44498724 21.0572456,2.02284914 22.9054442,2.97575604 L21.9085046,4.6854027 L23.0719365,5.35037612 L24.0668622,3.64272438 C25.8633676,4.78514871 27.3940225,6.30062313 28.5473843,8.08009199 L26.8233836,9.06624757 L27.4947234,10.2179815 L29.2207382,9.23116098 C30.1820968,11.0618328 30.7661625,13.1159357 30.8648495,15.2943886 L28.8676134,15.2943886 L28.8676134,16.6243354 L30.8648495,16.6243354 C30.7661625,18.8027883 30.1820968,20.8568912 29.2207382,22.6875631 L27.4947234,21.7007425 L26.8233836,22.8524765 L28.5473843,23.8379671 C27.3940225,25.6174359 25.8633676,27.1335753 24.0668622,28.2759996 M16.1121563,0 C7.22831613,0 0,7.15976878 0,15.959362 C0,24.7589552 7.22831613,31.918724 16.1121563,31.918724 C24.9966679,31.918724 32.2243127,24.7589552 32.2243127,15.959362 C32.2243127,7.15976878 24.9966679,0 16.1121563,0" id="Fill-6" fill="#ACC969" mask="url(#mask-4)"></path>
                    </g>
                    <path d="M24.8881793,26.3705848 C24.1476915,26.3705848 23.5454996,25.7741037 23.5454996,25.040638 C23.5454996,24.3071723 24.1476915,23.7106912 24.8881793,23.7106912 C25.6286672,23.7106912 26.230859,24.3071723 26.230859,25.040638 C26.230859,25.7741037 25.6286672,26.3705848 24.8881793,26.3705848 M27.5735387,25.040638 C27.5735387,24.5093242 27.4117458,24.0165789 27.1398532,23.6009705 L31.3961478,19.5346581 L30.4643281,18.5770964 L26.1442562,22.7039214 C25.7676345,22.5044294 25.3446904,22.3807443 24.8881793,22.3807443 C23.4072036,22.3807443 22.20282,23.5737066 22.20282,25.040638 C22.20282,26.5075693 23.4072036,27.7005317 24.8881793,27.7005317 C25.3849708,27.7005317 25.8441673,27.5575624 26.2436145,27.3234917 L29.6123978,30.6603283 C28.2878443,31.7562045 26.6350056,32.3553456 24.8881793,32.3553456 C20.8165032,32.3553456 17.503441,29.0737018 17.503441,25.040638 C17.503441,21.0075742 20.8165032,17.7259304 24.8881793,17.7259304 L25.2815845,17.7259304 L23.0708624,19.9156879 L24.0201369,20.8559603 L27.3768362,17.5310932 C27.63933,17.2710886 27.63933,16.8508254 27.3768362,16.5908208 L24.0201369,13.2659537 L23.0708624,14.2062261 L25.2815845,16.3959836 L24.8881793,16.3959836 C20.0760153,16.3959836 16.1607613,20.2741085 16.1607613,25.040638 C16.1607613,29.8071674 20.0760153,33.6852924 24.8881793,33.6852924 C26.9935011,33.6852924 28.9813384,32.945177 30.5616724,31.6006007 L33.1409601,34.1554286 L34.0902346,33.2151562 L27.192889,26.3832193 C27.4292007,25.9875601 27.5735387,25.5327183 27.5735387,25.040638" id="Fill-9" fill="#ACC969"></path>
                </g>
            </g>
        </g>
    </g>
</svg>