<svg id="Work-Table" xmlns="http://www.w3.org/2000/svg" width="28" height="28" viewBox="0 0 28 28">
  <g id="iconpro-homepage-5h" transform="translate(-1669 -6271)">
    <g id="Group-24" transform="translate(0 5347)">
      <g id="Group-13" transform="translate(0 330)">
        <g id="Group-12" transform="translate(0 366)">
          <g id="_1161953_instagram_icon" data-name="1161953_instagram_icon" transform="translate(1669 228)">
            <path id="Shape" d="M14,6.718a7.226,7.226,0,1,0,7.226,7.226A7.24,7.24,0,0,0,14,6.718Zm0,11.855a4.629,4.629,0,1,1,4.629-4.629A4.65,4.65,0,0,1,14,18.573Z" fill="#00b5c5" fill-rule="evenodd"/>
            <circle id="Oval" cx="1.637" cy="1.637" r="1.637" transform="translate(19.871 4.911)" fill="#00b5c5"/>
            <path id="Shape-2" data-name="Shape" d="M25.742,2.315A8.04,8.04,0,0,0,19.815,0H8.185C3.274,0,0,3.274,0,8.185V19.758A8.123,8.123,0,0,0,2.371,25.8,8.238,8.238,0,0,0,8.242,28H19.758a8.336,8.336,0,0,0,5.927-2.2A8.082,8.082,0,0,0,28,19.815V8.185A8.092,8.092,0,0,0,25.742,2.315Zm-.226,17.5a5.516,5.516,0,0,1-1.637,4.121A5.835,5.835,0,0,1,19.758,25.4H8.242a5.835,5.835,0,0,1-4.121-1.468A5.674,5.674,0,0,1,2.6,19.758V8.185A5.628,5.628,0,0,1,4.121,4.065,5.741,5.741,0,0,1,8.242,2.6H19.871a5.628,5.628,0,0,1,4.121,1.524,5.825,5.825,0,0,1,1.524,4.065V19.815Z" fill="#00b5c5" fill-rule="evenodd"/>
          </g>
        </g>
      </g>
    </g>
  </g>
</svg>
