<?xml version="1.0" encoding="UTF-8"?>
<svg width="28px" height="28px" viewBox="0 0 28 28" version="1.1" xmlns="http://www.w3.org/2000/svg" xmlns:xlink="http://www.w3.org/1999/xlink">
    <title>E7FEE271-8939-46E9-AC3E-71CC3DD44DFC</title>
    <g id="Work-Table" stroke="none" stroke-width="1" fill="none" fill-rule="evenodd">
        <g id="iconpro-homepage-5h" transform="translate(-1669.000000, -6271.000000)" fill="#FFFFFF">
            <g id="Group-24" transform="translate(0.000000, 5347.000000)">
                <g id="Group-13" transform="translate(0.000000, 330.000000)">
                    <g id="Group-12" transform="translate(0.000000, 366.000000)">
                        <g id="1161953_instagram_icon" transform="translate(1669.000000, 228.000000)">
                            <path d="M14,6.71774194 C10.0483871,6.71774194 6.77419355,9.93548387 6.77419355,13.9435484 C6.77419355,17.9516129 9.99193548,21.1693548 14,21.1693548 C18.0080645,21.1693548 21.2258065,17.8951613 21.2258065,13.9435484 C21.2258065,9.99193548 17.9516129,6.71774194 14,6.71774194 Z M14,18.5725806 C11.4596774,18.5725806 9.37096774,16.483871 9.37096774,13.9435484 C9.37096774,11.4032258 11.4596774,9.31451613 14,9.31451613 C16.5403226,9.31451613 18.6290323,11.4032258 18.6290323,13.9435484 C18.6290323,16.483871 16.5403226,18.5725806 14,18.5725806 Z" id="Shape"></path>
                            <circle id="Oval" cx="21.5080645" cy="6.5483871" r="1.63709677"></circle>
                            <path d="M25.7419355,2.31451613 C24.2741935,0.790322581 22.1854839,0 19.8145161,0 L8.18548387,0 C3.27419355,0 0,3.27419355 0,8.18548387 L0,19.7580645 C0,22.1854839 0.790322581,24.2741935 2.37096774,25.7983871 C3.89516129,27.266129 5.92741935,28 8.24193548,28 L19.7580645,28 C22.1854839,28 24.2177419,27.2096774 25.6854839,25.7983871 C27.2096774,24.3306452 28,22.2419355 28,19.8145161 L28,8.18548387 C28,5.81451613 27.2096774,3.78225806 25.7419355,2.31451613 Z M25.516129,19.8145161 C25.516129,21.5645161 24.8951613,22.9758065 23.8790323,23.9354839 C22.8629032,24.8951613 21.4516129,25.4032258 19.7580645,25.4032258 L8.24193548,25.4032258 C6.5483871,25.4032258 5.13709677,24.8951613 4.12096774,23.9354839 C3.10483871,22.9193548 2.59677419,21.5080645 2.59677419,19.7580645 L2.59677419,8.18548387 C2.59677419,6.49193548 3.10483871,5.08064516 4.12096774,4.06451613 C5.08064516,3.10483871 6.5483871,2.59677419 8.24193548,2.59677419 L19.8709677,2.59677419 C21.5645161,2.59677419 22.9758065,3.10483871 23.9919355,4.12096774 C24.9516129,5.13709677 25.516129,6.5483871 25.516129,8.18548387 L25.516129,19.8145161 L25.516129,19.8145161 Z" id="Shape"></path>
                        </g>
                    </g>
                </g>
            </g>
        </g>
    </g>
</svg>