<?xml version="1.0" encoding="UTF-8"?>
<svg width="45px" height="45px" viewBox="0 0 45 45" version="1.1" xmlns="http://www.w3.org/2000/svg" xmlns:xlink="http://www.w3.org/1999/xlink">
    <title>47C95A35-AD8E-40CD-BCCA-5B8B6A739B3B</title>
    <defs>
        <polygon id="path-1" points="1.66533454e-15 0 44.999625 0 44.999625 40.6732671 1.66533454e-15 40.6732671"></polygon>
        <polygon id="path-3" points="0 45 45 45 45 0 0 0"></polygon>
    </defs>
    <g id="Handed-Over" stroke="none" stroke-width="1" fill="none" fill-rule="evenodd">
        <g id="Karriere" transform="translate(-303.000000, -3336.000000)">
            <g id="Group-12" transform="translate(260.000000, 2786.000000)">
                <g id="Group-13" transform="translate(43.000000, 550.000000)">
                    <g id="Group-3" transform="translate(0.000375, 0.000000)">
                        <mask id="mask-2" fill="white">
                            <use xlink:href="#path-1"></use>
                        </mask>
                        <g id="Clip-2"></g>
                        <path d="M9.2409375,40.6732671 C9,40.6732671 8.76,40.5804375 8.578125,40.3985625 L4.60125,36.4216875 C4.2675,36.0879375 4.23375,35.560125 4.520625,35.187 L7.854375,30.8529375 C7.1484375,29.620125 6.6046875,28.311375 6.2334375,26.94825 L0.8165625,26.241375 C0.3496875,26.181375 1.66533454e-15,25.7829375 1.66533454e-15,25.3123125 L1.66533454e-15,19.6873125 C1.66533454e-15,19.2166875 0.3496875,18.81825 0.8165625,18.75825 L6.2334375,18.051375 C6.6046875,16.68825 7.1484375,15.3804375 7.854375,14.1466875 L4.520625,9.812625 C4.23375,9.4404375 4.2675,8.9116875 4.60125,8.578875 L8.578125,4.6010625 C8.911875,4.2673125 9.4396875,4.2354375 9.811875,4.5204375 L14.1459375,7.8541875 C15.3796875,7.1491875 16.6875,6.6054375 18.050625,6.2341875 L18.7575,0.816375 C18.8184375,0.3495 19.216875,-0.0001875 19.6875,-0.0001875 L25.3125,-0.0001875 C25.783125,-0.0001875 26.180625,0.3495 26.2415625,0.816375 L26.9484375,6.2341875 C28.3115625,6.6054375 29.619375,7.1491875 30.853125,7.8541875 L35.1871875,4.5204375 C35.559375,4.2354375 36.0871875,4.2673125 36.4209375,4.6010625 L40.3978125,8.578875 C40.7315625,8.9116875 40.7653125,9.4404375 40.4784375,9.812625 L37.145625,14.1466875 C37.8515625,15.3804375 38.394375,16.68825 38.765625,18.051375 L44.1825,18.75825 C44.6503125,18.81825 45,19.2166875 45,19.6873125 L45,25.3123125 C45,25.7829375 44.6503125,26.181375 44.1825,26.241375 L38.765625,26.94825 C38.394375,28.311375 37.8515625,29.620125 37.145625,30.8529375 L40.4784375,35.187 C40.7653125,35.560125 40.7315625,36.0879375 40.3978125,36.4216875 L36.4209375,40.3985625 C36.0871875,40.731375 35.559375,40.7660625 35.1871875,40.4791875 L31.063125,37.307625 L32.2059375,35.82075 L35.6775,38.49075 L38.49,35.67825 L35.270625,31.491375 C35.0325,31.182 35.0109375,30.756375 35.218125,30.4235625 C36.0965625,29.0173125 36.7284375,27.4910625 37.0996875,25.8898125 C37.18875,25.5091875 37.50375,25.22325 37.8928125,25.172625 L43.125,24.4891875 L43.125,20.5104375 L37.8928125,19.8279375 C37.50375,19.7773125 37.18875,19.4904375 37.0996875,19.1098125 C36.7284375,17.5085625 36.0965625,15.9823125 35.218125,14.5760625 C35.0109375,14.2441875 35.0325,13.817625 35.270625,13.50825 L38.49,9.3223125 L35.6775,6.5098125 L31.490625,9.7291875 C31.1803125,9.9673125 30.75375,9.988875 30.42375,9.7816875 C29.0175,8.90325 27.49125,8.2704375 25.89,7.900125 C25.509375,7.8110625 25.2225,7.495125 25.171875,7.107 L24.489375,1.8748125 L20.510625,1.8748125 L19.8271875,7.107 C19.7765625,7.495125 19.490625,7.8110625 19.1090625,7.900125 C17.5078125,8.2704375 15.9815625,8.90325 14.5753125,9.7816875 C14.2453125,9.9898125 13.81875,9.96825 13.5084375,9.7291875 L9.3215625,6.5098125 L6.5090625,9.3223125 L9.729375,13.50825 C9.9665625,13.817625 9.988125,14.2441875 9.7809375,14.5760625 C8.9034375,15.9823125 8.270625,17.5085625 7.899375,19.1098125 C7.81125,19.4904375 7.4953125,19.7773125 7.1071875,19.8279375 L1.875,20.5104375 L1.875,24.4891875 L7.1071875,25.172625 C7.4953125,25.22325 7.81125,25.5091875 7.899375,25.8898125 C8.270625,27.4910625 8.9034375,29.0173125 9.7809375,30.4235625 C9.988125,30.756375 9.9665625,31.182 9.729375,31.491375 L6.5090625,35.67825 L9.3215625,38.49075 L12.795,35.818875 L13.9378125,37.30575 L9.811875,40.4791875 C9.643125,40.6095 9.4415625,40.6732671 9.2409375,40.6732671" id="Fill-1" fill="#ACC969" mask="url(#mask-2)"></path>
                    </g>
                    <path d="M22.5,11.25 C20.949375,11.25 19.6875,12.931875 19.6875,15 C19.6875,17.068125 20.949375,18.75 22.5,18.75 C24.050625,18.75 25.3125,17.068125 25.3125,15 C25.3125,12.931875 24.050625,11.25 22.5,11.25 M22.5,20.625 C19.9153125,20.625 17.8125,18.1021875 17.8125,15 C17.8125,11.8978125 19.9153125,9.375 22.5,9.375 C25.0846875,9.375 27.1875,11.8978125 27.1875,15 C27.1875,18.1021875 25.0846875,20.625 22.5,20.625" id="Fill-4" fill="#ACC969"></path>
                    <mask id="mask-4" fill="white">
                        <use xlink:href="#path-3"></use>
                    </mask>
                    <g id="Clip-7"></g>
                    <polygon id="Fill-6" fill="#ACC969" mask="url(#mask-4)" points="16.875 45 18.75 45 18.75 32.8125 16.875 32.8125"></polygon>
                    <polygon id="Fill-8" fill="#ACC969" mask="url(#mask-4)" points="21.5625 45 23.4375 45 23.4375 36.5625 21.5625 36.5625"></polygon>
                    <polygon id="Fill-9" fill="#ACC969" mask="url(#mask-4)" points="26.25 45 28.125 45 28.125 32.8125 26.25 32.8125"></polygon>
                    <path d="M17.8125,35.625 L15.9375,35.625 C14.386875,35.625 13.125,34.363125 13.125,32.8125 L13.125,23.98125 C13.125,21.5896875 14.9175,19.5871875 17.295,19.321875 L22.396875,18.755625 L22.603125,20.619375 L17.5021875,21.1865625 C16.0753125,21.345 15,22.546875 15,23.98125 L15,32.8125 C15,33.33 15.42,33.75 15.9375,33.75 L16.875,33.75 L16.875,24.375 L18.75,24.375 L18.75,34.6875 C18.75,35.2059375 18.3309375,35.625 17.8125,35.625" id="Fill-10" fill="#ACC969" mask="url(#mask-4)"></path>
                    <path d="M29.0625,35.625 L27.1875,35.625 C26.6690625,35.625 26.25,35.2059375 26.25,34.6875 L26.25,24.375 L28.125,24.375 L28.125,33.75 L29.0625,33.75 C29.58,33.75 30,33.33 30,32.8125 L30,23.98125 C30,22.546875 28.9246875,21.345 27.4978125,21.1865625 L22.396875,20.619375 L22.603125,18.755625 L27.705,19.321875 C30.0825,19.5871875 31.875,21.5896875 31.875,23.98125 L31.875,32.8125 C31.875,34.363125 30.613125,35.625 29.0625,35.625" id="Fill-11" fill="#ACC969" mask="url(#mask-4)"></path>
                    <polygon id="Fill-12" fill="#ACC969" mask="url(#mask-4)" points="17.8125 33.75 27.1875 33.75 27.1875 31.875 17.8125 31.875"></polygon>
                </g>
            </g>
        </g>
    </g>
</svg>