<?xml version="1.0" encoding="UTF-8"?>
<svg width="44px" height="43px" viewBox="0 0 44 43" version="1.1" xmlns="http://www.w3.org/2000/svg" xmlns:xlink="http://www.w3.org/1999/xlink">
    <title>5779C32D-4472-45D7-904B-734D9046532D</title>
    <defs>
        <polygon id="path-1" points="0 0 43.171 0 43.171 42.7614352 0 42.7614352"></polygon>
    </defs>
    <g id="Handed-Over" stroke="none" stroke-width="1" fill="none" fill-rule="evenodd">
        <g id="Karriere" transform="translate(-304.000000, -3237.000000)">
            <g id="Group-12" transform="translate(260.000000, 2786.000000)">
                <g id="Group-10" transform="translate(44.000000, 451.000000)">
                    <g id="Group-3">
                        <mask id="mask-2" fill="white">
                            <use xlink:href="#path-1"></use>
                        </mask>
                        <g id="Clip-2"></g>
                        <path d="M41.3787792,24.636982 C41.385853,25.1316861 40.9897313,25.5385623 40.4950271,25.5457319 L39.598824,25.5582788 L39.4724594,16.5971439 L39.4599125,15.7009408 L37.6675063,15.7260344 L37.6809494,16.6222376 L37.7813241,23.7909662 L30.6125954,23.8922372 L30.5113245,16.7235085 C30.5068435,16.3811589 30.3069902,16.0719688 29.9978001,15.9258877 C29.68861,15.7798066 29.3229592,15.8219282 29.0549944,16.0370169 L22.5091269,21.2780127 L22.4885143,19.8243713 L26.2445015,14.6667224 C26.9551906,13.689861 28.0503508,13.0338403 29.2485743,12.8653541 L34.0387799,12.198579 L38.8173349,12.661916 C40.1831485,12.7936579 41.2281213,13.928251 41.2469415,15.2994418 L41.3787792,24.636982 Z M35.3337934,40.8555696 L35.1563452,28.3096223 L33.363939,28.334716 L33.5413872,40.8806633 L30.8527779,40.9183039 L30.6376891,25.6846434 L37.8064178,25.5833725 L37.8198609,26.4795756 L38.0215066,40.8179291 L35.3337934,40.8555696 Z M14.0848177,14.5287071 C13.8249188,14.276874 13.4386553,14.2042816 13.1052677,14.3485703 C12.7718801,14.4910666 12.5585838,14.8217655 12.563961,15.1838316 L12.665232,22.3525602 L5.49650329,22.4538312 L5.3826855,14.3888994 L3.59027928,14.4139931 L3.72919076,24.2713311 L2.83298765,24.2839738 C2.33828353,24.2910476 1.93140732,23.8949258 1.9242377,23.4011179 L1.79249584,14.0635777 C1.77367557,12.6923869 2.78548889,11.5282191 4.14682141,11.3579405 L8.91014094,10.760173 L13.8186454,11.3041683 C14.9218714,11.4260519 15.8879784,12.0363662 16.4714066,12.9791719 L20.696108,19.7992776 L20.7122397,20.9724075 L14.0848177,14.5287071 Z M10.2168051,39.4171637 L10.0402531,26.8712163 L8.24784684,26.89631 L8.42439885,39.4422573 L5.73668573,39.4798979 L5.52159698,24.2462374 L12.6903257,24.1449665 L12.9054144,39.3795231 L10.2168051,39.4171637 Z M8.79004972,1.7927647 C10.2723697,1.77215203 11.5010641,3.36291255 11.5288464,5.33904041 C11.5566287,7.31606447 10.3736406,8.9408807 8.89132067,8.96149338 C7.40900073,8.98300225 6.18030627,7.39224173 6.15252397,5.41521767 C6.12474167,3.43819361 7.30772978,1.81337737 8.79004972,1.7927647 L8.79004972,1.7927647 Z M33.9061419,3.23117069 C35.389358,3.21055802 36.6171563,4.80131854 36.6458348,6.7774464 C36.6736171,8.75447046 35.4897328,10.3792867 34.0074128,10.3998994 C32.5250929,10.4214082 31.2963984,8.83064772 31.2686161,6.85362366 C31.2408338,4.8765996 32.4238219,3.25267957 33.9061419,3.23117069 L33.9061419,3.23117069 Z M38.9903021,10.8766794 L37.0706351,10.6911654 C37.9291976,9.69727613 38.4597499,8.29830307 38.4373448,6.75235271 C38.3961195,3.78771282 36.3518802,1.40470875 33.8810482,1.43876447 C31.4111124,1.47371639 29.4349846,3.91407746 29.4762099,6.87871735 C29.498615,8.44438418 30.0820432,9.84246103 30.9881045,10.8139452 L29.000326,11.090872 C27.32353,11.324781 25.7910227,12.2442854 24.7962373,13.6109951 L21.6487719,17.9333827 L17.9958481,12.03547 C17.1202576,10.6212615 15.6693048,9.70534196 14.0158101,9.52251652 L11.9204872,9.29039992 C12.7996624,8.29471826 13.3436577,6.87961355 13.3212526,5.31394672 C13.2791311,2.34930683 11.2348918,-0.03459344 8.76495603,-2.10009453e-05 C6.29412406,0.0353104025 4.3179962,2.47567147 4.36011775,5.44031136 C4.38162662,6.98626172 4.9507156,8.36999932 5.83795668,9.33879488 L3.92366683,9.57897732 C1.65448056,9.86396991 -0.0321736916,11.8024572 8.9620311e-05,14.0886714 L0.131831477,23.4262116 C0.153340352,24.9085315 1.37576139,26.097793 2.85808134,26.0762842 L3.75428445,26.0637373 L3.94427951,39.5058878 L2.15187329,39.5309814 L2.17696697,41.3233877 L16.5153205,41.1208458 L16.4893306,39.3284395 L14.6978206,39.3535332 L14.3868381,17.3221722 L21.0142601,23.7649763 C21.0196374,23.7703536 21.0259108,23.7730422 21.031288,23.7775232 C21.0689285,23.8124751 21.1128425,23.8393612 21.1567564,23.8680397 C21.1863311,23.88686 21.2132172,23.9101612 21.2445843,23.9253967 C21.2490654,23.9280853 21.251754,23.9316701 21.256235,23.9334625 C21.2956679,23.9522828 21.3386857,23.9594524 21.379911,23.9719993 C21.4157591,23.9827537 21.4507111,23.9988854 21.4874554,24.0051588 C21.547501,24.0159132 21.6075466,24.0132246 21.666696,24.0114322 C21.6917897,24.010536 21.7159872,24.0159132 21.7410809,24.0132246 C21.8262202,24.0033664 21.909567,23.9809613 21.9893291,23.9469056 C21.9902253,23.9469056 21.9920177,23.9460094 21.9938101,23.9460094 C22.015319,23.9361511 22.0323469,23.9200195 22.0529595,23.909265 C22.1031469,23.8823789 22.1542305,23.8581815 22.1990406,23.8223333 L28.7449082,18.5813376 L29.0603717,40.9442938 L27.2679654,40.9693874 L27.2939553,42.7617937 L29.0854653,42.7358038 L30.8778716,42.7107101 L38.0466002,42.6094391 L39.8390065,42.5843454 L41.6314127,42.5592518 L41.606319,40.7668455 L39.8139128,40.7919392 L39.6239177,27.350685 L40.5201208,27.3381381 C42.003337,27.3166293 43.1917023,26.0942082 43.1713538,24.6118883 L43.0393478,15.2743481 C43.0070845,12.9881339 41.266658,11.0980416 38.9903021,10.8766794 L38.9903021,10.8766794 Z" id="Fill-1" fill="#ACC969" mask="url(#mask-2)"></path>
                    </g>
                    <polygon id="Fill-4" fill="#ACC969" points="8.0707571 14.3511693 9.86316332 14.3260756 9.83806964 12.5336694 8.04566342 12.558763"></polygon>
                    <polygon id="Fill-6" fill="#ACC969" points="8.12130296 17.9356232 9.91370918 17.9105295 9.88861549 16.1181233 8.09620927 16.143217"></polygon>
                    <polygon id="Fill-8" fill="#ACC969" points="8.17184882 21.5200772 9.96425504 21.4949835 9.93916135 19.7025773 8.14675513 19.727671"></polygon>
                </g>
            </g>
        </g>
    </g>
</svg>