<?xml version="1.0" encoding="UTF-8"?>
<svg width="46px" height="46px" viewBox="0 0 46 46" version="1.1" xmlns="http://www.w3.org/2000/svg" xmlns:xlink="http://www.w3.org/1999/xlink">
    <title>1A8225A8-F5A1-4506-8ABE-4050095F9CBE</title>
    <defs>
        <polygon id="path-1" points="0 46 46 46 46 0 0 0"></polygon>
    </defs>
    <g id="Handed-Over" stroke="none" stroke-width="1" fill="none" fill-rule="evenodd">
        <g id="Karriere" transform="translate(-302.000000, -3132.000000)">
            <g id="Group-12" transform="translate(260.000000, 2786.000000)">
                <g id="Group-15" transform="translate(42.000000, 346.000000)">
                    <polygon id="Fill-1" fill="#ACC969" points="3.83333333 46 5.75095833 46 5.75095833 37.375 3.83333333 37.375"></polygon>
                    <g id="Group-14">
                        <path d="M9.58333333,24.9166667 C10.6566667,24.9166667 12.4583333,25.2904167 12.4583333,27.7916667 C12.4583333,29.90575 11.1684167,31.625 9.58333333,31.625 C7.99825,31.625 6.70833333,29.90575 6.70833333,27.7916667 C6.70833333,25.2904167 8.51,24.9166667 9.58333333,24.9166667 M14.904,32.2095833 L12.854125,31.9824583 C13.7875417,30.932125 14.375,29.4447917 14.375,27.7916667 C14.375,24.8812083 12.4937917,23 9.58333333,23 C6.672875,23 4.79166667,24.8812083 4.79166667,27.7916667 C4.79166667,29.4447917 5.379125,30.932125 6.31254167,31.9824583 L4.26266667,32.2095833 C1.83233333,32.4807917 0,34.5277917 0,36.9725 L0,46 L1.91666667,46 L1.91666667,36.9725 C1.91666667,35.50625 3.015875,34.2776667 4.47445833,34.1157083 L9.58333333,33.5474167 L14.6922083,34.1157083 C16.1507917,34.2776667 17.25,35.50625 17.25,36.9725 L17.25,46 L19.1666667,46 L19.1666667,36.9725 C19.1666667,34.5277917 17.3343333,32.4807917 14.904,32.2095833" id="Fill-2" fill="#ACC969"></path>
                        <mask id="mask-2" fill="white">
                            <use xlink:href="#path-1"></use>
                        </mask>
                        <g id="Clip-5"></g>
                        <polygon id="Fill-4" fill="#ACC969" mask="url(#mask-2)" points="13.4166667 46 15.3333333 46 15.3333333 37.375 13.4166667 37.375"></polygon>
                        <polygon id="Fill-6" fill="#ACC969" mask="url(#mask-2)" points="8.625 38.3333333 10.5416667 38.3333333 10.5416667 36.4166667 8.625 36.4166667"></polygon>
                        <polygon id="Fill-7" fill="#ACC969" mask="url(#mask-2)" points="8.625 42.1666667 10.5416667 42.1666667 10.5416667 40.25 8.625 40.25"></polygon>
                        <polygon id="Fill-8" fill="#ACC969" mask="url(#mask-2)" points="8.625 46 10.5416667 46 10.5416667 44.0833333 8.625 44.0833333"></polygon>
                        <polygon id="Fill-9" fill="#ACC969" mask="url(#mask-2)" points="30.6666667 46 32.5833333 46 32.5833333 37.375 30.6666667 37.375"></polygon>
                        <path d="M36.4166667,24.9166667 C37.49,24.9166667 39.2916667,25.2904167 39.2916667,27.7916667 C39.2916667,29.90575 38.00175,31.625 36.4166667,31.625 C34.8315833,31.625 33.5416667,29.90575 33.5416667,27.7916667 C33.5416667,25.2904167 35.3433333,24.9166667 36.4166667,24.9166667 M41.7373333,32.2095833 L39.6874583,31.9824583 C40.620875,30.932125 41.2083333,29.4447917 41.2083333,27.7916667 C41.2083333,24.8812083 39.327125,23 36.4166667,23 C33.5062083,23 31.625,24.8812083 31.625,27.7916667 C31.625,29.4447917 32.2124583,30.932125 33.145875,31.9824583 L31.096,32.2095833 C28.6656667,32.4807917 26.8333333,34.5277917 26.8333333,36.9725 L26.8333333,46 L28.75,46 L28.75,36.9725 C28.75,35.50625 29.8492083,34.2776667 31.3077917,34.1157083 L36.4166667,33.5474167 L41.5255417,34.1157083 C42.984125,34.2776667 44.0833333,35.50625 44.0833333,36.9725 L44.0833333,46 L46,46 L46,36.9725 C46,34.5277917 44.1676667,32.4807917 41.7373333,32.2095833" id="Fill-10" fill="#ACC969" mask="url(#mask-2)"></path>
                        <polygon id="Fill-11" fill="#ACC969" mask="url(#mask-2)" points="40.25 46 42.1666667 46 42.1666667 37.375 40.25 37.375"></polygon>
                        <path d="M16.9692083,11.7807917 L15.614125,13.135875 L21.364125,18.885875 C21.551,19.07275 21.7963333,19.1666667 22.0416667,19.1666667 C22.287,19.1666667 22.5323333,19.07275 22.7192083,18.885875 L37.0942083,4.510875 L35.739125,3.15579167 L22.0416667,16.85325 L16.9692083,11.7807917 Z" id="Fill-12" fill="#ACC969" mask="url(#mask-2)"></path>
                        <path d="M35.4583333,12.4583333 C35.4583333,11.7606667 35.399875,11.063 35.2858333,10.3825833 L33.396,10.70075 C33.4927917,11.2767083 33.5416667,11.868 33.5416667,12.4583333 C33.5416667,16.9902917 30.6513333,21.0037917 26.3503333,22.4460833 C26.11075,22.5265833 25.9114167,22.7000417 25.7983333,22.9262083 L23,28.5238333 L20.2016667,22.9262083 C20.0885833,22.7000417 19.88925,22.5265833 19.6496667,22.4460833 C15.3486667,21.0037917 12.4583333,16.9902917 12.4583333,12.4583333 C12.4583333,6.64604167 17.1877083,1.91666667 23,1.91666667 C25.99575,1.91666667 28.85925,3.19795833 30.8583333,5.43183333 L32.28625,4.15341667 C29.925875,1.51416667 26.5400833,0 23,0 C16.1306667,0 10.5416667,5.589 10.5416667,12.4583333 C10.5416667,17.6802917 13.7875417,22.3205417 18.6606667,24.129875 L22.1422917,31.0950417 C22.3052083,31.4199167 22.6367917,31.625 23,31.625 C23.3632083,31.625 23.6947917,31.4199167 23.8577083,31.0950417 L27.3393333,24.129875 C32.2124583,22.3195833 35.4583333,17.6802917 35.4583333,12.4583333" id="Fill-13" fill="#ACC969" mask="url(#mask-2)"></path>
                    </g>
                </g>
            </g>
        </g>
    </g>
</svg>