<?xml version="1.0" encoding="UTF-8"?>
<svg width="102px" height="126px" viewBox="0 0 102 126" version="1.1" xmlns="http://www.w3.org/2000/svg" xmlns:xlink="http://www.w3.org/1999/xlink">
    <title>1C9B38B5-F172-4ED1-AEC8-DAE95A606B42</title>
    <g id="Work-Table" stroke="none" stroke-width="1" fill="none" fill-rule="evenodd">
        <g id="iconpro-homepage-5h" transform="translate(-1569.000000, -1789.000000)" fill="#FFFFFF" fill-rule="nonzero">
            <g id="money-bag" transform="translate(1569.000000, 1789.000000)">
                <path d="M71.1584549,126 L30.8490965,126 L29.6257702,126 C18.1057156,125.699327 7.76892624,118.840232 3.00709496,108.336872 C-2.0301174,97.7030658 -0.663724245,85.1375633 6.54114886,75.8373223 C22.9729892,54.5992442 33.8545526,38.3872593 37.1771674,30.1943495 L37.3961579,29.6350549 C39.1178765,25.8560374 38.0908864,20.4520425 38.0757837,20.3991362 C36.6411349,10.4723673 28.1687567,3.0882677 18.1476464,3.030772 L18.1476464,0.00755803491 C29.6325807,0.0525975638 39.3663971,8.47886697 41.066137,19.8473997 C41.1038939,20.0363505 42.2668091,26.1734749 40.1750721,30.8065503 L39.9938385,31.2675904 C35.5989254,42.0982545 20.6773645,62.4596005 8.93494178,77.6361346 C2.41773092,86.044772 1.18530244,97.4094493 5.74825215,107.021774 C10.0341888,116.491578 19.3481662,122.678959 29.7314897,122.954112 L30.8490965,122.954112 L71.1509035,122.954112 L72.2685103,122.954112 C82.6518338,122.678959 91.9658112,116.491578 96.2517479,107.021774 C100.814698,97.4094493 99.5822691,86.044772 93.0650582,77.6361346 C76.2254424,55.8689941 65.7818601,40.276768 62.0288156,31.3053806 C59.8464618,26.0978945 60.8810033,20.1723952 60.9263116,19.92298 C62.5716623,8.50587346 72.3347997,0.0243944419 83.859905,0 L83.859905,3.02321396 C73.817921,3.05121154 65.3200614,10.4555481 63.9091136,20.4066943 C63.9091136,20.5200648 62.9878431,25.7804571 64.8152812,30.1490013 C68.4172977,38.757603 79.011908,54.5387799 95.4588511,75.7919741 C102.663724,85.0922151 104.030117,97.6577176 98.992905,108.291524 C94.2310738,118.794883 83.8942844,125.653979 72.3742298,125.954652 L71.1584549,126 Z" id="Path"></path>
                <path d="M62.036367,88.5574951 C62.036367,93.4097535 58.6306869,96.8184272 52.853868,97.2794673 L52.853868,103.061364 L49.6747298,103.061364 L49.6747298,97.2567932 C46.0087912,96.829413 42.5907138,95.1880385 39.963633,92.5934857 L42.4404912,89.623178 C44.878046,92.0612451 48.1555869,93.4729353 51.6003361,93.5684722 C55.1041844,93.5684722 57.6943136,91.8301242 57.6943136,88.8371423 C57.6943136,85.4284686 54.9607078,84.3023214 50.5808975,82.919201 C45.3855362,81.2488753 40.6583615,79.6238978 40.6583615,73.9629296 C40.6583615,69.3449703 43.8828081,65.8456001 49.6747298,65.5659529 L49.6747298,59.5195249 L52.853868,59.5195249 L52.853868,65.7397877 C55.7780873,66.2571722 58.5448343,67.438792 60.9414144,69.1938096 L58.5551729,72.1490013 C56.2211811,70.4510964 53.440632,69.476129 50.5582433,69.3449703 C47.2431799,69.3449703 44.9249009,70.9019255 44.9249009,73.6832823 C44.9249009,76.6535901 47.8019833,77.7419471 51.7664668,79.0419291 C57.6112483,80.9012057 62.036367,82.4506028 62.036367,88.5574951 L62.036367,88.5574951 Z" id="Path"></path>
                <rect id="Rectangle" x="33.7941414" y="23.4299082" width="34.4117171" height="3.02321396"></rect>
            </g>
        </g>
    </g>
</svg>