<?xml version="1.0" encoding="UTF-8"?>
<svg width="127px" height="243px" viewBox="0 0 127 243" version="1.1" xmlns="http://www.w3.org/2000/svg" xmlns:xlink="http://www.w3.org/1999/xlink">
    <title>Group 20</title>
    <defs>
        <linearGradient x1="43.2222177%" y1="40.6434819%" x2="68.7717427%" y2="63.2044644%" id="linearGradient-1">
            <stop stop-color="#0A0A0A" offset="0%"></stop>
            <stop stop-color="#428B79" offset="100%"></stop>
        </linearGradient>
        <polygon id="path-2" points="-1.73700128e-14 0 63.2308667 0 63.2308667 40.1523749 -1.73700128e-14 40.1523749"></polygon>
        <polygon id="path-4" points="0 0 89.850491 0 89.850491 89.8514688 0 89.8514688"></polygon>
        <polygon id="path-6" points="0 0 89.850491 0 89.850491 89.8514688 0 89.8514688"></polygon>
    </defs>
    <g id="15-Dec" stroke="none" stroke-width="1" fill="none" fill-rule="evenodd">
        <g id="iconpro-homepage-5i" transform="translate(-1670.000000, -1719.000000)">
            <g id="Group-20" transform="translate(1670.000000, 1719.000000)">
                <polygon id="Fill-1" fill="url(#linearGradient-1)" opacity="0.0700102307" points="87.452 182 74.029 182 31 206.959 66.12 242.079 117.492 212.039"></polygon>
                <g id="Group-29">
                    <path d="M0,97.6309575 C11.9627087,137.13222 43.9015642,135.0543 63.2311112,126.560496 C60.6508232,99.9985642 33.6451947,81.1726074 0,97.6309575" id="Fill-1" fill="#88BB74"></path>
                    <path d="M0.0232238138,97.7014846 C12.0030448,137.126964 43.9137873,135.049044 63.2311112,126.560129 C63.2274442,126.525904 63.2213327,126.49168 63.2176658,126.456233 L0.0232238138,97.7014846 Z" id="Fill-3" fill="#88BB74"></path>
                    <g id="Group-7" transform="translate(63.230133, 91.464893)">
                        <mask id="mask-3" fill="white">
                            <use xlink:href="#path-2"></use>
                        </mask>
                        <g id="Clip-6"></g>
                        <path d="M63.2311112,6.16606491 C51.2684024,45.6673276 19.3295469,43.5894074 -1.73700128e-14,35.0956031 C2.58028794,8.53367161 29.5859165,-10.2922852 63.2311112,6.16606491" id="Fill-5" fill="#88BB74" mask="url(#mask-3)"></path>
                    </g>
                    <path d="M63.3480858,126.609632 C82.6886335,135.061878 114.522371,137.053015 126.460633,97.631202 C126.434965,97.6177566 126.409296,97.6079782 126.383628,97.5957551 L63.3480858,126.609632 Z" id="Fill-8" fill="#88BB74"></path>
                    <line x1="64.1002929" y1="140.594646" x2="64.1002929" y2="34.7136123" id="Stroke-10" stroke="#88BB74" stroke-width="5.392"></line>
                    <g id="Group-14" transform="translate(19.175292, 0.000000)">
                        <mask id="mask-5" fill="white">
                            <use xlink:href="#path-4"></use>
                        </mask>
                        <g id="Clip-13"></g>
                        <path d="M89.850491,44.9256122 C89.850491,69.7372015 69.7362236,89.8514688 44.9246343,89.8514688 C20.1130451,89.8514688 0,69.7372015 0,44.9256122 C0,20.1140229 20.1130451,-0.000244461198 44.9246343,-0.000244461198 C69.7362236,-0.000244461198 89.850491,20.1140229 89.850491,44.9256122" id="Fill-12" fill="#F0DA4D" mask="url(#mask-5)"></path>
                    </g>
                    <g id="Group-17" transform="translate(19.175292, 0.000000)">
                        <mask id="mask-7" fill="white">
                            <use xlink:href="#path-6"></use>
                        </mask>
                        <g id="Clip-16"></g>
                        <path d="M89.850491,44.9256122 C89.850491,69.7372015 69.7362236,89.8514688 44.9246343,89.8514688 C20.1130451,89.8514688 0,69.7372015 0,44.9256122 C0,20.1140229 20.1130451,-0.000244461198 44.9246343,-0.000244461198 C69.7362236,-0.000244461198 89.850491,20.1140229 89.850491,44.9256122" id="Fill-15" fill="#F0DA4D" mask="url(#mask-7)"></path>
                    </g>
                    <path d="M102.838592,44.9256122 C102.838592,66.3196339 85.4952925,83.6641559 64.1000485,83.6641559 C42.7060267,83.6641559 25.3615047,66.3196339 25.3615047,44.9256122 C25.3615047,23.5315905 42.7060267,6.18706846 64.1000485,6.18706846 C85.4952925,6.18706846 102.838592,23.5315905 102.838592,44.9256122" id="Fill-18" fill="#F0DA4D"></path>
                    <path d="M81.5419883,50.9844608 L85.9985159,51.9109687 C83.5099009,62.0377738 75.233667,68.5196625 64.7010563,68.5196625 C54.2833424,68.5196625 45.7186443,61.6906389 43.0564619,52.1994329 L35.243482,52.1994329 L35.243482,48.8429807 L42.3621921,48.8429807 C42.246073,47.8590243 42.1886246,46.8176196 42.1886246,45.7762149 C42.1886246,44.849707 42.246073,43.9244214 42.3621921,43.0553618 L35.243482,43.0553618 L35.243482,39.6989095 L42.9415651,39.6989095 C45.4876285,29.9766877 54.1109972,22.9740967 64.7010563,22.9740967 C75.233667,22.9740967 83.4512302,29.4559854 85.9985159,39.2943263 L81.5419883,40.5667468 C79.4005082,32.2917352 73.0347386,27.2570569 64.7010563,27.2570569 C56.714509,27.2570569 50.0590529,32.3491836 47.686557,39.6989095 L69.6782863,39.6989095 L68.8104491,43.0553618 L46.9336165,43.0553618 C46.8187197,43.9244214 46.760049,44.849707 46.760049,45.7762149 C46.760049,46.8176196 46.8187197,47.8590243 46.9922872,48.8429807 L67.0161039,48.8429807 L66.1482666,52.1994329 L47.8601244,52.1994329 C50.291291,59.318143 56.8306281,64.2379246 64.7010563,64.2379246 C73.0347386,64.2379246 79.4005082,59.2606946 81.5419883,50.9844608" id="Fill-20" fill="#FFFFFF"></path>
                    <polygon id="Fill-25" fill="#BDC2E5" points="96.7368407 209.353759 31.4644786 209.353759 23.7419493 151.466569 104.458148 151.466569"></polygon>
                    <polygon id="Fill-27" fill="#ECEDF6" points="19.1290887 155.653334 109.07003 155.653334 109.07003 140.594524 19.1290887 140.594524"></polygon>
                </g>
            </g>
        </g>
    </g>
</svg>