<svg xmlns="http://www.w3.org/2000/svg" xmlns:xlink="http://www.w3.org/1999/xlink" width="11.999" height="9.333" viewBox="0 0 11.999 9.333">
  <defs>
    <clipPath id="clip-path">
      <path id="Clip_2" data-name="Clip 2" d="M12,0H0V9.333H12Z" fill="#40afc0"/>
    </clipPath>
  </defs>
  <g id="Group_1" data-name="Group 1" transform="translate(-1195 -1889)">
    <g id="Group_3" data-name="Group 3" transform="translate(1195 1889)">
      <path id="Clip_2-2" data-name="Clip 2" d="M12,0H0V9.333H12Z" fill="none"/>
      <g id="Group_3-2" data-name="Group 3" clip-path="url(#clip-path)">
        <path id="Fill_1" data-name="Fill 1" d="M.05,4.921A.669.669,0,0,1,.2,4.195l4-4a.667.667,0,0,1,.943.943L2.275,4h9.057a.667.667,0,1,1,0,1.333H2.275L5.137,8.2a.667.667,0,1,1-.943.943l-4-4A.667.667,0,0,1,.05,4.921" transform="translate(0 0)" fill="#40afc0"/>
      </g>
    </g>
  </g>
</svg>
