<?xml version="1.0" encoding="UTF-8"?>
<svg width="215px" height="211px" viewBox="0 0 215 211" version="1.1" xmlns="http://www.w3.org/2000/svg" xmlns:xlink="http://www.w3.org/1999/xlink">
    <title>Group 23</title>
    <defs>
        <linearGradient x1="5.92322619%" y1="69.1536128%" x2="257.869972%" y2="-40.332141%" id="linearGradient-1">
            <stop stop-color="#EFDA4D" offset="0%"></stop>
            <stop stop-color="#87BA74" offset="100%"></stop>
        </linearGradient>
        <linearGradient x1="-9.68134811%" y1="82.1239306%" x2="154.494028%" y2="-6.24716928%" id="linearGradient-2">
            <stop stop-color="#EFDA4D" offset="0%"></stop>
            <stop stop-color="#87BA74" offset="100%"></stop>
        </linearGradient>
        <linearGradient x1="-8.22877359%" y1="89.1622625%" x2="96.9037232%" y2="18.4536147%" id="linearGradient-3">
            <stop stop-color="#EFDA4D" offset="0%"></stop>
            <stop stop-color="#87BA74" offset="100%"></stop>
        </linearGradient>
        <linearGradient x1="5.29598104%" y1="89.9017322%" x2="64.9686406%" y2="36.6391463%" id="linearGradient-4">
            <stop stop-color="#EFDA4D" offset="0%"></stop>
            <stop stop-color="#87BA74" offset="100%"></stop>
        </linearGradient>
    </defs>
    <g id="15-Dec" stroke="none" stroke-width="1" fill="none" fill-rule="evenodd">
        <g id="iconpro-homepage-5i" transform="translate(-1003.000000, -1719.000000)">
            <g id="Group-23" transform="translate(1003.000000, 1719.000000)">
                <polygon id="Fill-1" fill="url(#linearGradient-1)" points="13.0132374 172.007975 47.9024251 172.007975 47.9024251 109.029789 13.0132374 109.029789"></polygon>
                <polygon id="Fill-3" fill="url(#linearGradient-2)" points="64.0644559 172.007975 98.9536436 172.007975 98.9536436 93.9991932 64.0644559 93.9991932"></polygon>
                <polygon id="Fill-5" fill="url(#linearGradient-3)" points="115.114516 172.007975 150.003704 172.007975 150.003704 74.5366616 115.114516 74.5366616"></polygon>
                <polygon id="Fill-7" fill="url(#linearGradient-4)" points="166.165735 172.007975 201.054923 172.007975 201.054923 42.6515086 166.165735 42.6515086"></polygon>
                <g id="Group-22">
                    <line x1="0" y1="172.007512" x2="214.66804" y2="172.007512" id="Stroke-9" stroke="#ECEDF6" stroke-width="2.018"></line>
                    <path d="M12.940858,83.5214352 C29.2835478,82.7073117 45.4976918,79.9070974 61.3180919,75.7137244 C77.1442823,71.5110868 92.5987321,65.9129744 107.558686,59.2343823 C122.516324,52.5465256 136.997994,44.7793472 150.806826,35.9884346 C164.586706,27.181309 177.792183,17.380559 189.536175,6.19012452 L189.580182,6.14843398 C190.708142,5.07374463 192.493887,5.11659323 193.569734,6.24455383 C194.644424,7.37251442 194.600417,9.15825902 193.472457,10.2341064 L193.451611,10.2537936 C181.170274,21.7117424 167.635905,31.5136505 153.536398,40.3254084 C139.413729,49.1070564 124.652963,56.8244377 109.418547,63.4474425 C94.1806564,70.0588665 78.4529019,75.5712817 62.3429842,79.669693 C46.2388569,83.7576816 29.7328791,86.4316662 13.0867748,87.085976 C12.102415,87.1253504 11.2720785,86.3587078 11.2324752,85.3731898 C11.1956458,84.3957784 11.9518658,83.5712322 12.9269611,83.5225933 L12.940858,83.5214352 Z" id="Fill-11" fill="#ECEDF6"></path>
                    <path d="M197.846025,18.5064351 L201.036509,1.23960506 C201.158107,0.582979132 200.65782,-0.0192174886 200.008143,0.000469708617 L182.92313,0.510020696 C182.069632,0.535498245 181.623775,1.56502285 182.177332,2.23322949 L196.073019,18.9905085 C196.626577,19.6587152 197.686212,19.3691976 197.846025,18.5064351" id="Fill-13" fill="#ECEDF6"></path>
                    <path d="M214.668156,171.17069 C214.668156,149.525196 197.121073,131.978113 175.475579,131.978113 C153.830085,131.978113 136.283001,149.525196 136.283001,171.17069 C136.283001,192.816184 153.830085,210.363268 175.475579,210.363268 C197.121073,210.363268 214.668156,192.816184 214.668156,171.17069" id="Fill-18" fill="#ECEDF6"></path>
                    <path d="M186.530867,170.67272 C186.316624,164.736451 181.094884,159.896875 175.134296,160.10996 C168.915457,160.333467 164.159262,165.472984 164.39435,171.716141 C164.619016,177.673256 169.741162,182.451454 175.684379,182.245318 C182.05145,182.025284 186.760165,177.002733 186.530867,170.67272 M155.320869,165.021336 C156.042347,163.515845 156.739505,162.118054 157.369495,160.690153 C157.472563,160.456223 157.381076,160.005733 157.207365,159.801913 C156.467358,158.93336 155.653235,158.129659 154.884276,157.284268 C153.726206,156.01039 153.794532,154.81642 155.066093,153.630556 C156.474307,152.317304 157.879046,151.000578 159.286102,149.687326 C160.623673,148.437768 161.75395,148.475984 162.996559,149.805449 C163.752779,150.616098 164.485838,151.453383 165.290697,152.214235 C165.495675,152.407633 165.977433,152.485224 166.258844,152.39142 C167.523457,151.969883 168.777647,151.504338 169.999411,150.96931 C170.288929,150.841922 170.588869,150.401855 170.621295,150.078754 C170.739418,148.912577 170.703518,147.731345 170.803112,146.562852 C170.93629,145.029566 171.701775,144.319669 173.230428,144.341177 C175.350855,144.370624 177.471282,144.436634 179.588234,144.552441 C181.045087,144.632348 181.85921,145.635237 181.801307,147.116409 C181.7573,148.257109 181.739929,149.398966 181.670445,150.538507 C181.639177,151.04111 181.807097,151.276198 182.28538,151.470754 C183.521042,151.972199 184.713854,152.580186 185.949515,153.083946 C186.193868,153.18354 186.639725,153.11753 186.840071,152.947294 C187.708624,152.207287 188.514641,151.396638 189.353084,150.62073 C190.586429,149.478873 191.776926,149.503193 192.937312,150.724957 C194.307309,152.167913 195.661094,153.627081 197.004456,155.095515 C198.19611,156.40066 198.147471,157.495037 196.859697,158.750385 C196.112741,159.478811 195.364628,160.209554 194.573666,160.890499 C194.133599,161.26803 194.045586,161.587657 194.281832,162.142373 C194.778644,163.307392 195.211762,164.503679 195.5974,165.711546 C195.768794,166.245417 196.021254,166.428392 196.569021,166.417969 C197.611284,166.397124 198.657022,166.437656 199.700443,166.467766 C201.502401,166.518721 202.278308,167.266835 202.257871,169.052579 C202.231985,171.173006 202.156711,173.292275 202.051326,175.410386 C201.984158,176.768803 201.178141,177.471751 199.713182,177.492597 C198.572483,177.50881 197.428309,177.485648 196.288768,177.419638 C195.674991,177.383738 195.373892,177.578294 195.146911,178.170068 C194.71495,179.292238 194.207715,180.391247 193.653,181.45783 C193.363482,182.014862 193.404015,182.369231 193.85103,182.80814 C194.61883,183.560886 195.328728,184.373851 196.050205,185.17292 C197.149214,186.39121 197.150372,187.462425 195.988828,188.597334 C194.518078,190.033341 193.023009,191.445029 191.504779,192.830081 C190.289963,193.937197 189.156212,193.866554 188.000458,192.666793 C187.072844,191.705595 186.166074,190.723551 185.280151,189.78204 C183.611371,190.417821 181.981966,191.038546 180.296973,191.680117 C180.252967,192.973682 180.20896,194.308937 180.161479,195.643034 C180.108208,197.149684 179.355462,198.00434 177.885871,197.999726 C175.634582,197.993917 173.383293,197.916327 171.135478,197.795887 C169.899817,197.729877 169.182972,196.933125 169.162126,195.673144 C169.142439,194.435167 169.209607,193.194874 169.265195,191.956896 C169.284882,191.494826 169.230453,191.197202 168.709321,190.989907 C167.290685,190.423611 165.90679,189.769301 164.398983,189.101095 C163.569804,189.875844 162.649138,190.745555 161.71805,191.603685 C160.213716,192.989895 159.16103,192.955153 157.787559,191.482087 C156.475465,190.073874 155.156423,188.67145 153.860542,187.248182 C152.719842,185.99515 152.758059,184.922776 153.964768,183.757758 C154.78584,182.965637 155.655551,182.21984 156.440723,181.392978 C156.635279,181.186841 156.71866,180.708558 156.62833,180.427147 C156.217215,179.15906 155.755145,177.90487 155.243278,176.673841 C155.129787,176.400536 154.752256,176.089015 154.470845,176.061222 C153.335936,175.948889 152.191762,175.93615 151.049905,175.896776 C149.356806,175.837714 148.553105,174.969161 148.616799,173.287643 C148.689757,171.397672 148.753451,169.506543 148.799774,167.615414 C148.849571,165.615426 149.608107,164.854574 151.635889,164.880052 C152.873866,164.896265 154.109527,164.972697 155.320869,165.021336" id="Fill-20" fill="#BDC2E5"></path>
                </g>
            </g>
        </g>
    </g>
</svg>