<svg id="Group_3" data-name="Group 3" xmlns="http://www.w3.org/2000/svg" width="32" height="32" viewBox="0 0 32 32">
  <g id="arrows_down-arrow-triangle_copy_5" data-name="arrows_down-arrow-triangle copy 5" transform="translate(12 8)">
    <path id="Shape" d="M3.241,15.861.059,11.194a.349.349,0,0,1-.023-.347.315.315,0,0,1,.283-.181H3.182V.333a.318.318,0,1,1,.636,0V10.667H6.683a.314.314,0,0,1,.282.181.346.346,0,0,1-.023.347L3.759,15.861a.311.311,0,0,1-.518,0Z" transform="translate(0 0)" fill="#00bece"/>
  </g>
  <g id="Oval" fill="none" stroke="#45afc3" stroke-miterlimit="10" stroke-width="0.75">
    <circle cx="16" cy="16" r="16" stroke="none"/>
    <circle cx="16" cy="16" r="15.625" fill="none"/>
  </g>
</svg>
