<?xml version="1.0" encoding="UTF-8"?>
<svg width="25px" height="27px" viewBox="0 0 25 27" version="1.1" xmlns="http://www.w3.org/2000/svg" xmlns:xlink="http://www.w3.org/1999/xlink">
    <title>0670523C-A94A-4356-9FF6-A19C07C286CE</title>
    <defs>
        <polygon id="path-1" points="0 26.4820322 24.199 26.4820322 24.199 0 0 0"></polygon>
    </defs>
    <g id="Handed-Over" stroke="none" stroke-width="1" fill="none" fill-rule="evenodd">
        <g id="Karriere" transform="translate(-1105.000000, -4599.000000)">
            <g id="Group-16" transform="translate(1105.000000, 4599.000000)">
                <g id="Group-9" transform="translate(0.000000, -0.000000)">
                    <mask id="mask-2" fill="white">
                        <use xlink:href="#path-1"></use>
                    </mask>
                    <g id="Clip-8"></g>
                    <path d="M1.36867781,21.6888061 L22.8303222,21.6888061 L22.8303222,11.6423228 L1.36867781,11.6423228 L1.36867781,21.6888061 Z M3.65171003,25.1133544 L20.54729,25.1133544 L20.54729,23.0574839 L3.65171003,23.0574839 L3.65171003,25.1133544 Z M3.65171003,7.07625836 L8.67552243,7.07625836 C9.05336426,7.07625836 9.35929058,6.76919053 9.35929058,6.3913487 L9.35929058,1.36867781 L20.54729,1.36867781 L20.54729,10.273645 L3.65171003,10.273645 L3.65171003,7.07625836 Z M7.99061276,2.33782499 L7.99061276,5.70758055 L4.62085721,5.70758055 L7.99061276,2.33782499 Z M21.9159678,10.273645 L21.9159678,0.683768149 C21.9159678,0.305926317 21.6100415,0 21.2321996,0 L8.67552243,0 C8.6447015,0 8.61730511,0.0136981933 8.58762569,0.0171227416 C8.55680475,0.02054729 8.52940837,0.0262548705 8.49972895,0.0342454833 C8.38557734,0.0650664182 8.27713331,0.114151611 8.1915196,0.200906835 L2.48393905,5.90848738 C2.39718383,5.99410109 2.34809864,6.10254512 2.3172777,6.21783825 C2.30928709,6.24751767 2.30472102,6.27377254 2.30015496,6.30459347 C2.29673041,6.33427289 2.28303222,6.36166928 2.28303222,6.3913487 L2.28303222,10.273645 L0.684909666,10.273645 C0.307067833,10.273645 0,10.5795713 0,10.9574131 L0,22.3725742 C0,22.7504161 0.307067833,23.0574839 0.684909666,23.0574839 L2.28303222,23.0574839 L2.28303222,25.7971226 C2.28303222,26.1749644 2.59010005,26.4820322 2.96794188,26.4820322 L21.2321996,26.4820322 C21.6100415,26.4820322 21.9159678,26.1749644 21.9159678,25.7971226 L21.9159678,23.0574839 L23.5152319,23.0574839 C23.8930737,23.0574839 24.199,22.7504161 24.199,22.3725742 L24.199,10.9574131 C24.199,10.5795713 23.8930737,10.273645 23.5152319,10.273645 L21.9159678,10.273645 Z" id="Fill-7" fill="#46B0BA" mask="url(#mask-2)"></path>
                </g>
                <g id="Group-10" transform="translate(5.000000, 14.000000)" fill="#46B0BA">
                    <path d="M2.38461538,2.08362273 L0.923076923,2.08362273 L0.923076923,0.832754549 L2.38461538,0.832754549 C2.76615385,0.832754549 3.07692308,1.11404362 3.07692308,1.45853591 C3.07692308,1.8030282 2.76615385,2.08362273 2.38461538,2.08362273 M2.38461538,0 L0.461538462,0 C0.206923077,0 0,0.186831504 0,0.416724545 L0,4.58397 C0,4.81386304 0.206923077,5 0.461538462,5 C0.716153846,5 0.923076923,4.81386304 0.923076923,4.58397 L0.923076923,2.91637727 L2.38461538,2.91637727 C3.27538462,2.91637727 4,2.26281428 4,1.45853591 C4,0.653562995 3.27538462,0 2.38461538,0" id="Fill-1"></path>
                    <path d="M6.23076923,4.16724545 L5.92307692,4.16724545 L5.92307692,0.832754549 L6.23076923,0.832754549 C7.24846154,0.832754549 8.07692308,1.58077511 8.07692308,2.50034727 C8.07692308,3.41922489 7.24846154,4.16724545 6.23076923,4.16724545 M6.23076923,0 L5.46153846,0 C5.20692308,0 5,0.186831504 5,0.416724545 L5,4.58397 C5,4.81386304 5.20692308,5 5.46153846,5 L6.23076923,5 C7.75769231,5 9,3.87901097 9,2.50034727 C9,1.12098903 7.75769231,0 6.23076923,0" id="Fill-3"></path>
                    <path d="M10.4615385,0 C10.2069231,0 10,0.186831504 10,0.416724545 L10,4.58397 C10,4.81386304 10.2069231,5 10.4615385,5 C10.7161538,5 10.9230769,4.81386304 10.9230769,4.58397 L10.9230769,2.91637727 L12.7692308,2.91637727 C13.0238462,2.91637727 13.2307692,2.73024031 13.2307692,2.50034727 C13.2307692,2.27045423 13.0238462,2.08362273 12.7692308,2.08362273 L10.9230769,2.08362273 L10.9230769,0.832754549 L13.5384615,0.832754549 C13.7930769,0.832754549 14,0.646617586 14,0.416724545 C14,0.186831504 13.7930769,0 13.5384615,0 L10.4615385,0 Z" id="Fill-5"></path>
                </g>
            </g>
        </g>
    </g>
</svg>