<?xml version="1.0" encoding="UTF-8"?>
<svg width="28px" height="38px" viewBox="0 0 28 38" version="1.1" xmlns="http://www.w3.org/2000/svg" xmlns:xlink="http://www.w3.org/1999/xlink">
    <title>89F294A2-E5AA-4076-A50B-0493FEC0D1BD</title>
    <g id="Handed-Over" stroke="none" stroke-width="1" fill="none" fill-rule="evenodd">
        <g id="Ressourcen-Presse" transform="translate(-947.000000, -1783.000000)" fill="#00BECE">
            <g id="Group-11" transform="translate(947.000000, 1783.000000)">
                <path d="M1.64705882,36.2352941 L1.64705882,1.64705882 L18.1176471,1.64705882 L18.1176471,9.05882353 C18.1176471,9.51341176 18.4865882,9.88235294 18.9411765,9.88235294 L26.3529412,9.88235294 L26.3529412,36.2352941 L1.64705882,36.2352941 Z M25.1884706,8.23529412 L19.7647059,8.23529412 L19.7647059,2.81152941 L25.1884706,8.23529412 Z M27.9785882,8.95341176 C27.9736471,8.91717647 27.9687059,8.88588235 27.9588235,8.84964706 C27.9209412,8.71129412 27.8616471,8.57952941 27.7595294,8.47576471 L19.5242353,0.240470588 C19.4204706,0.138352941 19.2887059,0.0790588235 19.1503529,0.0411764706 C19.1157647,0.0312941176 19.0844706,0.0263529412 19.0482353,0.0214117647 C19.012,0.0164705882 18.9790588,0 18.9411765,0 L0.823529412,0 C0.368941176,0 0,0.368941176 0,0.823529412 L0,37.0588235 C0,37.5134118 0.368941176,37.8823529 0.823529412,37.8823529 L27.1764706,37.8823529 C27.6310588,37.8823529 28,37.5134118 28,37.0588235 L28,9.05882353 C28,9.02258824 27.9835294,8.98964706 27.9785882,8.95341176 L27.9785882,8.95341176 Z" id="Fill-1"></path>
                <path d="M22.2352941,29.6470588 L5.76470588,29.6470588 C5.31011765,29.6470588 4.94117647,30.016 4.94117647,30.4705882 C4.94117647,30.9251765 5.31011765,31.2941176 5.76470588,31.2941176 L22.2352941,31.2941176 C22.6898824,31.2941176 23.0588235,30.9251765 23.0588235,30.4705882 C23.0588235,30.016 22.6898824,29.6470588 22.2352941,29.6470588" id="Fill-3"></path>
                <path d="M22.2352941,24.7058824 L5.76470588,24.7058824 C5.31011765,24.7058824 4.94117647,25.0748235 4.94117647,25.5294118 C4.94117647,25.984 5.31011765,26.3529412 5.76470588,26.3529412 L22.2352941,26.3529412 C22.6898824,26.3529412 23.0588235,25.984 23.0588235,25.5294118 C23.0588235,25.0748235 22.6898824,24.7058824 22.2352941,24.7058824" id="Fill-5"></path>
                <path d="M22.2352941,19.7647059 L5.76470588,19.7647059 C5.31011765,19.7647059 4.94117647,20.1336471 4.94117647,20.5882353 C4.94117647,21.0428235 5.31011765,21.4117647 5.76470588,21.4117647 L22.2352941,21.4117647 C22.6898824,21.4117647 23.0588235,21.0428235 23.0588235,20.5882353 C23.0588235,20.1336471 22.6898824,19.7647059 22.2352941,19.7647059" id="Fill-7"></path>
                <path d="M22.2352941,14.8235294 L5.76470588,14.8235294 C5.31011765,14.8235294 4.94117647,15.1924706 4.94117647,15.6470588 C4.94117647,16.1016471 5.31011765,16.4705882 5.76470588,16.4705882 L22.2352941,16.4705882 C22.6898824,16.4705882 23.0588235,16.1016471 23.0588235,15.6470588 C23.0588235,15.1924706 22.6898824,14.8235294 22.2352941,14.8235294" id="Fill-9"></path>
            </g>
        </g>
    </g>
</svg>