<?xml version="1.0" encoding="UTF-8"?>
<svg width="38px" height="37px" viewBox="0 0 38 37" version="1.1" xmlns="http://www.w3.org/2000/svg" xmlns:xlink="http://www.w3.org/1999/xlink">
    <title>E9B82D66-687C-44A7-A95C-BA08853ED8B1</title>
    <defs>
        <polygon id="path-1" points="0 0 22.1661802 0 22.1661802 22.1331 0 22.1331"></polygon>
    </defs>
    <g id="Handed-Over" stroke="none" stroke-width="1" fill="none" fill-rule="evenodd">
        <g id="Ressourcen-Presse" transform="translate(-524.000000, -1783.000000)">
            <g id="Group-14" transform="translate(524.000000, 1783.000000)">
                <path d="M34.0416667,15.8000833 L24.5416667,15.8000833 C24.1046667,15.8000833 23.75,16.15475 23.75,16.59175 C23.75,17.02875 24.1046667,17.3834167 24.5416667,17.3834167 L34.0416667,17.3834167 C34.4786667,17.3834167 34.8333333,17.02875 34.8333333,16.59175 C34.8333333,16.15475 34.4786667,15.8000833 34.0416667,15.8000833" id="Fill-1" fill="#00BECE"></path>
                <path d="M34.0416667,20.5500833 L24.5416667,20.5500833 C24.1046667,20.5500833 23.75,20.90475 23.75,21.34175 C23.75,21.77875 24.1046667,22.1334167 24.5416667,22.1334167 L34.0416667,22.1334167 C34.4786667,22.1334167 34.8333333,21.77875 34.8333333,21.34175 C34.8333333,20.90475 34.4786667,20.5500833 34.0416667,20.5500833" id="Fill-3" fill="#00BECE"></path>
                <path d="M34.8333333,26.09175 C34.8333333,25.65475 34.4786667,25.3000833 34.0416667,25.3000833 L3.95833333,25.3000833 C3.52133333,25.3000833 3.16666667,25.65475 3.16666667,26.09175 C3.16666667,26.52875 3.52133333,26.8834167 3.95833333,26.8834167 L34.0416667,26.8834167 C34.4786667,26.8834167 34.8333333,26.52875 34.8333333,26.09175" id="Fill-5" fill="#00BECE"></path>
                <path d="M3.95833333,30.0500833 C3.52133333,30.0500833 3.16666667,30.40475 3.16666667,30.84175 C3.16666667,31.27875 3.52133333,31.6334167 3.95833333,31.6334167 L30.875,31.6334167 C31.312,31.6334167 31.6666667,31.27875 31.6666667,30.84175 C31.6666667,30.40475 31.312,30.0500833 30.875,30.0500833 L3.95833333,30.0500833 Z" id="Fill-7" fill="#00BECE"></path>
                <path d="M37.2083333,11.0500833 L24.8266667,11.0500833 C24.3896667,11.0500833 24.035,11.40475 24.035,11.84175 C24.035,12.27875 24.3896667,12.6334167 24.8266667,12.6334167 L36.4166667,12.6334167 L36.4166667,28.3179167 C36.4166667,31.8915 33.5096667,34.8000833 29.9345,34.8000833 L1.58333333,34.8000833 L1.58333333,12.6334167 L8.43916667,12.6334167 C8.87616667,12.6334167 9.23083333,12.27875 9.23083333,11.84175 C9.23083333,11.40475 8.87616667,11.0500833 8.43916667,11.0500833 L0.791666667,11.0500833 C0.354666667,11.0500833 0,11.40475 0,11.84175 L0,35.59175 C0,36.02875 0.354666667,36.3834167 0.791666667,36.3834167 L29.9345,36.3834167 C34.3820833,36.3834167 38,32.7655 38,28.3179167 L38,11.84175 C38,11.40475 37.6453333,11.0500833 37.2083333,11.0500833" id="Fill-9" fill="#00BECE"></path>
                <g id="Group-13" transform="translate(6.333820, 0.000000)">
                    <mask id="mask-2" fill="white">
                        <use xlink:href="#path-1"></use>
                    </mask>
                    <g id="Clip-12"></g>
                    <path d="M17.4510135,2.0881 C18.1429302,1.39618333 19.3525968,1.39618333 20.0460968,2.0881 C20.3912635,2.43485 20.5828468,2.8956 20.5828468,3.38485 C20.5828468,3.87568333 20.3912635,4.33643333 20.0460968,4.68318333 L5.9370135,18.7922667 L2.04359684,20.0906 L3.34034684,16.1971833 L17.4510135,2.0881 Z M1.89793017,15.5179333 L0.0406801698,21.0912667 C-0.0543198302,21.3762667 0.0200968364,21.6897667 0.232263503,21.9019333 C0.38268017,22.05235 0.585346836,22.1331 0.79118017,22.1331 C0.875096836,22.1331 0.959013503,22.11885 1.04134684,22.0935167 L6.61468017,20.2362667 C6.7302635,20.1982667 6.83634684,20.1317667 6.92343017,20.0446833 L21.1655135,5.8026 C21.8099302,5.1566 22.1661802,4.29843333 22.1661802,3.38485 C22.1661802,2.47126667 21.8099302,1.6131 21.1655135,0.968683333 C19.8750968,-0.323316667 17.6204302,-0.323316667 16.3300135,0.968683333 L2.0895135,15.2091833 C2.00243017,15.2962667 1.9375135,15.40235 1.89793017,15.5179333 L1.89793017,15.5179333 Z" id="Fill-11" fill="#00BECE" mask="url(#mask-2)"></path>
                </g>
            </g>
        </g>
    </g>
</svg>