<?xml version="1.0" encoding="UTF-8"?>
<svg width="44px" height="37px" viewBox="0 0 44 37" version="1.1" xmlns="http://www.w3.org/2000/svg" xmlns:xlink="http://www.w3.org/1999/xlink">
    <title>60B7CF4F-56CF-4E2F-BAC5-91053972F7F2</title>
    <g id="Handed-Over" stroke="none" stroke-width="1" fill="none" fill-rule="evenodd">
        <g id="Ressourcen-Presse" transform="translate(-1357.000000, -1783.000000)" fill="#00BECE">
            <g id="Group-11" transform="translate(1357.000000, 1783.000000)">
                <path d="M26.24325,5.48245637 L19.2619167,8.27462303 C18.7925833,8.46162303 18.5634167,8.99695637 18.75225,9.4662897 C18.89525,9.82562303 19.2399167,10.0419564 19.6029167,10.0419564 C19.7165833,10.0419564 19.8320833,10.0217897 19.9420833,9.9777897 L26.9234167,7.18562303 C27.39275,6.9967897 27.6219167,6.4632897 27.4349167,5.99395637 C27.2460833,5.5227897 26.7089167,5.29362303 26.24325,5.48245637" id="Fill-1"></path>
                <path d="M31.1666667,20.0757897 L31.1666667,11.0942897 C33.2566667,11.519623 34.8333333,13.3712897 34.8333333,15.584123 C34.8333333,17.7987897 33.2566667,19.6504564 31.1666667,20.0757897 L31.1666667,20.0757897 Z M29.3333333,28.8977897 L16.7805,23.8762897 C16.7621667,23.8652897 16.7401667,23.861623 16.72,23.8524564 L12.8333333,22.2977897 L12.8333333,8.8722897 L29.3333333,2.2722897 L29.3333333,10.084123 L29.3333333,21.084123 L29.3333333,28.8977897 Z M17.5468333,31.8714564 C17.721,32.4544564 17.655,33.068623 17.3635,33.602123 C17.0646667,34.1502897 16.5641667,34.548123 15.917,34.735123 C15.6511667,34.823123 15.3321667,34.850623 14.9746667,34.8212897 C13.9828333,34.7259564 13.1376667,34.053123 12.8681667,33.1382897 L10.0375,23.834123 L11.7406667,23.834123 L15.5888333,25.374123 L17.5468333,31.8714564 Z M1.83333333,15.584123 C1.83333333,12.047623 4.71166667,9.16745637 8.25,9.16745637 L11,9.16745637 L11,22.0007897 L8.25,22.0007897 C4.71166667,22.0007897 1.83333333,19.1224564 1.83333333,15.584123 L1.83333333,15.584123 Z M31.1666667,9.26095637 L31.1666667,0.917456365 C31.1666667,0.613123032 31.0145,0.328956365 30.7633333,0.158456365 C30.5103333,-0.0120436347 30.1895,-0.0487103013 29.909,0.0667896987 L11.7406667,7.33412303 L8.25,7.33412303 C3.7015,7.33412303 0,11.035623 0,15.584123 C0,20.088623 3.63,23.7479564 8.11616667,23.8212897 L11.1118333,33.6644564 C11.5958333,35.307123 13.0441667,36.4767897 14.8078333,36.6472897 C14.9581667,36.660123 15.1048333,36.665623 15.2496667,36.665623 C15.6951667,36.665623 16.1076667,36.605123 16.4596667,36.4859564 C17.5431667,36.1742897 18.436,35.4629564 18.9731667,34.482123 C19.5011667,33.5159564 19.6185,32.403123 19.3013333,31.3434564 L17.765,26.2449564 L29.909,31.1032897 C30.019,31.1472897 30.1345,31.1674564 30.25,31.1674564 C30.4315,31.1674564 30.6093333,31.1142897 30.7633333,31.0097897 C31.0145,30.8392897 31.1666667,30.555123 31.1666667,30.2507897 L31.1666667,21.909123 C34.2686667,21.4599564 36.6666667,18.8089564 36.6666667,15.584123 C36.6666667,12.361123 34.2686667,9.71012303 31.1666667,9.26095637 L31.1666667,9.26095637 Z" id="Fill-3"></path>
                <path d="M43.0833333,14.6680064 L39.4166667,14.6680064 C38.9106667,14.6680064 38.5,15.078673 38.5,15.584673 C38.5,16.090673 38.9106667,16.5013397 39.4166667,16.5013397 L43.0833333,16.5013397 C43.5893333,16.5013397 44,16.090673 44,15.584673 C44,15.078673 43.5893333,14.6680064 43.0833333,14.6680064" id="Fill-5"></path>
                <path d="M37.58425,9.16800637 C37.72175,9.16800637 37.8610833,9.1368397 37.9930833,9.0708397 L41.65975,7.23750637 C42.1125833,7.01200637 42.2959167,6.46017303 42.0704167,6.0073397 C41.8430833,5.55450637 41.29125,5.3748397 40.84025,5.59850637 L37.1735833,7.4318397 C36.72075,7.6573397 36.5374167,8.20917303 36.7629167,8.66200637 C36.92425,8.9828397 37.2469167,9.16800637 37.58425,9.16800637" id="Fill-7"></path>
                <path d="M41.6599333,23.9312897 L37.9932667,22.0979564 C37.5386,21.8724564 36.9904333,22.0539564 36.7631,22.508623 C36.5376,22.9614564 36.7209333,23.5114564 37.1737667,23.7387897 L40.8404333,25.572123 C40.9724333,25.6362897 41.1117667,25.6674564 41.2492667,25.6674564 C41.5847667,25.6674564 41.9092667,25.4822897 42.0706,25.1614564 C42.2961,24.708623 42.1127667,24.158623 41.6599333,23.9312897" id="Fill-9"></path>
            </g>
        </g>
    </g>
</svg>