<?xml version="1.0" encoding="UTF-8"?>
<svg width="170px" height="170px" viewBox="0 0 170 170" version="1.1" xmlns="http://www.w3.org/2000/svg" xmlns:xlink="http://www.w3.org/1999/xlink">
    <title>icon-3</title>
    <defs>
        <radialGradient cx="14.9562965%" cy="19.5450456%" fx="14.9562965%" fy="19.5450456%" r="52.72717%" gradientTransform="translate(0.149563,0.195450),scale(0.752523,1.000000),translate(-0.149563,-0.195450)" id="radialGradient-1">
            <stop stop-color="#ECEDF7" offset="0%"></stop>
            <stop stop-color="#ECEDF7" stop-opacity="0.99" offset="20%"></stop>
            <stop stop-color="#ECEDF7" stop-opacity="0.95" offset="34%"></stop>
            <stop stop-color="#ECEDF7" stop-opacity="0.89" offset="46%"></stop>
            <stop stop-color="#ECEDF7" stop-opacity="0.81" offset="56%"></stop>
            <stop stop-color="#ECEDF7" stop-opacity="0.69" offset="66%"></stop>
            <stop stop-color="#ECEDF7" stop-opacity="0.56" offset="75%"></stop>
            <stop stop-color="#ECEDF7" stop-opacity="0.39" offset="84%"></stop>
            <stop stop-color="#ECEDF7" stop-opacity="0.21" offset="92%"></stop>
            <stop stop-color="#ECEDF7" stop-opacity="0" offset="100%"></stop>
        </radialGradient>
    </defs>
    <g id="15-Dec" stroke="none" stroke-width="1" fill="none" fill-rule="evenodd">
        <g id="-service-datenanalysen" transform="translate(-1309.000000, -1704.000000)" fill-rule="nonzero">
            <g id="icon-3" transform="translate(1309.000000, 1704.000000)">
                <circle id="Oval" fill="#ECEDF7" cx="84.81" cy="84.81" r="84.81"></circle>
                <circle id="Oval" fill="#7ABD6C" cx="85.52" cy="88.21" r="51.35"></circle>
                <path d="M131.63,110.82 C140.481997,92.7533938 137.972726,71.1822644 125.21,55.63 L85.21,88.12 L131.63,110.82 Z" id="Path" fill="#00B0A2"></path>
                <path d="M136.87,88.12 C136.820356,59.7953316 113.844712,36.86 85.52,36.86 L85.21,36.86 L85.21,88.11 L136.87,88.12 Z" id="Path" fill="#F4D917"></path>
                <path d="M25.54,126.04 L67.31,167.8 C84.3876305,171.398375 102.158994,169.652661 118.21,162.8 L55.31,99.89 L25.54,126.04 Z" id="Path" fill="url(#radialGradient-1)" style="mix-blend-mode: multiply;"></path>
                <circle id="Oval" fill="#CFD5EC" cx="40.48" cy="113.07" r="19.77"></circle>
                <path d="M31.36,109.66 C31.74,108.98 32.1,108.36 32.43,107.72 C32.4842663,107.580403 32.4655226,107.422956 32.38,107.3 C32.06,106.88 31.71,106.48 31.38,106.07 C31.1393455,105.841148 31.0198546,105.512738 31.0571751,105.182746 C31.0944957,104.852754 31.2843136,104.559325 31.57,104.39 L33.63,102.69 C33.8378214,102.405743 34.1798294,102.251737 34.5304231,102.284541 C34.8810167,102.317345 35.1885186,102.532124 35.34,102.85 C35.67,103.24 35.98,103.65 36.34,104.02 C36.4606456,104.124903 36.6241819,104.165787 36.78,104.13 C37.3802853,103.981572 37.9713084,103.797921 38.55,103.58 C38.708654,103.505654 38.8233671,103.361337 38.86,103.19 C38.95,102.65 38.97,102.11 39.05,101.57 C39.045099,101.270432 39.1747748,100.98445 39.4033445,100.790747 C39.6319142,100.597043 39.9352928,100.51603 40.23,100.57 C41.23,100.65 42.23,100.74 43.16,100.85 C43.4748263,100.839956 43.7759839,100.978833 43.9727544,101.224796 C44.1695249,101.47076 44.2389068,101.795057 44.16,102.1 C44.11,102.62 44.07,103.1 44.01,103.67 C43.9582273,103.862889 44.0688751,104.062055 44.26,104.12 C44.82,104.39 45.35,104.7 45.91,104.97 C46.0425709,105.0345 46.1974291,105.0345 46.33,104.97 C46.75,104.66 47.14,104.3 47.55,103.97 C47.7712264,103.729679 48.0916951,103.606002 48.4170122,103.635398 C48.7423293,103.664794 49.0354368,103.843915 49.21,104.12 C49.8,104.82 50.38,105.54 50.96,106.25 C51.2065348,106.475907 51.3320194,106.804899 51.2985518,107.137606 C51.2650843,107.470312 51.0765891,107.76772 50.79,107.94 C50.42,108.25 50.06,108.57 49.67,108.86 C49.469867,108.973843 49.3949222,109.225129 49.5,109.43 C49.7001436,109.983793 49.870389,110.54794 50.01,111.12 C50.0200808,111.223656 50.0712016,111.318975 50.1519728,111.384719 C50.2327441,111.450463 50.3364554,111.481171 50.44,111.47 C50.92,111.47 51.44,111.54 51.88,111.58 C52.71,111.66 53.05,112.03 52.99,112.85 C52.92,113.85 52.83,114.85 52.72,115.78 C52.6953912,116.053633 52.5592943,116.305074 52.3436642,116.475308 C52.1280341,116.645542 51.851865,116.719566 51.58,116.68 C51.05,116.68 50.52,116.61 50,116.55 C49.7627747,116.485814 49.5179271,116.623819 49.45,116.86 C49.215987,117.366598 48.9556312,117.860606 48.67,118.34 C48.4984857,118.51498 48.4984857,118.79502 48.67,118.97 C49,119.34 49.31,119.73 49.67,120.12 C49.8997689,120.328839 50.0194949,120.63256 49.9940339,120.942009 C49.9685728,121.251459 49.8008136,121.531526 49.54,121.7 C48.82,122.32 48.09,122.93 47.35,123.53 C47.1356952,123.768153 46.8202573,123.889205 46.5016486,123.855563 C46.1830398,123.821922 45.8998402,123.637659 45.74,123.36 L44.56,121.95 L42.21,122.68 L42.03,124.51 C41.96,125.2 41.59,125.58 40.91,125.51 C39.91,125.45 38.84,125.35 37.8,125.23 C37.5527922,125.214931 37.3224055,125.099753 37.1620046,124.911046 C37.0016036,124.722339 36.9250466,124.476406 36.95,124.23 C36.95,123.66 37.04,123.09 37.1,122.52 C37.1,122.3 37.1,122.17 36.87,122.05 C36.23,121.75 35.61,121.41 34.93,121.05 L33.63,122.13 C32.89,122.73 32.41,122.68 31.81,121.96 L30.12,119.9 C29.8800301,119.688628 29.7556241,119.375236 29.7852894,119.056828 C29.8149548,118.73842 29.9951131,118.453404 30.27,118.29 C30.67,117.94 31.09,117.62 31.48,117.29 C31.5770759,117.165409 31.617024,117.005616 31.59,116.85 C31.44,116.26 31.26,115.66 31.06,115.08 C30.9942533,114.93421 30.8712259,114.822038 30.72,114.77 C30.2,114.69 29.72,114.65 29.14,114.6 C28.8205934,114.611934 28.5147265,114.470463 28.3169906,114.219338 C28.1192548,113.968214 28.0534772,113.637696 28.14,113.33 C28.23,112.46 28.31,111.59 28.39,110.71 C28.47,109.83 28.84,109.46 29.77,109.53 C30.24,109.53 30.8,109.6 31.36,109.66 Z M45.62,113.15 C45.7247971,111.268741 44.7898764,109.481432 43.1848058,108.494585 C41.5797353,107.507738 39.5628589,107.48019 37.9314343,108.422831 C36.3000098,109.365473 35.3166229,111.12658 35.37,113.01 C35.4478898,115.758355 37.6786774,117.956643 40.4278793,117.994193 C43.1770812,118.031743 45.4670763,115.895202 45.62,113.15 Z" id="Shape" fill="#F7F9FD"></path>
            </g>
        </g>
    </g>
</svg>