<svg id="Work-Table" xmlns="http://www.w3.org/2000/svg" xmlns:xlink="http://www.w3.org/1999/xlink" width="25" height="20" viewBox="0 0 25 20">
  <defs>
    <linearGradient id="linear-gradient" x1="0.953" y1="0.203" x2="0.01" y2="0.82" gradientUnits="objectBoundingBox">
      <stop offset="0" stop-color="#00b5c5"/>
      <stop offset="0.497" stop-color="#00b5c5"/>
      <stop offset="1" stop-color="#00b5c5"/>
    </linearGradient>
  </defs>
  <g id="iconpro-homepage-5h" transform="translate(-1713 -6275)">
    <g id="Group-24" transform="translate(0 5347)">
      <g id="Group-13" transform="translate(0 330)">
        <g id="Group-12" transform="translate(0 366)">
          <g id="_216402_twitter_social_icon" data-name="216402_twitter_social_icon" transform="translate(1713 232)">
            <path id="Path" d="M22.07,3.168A4.86,4.86,0,0,0,24.3.382a12.163,12.163,0,0,1-3.265,1.179A4.875,4.875,0,0,0,17.339,0a5.065,5.065,0,0,0-3.671,1.477,4.843,4.843,0,0,0-1.494,3.568,3.525,3.525,0,0,0,.162,1.122A13.814,13.814,0,0,1,1.743.911a5.012,5.012,0,0,0-.708,2.529A4.869,4.869,0,0,0,3.319,7.671a5.737,5.737,0,0,1-2.285-.644A4.982,4.982,0,0,0,2.173,10.3a5.042,5.042,0,0,0,2.937,1.768,5.546,5.546,0,0,1-1.36.162,2.58,2.58,0,0,1-.922-.114,4.84,4.84,0,0,0,1.793,2.522,5.118,5.118,0,0,0,2.989,1.018,10.092,10.092,0,0,1-6.358,2.14A8.742,8.742,0,0,1,0,17.741,14.3,14.3,0,0,0,7.883,20a14.132,14.132,0,0,0,7.88-2.227,14.011,14.011,0,0,0,5.054-5.444,14.589,14.589,0,0,0,1.628-6.7V4.987A10.734,10.734,0,0,0,25,2.356,11.429,11.429,0,0,1,22.07,3.168Z" fill-rule="evenodd" fill="url(#linear-gradient)"/>
          </g>
        </g>
      </g>
    </g>
  </g>
</svg>
