<?xml version="1.0" encoding="UTF-8"?>
<svg width="25px" height="20px" viewBox="0 0 25 20" version="1.1" xmlns="http://www.w3.org/2000/svg" xmlns:xlink="http://www.w3.org/1999/xlink">
    <title>86E98545-C65C-40E4-908A-021AECDCA349</title>
    <defs>
        <linearGradient x1="95.327007%" y1="20.311087%" x2="1.01527207%" y2="82%" id="linearGradient-1">
            <stop stop-color="#458450" offset="0%"></stop>
            <stop stop-color="#509F89" offset="49.7216605%"></stop>
            <stop stop-color="#4A9299" offset="100%"></stop>
        </linearGradient>
        <linearGradient x1="95.327007%" y1="20.311087%" x2="1.01527207%" y2="82%" id="linearGradient-2">
            <stop stop-color="#FFFFFF" offset="0%"></stop>
            <stop stop-color="#FFFFFF" offset="49.7216605%"></stop>
            <stop stop-color="#FFFFFF" offset="100%"></stop>
        </linearGradient>
    </defs>
    <g id="Work-Table" stroke="none" stroke-width="1" fill="none" fill-rule="evenodd">
        <g id="iconpro-homepage-5h" transform="translate(-1713.000000, -6275.000000)" fill="url(#linearGradient-2)">
            <g id="Group-24" transform="translate(0.000000, 5347.000000)">
                <g id="Group-13" transform="translate(0.000000, 330.000000)">
                    <g id="Group-12" transform="translate(0.000000, 366.000000)">
                        <g id="216402_twitter_social_icon" transform="translate(1713.000000, 232.000000)">
                            <path d="M22.0696072,3.16827615 C23.1917671,2.48887063 23.9347814,1.56153688 24.2986501,0.382165605 C23.2070441,0.953359359 22.1196045,1.34511335 21.0335537,1.56153688 C20.057219,0.52599137 18.8211766,0 17.3393145,0 C15.8907838,0 14.6672407,0.501335525 13.6686851,1.47661119 C12.6756847,2.4587357 12.1743236,3.65180467 12.1743236,5.04485994 C12.1743236,5.46811862 12.2284873,5.84617492 12.3368146,6.16670091 C8.06482973,6.02287515 4.52891506,4.27504965 1.74295872,0.910896514 C1.27076274,1.7341278 1.03466474,2.57242655 1.03466474,3.43949045 C1.03466474,5.22156017 1.79712238,6.63379221 3.31926004,7.67070749 C2.45125271,7.59810972 1.68601744,7.38168619 1.03466474,7.02691596 C1.03466474,8.29943155 1.41381034,9.36237244 2.17349036,10.2979248 C2.935948,11.2238888 3.91506027,11.8142593 5.11082718,12.0662968 C4.67751792,12.1758784 4.22059886,12.2279296 3.75118049,12.2279296 C3.31787123,12.2279296 3.01094384,12.1923156 2.8290095,12.1142388 C3.1484362,13.151154 3.75118049,13.9921923 4.62196545,14.6359838 C5.48997278,15.2825149 6.48852842,15.6235874 7.6106883,15.6537223 C5.76079107,17.0851312 3.6456308,17.7933018 1.25270818,17.7933018 C0.666629632,17.7933018 0.251374924,17.7850832 0,17.7412506 C2.35681351,19.2507363 4.98027887,20 7.88289539,20 C10.8535637,20 13.4784179,19.2575851 15.7630132,17.7727553 C18.0476085,16.2961441 19.7336259,14.4743511 20.8168991,12.3292925 C21.9057275,10.1869735 22.4445864,7.95698925 22.4445864,5.62838162 L22.4445864,4.98732963 C23.4973057,4.20656119 24.3486473,3.32716937 25,2.35600301 C24.055608,2.75734539 23.0792734,3.02992946 22.0696072,3.16827615 Z" id="Path"></path>
                        </g>
                    </g>
                </g>
            </g>
        </g>
    </g>
</svg>