<?xml version="1.0" encoding="UTF-8"?>
<svg width="71px" height="105px" viewBox="0 0 71 105" version="1.1" xmlns="http://www.w3.org/2000/svg" xmlns:xlink="http://www.w3.org/1999/xlink">
    <title>B647062A-0BFA-4BFA-AC4D-926603BD6C94</title>
    <defs>
        <polygon id="path-1" points="0 0 70.999892 0 70.999892 104.133206 0 104.133206"></polygon>
    </defs>
    <g id="Handed-Over" stroke="none" stroke-width="1" fill="none" fill-rule="evenodd">
        <g id="Karriere" transform="translate(-930.000000, -1714.000000)">
            <g id="Group-6" transform="translate(361.000000, 1530.000000)">
                <g id="Group-19" transform="translate(487.000000, 119.000000)">
                    <g id="Group-8" transform="translate(82.000000, 65.000000)">
                        <g id="Group-3">
                            <mask id="mask-2" fill="white">
                                <use xlink:href="#path-1"></use>
                            </mask>
                            <g id="Clip-2"></g>
                            <path d="M65.6003503,40.3342375 C66.2488183,41.3448063 66.4357854,42.5423422 66.1233847,43.7043779 C65.8133507,44.8664137 65.0536492,45.8107156 63.9839136,46.3621501 C60.8859405,47.9620201 58.9878698,51.2469603 59.1488035,54.7354343 C59.2056036,55.9353368 58.7677694,57.0642391 57.9181343,57.9162409 C57.0684992,58.765876 55.9443301,59.2060769 54.7373276,59.1469102 C51.2370203,58.9528431 47.9615468,60.8816804 46.3640435,63.9820203 C45.8102423,65.0493891 44.868307,65.8114574 43.7062713,66.1214914 C42.5395022,66.4315254 41.3466997,66.2445583 40.3361309,65.598457 C38.8664278,64.6565217 37.1837243,64.1831873 35.5010208,64.1831873 C33.8183173,64.1831873 32.1332471,64.6565217 30.663544,65.598457 C29.6553419,66.246925 28.4601728,66.433892 27.2957703,66.1214914 C26.1313679,65.8114574 25.1894326,65.0493891 24.6356314,63.9820203 C23.0381281,60.8840471 19.7981547,58.9859765 16.2623473,59.1469102 C15.0671781,59.1776769 13.9335424,58.765876 13.0815406,57.9162409 C12.2319055,57.0642391 11.7940713,55.9353368 11.8508714,54.7354343 C12.0118051,51.2469603 10.1137344,47.9620201 7.01576131,46.3621501 C5.94839242,45.8107156 5.18632416,44.8664137 4.87629018,43.7043779 C4.5662562,42.5423422 4.75085659,41.3448063 5.39932461,40.3342375 C7.28319521,37.3971981 7.28319521,33.6010568 5.39932461,30.6640174 C4.75085659,29.6534486 4.5662562,28.4559127 4.87629018,27.293877 C5.18632416,26.1318412 5.94839242,25.1899059 7.01576131,24.6361048 C10.1137344,23.0362348 12.0118051,19.7512946 11.8508714,16.2628206 C11.7940713,15.0629181 12.2319055,13.9340158 13.0815406,13.082014 C13.9335424,12.2323789 15.0837448,11.8111113 16.2623473,11.8513447 C19.7247878,12.0051784 23.0357614,10.1165745 24.6356314,7.01623465 C25.1894326,5.94886575 26.1313679,5.1867975 27.2957703,4.87676352 C28.4578061,4.56436286 29.6529752,4.75132992 30.663544,5.39979794 C33.6005835,7.28603521 37.3990914,7.28603521 40.3361309,5.39979794 C41.344333,4.75132992 42.5418688,4.56436286 43.7062713,4.87676352 C44.868307,5.1867975 45.8102423,5.94886575 46.3640435,7.01623465 C47.9615468,10.1142078 51.2346536,12.0359451 54.7373276,11.8513447 C55.9277634,11.792178 57.0661325,12.2323789 57.9181343,13.082014 C58.7677694,13.9340158 59.2056036,15.0629181 59.1488035,16.2628206 C58.9878698,19.7512946 60.8859405,23.0362348 63.9839136,24.6361048 C65.0536492,25.1899059 65.8133507,26.1318412 66.1233847,27.293877 C66.4357854,28.4559127 66.2488183,29.6534486 65.6003503,30.6640174 C63.7164797,33.6010568 63.7164797,37.3971981 65.6003503,40.3342375 M69.5858253,33.2200227 C70.9419281,31.1042183 71.346629,28.4985128 70.6957943,26.0703078 C70.0449596,23.639736 68.3930228,21.5854651 66.1565181,20.4305293 C64.6962817,19.6755611 63.8016799,18.1277578 63.8774134,16.4852878 C63.9933803,13.9718825 63.0419783,11.5129107 61.2646079,9.73554033 C59.4872375,7.95816995 57.0613991,6.98783459 54.5148605,7.12273487 C52.9599572,7.19846836 51.3245872,6.30623317 50.5696189,4.84363011 C49.4146832,2.60712544 47.3604122,0.955188661 44.9298405,0.304353969 C42.5040021,-0.348847395 39.89593,0.0605867932 37.7777589,1.41432295 C36.393256,2.30182481 34.6040522,2.30182481 33.221916,1.41432295 C31.1037449,0.0605867932 28.4980395,-0.348847395 26.0698344,0.304353969 C23.6416294,0.955188661 21.5849917,2.60712544 20.430056,4.84363011 C19.6774544,6.3038665 18.1178178,7.17243498 16.4848144,7.12273487 C13.9311758,6.98310125 11.5124374,7.95816995 9.73506699,9.73554033 C7.95769661,11.5129107 7.00629463,13.9718825 7.12226154,16.4852878 C7.19799503,18.1277578 6.30339316,19.6755611 4.84315678,20.4305293 C2.60665211,21.5854651 0.954715327,23.639736 0.303880634,26.0703078 C-0.346954058,28.4985128 0.0577467872,31.1042183 1.41384962,33.2200227 C2.30371814,34.6045256 2.30371814,36.3937293 1.41384962,37.7782322 C0.0577467872,39.8940366 -0.346954058,42.4997421 0.303880634,44.9279471 C0.954715327,47.3585189 2.60665211,49.4127898 4.84315678,50.5677256 C6.30339316,51.3226938 7.19799503,52.8704971 7.12226154,54.5129671 C7.00629463,57.0263724 7.95769661,59.4853442 9.73506699,61.2627146 C11.5124374,63.040085 13.9359091,64.005687 16.4848144,63.87552 C16.5108478,63.87552 16.5392479,63.8849867 16.5652813,63.8849867 L16.5652813,101.765932 C16.5652813,102.610834 17.0149489,103.389469 17.7438837,103.81547 C18.4751852,104.236738 19.3768871,104.239104 20.105822,103.82257 L35.5010208,95.0256517 L50.8938529,103.82257 C51.2559537,104.028471 51.6630212,104.133206 52.067722,104.133206 C52.4795229,104.133206 52.8889571,104.026104 53.2557912,103.81547 C53.9870927,103.389469 54.4343937,102.610834 54.4343937,101.765932 L54.4343937,73.3658732 C54.4343937,72.0571038 53.3764914,70.9992016 52.067722,70.9992016 C50.7589526,70.9992016 49.7010504,72.0571038 49.7010504,73.3658732 L49.7010504,97.6881573 L37.8676924,90.9265765 L37.8676924,80.465888 C37.8676924,79.1594853 36.8074235,78.0992164 35.5010208,78.0992164 C34.1922514,78.0992164 33.1343492,79.1594853 33.1343492,80.465888 L33.1343492,90.9265765 L21.2986245,97.6881573 L21.2986245,67.4752275 C22.491427,69.0277641 24.1551971,70.1803332 26.0698344,70.6939009 C28.5004062,71.3471023 31.1037449,70.9376681 33.221916,69.5839319 C34.6087856,68.6964301 36.3956227,68.6964301 37.7777589,69.5839319 C39.2332619,70.5140339 40.9183321,70.9968349 42.6176023,70.9968349 C43.3915039,70.9968349 44.1701389,70.8974347 44.9298405,70.6939009 C47.3604122,70.0430662 49.4146832,68.3911295 50.5696189,66.1546248 C51.3222205,64.6943884 52.8629237,63.8329199 54.5148605,63.87552 C57.0566658,64.0009536 59.4872375,63.040085 61.2646079,61.2627146 C63.0419783,59.4853442 63.9933803,57.0263724 63.8774134,54.5129671 C63.8016799,52.8704971 64.6962817,51.3226938 66.1565181,50.5677256 C68.3930228,49.4127898 70.0449596,47.3585189 70.6957943,44.9279471 C71.346629,42.4997421 70.9419281,39.8940366 69.5858253,37.7782322 C68.6959568,36.3937293 68.6959568,34.6045256 69.5858253,33.2200227" id="Fill-1" fill="#45AFC3" mask="url(#mask-2)"></path>
                        </g>
                        <path d="M44.9390705,33.220496 C44.8680703,32.9932956 44.68347,32.8299952 44.4610028,32.7968618 L38.6342573,31.9117266 L36.0309186,26.3784484 C35.9315184,26.1678146 35.7232513,26.0329144 35.5007841,26.0329144 C35.2759503,26.0329144 35.0676832,26.1678146 34.9706497,26.3784484 L32.3649442,31.9117266 L26.5405654,32.7968618 C26.3157316,32.8299952 26.1311312,32.9932956 26.0624977,33.220496 C25.9914976,33.4453298 26.0506644,33.6914637 26.2115981,33.8571307 L30.4266402,38.1597397 L29.4302714,44.239719 C29.3947714,44.4740195 29.4823382,44.70832 29.6669386,44.845587 C29.8491723,44.9852206 30.0905728,45.004154 30.2893732,44.8929204 L35.5007841,42.0245144 L40.7098283,44.8929204 C40.7973952,44.9426205 40.8896954,44.9662872 40.9843622,44.9662872 C41.1097958,44.9662872 41.2304961,44.9260538 41.332263,44.845587 C41.5144967,44.70832 41.6067969,44.4740195 41.5665635,44.239719 L40.574928,38.1597397 L44.7876035,33.8571307 C44.9485372,33.6914637 45.007704,33.4453298 44.9390705,33.220496" id="Fill-4" fill="#45AFC3"></path>
                        <path d="M35.5000741,11.8321747 C22.4502469,11.8321747 11.8309914,22.4490635 11.8309914,35.4988908 C11.8309914,36.8076602 12.8912602,37.8655624 14.2000296,37.8655624 C15.5064324,37.8655624 16.5667013,36.8076602 16.5667013,35.4988908 C16.5667013,25.0595023 25.0606857,16.5655179 35.5000741,16.5655179 C45.9394626,16.5655179 54.433447,25.0595023 54.433447,35.4988908 C54.433447,45.9382792 45.9394626,54.4322636 35.5000741,54.4322636 C28.258059,54.4322636 21.7568121,50.4018219 18.5334054,43.9124084 C17.9535708,42.7432726 16.5359345,42.2652049 15.3596987,42.8474061 C14.190563,43.4296073 13.7101286,44.8472436 14.2946965,46.0187461 C18.3227716,54.126963 26.4499219,59.1656069 35.5000741,59.1656069 C48.5499014,59.1656069 59.1691569,48.548718 59.1691569,35.4988908 C59.1691569,22.4490635 48.5499014,11.8321747 35.5000741,11.8321747" id="Fill-6" fill="#45AFC3"></path>
                    </g>
                </g>
            </g>
        </g>
    </g>
</svg>