<?xml version="1.0" encoding="UTF-8"?>
<svg width="91px" height="94px" viewBox="0 0 91 94" version="1.1" xmlns="http://www.w3.org/2000/svg" xmlns:xlink="http://www.w3.org/1999/xlink">
    <title>D489DF39-069E-42BD-BA3F-1CF18C94792D</title>
    <defs>
        <polygon id="path-1" points="0 0 90.9166 0 90.9166 93.3839054 0 93.3839054"></polygon>
    </defs>
    <g id="Handed-Over" stroke="none" stroke-width="1" fill="none" fill-rule="evenodd">
        <g id="Karriere" transform="translate(-1351.000000, -1714.000000)">
            <g id="Group-6" transform="translate(361.000000, 1530.000000)">
                <g id="Group-3" transform="translate(990.000000, 184.000000)">
                    <mask id="mask-2" fill="white">
                        <use xlink:href="#path-1"></use>
                    </mask>
                    <g id="Clip-2"></g>
                    <path d="M75.6132273,88.9730629 L46.8845297,88.9789363 C46.3045228,88.9789363 45.7245158,88.9157964 45.1591926,88.7895164 L22.8986735,83.8675335 L22.8986735,42.0380212 L37.6969263,34.1881046 C40.7981279,32.4363368 43.2326886,29.6478985 44.552755,26.338188 L47.9065166,17.9273534 L49.5364095,5.83237347 C49.6406639,5.0188954 50.3381406,4.40511591 51.1589605,4.40511591 L55.0193104,4.40511591 C55.8283834,4.40511591 56.5082396,4.98659121 56.635988,5.7839172 L58.4743897,17.2930167 C58.740165,18.9581505 58.688772,20.6394364 58.321679,22.2869498 L54.6874584,38.5741317 L84.2252289,38.5741317 C85.4865605,38.5741317 86.5114841,39.6005237 86.5114841,40.8603868 L86.5114841,45.5826711 C86.5114841,46.8440026 85.4865605,47.8703946 84.2252289,47.8703946 L69.8381204,47.8703946 L69.8381204,52.2755106 L83.5718034,52.2755106 L83.5718034,59.2825816 C83.5718034,60.5439131 82.5468798,61.5703051 81.2855482,61.5703051 L68.1979489,61.5703051 L68.1979489,65.975421 L80.289992,65.975421 L80.289992,72.9839605 C80.289992,74.245292 79.2636,75.271684 78.0022685,75.271684 L66.5577774,75.271684 L66.5577774,79.6767999 L77.9009508,79.6767999 L77.9009508,86.6853393 C77.9009508,87.9466709 76.8745588,88.9730629 75.6132273,88.9730629 L75.6132273,88.9730629 Z M18.4935576,39.068973 L18.4935576,87.4048416 L18.4935576,87.6544648 L4.40452857,87.6544648 L4.40452857,37.2658123 L18.4935576,37.2658123 L18.4935576,39.068973 Z M84.2252289,34.1690158 L60.1835746,34.1690158 L62.6196037,23.2457967 C63.11004,21.052049 63.1775851,18.8171868 62.8237074,16.5984768 L60.9853057,5.08790888 C60.5139583,2.13941796 58.0045106,0 55.0193104,0 L51.1589605,0 C48.1297091,0 45.5541847,2.26569795 45.1665345,5.26851863 L43.7113779,16.5544256 L40.4618707,24.7053584 C39.511834,27.0870578 37.7600663,29.0928539 35.5281409,30.3541854 L22.8986735,37.0543667 L22.8986735,32.8606963 L-0.00058734879,32.8606963 L-0.00058734879,36.5477784 L-0.00058734879,37.2658123 L-0.00058734879,92.0595807 L22.8986735,92.0595807 L22.8986735,88.3783722 L44.2062192,93.0903779 C45.0813689,93.2856713 45.9829493,93.3840523 46.8859981,93.3840523 L75.6132273,93.3781788 C79.3032461,93.3781788 82.3060668,90.3753581 82.3060668,86.6853393 L82.3060668,78.0659959 C83.7538815,76.8384369 84.695108,75.0279342 84.695108,72.9839605 L84.695108,65.0092323 C86.6509794,63.8404082 87.9769193,61.7230158 87.9769193,59.2825816 L87.9769193,51.1199018 C89.7492443,49.9143684 90.9166,47.8821416 90.9166,45.5826711 L90.9166,40.8603868 C90.9166,37.1718365 87.9152477,34.1690158 84.2252289,34.1690158 L84.2252289,34.1690158 Z" id="Fill-1" fill="#45AFC3" mask="url(#mask-2)"></path>
                </g>
            </g>
        </g>
    </g>
</svg>