<?xml version="1.0" encoding="UTF-8"?>
<svg width="78px" height="126px" viewBox="0 0 78 126" version="1.1" xmlns="http://www.w3.org/2000/svg" xmlns:xlink="http://www.w3.org/1999/xlink">
    <title>09B3CF28-2BD7-4B02-9A06-F0427AA4F6E4</title>
    <defs>
        <polygon id="path-1" points="0 0 77.3549 0 77.3549 88.8155908 0 88.8155908"></polygon>
    </defs>
    <g id="Handed-Over" stroke="none" stroke-width="1" fill="none" fill-rule="evenodd">
        <g id="Karriere" transform="translate(-500.000000, -1706.000000)">
            <g id="Group-6" transform="translate(361.000000, 1530.000000)">
                <g id="Group-14" transform="translate(139.000000, 176.000000)">
                    <path d="M45.4211463,103.595583 C45.4190755,107.973275 41.4410495,115.469607 38.6785889,119.907353 C35.9119868,115.463395 31.9360316,107.969134 31.9339608,103.595583 C31.9339608,101.735996 32.6898065,100.050356 33.9115844,98.8285783 C35.1312914,97.6088712 36.8190016,96.8509548 38.6765181,96.8509548 C42.3977637,96.8530256 45.4211463,99.878479 45.4211463,103.595583 M27.7923408,103.595583 C27.7944117,110.87448 35.3570097,122.448237 36.2246791,123.750777 C36.7734438,124.568746 37.6908126,125.055387 38.6785889,125.055387 C39.4696384,125.055387 40.21513,124.742695 40.7659654,124.191859 C40.9026389,124.055186 41.0248167,123.906087 41.1345696,123.744564 C41.9980974,122.448237 49.5606954,110.87448 49.5627662,103.595583 C49.5627662,97.5964464 44.6797963,92.7114056 38.6765181,92.7114056 C32.6711692,92.7134764 27.7923408,97.5985172 27.7923408,103.595583" id="Fill-1" fill="#45AFC3"></path>
                    <g id="Group-5">
                        <mask id="mask-2" fill="white">
                            <use xlink:href="#path-1"></use>
                        </mask>
                        <g id="Clip-4"></g>
                        <path d="M73.2134871,56.9561791 L73.2134871,75.8895949 L65.640535,75.8895949 L65.640535,56.9561791 C65.640535,55.9601195 66.0443429,54.984768 66.7504891,54.2786218 C68.2249058,52.8042051 70.6291162,52.8042051 72.103533,54.2786218 C72.8096792,54.984768 73.2134871,55.9601195 73.2134871,56.9561791 L73.2134871,56.9561791 Z M54.7832782,70.0312734 C53.6401911,70.0312734 52.714539,70.9589963 52.714539,72.1020834 L52.714539,73.8187849 C52.714539,74.961872 51.7868162,75.8895949 50.6437291,75.8895949 L26.711378,75.8895949 C25.5703617,75.887524 24.640568,74.9598012 24.640568,73.8187849 L24.640568,72.1020834 C24.640568,70.9589963 23.714916,70.0312734 22.5697581,70.0312734 L15.8541213,70.0312734 L15.8541213,64.1750228 L20.4989481,59.530196 L20.4989481,63.3156366 C20.4989481,64.4607945 21.4266709,65.3864466 22.5697581,65.3864466 C23.714916,65.3864466 24.640568,64.4607945 24.640568,63.3156366 L24.640568,35.0967089 C24.640568,30.3835454 25.4336883,25.8029137 26.8853261,21.4583543 L50.4677102,21.4583543 C51.919348,25.8029137 52.7124682,30.3856162 52.714539,35.0987797 L52.714539,63.3156366 C52.714539,64.4607945 53.6401911,65.3864466 54.7832782,65.3864466 C55.3568926,65.3864466 55.8745951,65.1545159 56.2494117,64.7817701 C56.6221575,64.4069535 56.8540882,63.889251 56.8540882,63.3156366 L56.8540882,59.530196 L61.498915,64.1750228 L61.498915,70.0312734 L54.7832782,70.0312734 Z M45.7649007,82.1248037 C46.1687087,82.928278 46.4648345,83.789735 46.644995,84.6739708 L30.7101121,84.6739708 C30.8902726,83.789735 31.1863984,82.928278 31.5881355,82.1227329 L32.6359654,80.029144 L44.7191417,80.029144 L45.7649007,82.1248037 Z M11.7145721,75.887524 L4.14161997,75.887524 L4.14161997,56.9561791 C4.14161997,55.9601195 4.54542792,54.984768 5.24950332,54.2786218 C6.72599084,52.8042051 9.12813042,52.8042051 10.6046179,54.2786218 C11.3086933,54.984768 11.7145721,55.9601195 11.7145721,56.9561791 L11.7145721,75.887524 Z M40.1405808,4.74484692 C43.832835,8.43710113 46.7278274,12.7050405 48.8317703,17.3167344 L28.5233368,17.3167344 C30.6252089,12.7050405 33.5202013,8.43710113 37.2124555,4.74484692 C38.0200714,3.93723103 39.3329649,3.93723103 40.1405808,4.74484692 L40.1405808,4.74484692 Z M63.8223638,51.3504965 C62.3251682,52.8476921 61.498915,54.8398113 61.498915,56.9561791 L61.498915,58.3167013 L56.8540882,53.6739453 L56.8540882,35.0987797 C56.8540882,22.5248215 51.9607642,10.7067089 43.0687061,1.8167216 C40.6479292,-0.606126083 36.7071778,-0.606126083 34.2843302,1.8167216 C25.3943429,10.7067089 20.4989481,22.5248215 20.4989481,35.0967089 L20.4989481,53.6718745 L15.8541213,58.3167013 L15.8541213,56.9561791 C15.8541213,54.8398113 15.0299389,52.8476921 13.5327433,51.3504965 C10.4430948,48.260848 5.4110265,48.260848 2.321378,51.3504965 C0.824182375,52.8476921 0,54.8398113 0,56.9561791 L0,77.958334 C0,79.103492 0.925652064,80.029144 2.07080999,80.029144 L13.7853821,80.029144 C14.3569256,80.029144 14.8746281,79.7972133 15.2494447,79.4223967 C15.6242614,79.0496509 15.8561921,78.5319484 15.8561921,77.958334 L15.8561921,74.1728934 L20.5093021,74.1749642 C20.6936042,77.4323483 23.4063653,80.029144 26.711378,80.029144 L28.0056343,80.029144 L27.8855273,80.269358 C26.8853261,82.2697604 26.3572695,84.508306 26.3572695,86.7447808 C26.3572695,87.8878679 27.2829216,88.8155908 28.4280795,88.8155908 L48.9270276,88.8155908 C49.4985711,88.8155908 50.0162736,88.5836601 50.3910902,88.2088435 C50.7659068,87.8340269 50.9978376,87.3163244 50.9978376,86.7447808 C50.9978376,84.508306 50.469781,82.2697604 49.4695798,80.2714288 L49.347402,80.029144 L50.6437291,80.029144 C53.9487418,80.029144 56.6594321,77.4323483 56.845805,74.1749642 L61.498915,74.1728934 L61.498915,77.958334 C61.498915,79.103492 62.4266379,80.029144 63.569725,80.029144 L75.2842971,80.029144 C75.8558407,80.029144 76.3735431,79.7992841 76.7483598,79.4244675 C77.1231764,79.0496509 77.3551071,78.5319484 77.3551071,77.9604048 L77.3551071,56.9561791 C77.3551071,54.8398113 76.5288539,52.8476921 75.0316583,51.3504965 C71.9420098,48.260848 66.9120123,48.260848 63.8223638,51.3504965 L63.8223638,51.3504965 Z" id="Fill-3" fill="#45AFC3" mask="url(#mask-2)"></path>
                    </g>
                    <path d="M34.2843302,45.7450209 C31.8614825,43.3221733 31.8614825,39.3814219 34.2843302,36.9585742 C36.7071778,34.5377973 40.6479292,34.5377973 43.0707769,36.9585742 C45.4915538,39.3814219 45.4915538,43.3221733 43.0707769,45.7450209 C40.6479292,48.1678686 36.7071778,48.1678686 34.2843302,45.7450209 M45.9989023,34.0304488 C41.9608228,29.9944402 35.3922135,29.9944402 31.3562048,34.0304488 C27.3181254,38.0685283 27.3181254,44.6371376 31.3562048,48.6731463 C35.3922135,52.7112257 41.9608228,52.7112257 45.9989023,48.6731463 C50.0349109,44.6371376 50.0349109,38.0685283 45.9989023,34.0304488" id="Fill-6" fill="#45AFC3"></path>
                    <path d="M28.4274583,64.1744015 C27.2843712,64.1744015 26.3566483,65.1000536 26.3566483,66.2452115 C26.3566483,67.3882986 27.2843712,68.3160215 28.4274583,68.3160215 L48.9264063,68.3160215 C49.5000207,68.3160215 50.0177232,68.0840908 50.3925398,67.7092742 C50.7652856,67.3344576 50.9972163,66.8167551 50.9972163,66.2452115 C50.9972163,65.1021244 50.0715643,64.1744015 48.9264063,64.1744015 L28.4274583,64.1744015 Z" id="Fill-8" fill="#45AFC3"></path>
                    <path d="M67.3566152,83.8164484 L67.3566152,89.672699 C67.3566152,90.817857 68.2822673,91.743509 69.4274252,91.743509 C69.9989688,91.743509 70.5166713,91.5115783 70.8914879,91.1388325 C71.2663045,90.7640159 71.4982352,90.2463134 71.4982352,89.672699 L71.4982352,83.8164484 C71.4982352,82.6733613 70.5705123,81.7456384 69.4274252,81.7456384 C68.2822673,81.7456384 67.3566152,82.6733613 67.3566152,83.8164484" id="Fill-10" fill="#45AFC3"></path>
                    <path d="M9.39195162,91.137383 C9.76676822,90.7625663 9.99869894,90.2448638 9.99869894,89.6733203 L9.99869894,83.8149988 C9.99869894,82.6719117 9.07097607,81.7462597 7.92788896,81.7462597 C6.78273103,81.7462597 5.85707897,82.6719117 5.85707897,83.8149988 L5.85707897,89.6733203 C5.85707897,90.8164074 6.78273103,91.7441303 7.92788896,91.7441303 C8.49943251,91.7441303 9.01713501,91.5121996 9.39195162,91.137383" id="Fill-12" fill="#45AFC3"></path>
                </g>
            </g>
        </g>
    </g>
</svg>