<?xml version="1.0" encoding="UTF-8"?>
<svg width="50px" height="50px" viewBox="0 0 50 50" version="1.1" xmlns="http://www.w3.org/2000/svg" xmlns:xlink="http://www.w3.org/1999/xlink">
    <title>6FF7527B-0D6C-4A77-9DFE-CE85094CAEA7</title>
    <g id="Work-Table" stroke="none" stroke-width="1" fill="none" fill-rule="evenodd">
        <g id="Ressourcen-Vlog" transform="translate(-386.000000, -740.000000)">
            <g id="6127246_multimedia_music_play_player_video_icon" transform="translate(386.000000, 740.000000)">
                <path d="M25.9766311,19.487057 L22.6732724,17.2914445 C22.153763,16.9461176 21.4757018,16.9045142 20.9139485,17.1834986 C20.3521953,17.4624831 20,18.0157691 20,18.6190761 L20,31.3809239 C20,31.9842309 20.3521953,32.5375169 20.9139485,32.8165014 C21.4757018,33.0954858 22.153763,33.0538824 22.6732724,32.7085555 L25.9766311,30.512943 L32.2729553,26.327243 C32.7285325,26.0244735 33,25.5288254 33,24.9997976 C33,24.4707699 32.7285325,23.9751217 32.2729553,23.6723522 L25.9766311,19.487057 Z" id="Path"></path>
                <path d="M25,0 C11.1928813,0 0,11.1928813 0,25 C0,38.8071187 11.1928813,50 25,50 C38.8071187,50 50,38.8071187 50,25 C49.9846424,11.1992476 38.8007524,0.0153575751 25,0 Z M32.32605,26.3663667 L26.1536667,30.67545 L22.9153333,32.9357833 C22.4060503,33.2912895 21.7413365,33.3341194 21.1906411,33.0469112 C20.6399458,32.759703 20.2946833,32.1901076 20.2946833,31.5690167 L20.2946833,18.4309833 C20.2946833,17.8098924 20.6399458,17.240297 21.1906411,16.9530888 C21.7413365,16.6658806 22.4060503,16.7087105 22.9153333,17.0642167 L26.1536667,19.32455 L32.32605,23.6332167 C32.7726593,23.944911 33.0387831,24.4551695 33.0387831,24.9997917 C33.0387831,25.5444138 32.7726593,26.0546723 32.32605,26.3663667 Z" id="Shape" fill="#FFFFFF" fill-rule="nonzero"></path>
            </g>
        </g>
    </g>
</svg>