<svg id="Work-Table" xmlns="http://www.w3.org/2000/svg" width="35" height="26" viewBox="0 0 35 26">
  <g id="iconpro-homepage-5h" transform="translate(-1618 -6273)">
    <g id="Group-24" transform="translate(0 5347)">
      <g id="Group-13" transform="translate(0 330)">
        <g id="Group-12" transform="translate(0 366)">
          <g id="_211928_social_youtube_icon" data-name="211928_social_youtube_icon" transform="translate(1618 230)">
            <path id="Shape" d="M18.115,2.166c4.464,0,8.114.074,11.491.223h.1a3.127,3.127,0,0,1,2.871,3.324v.074l.007.074c.157,2.3.232,4.691.232,7.1h0c.007,2.41-.075,4.8-.232,7.1l-.007.075v.074a3.567,3.567,0,0,1-.916,2.444,2.657,2.657,0,0,1-1.955.907h-.109c-3.616.169-7.437.257-11.375.257H16.755c-3.951,0-7.772-.088-11.361-.25H5.285a2.642,2.642,0,0,1-1.948-.907,3.6,3.6,0,0,1-.916-2.444v-.074l-.007-.075c-.164-2.308-.239-4.7-.226-7.087v-.014c-.007-2.389.068-4.772.226-7.08l.007-.074V5.74A3.131,3.131,0,0,1,5.285,2.4h.1c3.384-.156,7.034-.223,11.5-.223h1.237m0-2.18h-1.23C12.947,0,9.078.054,5.291.223A5.288,5.288,0,0,0,.24,5.727C.069,8.15-.006,10.56,0,12.976S.062,17.8.233,20.219a5.307,5.307,0,0,0,5.052,5.524q5.619.264,11.47.257h1.476q5.855,0,11.477-.257a5.308,5.308,0,0,0,5.059-5.524q.246-3.625.232-7.25c.007-2.416-.068-4.826-.232-7.25A5.277,5.277,0,0,0,29.709.23C25.922.054,22.059,0,18.115,0Z" fill="#00b5c5" fill-rule="evenodd"/>
            <path id="Path" d="M14,20V6l10,7Z" fill="#00b5c5" fill-rule="evenodd"/>
          </g>
        </g>
      </g>
    </g>
  </g>
</svg>
