<?xml version="1.0" encoding="UTF-8"?>
<svg width="35px" height="26px" viewBox="0 0 35 26" version="1.1" xmlns="http://www.w3.org/2000/svg" xmlns:xlink="http://www.w3.org/1999/xlink">
    <title>10392D54-1D00-4A5D-B1CE-F919B53186B5</title>
    <g id="Work-Table" stroke="none" stroke-width="1" fill="none" fill-rule="evenodd">
        <g id="iconpro-homepage-5h" transform="translate(-1618.000000, -6273.000000)" fill="#FFFFFF">
            <g id="Group-24" transform="translate(0.000000, 5347.000000)">
                <g id="Group-13" transform="translate(0.000000, 330.000000)">
                    <g id="Group-12" transform="translate(0.000000, 366.000000)">
                        <g id="211928_social_youtube_icon" transform="translate(1618.000000, 230.000000)">
                            <path d="M18.1152371,2.16610258 C22.5789908,2.16610258 26.2292885,2.24056235 29.6061558,2.38948191 L29.6540061,2.38948191 L29.7018565,2.38948191 C31.2809179,2.38948191 32.5728772,3.87867743 32.5728772,5.71309555 L32.5728772,5.78755532 L32.5797129,5.8620151 C32.7369355,8.16349909 32.8121289,10.552981 32.8121289,12.9627701 L32.8121289,12.9627701 L32.8121289,12.9627701 C32.8189647,15.3725592 32.7369355,17.7620411 32.5797129,20.0635251 L32.5728772,20.1379849 L32.5728772,20.2124447 C32.5728772,21.1465764 32.2515963,22.0130174 31.6568848,22.6560791 C31.1236953,23.2382192 30.4264474,23.5631346 29.7018565,23.5631346 L29.6471703,23.5631346 L29.5924842,23.5631346 C25.9763653,23.7323614 22.1551734,23.8203593 18.2177736,23.8203593 C17.9785219,23.8203593 17.7324344,23.8203593 17.4931826,23.8203593 L17.5000184,23.8203593 L17.4931826,23.8203593 C17.2470951,23.8203593 17.0010077,23.8203593 16.7549202,23.8203593 C12.8038488,23.8203593 8.98265693,23.7323614 5.39388103,23.5699037 L5.33919492,23.5699037 L5.28450881,23.5699037 C4.55991787,23.5699037 3.86950575,23.2449883 3.33631618,22.6628482 C2.74844051,22.0197865 2.42032386,21.1533455 2.42032386,20.2192137 L2.42032386,20.144754 L2.4134881,20.0702942 C2.24942977,17.7620411 2.17423637,15.3725592 2.1879079,12.9830773 L2.1879079,12.9763083 L2.1879079,12.9695392 C2.18107213,10.5800573 2.25626553,8.19734444 2.4134881,5.88909138 L2.42032386,5.81463161 L2.42032386,5.74017183 C2.42032386,3.89898464 3.70544742,2.40302005 5.28450881,2.40302005 L5.33235916,2.40302005 L5.3802095,2.40302005 C8.7639125,2.24733142 12.4142103,2.17964072 16.8779639,2.17964072 L17.4931826,2.17964072 L18.1152371,2.17964072 M18.1152371,0 C17.9101642,0 17.7050913,0 17.5000184,0 C17.2949455,0 17.0898726,0 16.8847997,0 C12.9473998,0 9.07835762,0.0541525644 5.29134458,0.223379328 C2.50235302,0.223379328 0.239715265,2.68055194 0.239715265,5.72663369 C0.0688211744,8.14996095 -0.00637222541,10.5597501 0.000463538204,12.9763083 C-0.00637222541,15.3928664 0.0619854108,17.8026556 0.232879501,20.2192137 C0.232879501,23.2652955 2.49551726,25.7427753 5.28450881,25.7427753 C9.03050728,25.9187712 12.8516991,26 16.7549202,26 C17.0010077,26 17.2539309,26 17.5000184,26 C17.7461059,26 17.9921934,26 18.2314451,26 C22.1346661,26 25.955858,25.9187712 29.7086922,25.7427753 C32.5045195,25.7427753 34.7671573,23.2652955 34.7671573,20.2192137 C34.9312156,17.8026556 35.006409,15.3860974 34.9995733,12.9695392 C35.006409,10.552981 34.9312156,8.14319188 34.7671573,5.71986462 C34.7671573,2.67378287 32.5045195,0.230148399 29.7086922,0.230148399 C25.9216792,0.0541525644 22.0594727,0 18.1152371,0 L18.1152371,0 Z" id="Shape"></path>
                            <polygon id="Path" points="14 20 14 6 24 13"></polygon>
                        </g>
                    </g>
                </g>
            </g>
        </g>
    </g>
</svg>